%TF.GenerationSoftware,KiCad,Pcbnew,5.1.12-84ad8e8a86~92~ubuntu20.04.1*%
%TF.CreationDate,2021-12-22T16:18:44+01:00*%
%TF.ProjectId,uHoubolt_PCB_ECU,75486f75-626f-46c7-945f-5043425f4543,rev?*%
%TF.SameCoordinates,PX7270e00PY4c4b400*%
%TF.FileFunction,Legend,Top*%
%TF.FilePolarity,Positive*%
%FSLAX46Y46*%
G04 Gerber Fmt 4.6, Leading zero omitted, Abs format (unit mm)*
G04 Created by KiCad (PCBNEW 5.1.12-84ad8e8a86~92~ubuntu20.04.1) date 2021-12-22 16:18:44*
%MOMM*%
%LPD*%
G01*
G04 APERTURE LIST*
%ADD10C,0.150000*%
%ADD11C,0.200000*%
%ADD12C,0.120000*%
G04 APERTURE END LIST*
D10*
X34930952Y-17952380D02*
X34930952Y-18666666D01*
X34883333Y-18809523D01*
X34788095Y-18904761D01*
X34645238Y-18952380D01*
X34550000Y-18952380D01*
X35883333Y-18952380D02*
X35407142Y-18952380D01*
X35407142Y-17952380D01*
X36788095Y-18857142D02*
X36740476Y-18904761D01*
X36597619Y-18952380D01*
X36502380Y-18952380D01*
X36359523Y-18904761D01*
X36264285Y-18809523D01*
X36216666Y-18714285D01*
X36169047Y-18523809D01*
X36169047Y-18380952D01*
X36216666Y-18190476D01*
X36264285Y-18095238D01*
X36359523Y-18000000D01*
X36502380Y-17952380D01*
X36597619Y-17952380D01*
X36740476Y-18000000D01*
X36788095Y-18047619D01*
X37502380Y-17952380D02*
X37502380Y-18666666D01*
X37454761Y-18809523D01*
X37359523Y-18904761D01*
X37216666Y-18952380D01*
X37121428Y-18952380D01*
X38454761Y-18952380D02*
X37978571Y-18952380D01*
X37978571Y-17952380D01*
X39359523Y-18857142D02*
X39311904Y-18904761D01*
X39169047Y-18952380D01*
X39073809Y-18952380D01*
X38930952Y-18904761D01*
X38835714Y-18809523D01*
X38788095Y-18714285D01*
X38740476Y-18523809D01*
X38740476Y-18380952D01*
X38788095Y-18190476D01*
X38835714Y-18095238D01*
X38930952Y-18000000D01*
X39073809Y-17952380D01*
X39169047Y-17952380D01*
X39311904Y-18000000D01*
X39359523Y-18047619D01*
X40073809Y-17952380D02*
X40073809Y-18666666D01*
X40026190Y-18809523D01*
X39930952Y-18904761D01*
X39788095Y-18952380D01*
X39692857Y-18952380D01*
X41026190Y-18952380D02*
X40550000Y-18952380D01*
X40550000Y-17952380D01*
X41930952Y-18857142D02*
X41883333Y-18904761D01*
X41740476Y-18952380D01*
X41645238Y-18952380D01*
X41502380Y-18904761D01*
X41407142Y-18809523D01*
X41359523Y-18714285D01*
X41311904Y-18523809D01*
X41311904Y-18380952D01*
X41359523Y-18190476D01*
X41407142Y-18095238D01*
X41502380Y-18000000D01*
X41645238Y-17952380D01*
X41740476Y-17952380D01*
X41883333Y-18000000D01*
X41930952Y-18047619D01*
X42645238Y-17952380D02*
X42645238Y-18666666D01*
X42597619Y-18809523D01*
X42502380Y-18904761D01*
X42359523Y-18952380D01*
X42264285Y-18952380D01*
X43597619Y-18952380D02*
X43121428Y-18952380D01*
X43121428Y-17952380D01*
X44502380Y-18857142D02*
X44454761Y-18904761D01*
X44311904Y-18952380D01*
X44216666Y-18952380D01*
X44073809Y-18904761D01*
X43978571Y-18809523D01*
X43930952Y-18714285D01*
X43883333Y-18523809D01*
X43883333Y-18380952D01*
X43930952Y-18190476D01*
X43978571Y-18095238D01*
X44073809Y-18000000D01*
X44216666Y-17952380D01*
X44311904Y-17952380D01*
X44454761Y-18000000D01*
X44502380Y-18047619D01*
D11*
X62280952Y-27357142D02*
X62233333Y-27404761D01*
X62090476Y-27452380D01*
X61995238Y-27452380D01*
X61852380Y-27404761D01*
X61757142Y-27309523D01*
X61709523Y-27214285D01*
X61661904Y-27023809D01*
X61661904Y-26880952D01*
X61709523Y-26690476D01*
X61757142Y-26595238D01*
X61852380Y-26500000D01*
X61995238Y-26452380D01*
X62090476Y-26452380D01*
X62233333Y-26500000D01*
X62280952Y-26547619D01*
X62661904Y-27166666D02*
X63138095Y-27166666D01*
X62566666Y-27452380D02*
X62900000Y-26452380D01*
X63233333Y-27452380D01*
X63566666Y-27452380D02*
X63566666Y-26452380D01*
X64138095Y-27452380D01*
X64138095Y-26452380D01*
X65138095Y-27452380D02*
X64566666Y-27452380D01*
X64852380Y-27452380D02*
X64852380Y-26452380D01*
X64757142Y-26595238D01*
X64661904Y-26690476D01*
X64566666Y-26738095D01*
X60630952Y-7307142D02*
X60583333Y-7354761D01*
X60440476Y-7402380D01*
X60345238Y-7402380D01*
X60202380Y-7354761D01*
X60107142Y-7259523D01*
X60059523Y-7164285D01*
X60011904Y-6973809D01*
X60011904Y-6830952D01*
X60059523Y-6640476D01*
X60107142Y-6545238D01*
X60202380Y-6450000D01*
X60345238Y-6402380D01*
X60440476Y-6402380D01*
X60583333Y-6450000D01*
X60630952Y-6497619D01*
X61011904Y-7116666D02*
X61488095Y-7116666D01*
X60916666Y-7402380D02*
X61250000Y-6402380D01*
X61583333Y-7402380D01*
X61916666Y-7402380D02*
X61916666Y-6402380D01*
X62488095Y-7402380D01*
X62488095Y-6402380D01*
X62916666Y-6497619D02*
X62964285Y-6450000D01*
X63059523Y-6402380D01*
X63297619Y-6402380D01*
X63392857Y-6450000D01*
X63440476Y-6497619D01*
X63488095Y-6592857D01*
X63488095Y-6688095D01*
X63440476Y-6830952D01*
X62869047Y-7402380D01*
X63488095Y-7402380D01*
D12*
%TO.C,J1*%
X-3800000Y-16000000D02*
X0Y-16000000D01*
X-3800000Y-24000000D02*
X-3800000Y-16000000D01*
X0Y-24000000D02*
X-3800000Y-24000000D01*
D10*
X7000000Y-29000000D02*
X7000000Y-11000000D01*
X7000000Y-11000000D02*
X0Y-11000000D01*
X0Y-11000000D02*
X0Y-29000000D01*
X0Y-29000000D02*
X7000000Y-29000000D01*
D12*
%TO.C,U24*%
X35850000Y-29450000D02*
X34300000Y-29450000D01*
X34300000Y-27650000D02*
X35600000Y-27650000D01*
%TO.C,U23*%
X42950000Y-29450000D02*
X41400000Y-29450000D01*
X41400000Y-27650000D02*
X42700000Y-27650000D01*
%TO.C,U22*%
X51250000Y-13425000D02*
X51250000Y-14975000D01*
X49450000Y-14975000D02*
X49450000Y-13675000D01*
%TO.C,U21*%
X47000000Y-9400000D02*
X45450000Y-9400000D01*
X45450000Y-7600000D02*
X46750000Y-7600000D01*
%TO.C,U20*%
X29700000Y-11000000D02*
X29700000Y-9450000D01*
X31500000Y-9450000D02*
X31500000Y-10750000D01*
%TO.C,U8*%
X18500000Y-23000000D02*
X17000000Y-23000000D01*
X18500000Y-23100000D02*
X18500000Y-23000000D01*
X17000000Y-23100000D02*
X18500000Y-23100000D01*
X17000000Y-22900000D02*
X17000000Y-23100000D01*
X24500000Y-28900000D02*
X24500000Y-22900000D01*
X18500000Y-28900000D02*
X24500000Y-28900000D01*
X18500000Y-22900000D02*
X18500000Y-28900000D01*
X24500000Y-22900000D02*
X17000000Y-22900000D01*
%TO.C,R78*%
X28522500Y-21162742D02*
X28522500Y-21637258D01*
X27477500Y-21162742D02*
X27477500Y-21637258D01*
%TO.C,R77*%
X30022500Y-23662742D02*
X30022500Y-24137258D01*
X28977500Y-23662742D02*
X28977500Y-24137258D01*
D10*
%TO.C,Q3*%
X26962500Y-28650000D02*
X26962500Y-28900000D01*
X30262500Y-28650000D02*
X30262500Y-28900000D01*
X30262500Y-25600000D02*
X30262500Y-25850000D01*
X26962500Y-25600000D02*
X26962500Y-25850000D01*
X30262500Y-25600000D02*
X26962500Y-25600000D01*
X30262500Y-28900000D02*
X26962500Y-28900000D01*
D12*
%TO.C,R76*%
X7877500Y-13687258D02*
X7877500Y-13212742D01*
X8922500Y-13687258D02*
X8922500Y-13212742D01*
%TO.C,R75*%
X7327500Y-16687258D02*
X7327500Y-16212742D01*
X8372500Y-16687258D02*
X8372500Y-16212742D01*
%TO.C,R13*%
X14837258Y-26872500D02*
X14362742Y-26872500D01*
X14837258Y-25827500D02*
X14362742Y-25827500D01*
%TO.C,R12*%
X14362742Y-27327500D02*
X14837258Y-27327500D01*
X14362742Y-28372500D02*
X14837258Y-28372500D01*
%TO.C,F2*%
X11402064Y-28360000D02*
X10197936Y-28360000D01*
X11402064Y-26540000D02*
X10197936Y-26540000D01*
%TO.C,C10*%
X9988748Y-18265000D02*
X10511252Y-18265000D01*
X9988748Y-19735000D02*
X10511252Y-19735000D01*
%TO.C,R74*%
X43172500Y-5887258D02*
X43172500Y-5412742D01*
X42127500Y-5887258D02*
X42127500Y-5412742D01*
%TO.C,R11*%
X31222500Y-5987258D02*
X31222500Y-5512742D01*
X30177500Y-5987258D02*
X30177500Y-5512742D01*
%TO.C,R10*%
X55122500Y-5887258D02*
X55122500Y-5412742D01*
X54077500Y-5887258D02*
X54077500Y-5412742D01*
%TO.C,U1*%
X40610000Y-32650000D02*
X40610000Y-30200000D01*
X37390000Y-30850000D02*
X37390000Y-32650000D01*
%TO.C,R7*%
X35412742Y-34072500D02*
X35887258Y-34072500D01*
X35412742Y-33027500D02*
X35887258Y-33027500D01*
%TO.C,R2*%
X35422500Y-31537258D02*
X35422500Y-31062742D01*
X34377500Y-31537258D02*
X34377500Y-31062742D01*
%TO.C,R1*%
X35877500Y-31062742D02*
X35877500Y-31537258D01*
X36922500Y-31062742D02*
X36922500Y-31537258D01*
%TO.C,JP3*%
X41150000Y-33550000D02*
X41150000Y-30750000D01*
X41850000Y-30100000D02*
X42450000Y-30100000D01*
X43150000Y-30750000D02*
X43150000Y-33550000D01*
X42450000Y-34200000D02*
X41850000Y-34200000D01*
X43350000Y-33350000D02*
X43650000Y-33650000D01*
X43650000Y-33650000D02*
X43650000Y-33050000D01*
X43350000Y-33350000D02*
X43650000Y-33050000D01*
X41850000Y-34200000D02*
G75*
G02*
X41150000Y-33500000I0J700000D01*
G01*
X43150000Y-33500000D02*
G75*
G02*
X42450000Y-34200000I-700000J0D01*
G01*
X42450000Y-30100000D02*
G75*
G02*
X43150000Y-30800000I0J-700000D01*
G01*
X41150000Y-30800000D02*
G75*
G02*
X41850000Y-30100000I700000J0D01*
G01*
%TO.C,C2*%
X37942164Y-34510000D02*
X38157836Y-34510000D01*
X37942164Y-33790000D02*
X38157836Y-33790000D01*
%TO.C,C1*%
X40007836Y-33790000D02*
X39792164Y-33790000D01*
X40007836Y-34510000D02*
X39792164Y-34510000D01*
%TO.C,F1*%
X13297936Y-17560000D02*
X14502064Y-17560000D01*
X13297936Y-15740000D02*
X14502064Y-15740000D01*
%TO.C,R73*%
X55012742Y-14277500D02*
X55487258Y-14277500D01*
X55012742Y-15322500D02*
X55487258Y-15322500D01*
%TO.C,R72*%
X55012742Y-23277500D02*
X55487258Y-23277500D01*
X55012742Y-24322500D02*
X55487258Y-24322500D01*
%TO.C,R71*%
X55012742Y-18777500D02*
X55487258Y-18777500D01*
X55012742Y-19822500D02*
X55487258Y-19822500D01*
%TO.C,D13*%
X9900000Y-13850000D02*
X9900000Y-13750000D01*
X9300000Y-13850000D02*
X9300000Y-13750000D01*
%TO.C,J6*%
X66440000Y-7965000D02*
X64840000Y-7965000D01*
X64840000Y-7965000D02*
X64840000Y-9765000D01*
X64840000Y-9765000D02*
X63900000Y-9765000D01*
X66440000Y-16435000D02*
X64840000Y-16435000D01*
X64840000Y-16435000D02*
X64840000Y-14635000D01*
X69310000Y-9235000D02*
X69310000Y-15165000D01*
%TO.C,J5*%
X66440000Y-17415000D02*
X64840000Y-17415000D01*
X64840000Y-17415000D02*
X64840000Y-19215000D01*
X64840000Y-19215000D02*
X63900000Y-19215000D01*
X66440000Y-25885000D02*
X64840000Y-25885000D01*
X64840000Y-25885000D02*
X64840000Y-24085000D01*
X69310000Y-18685000D02*
X69310000Y-24615000D01*
%TO.C,J4*%
X60360000Y-16435000D02*
X61960000Y-16435000D01*
X61960000Y-16435000D02*
X61960000Y-14635000D01*
X61960000Y-14635000D02*
X62900000Y-14635000D01*
X60360000Y-7965000D02*
X61960000Y-7965000D01*
X61960000Y-7965000D02*
X61960000Y-9765000D01*
X57490000Y-15165000D02*
X57490000Y-9235000D01*
%TO.C,J3*%
X60360000Y-25885000D02*
X61960000Y-25885000D01*
X61960000Y-25885000D02*
X61960000Y-24085000D01*
X61960000Y-24085000D02*
X62900000Y-24085000D01*
X60360000Y-17415000D02*
X61960000Y-17415000D01*
X61960000Y-17415000D02*
X61960000Y-19215000D01*
X57490000Y-24615000D02*
X57490000Y-18685000D01*
%TO.C,U19*%
X13435584Y-36060000D02*
X13700000Y-36060000D01*
X9564416Y-36060000D02*
X9300000Y-36060000D01*
X13435584Y-30840000D02*
X13700000Y-30840000D01*
X9564416Y-30840000D02*
X7850000Y-30840000D01*
%TO.C,U18*%
X22285584Y-36060000D02*
X22550000Y-36060000D01*
X18414416Y-36060000D02*
X18150000Y-36060000D01*
X22285584Y-30840000D02*
X22550000Y-30840000D01*
X18414416Y-30840000D02*
X16700000Y-30840000D01*
%TO.C,U17*%
X38350000Y-3440000D02*
X36550000Y-3440000D01*
X36550000Y-6660000D02*
X39000000Y-6660000D01*
%TO.C,U16*%
X26400000Y-3440000D02*
X24600000Y-3440000D01*
X24600000Y-6660000D02*
X27050000Y-6660000D01*
%TO.C,U15*%
X46840000Y-30850000D02*
X46840000Y-32650000D01*
X50060000Y-32650000D02*
X50060000Y-30200000D01*
%TO.C,U14*%
X59060000Y-38500000D02*
X59060000Y-36700000D01*
X55840000Y-36700000D02*
X55840000Y-39150000D01*
%TO.C,U13*%
X49610000Y-38500000D02*
X49610000Y-36700000D01*
X46390000Y-36700000D02*
X46390000Y-39150000D01*
%TO.C,U12*%
X40160000Y-38500000D02*
X40160000Y-36700000D01*
X36940000Y-36700000D02*
X36940000Y-39150000D01*
%TO.C,U11*%
X31135584Y-36060000D02*
X31400000Y-36060000D01*
X27264416Y-36060000D02*
X27000000Y-36060000D01*
X31135584Y-30840000D02*
X31400000Y-30840000D01*
X27264416Y-30840000D02*
X25550000Y-30840000D01*
%TO.C,U10*%
X50300000Y-3440000D02*
X48500000Y-3440000D01*
X48500000Y-6660000D02*
X50950000Y-6660000D01*
%TO.C,U9*%
X56290000Y-30850000D02*
X56290000Y-32650000D01*
X59510000Y-32650000D02*
X59510000Y-30200000D01*
%TO.C,R70*%
X13662742Y-29377500D02*
X14137258Y-29377500D01*
X13662742Y-30422500D02*
X14137258Y-30422500D01*
%TO.C,R69*%
X8137258Y-30422500D02*
X7662742Y-30422500D01*
X8137258Y-29377500D02*
X7662742Y-29377500D01*
%TO.C,R68*%
X15222500Y-37462742D02*
X15222500Y-37937258D01*
X14177500Y-37462742D02*
X14177500Y-37937258D01*
%TO.C,R67*%
X7777500Y-37937258D02*
X7777500Y-37462742D01*
X8822500Y-37937258D02*
X8822500Y-37462742D01*
%TO.C,R66*%
X10662742Y-29377500D02*
X11137258Y-29377500D01*
X10662742Y-30422500D02*
X11137258Y-30422500D01*
%TO.C,R65*%
X22662742Y-29377500D02*
X23137258Y-29377500D01*
X22662742Y-30422500D02*
X23137258Y-30422500D01*
%TO.C,R64*%
X17137258Y-30422500D02*
X16662742Y-30422500D01*
X17137258Y-29377500D02*
X16662742Y-29377500D01*
%TO.C,R63*%
X24072500Y-37462742D02*
X24072500Y-37937258D01*
X23027500Y-37462742D02*
X23027500Y-37937258D01*
%TO.C,R62*%
X16627500Y-37937258D02*
X16627500Y-37462742D01*
X17672500Y-37937258D02*
X17672500Y-37462742D01*
%TO.C,R61*%
X19662742Y-29377500D02*
X20137258Y-29377500D01*
X19662742Y-30422500D02*
X20137258Y-30422500D01*
%TO.C,R60*%
X15140000Y-8477064D02*
X15140000Y-7022936D01*
X16960000Y-8477064D02*
X16960000Y-7022936D01*
%TO.C,R59*%
X18962742Y-10177500D02*
X19437258Y-10177500D01*
X18962742Y-11222500D02*
X19437258Y-11222500D01*
%TO.C,R58*%
X15962742Y-10277500D02*
X16437258Y-10277500D01*
X15962742Y-11322500D02*
X16437258Y-11322500D01*
%TO.C,R57*%
X15627500Y-4137258D02*
X15627500Y-3662742D01*
X16672500Y-4137258D02*
X16672500Y-3662742D01*
%TO.C,R56*%
X43677500Y-4887258D02*
X43677500Y-4412742D01*
X44722500Y-4887258D02*
X44722500Y-4412742D01*
%TO.C,R55*%
X41460000Y-4772936D02*
X41460000Y-6227064D01*
X39640000Y-4772936D02*
X39640000Y-6227064D01*
%TO.C,R54*%
X45227500Y-4887258D02*
X45227500Y-4412742D01*
X46272500Y-4887258D02*
X46272500Y-4412742D01*
%TO.C,R53*%
X31727500Y-4887258D02*
X31727500Y-4412742D01*
X32772500Y-4887258D02*
X32772500Y-4412742D01*
%TO.C,R52*%
X29510000Y-4772936D02*
X29510000Y-6227064D01*
X27690000Y-4772936D02*
X27690000Y-6227064D01*
%TO.C,R51*%
X33277500Y-4887258D02*
X33277500Y-4412742D01*
X34322500Y-4887258D02*
X34322500Y-4412742D01*
%TO.C,R50*%
X55012742Y-15777500D02*
X55487258Y-15777500D01*
X55012742Y-16822500D02*
X55487258Y-16822500D01*
%TO.C,R49*%
X55012742Y-24777500D02*
X55487258Y-24777500D01*
X55012742Y-25822500D02*
X55487258Y-25822500D01*
%TO.C,R48*%
X44862742Y-33027500D02*
X45337258Y-33027500D01*
X44862742Y-34072500D02*
X45337258Y-34072500D01*
%TO.C,R47*%
X43827500Y-31537258D02*
X43827500Y-31062742D01*
X44872500Y-31537258D02*
X44872500Y-31062742D01*
%TO.C,R46*%
X46372500Y-31062742D02*
X46372500Y-31537258D01*
X45327500Y-31062742D02*
X45327500Y-31537258D01*
%TO.C,R45*%
X61037258Y-36322500D02*
X60562742Y-36322500D01*
X61037258Y-35277500D02*
X60562742Y-35277500D01*
%TO.C,R44*%
X62072500Y-37812742D02*
X62072500Y-38287258D01*
X61027500Y-37812742D02*
X61027500Y-38287258D01*
%TO.C,R43*%
X59527500Y-38287258D02*
X59527500Y-37812742D01*
X60572500Y-38287258D02*
X60572500Y-37812742D01*
%TO.C,R42*%
X51587258Y-36322500D02*
X51112742Y-36322500D01*
X51587258Y-35277500D02*
X51112742Y-35277500D01*
%TO.C,R41*%
X52622500Y-37812742D02*
X52622500Y-38287258D01*
X51577500Y-37812742D02*
X51577500Y-38287258D01*
%TO.C,R40*%
X50077500Y-38287258D02*
X50077500Y-37812742D01*
X51122500Y-38287258D02*
X51122500Y-37812742D01*
%TO.C,R39*%
X42137258Y-36272500D02*
X41662742Y-36272500D01*
X42137258Y-35227500D02*
X41662742Y-35227500D01*
%TO.C,R38*%
X43172500Y-37762742D02*
X43172500Y-38237258D01*
X42127500Y-37762742D02*
X42127500Y-38237258D01*
%TO.C,R37*%
X40627500Y-38237258D02*
X40627500Y-37762742D01*
X41672500Y-38237258D02*
X41672500Y-37762742D01*
%TO.C,R36*%
X31662742Y-29377500D02*
X32137258Y-29377500D01*
X31662742Y-30422500D02*
X32137258Y-30422500D01*
%TO.C,R35*%
X26137258Y-30422500D02*
X25662742Y-30422500D01*
X26137258Y-29377500D02*
X25662742Y-29377500D01*
%TO.C,R34*%
X32922500Y-37462742D02*
X32922500Y-37937258D01*
X31877500Y-37462742D02*
X31877500Y-37937258D01*
%TO.C,R33*%
X25477500Y-37937258D02*
X25477500Y-37462742D01*
X26522500Y-37937258D02*
X26522500Y-37462742D01*
%TO.C,R32*%
X28662742Y-29377500D02*
X29137258Y-29377500D01*
X28662742Y-30422500D02*
X29137258Y-30422500D01*
%TO.C,R31*%
X8190000Y-8477064D02*
X8190000Y-7022936D01*
X10010000Y-8477064D02*
X10010000Y-7022936D01*
%TO.C,R30*%
X12012742Y-10177500D02*
X12487258Y-10177500D01*
X12012742Y-11222500D02*
X12487258Y-11222500D01*
%TO.C,R29*%
X9012742Y-10277500D02*
X9487258Y-10277500D01*
X9012742Y-11322500D02*
X9487258Y-11322500D01*
%TO.C,R28*%
X8677500Y-4137258D02*
X8677500Y-3662742D01*
X9722500Y-4137258D02*
X9722500Y-3662742D01*
%TO.C,R27*%
X55627500Y-4887258D02*
X55627500Y-4412742D01*
X56672500Y-4887258D02*
X56672500Y-4412742D01*
%TO.C,R26*%
X53410000Y-4722936D02*
X53410000Y-6177064D01*
X51590000Y-4722936D02*
X51590000Y-6177064D01*
%TO.C,R25*%
X57177500Y-4887258D02*
X57177500Y-4412742D01*
X58222500Y-4887258D02*
X58222500Y-4412742D01*
%TO.C,R24*%
X55012742Y-20277500D02*
X55487258Y-20277500D01*
X55012742Y-21322500D02*
X55487258Y-21322500D01*
%TO.C,R23*%
X54312742Y-33027500D02*
X54787258Y-33027500D01*
X54312742Y-34072500D02*
X54787258Y-34072500D01*
%TO.C,R22*%
X53277500Y-31537258D02*
X53277500Y-31062742D01*
X54322500Y-31537258D02*
X54322500Y-31062742D01*
%TO.C,R21*%
X55822500Y-31062742D02*
X55822500Y-31537258D01*
X54777500Y-31062742D02*
X54777500Y-31537258D01*
D10*
%TO.C,Q2*%
X17600000Y-6100000D02*
X17350000Y-6100000D01*
X17600000Y-9400000D02*
X17350000Y-9400000D01*
X20650000Y-9400000D02*
X20400000Y-9400000D01*
X20650000Y-6100000D02*
X20400000Y-6100000D01*
X20650000Y-9400000D02*
X20650000Y-6100000D01*
X17350000Y-9400000D02*
X17350000Y-6100000D01*
%TO.C,Q1*%
X10650000Y-6112500D02*
X10400000Y-6112500D01*
X10650000Y-9412500D02*
X10400000Y-9412500D01*
X13700000Y-9412500D02*
X13450000Y-9412500D01*
X13700000Y-6112500D02*
X13450000Y-6112500D01*
X13700000Y-9412500D02*
X13700000Y-6112500D01*
X10400000Y-9412500D02*
X10400000Y-6112500D01*
D12*
%TO.C,JP7*%
X52800000Y-33350000D02*
X53100000Y-33050000D01*
X53100000Y-33650000D02*
X53100000Y-33050000D01*
X52800000Y-33350000D02*
X53100000Y-33650000D01*
X51900000Y-34200000D02*
X51300000Y-34200000D01*
X52600000Y-30750000D02*
X52600000Y-33550000D01*
X51300000Y-30100000D02*
X51900000Y-30100000D01*
X50600000Y-33550000D02*
X50600000Y-30750000D01*
X51300000Y-34200000D02*
G75*
G02*
X50600000Y-33500000I0J700000D01*
G01*
X52600000Y-33500000D02*
G75*
G02*
X51900000Y-34200000I-700000J0D01*
G01*
X51900000Y-30100000D02*
G75*
G02*
X52600000Y-30800000I0J-700000D01*
G01*
X50600000Y-30800000D02*
G75*
G02*
X51300000Y-30100000I700000J0D01*
G01*
%TO.C,JP6*%
X53100000Y-36000000D02*
X52800000Y-36300000D01*
X52800000Y-35700000D02*
X52800000Y-36300000D01*
X53100000Y-36000000D02*
X52800000Y-35700000D01*
X54000000Y-35150000D02*
X54600000Y-35150000D01*
X53300000Y-38600000D02*
X53300000Y-35800000D01*
X54600000Y-39250000D02*
X54000000Y-39250000D01*
X55300000Y-35800000D02*
X55300000Y-38600000D01*
X54600000Y-35150000D02*
G75*
G02*
X55300000Y-35850000I0J-700000D01*
G01*
X53300000Y-35850000D02*
G75*
G02*
X54000000Y-35150000I700000J0D01*
G01*
X54000000Y-39250000D02*
G75*
G02*
X53300000Y-38550000I0J700000D01*
G01*
X55300000Y-38550000D02*
G75*
G02*
X54600000Y-39250000I-700000J0D01*
G01*
%TO.C,JP5*%
X43650000Y-36000000D02*
X43350000Y-36300000D01*
X43350000Y-35700000D02*
X43350000Y-36300000D01*
X43650000Y-36000000D02*
X43350000Y-35700000D01*
X44550000Y-35150000D02*
X45150000Y-35150000D01*
X43850000Y-38600000D02*
X43850000Y-35800000D01*
X45150000Y-39250000D02*
X44550000Y-39250000D01*
X45850000Y-35800000D02*
X45850000Y-38600000D01*
X45150000Y-35150000D02*
G75*
G02*
X45850000Y-35850000I0J-700000D01*
G01*
X43850000Y-35850000D02*
G75*
G02*
X44550000Y-35150000I700000J0D01*
G01*
X44550000Y-39250000D02*
G75*
G02*
X43850000Y-38550000I0J700000D01*
G01*
X45850000Y-38550000D02*
G75*
G02*
X45150000Y-39250000I-700000J0D01*
G01*
%TO.C,JP4*%
X34200000Y-36000000D02*
X33900000Y-36300000D01*
X33900000Y-35700000D02*
X33900000Y-36300000D01*
X34200000Y-36000000D02*
X33900000Y-35700000D01*
X35100000Y-35150000D02*
X35700000Y-35150000D01*
X34400000Y-38600000D02*
X34400000Y-35800000D01*
X35700000Y-39250000D02*
X35100000Y-39250000D01*
X36400000Y-35800000D02*
X36400000Y-38600000D01*
X35700000Y-35150000D02*
G75*
G02*
X36400000Y-35850000I0J-700000D01*
G01*
X34400000Y-35850000D02*
G75*
G02*
X35100000Y-35150000I700000J0D01*
G01*
X35100000Y-39250000D02*
G75*
G02*
X34400000Y-38550000I0J700000D01*
G01*
X36400000Y-38550000D02*
G75*
G02*
X35700000Y-39250000I-700000J0D01*
G01*
%TO.C,JP1*%
X62250000Y-33350000D02*
X62550000Y-33050000D01*
X62550000Y-33650000D02*
X62550000Y-33050000D01*
X62250000Y-33350000D02*
X62550000Y-33650000D01*
X61350000Y-34200000D02*
X60750000Y-34200000D01*
X62050000Y-30750000D02*
X62050000Y-33550000D01*
X60750000Y-30100000D02*
X61350000Y-30100000D01*
X60050000Y-33550000D02*
X60050000Y-30750000D01*
X60750000Y-34200000D02*
G75*
G02*
X60050000Y-33500000I0J700000D01*
G01*
X62050000Y-33500000D02*
G75*
G02*
X61350000Y-34200000I-700000J0D01*
G01*
X61350000Y-30100000D02*
G75*
G02*
X62050000Y-30800000I0J-700000D01*
G01*
X60050000Y-30800000D02*
G75*
G02*
X60750000Y-30100000I700000J0D01*
G01*
%TO.C,D10*%
X21350000Y-5300000D02*
X21350000Y-3300000D01*
X21350000Y-3300000D02*
X17500000Y-3300000D01*
X21350000Y-5300000D02*
X17500000Y-5300000D01*
%TO.C,D7*%
X14400000Y-5300000D02*
X14400000Y-3300000D01*
X14400000Y-3300000D02*
X10550000Y-3300000D01*
X14400000Y-5300000D02*
X10550000Y-5300000D01*
%TO.C,C61*%
X16260000Y-32842164D02*
X16260000Y-33057836D01*
X15540000Y-32842164D02*
X15540000Y-33057836D01*
%TO.C,C60*%
X25110000Y-32842164D02*
X25110000Y-33057836D01*
X24390000Y-32842164D02*
X24390000Y-33057836D01*
%TO.C,C59*%
X36742164Y-6990000D02*
X36957836Y-6990000D01*
X36742164Y-7710000D02*
X36957836Y-7710000D01*
%TO.C,C58*%
X45407836Y-7010000D02*
X45192164Y-7010000D01*
X45407836Y-6290000D02*
X45192164Y-6290000D01*
%TO.C,C57*%
X24812164Y-6990000D02*
X25027836Y-6990000D01*
X24812164Y-7710000D02*
X25027836Y-7710000D01*
%TO.C,C56*%
X33457836Y-7010000D02*
X33242164Y-7010000D01*
X33457836Y-6290000D02*
X33242164Y-6290000D01*
%TO.C,C55*%
X55109420Y-17290000D02*
X55390580Y-17290000D01*
X55109420Y-18310000D02*
X55390580Y-18310000D01*
%TO.C,C54*%
X55109420Y-26290000D02*
X55390580Y-26290000D01*
X55109420Y-27310000D02*
X55390580Y-27310000D01*
%TO.C,C53*%
X47392164Y-33790000D02*
X47607836Y-33790000D01*
X47392164Y-34510000D02*
X47607836Y-34510000D01*
%TO.C,C52*%
X49457836Y-34510000D02*
X49242164Y-34510000D01*
X49457836Y-33790000D02*
X49242164Y-33790000D01*
%TO.C,C51*%
X58507836Y-35560000D02*
X58292164Y-35560000D01*
X58507836Y-34840000D02*
X58292164Y-34840000D01*
%TO.C,C50*%
X56442164Y-34840000D02*
X56657836Y-34840000D01*
X56442164Y-35560000D02*
X56657836Y-35560000D01*
%TO.C,C49*%
X49057836Y-35560000D02*
X48842164Y-35560000D01*
X49057836Y-34840000D02*
X48842164Y-34840000D01*
%TO.C,C48*%
X46992164Y-34840000D02*
X47207836Y-34840000D01*
X46992164Y-35560000D02*
X47207836Y-35560000D01*
%TO.C,C47*%
X39607836Y-35560000D02*
X39392164Y-35560000D01*
X39607836Y-34840000D02*
X39392164Y-34840000D01*
%TO.C,C46*%
X37542164Y-34840000D02*
X37757836Y-34840000D01*
X37542164Y-35560000D02*
X37757836Y-35560000D01*
%TO.C,C45*%
X33960000Y-32842164D02*
X33960000Y-33057836D01*
X33240000Y-32842164D02*
X33240000Y-33057836D01*
%TO.C,C44*%
X48692164Y-6990000D02*
X48907836Y-6990000D01*
X48692164Y-7710000D02*
X48907836Y-7710000D01*
%TO.C,C43*%
X57357836Y-7010000D02*
X57142164Y-7010000D01*
X57357836Y-6290000D02*
X57142164Y-6290000D01*
%TO.C,C42*%
X55109420Y-21790000D02*
X55390580Y-21790000D01*
X55109420Y-22810000D02*
X55390580Y-22810000D01*
%TO.C,C41*%
X56842164Y-33790000D02*
X57057836Y-33790000D01*
X56842164Y-34510000D02*
X57057836Y-34510000D01*
%TO.C,C24*%
X58907836Y-34510000D02*
X58692164Y-34510000D01*
X58907836Y-33790000D02*
X58692164Y-33790000D01*
%TO.C,LS1*%
X19400000Y-22300000D02*
X16900000Y-22300000D01*
X26900000Y-22300000D02*
X24400000Y-22300000D01*
X24400000Y-12300000D02*
X26900000Y-12300000D01*
X19400000Y-12300000D02*
X16900000Y-12300000D01*
X16900000Y-22300000D02*
X16900000Y-12300000D01*
X26900000Y-12300000D02*
X26900000Y-22300000D01*
%TO.C,C30*%
X29742164Y-16490000D02*
X29957836Y-16490000D01*
X29742164Y-17210000D02*
X29957836Y-17210000D01*
%TO.C,X1*%
X24380000Y-11700000D02*
X24380000Y-11940000D01*
X25120000Y-11700000D02*
X24380000Y-11700000D01*
X22050000Y-8100000D02*
X22580000Y-8100000D01*
X22050000Y-11700000D02*
X22050000Y-8100000D01*
X22580000Y-11700000D02*
X22050000Y-11700000D01*
X22580000Y-11940000D02*
X22580000Y-11700000D01*
X24380000Y-8100000D02*
X25120000Y-8100000D01*
X27450000Y-11700000D02*
X26920000Y-11700000D01*
X27450000Y-8100000D02*
X27450000Y-11700000D01*
X26920000Y-8100000D02*
X27450000Y-8100000D01*
%TO.C,U7*%
X50765000Y-19640000D02*
X50090000Y-19640000D01*
X53310000Y-22860000D02*
X53310000Y-22685000D01*
X52635000Y-22860000D02*
X53310000Y-22860000D01*
X50090000Y-22860000D02*
X50090000Y-22685000D01*
X50765000Y-22860000D02*
X50090000Y-22860000D01*
X53310000Y-19640000D02*
X53310000Y-19815000D01*
X52635000Y-19640000D02*
X53310000Y-19640000D01*
%TO.C,U6*%
X46135000Y-11490000D02*
X46135000Y-10150000D01*
X46610000Y-11490000D02*
X46135000Y-11490000D01*
X46610000Y-11965000D02*
X46610000Y-11490000D01*
X46610000Y-25710000D02*
X46135000Y-25710000D01*
X46610000Y-25235000D02*
X46610000Y-25710000D01*
X32390000Y-11490000D02*
X32865000Y-11490000D01*
X32390000Y-11965000D02*
X32390000Y-11490000D01*
X32390000Y-25710000D02*
X32865000Y-25710000D01*
X32390000Y-25235000D02*
X32390000Y-25710000D01*
%TO.C,U5*%
X54560000Y-8140000D02*
X54560000Y-8290000D01*
X51440000Y-11260000D02*
X51440000Y-11110000D01*
X53000000Y-8140000D02*
X54560000Y-8140000D01*
X51440000Y-11260000D02*
X54560000Y-11260000D01*
X54560000Y-11260000D02*
X54560000Y-11110000D01*
%TO.C,U4*%
X67460000Y-28040000D02*
X67460000Y-28190000D01*
X64340000Y-31160000D02*
X64340000Y-31010000D01*
X65900000Y-28040000D02*
X67460000Y-28040000D01*
X64340000Y-31160000D02*
X67460000Y-31160000D01*
X67460000Y-31160000D02*
X67460000Y-31010000D01*
%TO.C,U3*%
X14060000Y-15280000D02*
X12600000Y-15280000D01*
X14060000Y-12120000D02*
X11900000Y-12120000D01*
X14060000Y-12120000D02*
X14060000Y-13050000D01*
X14060000Y-15280000D02*
X14060000Y-14350000D01*
%TO.C,U2*%
X11300000Y-21955000D02*
X11300000Y-21480000D01*
X8080000Y-24700000D02*
X8555000Y-24700000D01*
X8080000Y-24225000D02*
X8080000Y-24700000D01*
X8080000Y-21480000D02*
X8555000Y-21480000D01*
X8080000Y-21955000D02*
X8080000Y-21480000D01*
X11300000Y-24700000D02*
X10825000Y-24700000D01*
X11300000Y-24225000D02*
X11300000Y-24700000D01*
%TO.C,R20*%
X51922500Y-25187258D02*
X51922500Y-24712742D01*
X50877500Y-25187258D02*
X50877500Y-24712742D01*
%TO.C,R19*%
X53422500Y-25187258D02*
X53422500Y-24712742D01*
X52377500Y-25187258D02*
X52377500Y-24712742D01*
%TO.C,R18*%
X55377500Y-9462742D02*
X55377500Y-9937258D01*
X56422500Y-9462742D02*
X56422500Y-9937258D01*
%TO.C,R17*%
X68277500Y-29362742D02*
X68277500Y-29837258D01*
X69322500Y-29362742D02*
X69322500Y-29837258D01*
%TO.C,R16*%
X55487258Y-12677500D02*
X55012742Y-12677500D01*
X55487258Y-13722500D02*
X55012742Y-13722500D01*
%TO.C,R15*%
X9862742Y-17722500D02*
X10337258Y-17722500D01*
X9862742Y-16677500D02*
X10337258Y-16677500D01*
%TO.C,R14*%
X10337258Y-15177500D02*
X9862742Y-15177500D01*
X10337258Y-16222500D02*
X9862742Y-16222500D01*
%TO.C,R9*%
X4662742Y-31922500D02*
X5137258Y-31922500D01*
X4662742Y-30877500D02*
X5137258Y-30877500D01*
%TO.C,R8*%
X1662742Y-31922500D02*
X2137258Y-31922500D01*
X1662742Y-30877500D02*
X2137258Y-30877500D01*
%TO.C,R6*%
X1662742Y-30422500D02*
X2137258Y-30422500D01*
X1662742Y-29377500D02*
X2137258Y-29377500D01*
%TO.C,R5*%
X4662742Y-9122500D02*
X5137258Y-9122500D01*
X4662742Y-8077500D02*
X5137258Y-8077500D01*
%TO.C,R4*%
X1662742Y-9122500D02*
X2137258Y-9122500D01*
X1662742Y-8077500D02*
X2137258Y-8077500D01*
%TO.C,R3*%
X1662742Y-10622500D02*
X2137258Y-10622500D01*
X1662742Y-9577500D02*
X2137258Y-9577500D01*
D10*
%TO.C,L2*%
X13400000Y-25050000D02*
X14600000Y-25050000D01*
X13400000Y-21050000D02*
X14600000Y-21050000D01*
D12*
%TO.C,C40*%
X52440000Y-18442164D02*
X52440000Y-18657836D01*
X53160000Y-18442164D02*
X53160000Y-18657836D01*
%TO.C,C39*%
X49090000Y-19442164D02*
X49090000Y-19657836D01*
X49810000Y-19442164D02*
X49810000Y-19657836D01*
%TO.C,C38*%
X26340000Y-24342164D02*
X26340000Y-24557836D01*
X27060000Y-24342164D02*
X27060000Y-24557836D01*
%TO.C,C37*%
X50792164Y-19360000D02*
X51007836Y-19360000D01*
X50792164Y-18640000D02*
X51007836Y-18640000D01*
%TO.C,C36*%
X50659420Y-18260000D02*
X50940580Y-18260000D01*
X50659420Y-17240000D02*
X50940580Y-17240000D01*
%TO.C,C35*%
X36407836Y-9040000D02*
X36192164Y-9040000D01*
X36407836Y-9760000D02*
X36192164Y-9760000D01*
%TO.C,C34*%
X49060000Y-12907836D02*
X49060000Y-12692164D01*
X48340000Y-12907836D02*
X48340000Y-12692164D01*
%TO.C,C33*%
X49060000Y-24607836D02*
X49060000Y-24392164D01*
X48340000Y-24607836D02*
X48340000Y-24392164D01*
%TO.C,C32*%
X39092164Y-28160000D02*
X39307836Y-28160000D01*
X39092164Y-27440000D02*
X39307836Y-27440000D01*
%TO.C,C31*%
X31792164Y-26760000D02*
X32007836Y-26760000D01*
X31792164Y-26040000D02*
X32007836Y-26040000D01*
%TO.C,C29*%
X29159420Y-16160000D02*
X29440580Y-16160000D01*
X29159420Y-15140000D02*
X29440580Y-15140000D01*
%TO.C,C28*%
X29159420Y-19510000D02*
X29440580Y-19510000D01*
X29159420Y-18490000D02*
X29440580Y-18490000D01*
%TO.C,C27*%
X50760000Y-9757836D02*
X50760000Y-9542164D01*
X50040000Y-9757836D02*
X50040000Y-9542164D01*
%TO.C,C26*%
X63660000Y-29657836D02*
X63660000Y-29442164D01*
X62940000Y-29657836D02*
X62940000Y-29442164D01*
%TO.C,C25*%
X29742164Y-18160000D02*
X29957836Y-18160000D01*
X29742164Y-17440000D02*
X29957836Y-17440000D01*
%TO.C,C23*%
X21090000Y-9492164D02*
X21090000Y-9707836D01*
X21810000Y-9492164D02*
X21810000Y-9707836D01*
%TO.C,C22*%
X54207836Y-11590000D02*
X53992164Y-11590000D01*
X54207836Y-12310000D02*
X53992164Y-12310000D01*
%TO.C,C21*%
X67057836Y-31490000D02*
X66842164Y-31490000D01*
X67057836Y-32210000D02*
X66842164Y-32210000D01*
%TO.C,C20*%
X10290000Y-13309420D02*
X10290000Y-13590580D01*
X11310000Y-13309420D02*
X11310000Y-13590580D01*
%TO.C,C19*%
X14790580Y-18040000D02*
X14509420Y-18040000D01*
X14790580Y-19060000D02*
X14509420Y-19060000D01*
%TO.C,C18*%
X14790580Y-19540000D02*
X14509420Y-19540000D01*
X14790580Y-20560000D02*
X14509420Y-20560000D01*
%TO.C,C17*%
X9842164Y-26110000D02*
X10057836Y-26110000D01*
X9842164Y-25390000D02*
X10057836Y-25390000D01*
%TO.C,C16*%
X15240000Y-13309420D02*
X15240000Y-13590580D01*
X16260000Y-13309420D02*
X16260000Y-13590580D01*
%TO.C,C12*%
X10092164Y-20860000D02*
X10307836Y-20860000D01*
X10092164Y-20140000D02*
X10307836Y-20140000D01*
%TD*%
M02*
