%TF.GenerationSoftware,KiCad,Pcbnew,5.1.12-84ad8e8a86~92~ubuntu20.04.1*%
%TF.CreationDate,2021-12-22T22:50:22+01:00*%
%TF.ProjectId,uHoubolt_PCB_ECU,75486f75-626f-46c7-945f-5043425f4543,rev?*%
%TF.SameCoordinates,PX7270e00PY4c4b400*%
%TF.FileFunction,Legend,Bot*%
%TF.FilePolarity,Positive*%
%FSLAX46Y46*%
G04 Gerber Fmt 4.6, Leading zero omitted, Abs format (unit mm)*
G04 Created by KiCad (PCBNEW 5.1.12-84ad8e8a86~92~ubuntu20.04.1) date 2021-12-22 22:50:22*
%MOMM*%
%LPD*%
G01*
G04 APERTURE LIST*
%ADD10C,0.100000*%
%ADD11C,0.300000*%
%ADD12C,0.120000*%
%ADD13C,0.500000*%
%ADD14C,0.010000*%
%ADD15C,0.150000*%
G04 APERTURE END LIST*
D10*
G36*
X69650000Y-32350000D02*
G01*
X63050000Y-32350000D01*
X63050000Y-28900000D01*
X69650000Y-28900000D01*
X69650000Y-32350000D01*
G37*
X69650000Y-32350000D02*
X63050000Y-32350000D01*
X63050000Y-28900000D01*
X69650000Y-28900000D01*
X69650000Y-32350000D01*
D11*
X33740714Y-16000000D02*
X33855000Y-15942857D01*
X34026428Y-15942857D01*
X34197857Y-16000000D01*
X34312142Y-16114285D01*
X34369285Y-16228571D01*
X34426428Y-16457142D01*
X34426428Y-16628571D01*
X34369285Y-16857142D01*
X34312142Y-16971428D01*
X34197857Y-17085714D01*
X34026428Y-17142857D01*
X33912142Y-17142857D01*
X33740714Y-17085714D01*
X33683571Y-17028571D01*
X33683571Y-16628571D01*
X33912142Y-16628571D01*
X33169285Y-17142857D02*
X33169285Y-15942857D01*
X32483571Y-17142857D01*
X32483571Y-15942857D01*
X31912142Y-17142857D02*
X31912142Y-15942857D01*
X31626428Y-15942857D01*
X31455000Y-16000000D01*
X31340714Y-16114285D01*
X31283571Y-16228571D01*
X31226428Y-16457142D01*
X31226428Y-16628571D01*
X31283571Y-16857142D01*
X31340714Y-16971428D01*
X31455000Y-17085714D01*
X31626428Y-17142857D01*
X31912142Y-17142857D01*
X33740714Y-14892857D02*
X34426428Y-14892857D01*
X34083571Y-14892857D02*
X34083571Y-13692857D01*
X34197857Y-13864285D01*
X34312142Y-13978571D01*
X34426428Y-14035714D01*
X33283571Y-13807142D02*
X33226428Y-13750000D01*
X33112142Y-13692857D01*
X32826428Y-13692857D01*
X32712142Y-13750000D01*
X32655000Y-13807142D01*
X32597857Y-13921428D01*
X32597857Y-14035714D01*
X32655000Y-14207142D01*
X33340714Y-14892857D01*
X32597857Y-14892857D01*
X32255000Y-13692857D02*
X31855000Y-14892857D01*
X31455000Y-13692857D01*
X34540714Y-11342857D02*
X34140714Y-12542857D01*
X33740714Y-11342857D01*
X33397857Y-12485714D02*
X33226428Y-12542857D01*
X32940714Y-12542857D01*
X32826428Y-12485714D01*
X32769285Y-12428571D01*
X32712142Y-12314285D01*
X32712142Y-12200000D01*
X32769285Y-12085714D01*
X32826428Y-12028571D01*
X32940714Y-11971428D01*
X33169285Y-11914285D01*
X33283571Y-11857142D01*
X33340714Y-11800000D01*
X33397857Y-11685714D01*
X33397857Y-11571428D01*
X33340714Y-11457142D01*
X33283571Y-11400000D01*
X33169285Y-11342857D01*
X32883571Y-11342857D01*
X32712142Y-11400000D01*
D12*
X52500000Y-16400000D02*
X59900000Y-16400000D01*
X52500000Y-14100000D02*
X52500000Y-16400000D01*
X45950000Y-14100000D02*
X52500000Y-14100000D01*
X45950000Y-10600000D02*
X45950000Y-14100000D01*
X59900000Y-10600000D02*
X45950000Y-10600000D01*
X59900000Y-16400000D02*
X59900000Y-10600000D01*
X60700000Y0D02*
X24500000Y0D01*
X41500000Y-10250000D02*
X60700000Y-10250000D01*
X41500000Y-18000000D02*
X41500000Y-10250000D01*
X30800000Y-18000000D02*
X41500000Y-18000000D01*
X30800000Y-10250000D02*
X30800000Y-18000000D01*
X24500000Y-10250000D02*
X30800000Y-10250000D01*
X24500000Y0D02*
X24500000Y-10250000D01*
X60700000Y0D02*
X60700000Y-10250000D01*
X8750000Y0D02*
X22650000Y0D01*
X20650000Y-9050000D02*
X20650000Y-11200000D01*
X22650000Y-9050000D02*
X20650000Y-9050000D01*
X22650000Y0D02*
X22650000Y-9050000D01*
X10750000Y-11200000D02*
X20650000Y-11200000D01*
X10750000Y-9050000D02*
X10750000Y-11200000D01*
X8750000Y-9050000D02*
X10750000Y-9050000D01*
X8750000Y0D02*
X8750000Y-9050000D01*
X7250000Y-40000000D02*
X33450000Y-40000000D01*
X7250000Y-28950000D02*
X7250000Y-40000000D01*
X33450000Y-28950000D02*
X7250000Y-28950000D01*
X33450000Y-40000000D02*
X33450000Y-28950000D01*
X30400000Y-11550000D02*
X30400000Y-28450000D01*
X11550000Y-11550000D02*
X30400000Y-11550000D01*
X11550000Y-28450000D02*
X11550000Y-11550000D01*
X30400000Y-28450000D02*
X11550000Y-28450000D01*
X70000000Y-28450000D02*
X70000000Y-7500000D01*
X62450000Y-40000000D02*
X34100000Y-40000000D01*
D11*
X52771428Y-12728571D02*
X52771428Y-11228571D01*
X52414285Y-11228571D01*
X52200000Y-11300000D01*
X52057142Y-11442857D01*
X51985714Y-11585714D01*
X51914285Y-11871428D01*
X51914285Y-12085714D01*
X51985714Y-12371428D01*
X52057142Y-12514285D01*
X52200000Y-12657142D01*
X52414285Y-12728571D01*
X52771428Y-12728571D01*
X50700000Y-12657142D02*
X50842857Y-12728571D01*
X51128571Y-12728571D01*
X51271428Y-12657142D01*
X51342857Y-12514285D01*
X51342857Y-11942857D01*
X51271428Y-11800000D01*
X51128571Y-11728571D01*
X50842857Y-11728571D01*
X50700000Y-11800000D01*
X50628571Y-11942857D01*
X50628571Y-12085714D01*
X51342857Y-12228571D01*
X49985714Y-12728571D02*
X49985714Y-11228571D01*
X49985714Y-11800000D02*
X49842857Y-11728571D01*
X49557142Y-11728571D01*
X49414285Y-11800000D01*
X49342857Y-11871428D01*
X49271428Y-12014285D01*
X49271428Y-12442857D01*
X49342857Y-12585714D01*
X49414285Y-12657142D01*
X49557142Y-12728571D01*
X49842857Y-12728571D01*
X49985714Y-12657142D01*
X47985714Y-11728571D02*
X47985714Y-12728571D01*
X48628571Y-11728571D02*
X48628571Y-12514285D01*
X48557142Y-12657142D01*
X48414285Y-12728571D01*
X48200000Y-12728571D01*
X48057142Y-12657142D01*
X47985714Y-12585714D01*
X46628571Y-11728571D02*
X46628571Y-12942857D01*
X46700000Y-13085714D01*
X46771428Y-13157142D01*
X46914285Y-13228571D01*
X47128571Y-13228571D01*
X47271428Y-13157142D01*
X46628571Y-12657142D02*
X46771428Y-12728571D01*
X47057142Y-12728571D01*
X47200000Y-12657142D01*
X47271428Y-12585714D01*
X47342857Y-12442857D01*
X47342857Y-12014285D01*
X47271428Y-11871428D01*
X47200000Y-11800000D01*
X47057142Y-11728571D01*
X46771428Y-11728571D01*
X46628571Y-11800000D01*
D12*
X52450000Y-19800000D02*
X59900000Y-19800000D01*
X52450000Y-22300000D02*
X52450000Y-19800000D01*
X54700000Y-22300000D02*
X52450000Y-22300000D01*
X54700000Y-26200000D02*
X54700000Y-22300000D01*
X59900000Y-26200000D02*
X54700000Y-26250000D01*
X59900000Y-19800000D02*
X59900000Y-26200000D01*
X63000000Y-7500000D02*
X70000000Y-7500000D01*
X63050000Y-10800000D02*
X63000000Y-7500000D01*
X60700000Y-10800000D02*
X63050000Y-10800000D01*
X60700000Y-25100000D02*
X60700000Y-10800000D01*
X63050000Y-25100000D02*
X60700000Y-25100000D01*
X63050000Y-28450000D02*
X63050000Y-25100000D01*
X70000000Y-28450000D02*
X63050000Y-28450000D01*
X34100000Y-26800000D02*
X34100000Y-40000000D01*
X43050000Y-26800000D02*
X34100000Y-26800000D01*
X43050000Y-24050000D02*
X43050000Y-26800000D01*
X53500000Y-24050000D02*
X43050000Y-24050000D01*
X53500000Y-26800000D02*
X53500000Y-24050000D01*
X62450000Y-26800000D02*
X53500000Y-26800000D01*
X62450000Y-40000000D02*
X62450000Y-26800000D01*
D11*
X59450000Y-21657142D02*
X59235714Y-21728571D01*
X58878571Y-21728571D01*
X58735714Y-21657142D01*
X58664285Y-21585714D01*
X58592857Y-21442857D01*
X58592857Y-21300000D01*
X58664285Y-21157142D01*
X58735714Y-21085714D01*
X58878571Y-21014285D01*
X59164285Y-20942857D01*
X59307142Y-20871428D01*
X59378571Y-20800000D01*
X59450000Y-20657142D01*
X59450000Y-20514285D01*
X59378571Y-20371428D01*
X59307142Y-20300000D01*
X59164285Y-20228571D01*
X58807142Y-20228571D01*
X58592857Y-20300000D01*
X58164285Y-20728571D02*
X57592857Y-20728571D01*
X57950000Y-20228571D02*
X57950000Y-21514285D01*
X57878571Y-21657142D01*
X57735714Y-21728571D01*
X57592857Y-21728571D01*
X56450000Y-21728571D02*
X56450000Y-20942857D01*
X56521428Y-20800000D01*
X56664285Y-20728571D01*
X56950000Y-20728571D01*
X57092857Y-20800000D01*
X56450000Y-21657142D02*
X56592857Y-21728571D01*
X56950000Y-21728571D01*
X57092857Y-21657142D01*
X57164285Y-21514285D01*
X57164285Y-21371428D01*
X57092857Y-21228571D01*
X56950000Y-21157142D01*
X56592857Y-21157142D01*
X56450000Y-21085714D01*
X55950000Y-20728571D02*
X55378571Y-20728571D01*
X55735714Y-20228571D02*
X55735714Y-21514285D01*
X55664285Y-21657142D01*
X55521428Y-21728571D01*
X55378571Y-21728571D01*
X54235714Y-20728571D02*
X54235714Y-21728571D01*
X54878571Y-20728571D02*
X54878571Y-21514285D01*
X54807142Y-21657142D01*
X54664285Y-21728571D01*
X54450000Y-21728571D01*
X54307142Y-21657142D01*
X54235714Y-21585714D01*
X53592857Y-21657142D02*
X53450000Y-21728571D01*
X53164285Y-21728571D01*
X53021428Y-21657142D01*
X52950000Y-21514285D01*
X52950000Y-21442857D01*
X53021428Y-21300000D01*
X53164285Y-21228571D01*
X53378571Y-21228571D01*
X53521428Y-21157142D01*
X53592857Y-21014285D01*
X53592857Y-20942857D01*
X53521428Y-20800000D01*
X53378571Y-20728571D01*
X53164285Y-20728571D01*
X53021428Y-20800000D01*
X61021428Y-32378571D02*
X60878571Y-32378571D01*
X60735714Y-32450000D01*
X60664285Y-32521428D01*
X60592857Y-32664285D01*
X60521428Y-32950000D01*
X60521428Y-33307142D01*
X60592857Y-33592857D01*
X60664285Y-33735714D01*
X60735714Y-33807142D01*
X60878571Y-33878571D01*
X61021428Y-33878571D01*
X61164285Y-33807142D01*
X61235714Y-33735714D01*
X61307142Y-33592857D01*
X61378571Y-33307142D01*
X61378571Y-32950000D01*
X61307142Y-32664285D01*
X61235714Y-32521428D01*
X61164285Y-32450000D01*
X61021428Y-32378571D01*
X35742857Y-24678571D02*
X35385714Y-25678571D01*
X35028571Y-24678571D01*
X33671428Y-25678571D02*
X34528571Y-25678571D01*
X34100000Y-25678571D02*
X34100000Y-24178571D01*
X34242857Y-24392857D01*
X34385714Y-24535714D01*
X34528571Y-24607142D01*
X33028571Y-25535714D02*
X32957142Y-25607142D01*
X33028571Y-25678571D01*
X33100000Y-25607142D01*
X33028571Y-25535714D01*
X33028571Y-25678571D01*
X32028571Y-24178571D02*
X31885714Y-24178571D01*
X31742857Y-24250000D01*
X31671428Y-24321428D01*
X31600000Y-24464285D01*
X31528571Y-24750000D01*
X31528571Y-25107142D01*
X31600000Y-25392857D01*
X31671428Y-25535714D01*
X31742857Y-25607142D01*
X31885714Y-25678571D01*
X32028571Y-25678571D01*
X32171428Y-25607142D01*
X32242857Y-25535714D01*
X32314285Y-25392857D01*
X32385714Y-25107142D01*
X32385714Y-24750000D01*
X32314285Y-24464285D01*
X32242857Y-24321428D01*
X32171428Y-24250000D01*
X32028571Y-24178571D01*
D13*
X41726190Y-24557142D02*
X41059523Y-24557142D01*
X40773809Y-25604761D02*
X41726190Y-25604761D01*
X41726190Y-23604761D01*
X40773809Y-23604761D01*
X38773809Y-25414285D02*
X38869047Y-25509523D01*
X39154761Y-25604761D01*
X39345238Y-25604761D01*
X39630952Y-25509523D01*
X39821428Y-25319047D01*
X39916666Y-25128571D01*
X40011904Y-24747619D01*
X40011904Y-24461904D01*
X39916666Y-24080952D01*
X39821428Y-23890476D01*
X39630952Y-23700000D01*
X39345238Y-23604761D01*
X39154761Y-23604761D01*
X38869047Y-23700000D01*
X38773809Y-23795238D01*
X37916666Y-23604761D02*
X37916666Y-25223809D01*
X37821428Y-25414285D01*
X37726190Y-25509523D01*
X37535714Y-25604761D01*
X37154761Y-25604761D01*
X36964285Y-25509523D01*
X36869047Y-25414285D01*
X36773809Y-25223809D01*
X36773809Y-23604761D01*
D11*
X27378571Y-27735714D02*
X27450000Y-27807142D01*
X27664285Y-27878571D01*
X27807142Y-27878571D01*
X28021428Y-27807142D01*
X28164285Y-27664285D01*
X28235714Y-27521428D01*
X28307142Y-27235714D01*
X28307142Y-27021428D01*
X28235714Y-26735714D01*
X28164285Y-26592857D01*
X28021428Y-26450000D01*
X27807142Y-26378571D01*
X27664285Y-26378571D01*
X27450000Y-26450000D01*
X27378571Y-26521428D01*
X26807142Y-27450000D02*
X26092857Y-27450000D01*
X26950000Y-27878571D02*
X26450000Y-26378571D01*
X25950000Y-27878571D01*
X25450000Y-27878571D02*
X25450000Y-26378571D01*
X24592857Y-27878571D01*
X24592857Y-26378571D01*
X23092857Y-27878571D02*
X23950000Y-27878571D01*
X23521428Y-27878571D02*
X23521428Y-26378571D01*
X23664285Y-26592857D01*
X23807142Y-26735714D01*
X23950000Y-26807142D01*
X17928571Y-27735714D02*
X18000000Y-27807142D01*
X18214285Y-27878571D01*
X18357142Y-27878571D01*
X18571428Y-27807142D01*
X18714285Y-27664285D01*
X18785714Y-27521428D01*
X18857142Y-27235714D01*
X18857142Y-27021428D01*
X18785714Y-26735714D01*
X18714285Y-26592857D01*
X18571428Y-26450000D01*
X18357142Y-26378571D01*
X18214285Y-26378571D01*
X18000000Y-26450000D01*
X17928571Y-26521428D01*
X17357142Y-27450000D02*
X16642857Y-27450000D01*
X17500000Y-27878571D02*
X17000000Y-26378571D01*
X16500000Y-27878571D01*
X16000000Y-27878571D02*
X16000000Y-26378571D01*
X15142857Y-27878571D01*
X15142857Y-26378571D01*
X14500000Y-26521428D02*
X14428571Y-26450000D01*
X14285714Y-26378571D01*
X13928571Y-26378571D01*
X13785714Y-26450000D01*
X13714285Y-26521428D01*
X13642857Y-26664285D01*
X13642857Y-26807142D01*
X13714285Y-27021428D01*
X14571428Y-27878571D01*
X13642857Y-27878571D01*
X17928571Y-13485714D02*
X18000000Y-13557142D01*
X18214285Y-13628571D01*
X18357142Y-13628571D01*
X18571428Y-13557142D01*
X18714285Y-13414285D01*
X18785714Y-13271428D01*
X18857142Y-12985714D01*
X18857142Y-12771428D01*
X18785714Y-12485714D01*
X18714285Y-12342857D01*
X18571428Y-12200000D01*
X18357142Y-12128571D01*
X18214285Y-12128571D01*
X18000000Y-12200000D01*
X17928571Y-12271428D01*
X17357142Y-13200000D02*
X16642857Y-13200000D01*
X17500000Y-13628571D02*
X17000000Y-12128571D01*
X16500000Y-13628571D01*
X16000000Y-13628571D02*
X16000000Y-12128571D01*
X15142857Y-13628571D01*
X15142857Y-12128571D01*
X14500000Y-12271428D02*
X14428571Y-12200000D01*
X14285714Y-12128571D01*
X13928571Y-12128571D01*
X13785714Y-12200000D01*
X13714285Y-12271428D01*
X13642857Y-12414285D01*
X13642857Y-12557142D01*
X13714285Y-12771428D01*
X14571428Y-13628571D01*
X13642857Y-13628571D01*
X27378571Y-13485714D02*
X27450000Y-13557142D01*
X27664285Y-13628571D01*
X27807142Y-13628571D01*
X28021428Y-13557142D01*
X28164285Y-13414285D01*
X28235714Y-13271428D01*
X28307142Y-12985714D01*
X28307142Y-12771428D01*
X28235714Y-12485714D01*
X28164285Y-12342857D01*
X28021428Y-12200000D01*
X27807142Y-12128571D01*
X27664285Y-12128571D01*
X27450000Y-12200000D01*
X27378571Y-12271428D01*
X26807142Y-13200000D02*
X26092857Y-13200000D01*
X26950000Y-13628571D02*
X26450000Y-12128571D01*
X25950000Y-13628571D01*
X25450000Y-13628571D02*
X25450000Y-12128571D01*
X24592857Y-13628571D01*
X24592857Y-12128571D01*
X23092857Y-13628571D02*
X23950000Y-13628571D01*
X23521428Y-13628571D02*
X23521428Y-12128571D01*
X23664285Y-12342857D01*
X23807142Y-12485714D01*
X23950000Y-12557142D01*
X56078571Y-24471428D02*
X56007142Y-24400000D01*
X55864285Y-24328571D01*
X55507142Y-24328571D01*
X55364285Y-24400000D01*
X55292857Y-24471428D01*
X55221428Y-24614285D01*
X55221428Y-24757142D01*
X55292857Y-24971428D01*
X56150000Y-25828571D01*
X55221428Y-25828571D01*
X64071428Y-12478571D02*
X63928571Y-12478571D01*
X63785714Y-12550000D01*
X63714285Y-12621428D01*
X63642857Y-12764285D01*
X63571428Y-13050000D01*
X63571428Y-13407142D01*
X63642857Y-13692857D01*
X63714285Y-13835714D01*
X63785714Y-13907142D01*
X63928571Y-13978571D01*
X64071428Y-13978571D01*
X64214285Y-13907142D01*
X64285714Y-13835714D01*
X64357142Y-13692857D01*
X64428571Y-13407142D01*
X64428571Y-13050000D01*
X64357142Y-12764285D01*
X64285714Y-12621428D01*
X64214285Y-12550000D01*
X64071428Y-12478571D01*
X63571428Y-20978571D02*
X64428571Y-20978571D01*
X64000000Y-20978571D02*
X64000000Y-19478571D01*
X64142857Y-19692857D01*
X64285714Y-19835714D01*
X64428571Y-19907142D01*
X64428571Y-26621428D02*
X64357142Y-26550000D01*
X64214285Y-26478571D01*
X63857142Y-26478571D01*
X63714285Y-26550000D01*
X63642857Y-26621428D01*
X63571428Y-26764285D01*
X63571428Y-26907142D01*
X63642857Y-27121428D01*
X64500000Y-27978571D01*
X63571428Y-27978571D01*
X61178571Y-11200000D02*
X61178571Y-12057142D01*
X62678571Y-11628571D02*
X61178571Y-11628571D01*
X62607142Y-13128571D02*
X62678571Y-12985714D01*
X62678571Y-12700000D01*
X62607142Y-12557142D01*
X62464285Y-12485714D01*
X61892857Y-12485714D01*
X61750000Y-12557142D01*
X61678571Y-12700000D01*
X61678571Y-12985714D01*
X61750000Y-13128571D01*
X61892857Y-13200000D01*
X62035714Y-13200000D01*
X62178571Y-12485714D01*
X62678571Y-13842857D02*
X61678571Y-13842857D01*
X61821428Y-13842857D02*
X61750000Y-13914285D01*
X61678571Y-14057142D01*
X61678571Y-14271428D01*
X61750000Y-14414285D01*
X61892857Y-14485714D01*
X62678571Y-14485714D01*
X61892857Y-14485714D02*
X61750000Y-14557142D01*
X61678571Y-14700000D01*
X61678571Y-14914285D01*
X61750000Y-15057142D01*
X61892857Y-15128571D01*
X62678571Y-15128571D01*
X61678571Y-15842857D02*
X63178571Y-15842857D01*
X61750000Y-15842857D02*
X61678571Y-15985714D01*
X61678571Y-16271428D01*
X61750000Y-16414285D01*
X61821428Y-16485714D01*
X61964285Y-16557142D01*
X62392857Y-16557142D01*
X62535714Y-16485714D01*
X62607142Y-16414285D01*
X62678571Y-16271428D01*
X62678571Y-15985714D01*
X62607142Y-15842857D01*
X62607142Y-17771428D02*
X62678571Y-17628571D01*
X62678571Y-17342857D01*
X62607142Y-17200000D01*
X62464285Y-17128571D01*
X61892857Y-17128571D01*
X61750000Y-17200000D01*
X61678571Y-17342857D01*
X61678571Y-17628571D01*
X61750000Y-17771428D01*
X61892857Y-17842857D01*
X62035714Y-17842857D01*
X62178571Y-17128571D01*
X62678571Y-18485714D02*
X61678571Y-18485714D01*
X61964285Y-18485714D02*
X61821428Y-18557142D01*
X61750000Y-18628571D01*
X61678571Y-18771428D01*
X61678571Y-18914285D01*
X62678571Y-20057142D02*
X61892857Y-20057142D01*
X61750000Y-19985714D01*
X61678571Y-19842857D01*
X61678571Y-19557142D01*
X61750000Y-19414285D01*
X62607142Y-20057142D02*
X62678571Y-19914285D01*
X62678571Y-19557142D01*
X62607142Y-19414285D01*
X62464285Y-19342857D01*
X62321428Y-19342857D01*
X62178571Y-19414285D01*
X62107142Y-19557142D01*
X62107142Y-19914285D01*
X62035714Y-20057142D01*
X61678571Y-20557142D02*
X61678571Y-21128571D01*
X61178571Y-20771428D02*
X62464285Y-20771428D01*
X62607142Y-20842857D01*
X62678571Y-20985714D01*
X62678571Y-21128571D01*
X61678571Y-22271428D02*
X62678571Y-22271428D01*
X61678571Y-21628571D02*
X62464285Y-21628571D01*
X62607142Y-21700000D01*
X62678571Y-21842857D01*
X62678571Y-22057142D01*
X62607142Y-22200000D01*
X62535714Y-22271428D01*
X62678571Y-22985714D02*
X61678571Y-22985714D01*
X61964285Y-22985714D02*
X61821428Y-23057142D01*
X61750000Y-23128571D01*
X61678571Y-23271428D01*
X61678571Y-23414285D01*
X62607142Y-24485714D02*
X62678571Y-24342857D01*
X62678571Y-24057142D01*
X62607142Y-23914285D01*
X62464285Y-23842857D01*
X61892857Y-23842857D01*
X61750000Y-23914285D01*
X61678571Y-24057142D01*
X61678571Y-24342857D01*
X61750000Y-24485714D01*
X61892857Y-24557142D01*
X62035714Y-24557142D01*
X62178571Y-23842857D01*
X34721428Y-9657142D02*
X34507142Y-9728571D01*
X34150000Y-9728571D01*
X34007142Y-9657142D01*
X33935714Y-9585714D01*
X33864285Y-9442857D01*
X33864285Y-9300000D01*
X33935714Y-9157142D01*
X34007142Y-9085714D01*
X34150000Y-9014285D01*
X34435714Y-8942857D01*
X34578571Y-8871428D01*
X34650000Y-8800000D01*
X34721428Y-8657142D01*
X34721428Y-8514285D01*
X34650000Y-8371428D01*
X34578571Y-8300000D01*
X34435714Y-8228571D01*
X34078571Y-8228571D01*
X33864285Y-8300000D01*
X32650000Y-9657142D02*
X32792857Y-9728571D01*
X33078571Y-9728571D01*
X33221428Y-9657142D01*
X33292857Y-9514285D01*
X33292857Y-8942857D01*
X33221428Y-8800000D01*
X33078571Y-8728571D01*
X32792857Y-8728571D01*
X32650000Y-8800000D01*
X32578571Y-8942857D01*
X32578571Y-9085714D01*
X33292857Y-9228571D01*
X31935714Y-9728571D02*
X31935714Y-8728571D01*
X31935714Y-9014285D02*
X31864285Y-8871428D01*
X31792857Y-8800000D01*
X31650000Y-8728571D01*
X31507142Y-8728571D01*
X31150000Y-8728571D02*
X30792857Y-9728571D01*
X30435714Y-8728571D01*
X29650000Y-9728571D02*
X29792857Y-9657142D01*
X29864285Y-9585714D01*
X29935714Y-9442857D01*
X29935714Y-9014285D01*
X29864285Y-8871428D01*
X29792857Y-8800000D01*
X29650000Y-8728571D01*
X29435714Y-8728571D01*
X29292857Y-8800000D01*
X29221428Y-8871428D01*
X29150000Y-9014285D01*
X29150000Y-9442857D01*
X29221428Y-9585714D01*
X29292857Y-9657142D01*
X29435714Y-9728571D01*
X29650000Y-9728571D01*
X27435714Y-8371428D02*
X27364285Y-8300000D01*
X27221428Y-8228571D01*
X26864285Y-8228571D01*
X26721428Y-8300000D01*
X26650000Y-8371428D01*
X26578571Y-8514285D01*
X26578571Y-8657142D01*
X26650000Y-8871428D01*
X27507142Y-9728571D01*
X26578571Y-9728571D01*
X46671428Y-9657142D02*
X46457142Y-9728571D01*
X46100000Y-9728571D01*
X45957142Y-9657142D01*
X45885714Y-9585714D01*
X45814285Y-9442857D01*
X45814285Y-9300000D01*
X45885714Y-9157142D01*
X45957142Y-9085714D01*
X46100000Y-9014285D01*
X46385714Y-8942857D01*
X46528571Y-8871428D01*
X46600000Y-8800000D01*
X46671428Y-8657142D01*
X46671428Y-8514285D01*
X46600000Y-8371428D01*
X46528571Y-8300000D01*
X46385714Y-8228571D01*
X46028571Y-8228571D01*
X45814285Y-8300000D01*
X44600000Y-9657142D02*
X44742857Y-9728571D01*
X45028571Y-9728571D01*
X45171428Y-9657142D01*
X45242857Y-9514285D01*
X45242857Y-8942857D01*
X45171428Y-8800000D01*
X45028571Y-8728571D01*
X44742857Y-8728571D01*
X44600000Y-8800000D01*
X44528571Y-8942857D01*
X44528571Y-9085714D01*
X45242857Y-9228571D01*
X43885714Y-9728571D02*
X43885714Y-8728571D01*
X43885714Y-9014285D02*
X43814285Y-8871428D01*
X43742857Y-8800000D01*
X43600000Y-8728571D01*
X43457142Y-8728571D01*
X43100000Y-8728571D02*
X42742857Y-9728571D01*
X42385714Y-8728571D01*
X41600000Y-9728571D02*
X41742857Y-9657142D01*
X41814285Y-9585714D01*
X41885714Y-9442857D01*
X41885714Y-9014285D01*
X41814285Y-8871428D01*
X41742857Y-8800000D01*
X41600000Y-8728571D01*
X41385714Y-8728571D01*
X41242857Y-8800000D01*
X41171428Y-8871428D01*
X41100000Y-9014285D01*
X41100000Y-9442857D01*
X41171428Y-9585714D01*
X41242857Y-9657142D01*
X41385714Y-9728571D01*
X41600000Y-9728571D01*
X38528571Y-9728571D02*
X39385714Y-9728571D01*
X38957142Y-9728571D02*
X38957142Y-8228571D01*
X39100000Y-8442857D01*
X39242857Y-8585714D01*
X39385714Y-8657142D01*
X58621428Y-9657142D02*
X58407142Y-9728571D01*
X58050000Y-9728571D01*
X57907142Y-9657142D01*
X57835714Y-9585714D01*
X57764285Y-9442857D01*
X57764285Y-9300000D01*
X57835714Y-9157142D01*
X57907142Y-9085714D01*
X58050000Y-9014285D01*
X58335714Y-8942857D01*
X58478571Y-8871428D01*
X58550000Y-8800000D01*
X58621428Y-8657142D01*
X58621428Y-8514285D01*
X58550000Y-8371428D01*
X58478571Y-8300000D01*
X58335714Y-8228571D01*
X57978571Y-8228571D01*
X57764285Y-8300000D01*
X56550000Y-9657142D02*
X56692857Y-9728571D01*
X56978571Y-9728571D01*
X57121428Y-9657142D01*
X57192857Y-9514285D01*
X57192857Y-8942857D01*
X57121428Y-8800000D01*
X56978571Y-8728571D01*
X56692857Y-8728571D01*
X56550000Y-8800000D01*
X56478571Y-8942857D01*
X56478571Y-9085714D01*
X57192857Y-9228571D01*
X55835714Y-9728571D02*
X55835714Y-8728571D01*
X55835714Y-9014285D02*
X55764285Y-8871428D01*
X55692857Y-8800000D01*
X55550000Y-8728571D01*
X55407142Y-8728571D01*
X55050000Y-8728571D02*
X54692857Y-9728571D01*
X54335714Y-8728571D01*
X53550000Y-9728571D02*
X53692857Y-9657142D01*
X53764285Y-9585714D01*
X53835714Y-9442857D01*
X53835714Y-9014285D01*
X53764285Y-8871428D01*
X53692857Y-8800000D01*
X53550000Y-8728571D01*
X53335714Y-8728571D01*
X53192857Y-8800000D01*
X53121428Y-8871428D01*
X53050000Y-9014285D01*
X53050000Y-9442857D01*
X53121428Y-9585714D01*
X53192857Y-9657142D01*
X53335714Y-9728571D01*
X53550000Y-9728571D01*
X50978571Y-8228571D02*
X50835714Y-8228571D01*
X50692857Y-8300000D01*
X50621428Y-8371428D01*
X50550000Y-8514285D01*
X50478571Y-8800000D01*
X50478571Y-9157142D01*
X50550000Y-9442857D01*
X50621428Y-9585714D01*
X50692857Y-9657142D01*
X50835714Y-9728571D01*
X50978571Y-9728571D01*
X51121428Y-9657142D01*
X51192857Y-9585714D01*
X51264285Y-9442857D01*
X51335714Y-9157142D01*
X51335714Y-8800000D01*
X51264285Y-8514285D01*
X51192857Y-8371428D01*
X51121428Y-8300000D01*
X50978571Y-8228571D01*
X13971428Y-8478571D02*
X14828571Y-8478571D01*
X14400000Y-8478571D02*
X14400000Y-6978571D01*
X14542857Y-7192857D01*
X14685714Y-7335714D01*
X14828571Y-7407142D01*
X21421428Y-6978571D02*
X21278571Y-6978571D01*
X21135714Y-7050000D01*
X21064285Y-7121428D01*
X20992857Y-7264285D01*
X20921428Y-7550000D01*
X20921428Y-7907142D01*
X20992857Y-8192857D01*
X21064285Y-8335714D01*
X21135714Y-8407142D01*
X21278571Y-8478571D01*
X21421428Y-8478571D01*
X21564285Y-8407142D01*
X21635714Y-8335714D01*
X21707142Y-8192857D01*
X21778571Y-7907142D01*
X21778571Y-7550000D01*
X21707142Y-7264285D01*
X21635714Y-7121428D01*
X21564285Y-7050000D01*
X21421428Y-6978571D01*
X20235714Y-10607142D02*
X20021428Y-10678571D01*
X19664285Y-10678571D01*
X19521428Y-10607142D01*
X19450000Y-10535714D01*
X19378571Y-10392857D01*
X19378571Y-10250000D01*
X19450000Y-10107142D01*
X19521428Y-10035714D01*
X19664285Y-9964285D01*
X19950000Y-9892857D01*
X20092857Y-9821428D01*
X20164285Y-9750000D01*
X20235714Y-9607142D01*
X20235714Y-9464285D01*
X20164285Y-9321428D01*
X20092857Y-9250000D01*
X19950000Y-9178571D01*
X19592857Y-9178571D01*
X19378571Y-9250000D01*
X18521428Y-10678571D02*
X18664285Y-10607142D01*
X18735714Y-10535714D01*
X18807142Y-10392857D01*
X18807142Y-9964285D01*
X18735714Y-9821428D01*
X18664285Y-9750000D01*
X18521428Y-9678571D01*
X18307142Y-9678571D01*
X18164285Y-9750000D01*
X18092857Y-9821428D01*
X18021428Y-9964285D01*
X18021428Y-10392857D01*
X18092857Y-10535714D01*
X18164285Y-10607142D01*
X18307142Y-10678571D01*
X18521428Y-10678571D01*
X17164285Y-10678571D02*
X17307142Y-10607142D01*
X17378571Y-10464285D01*
X17378571Y-9178571D01*
X16021428Y-10607142D02*
X16164285Y-10678571D01*
X16450000Y-10678571D01*
X16592857Y-10607142D01*
X16664285Y-10464285D01*
X16664285Y-9892857D01*
X16592857Y-9750000D01*
X16450000Y-9678571D01*
X16164285Y-9678571D01*
X16021428Y-9750000D01*
X15950000Y-9892857D01*
X15950000Y-10035714D01*
X16664285Y-10178571D01*
X15307142Y-9678571D02*
X15307142Y-10678571D01*
X15307142Y-9821428D02*
X15235714Y-9750000D01*
X15092857Y-9678571D01*
X14878571Y-9678571D01*
X14735714Y-9750000D01*
X14664285Y-9892857D01*
X14664285Y-10678571D01*
X13735714Y-10678571D02*
X13878571Y-10607142D01*
X13950000Y-10535714D01*
X14021428Y-10392857D01*
X14021428Y-9964285D01*
X13950000Y-9821428D01*
X13878571Y-9750000D01*
X13735714Y-9678571D01*
X13521428Y-9678571D01*
X13378571Y-9750000D01*
X13307142Y-9821428D01*
X13235714Y-9964285D01*
X13235714Y-10392857D01*
X13307142Y-10535714D01*
X13378571Y-10607142D01*
X13521428Y-10678571D01*
X13735714Y-10678571D01*
X12592857Y-10678571D02*
X12592857Y-9678571D01*
X12592857Y-9178571D02*
X12664285Y-9250000D01*
X12592857Y-9321428D01*
X12521428Y-9250000D01*
X12592857Y-9178571D01*
X12592857Y-9321428D01*
X11235714Y-10678571D02*
X11235714Y-9178571D01*
X11235714Y-10607142D02*
X11378571Y-10678571D01*
X11664285Y-10678571D01*
X11807142Y-10607142D01*
X11878571Y-10535714D01*
X11950000Y-10392857D01*
X11950000Y-9964285D01*
X11878571Y-9821428D01*
X11807142Y-9750000D01*
X11664285Y-9678571D01*
X11378571Y-9678571D01*
X11235714Y-9750000D01*
X52800000Y-26078571D02*
X52800000Y-24578571D01*
X52228571Y-24578571D01*
X52085714Y-24650000D01*
X52014285Y-24721428D01*
X51942857Y-24864285D01*
X51942857Y-25078571D01*
X52014285Y-25221428D01*
X52085714Y-25292857D01*
X52228571Y-25364285D01*
X52800000Y-25364285D01*
X51300000Y-26078571D02*
X51300000Y-25078571D01*
X51300000Y-25364285D02*
X51228571Y-25221428D01*
X51157142Y-25150000D01*
X51014285Y-25078571D01*
X50871428Y-25078571D01*
X49800000Y-26007142D02*
X49942857Y-26078571D01*
X50228571Y-26078571D01*
X50371428Y-26007142D01*
X50442857Y-25864285D01*
X50442857Y-25292857D01*
X50371428Y-25150000D01*
X50228571Y-25078571D01*
X49942857Y-25078571D01*
X49800000Y-25150000D01*
X49728571Y-25292857D01*
X49728571Y-25435714D01*
X50442857Y-25578571D01*
X49157142Y-26007142D02*
X49014285Y-26078571D01*
X48728571Y-26078571D01*
X48585714Y-26007142D01*
X48514285Y-25864285D01*
X48514285Y-25792857D01*
X48585714Y-25650000D01*
X48728571Y-25578571D01*
X48942857Y-25578571D01*
X49085714Y-25507142D01*
X49157142Y-25364285D01*
X49157142Y-25292857D01*
X49085714Y-25150000D01*
X48942857Y-25078571D01*
X48728571Y-25078571D01*
X48585714Y-25150000D01*
X47942857Y-26007142D02*
X47800000Y-26078571D01*
X47514285Y-26078571D01*
X47371428Y-26007142D01*
X47300000Y-25864285D01*
X47300000Y-25792857D01*
X47371428Y-25650000D01*
X47514285Y-25578571D01*
X47728571Y-25578571D01*
X47871428Y-25507142D01*
X47942857Y-25364285D01*
X47942857Y-25292857D01*
X47871428Y-25150000D01*
X47728571Y-25078571D01*
X47514285Y-25078571D01*
X47371428Y-25150000D01*
X46014285Y-25078571D02*
X46014285Y-26078571D01*
X46657142Y-25078571D02*
X46657142Y-25864285D01*
X46585714Y-26007142D01*
X46442857Y-26078571D01*
X46228571Y-26078571D01*
X46085714Y-26007142D01*
X46014285Y-25935714D01*
X45300000Y-26078571D02*
X45300000Y-25078571D01*
X45300000Y-25364285D02*
X45228571Y-25221428D01*
X45157142Y-25150000D01*
X45014285Y-25078571D01*
X44871428Y-25078571D01*
X43800000Y-26007142D02*
X43942857Y-26078571D01*
X44228571Y-26078571D01*
X44371428Y-26007142D01*
X44442857Y-25864285D01*
X44442857Y-25292857D01*
X44371428Y-25150000D01*
X44228571Y-25078571D01*
X43942857Y-25078571D01*
X43800000Y-25150000D01*
X43728571Y-25292857D01*
X43728571Y-25435714D01*
X44442857Y-25578571D01*
X14892857Y-31078571D02*
X14892857Y-29578571D01*
X14321428Y-29578571D01*
X14178571Y-29650000D01*
X14107142Y-29721428D01*
X14035714Y-29864285D01*
X14035714Y-30078571D01*
X14107142Y-30221428D01*
X14178571Y-30292857D01*
X14321428Y-30364285D01*
X14892857Y-30364285D01*
X13535714Y-30078571D02*
X13178571Y-31078571D01*
X12821428Y-30078571D02*
X13178571Y-31078571D01*
X13321428Y-31435714D01*
X13392857Y-31507142D01*
X13535714Y-31578571D01*
X12250000Y-31078571D02*
X12250000Y-30078571D01*
X12250000Y-30364285D02*
X12178571Y-30221428D01*
X12107142Y-30150000D01*
X11964285Y-30078571D01*
X11821428Y-30078571D01*
X11107142Y-31078571D02*
X11250000Y-31007142D01*
X11321428Y-30935714D01*
X11392857Y-30792857D01*
X11392857Y-30364285D01*
X11321428Y-30221428D01*
X11250000Y-30150000D01*
X11107142Y-30078571D01*
X10892857Y-30078571D01*
X10750000Y-30150000D01*
X10678571Y-30221428D01*
X10607142Y-30364285D01*
X10607142Y-30792857D01*
X10678571Y-30935714D01*
X10750000Y-31007142D01*
X10892857Y-31078571D01*
X11107142Y-31078571D01*
X8892857Y-29721428D02*
X8821428Y-29650000D01*
X8678571Y-29578571D01*
X8321428Y-29578571D01*
X8178571Y-29650000D01*
X8107142Y-29721428D01*
X8035714Y-29864285D01*
X8035714Y-30007142D01*
X8107142Y-30221428D01*
X8964285Y-31078571D01*
X8035714Y-31078571D01*
X23742857Y-31078571D02*
X23742857Y-29578571D01*
X23171428Y-29578571D01*
X23028571Y-29650000D01*
X22957142Y-29721428D01*
X22885714Y-29864285D01*
X22885714Y-30078571D01*
X22957142Y-30221428D01*
X23028571Y-30292857D01*
X23171428Y-30364285D01*
X23742857Y-30364285D01*
X22385714Y-30078571D02*
X22028571Y-31078571D01*
X21671428Y-30078571D02*
X22028571Y-31078571D01*
X22171428Y-31435714D01*
X22242857Y-31507142D01*
X22385714Y-31578571D01*
X21100000Y-31078571D02*
X21100000Y-30078571D01*
X21100000Y-30364285D02*
X21028571Y-30221428D01*
X20957142Y-30150000D01*
X20814285Y-30078571D01*
X20671428Y-30078571D01*
X19957142Y-31078571D02*
X20100000Y-31007142D01*
X20171428Y-30935714D01*
X20242857Y-30792857D01*
X20242857Y-30364285D01*
X20171428Y-30221428D01*
X20100000Y-30150000D01*
X19957142Y-30078571D01*
X19742857Y-30078571D01*
X19600000Y-30150000D01*
X19528571Y-30221428D01*
X19457142Y-30364285D01*
X19457142Y-30792857D01*
X19528571Y-30935714D01*
X19600000Y-31007142D01*
X19742857Y-31078571D01*
X19957142Y-31078571D01*
X16885714Y-31078571D02*
X17742857Y-31078571D01*
X17314285Y-31078571D02*
X17314285Y-29578571D01*
X17457142Y-29792857D01*
X17600000Y-29935714D01*
X17742857Y-30007142D01*
X32642857Y-31078571D02*
X32642857Y-29578571D01*
X32071428Y-29578571D01*
X31928571Y-29650000D01*
X31857142Y-29721428D01*
X31785714Y-29864285D01*
X31785714Y-30078571D01*
X31857142Y-30221428D01*
X31928571Y-30292857D01*
X32071428Y-30364285D01*
X32642857Y-30364285D01*
X31285714Y-30078571D02*
X30928571Y-31078571D01*
X30571428Y-30078571D02*
X30928571Y-31078571D01*
X31071428Y-31435714D01*
X31142857Y-31507142D01*
X31285714Y-31578571D01*
X30000000Y-31078571D02*
X30000000Y-30078571D01*
X30000000Y-30364285D02*
X29928571Y-30221428D01*
X29857142Y-30150000D01*
X29714285Y-30078571D01*
X29571428Y-30078571D01*
X28857142Y-31078571D02*
X29000000Y-31007142D01*
X29071428Y-30935714D01*
X29142857Y-30792857D01*
X29142857Y-30364285D01*
X29071428Y-30221428D01*
X29000000Y-30150000D01*
X28857142Y-30078571D01*
X28642857Y-30078571D01*
X28500000Y-30150000D01*
X28428571Y-30221428D01*
X28357142Y-30364285D01*
X28357142Y-30792857D01*
X28428571Y-30935714D01*
X28500000Y-31007142D01*
X28642857Y-31078571D01*
X28857142Y-31078571D01*
X26285714Y-29578571D02*
X26142857Y-29578571D01*
X26000000Y-29650000D01*
X25928571Y-29721428D01*
X25857142Y-29864285D01*
X25785714Y-30150000D01*
X25785714Y-30507142D01*
X25857142Y-30792857D01*
X25928571Y-30935714D01*
X26000000Y-31007142D01*
X26142857Y-31078571D01*
X26285714Y-31078571D01*
X26428571Y-31007142D01*
X26500000Y-30935714D01*
X26571428Y-30792857D01*
X26642857Y-30507142D01*
X26642857Y-30150000D01*
X26571428Y-29864285D01*
X26500000Y-29721428D01*
X26428571Y-29650000D01*
X26285714Y-29578571D01*
X54900000Y-32978571D02*
X53971428Y-32978571D01*
X54471428Y-33550000D01*
X54257142Y-33550000D01*
X54114285Y-33621428D01*
X54042857Y-33692857D01*
X53971428Y-33835714D01*
X53971428Y-34192857D01*
X54042857Y-34335714D01*
X54114285Y-34407142D01*
X54257142Y-34478571D01*
X54685714Y-34478571D01*
X54828571Y-34407142D01*
X54900000Y-34335714D01*
X44714285Y-33478571D02*
X44714285Y-34478571D01*
X45071428Y-32907142D02*
X45428571Y-33978571D01*
X44500000Y-33978571D01*
X35242857Y-32978571D02*
X35957142Y-32978571D01*
X36028571Y-33692857D01*
X35957142Y-33621428D01*
X35814285Y-33550000D01*
X35457142Y-33550000D01*
X35314285Y-33621428D01*
X35242857Y-33692857D01*
X35171428Y-33835714D01*
X35171428Y-34192857D01*
X35242857Y-34335714D01*
X35314285Y-34407142D01*
X35457142Y-34478571D01*
X35814285Y-34478571D01*
X35957142Y-34407142D01*
X36028571Y-34335714D01*
X42528571Y-32521428D02*
X42457142Y-32450000D01*
X42314285Y-32378571D01*
X41957142Y-32378571D01*
X41814285Y-32450000D01*
X41742857Y-32521428D01*
X41671428Y-32664285D01*
X41671428Y-32807142D01*
X41742857Y-33021428D01*
X42600000Y-33878571D01*
X41671428Y-33878571D01*
X51071428Y-33878571D02*
X51928571Y-33878571D01*
X51500000Y-33878571D02*
X51500000Y-32378571D01*
X51642857Y-32592857D01*
X51785714Y-32735714D01*
X51928571Y-32807142D01*
X55221428Y-23728571D02*
X56078571Y-23728571D01*
X55650000Y-23728571D02*
X55650000Y-22228571D01*
X55792857Y-22442857D01*
X55935714Y-22585714D01*
X56078571Y-22657142D01*
D14*
%TO.C,G1*%
G36*
X44773874Y-14023799D02*
G01*
X44743921Y-14042195D01*
X44718381Y-14062640D01*
X44661377Y-14149456D01*
X44652727Y-14195296D01*
X44662772Y-14250451D01*
X44691982Y-14389463D01*
X44738976Y-14606140D01*
X44802370Y-14894289D01*
X44880780Y-15247719D01*
X44972823Y-15660238D01*
X45077116Y-16125653D01*
X45192275Y-16637774D01*
X45316916Y-17190406D01*
X45449658Y-17777360D01*
X45589115Y-18392443D01*
X45668727Y-18742900D01*
X45811112Y-19369443D01*
X45947565Y-19970245D01*
X46076710Y-20539223D01*
X46197168Y-21070290D01*
X46307562Y-21557362D01*
X46406514Y-21994353D01*
X46492648Y-22375178D01*
X46564585Y-22693751D01*
X46620947Y-22943987D01*
X46660358Y-23119801D01*
X46681440Y-23215108D01*
X46684727Y-23231077D01*
X46724192Y-23245453D01*
X46794286Y-23249818D01*
X46903845Y-23249818D01*
X46801660Y-22776454D01*
X46776852Y-22660990D01*
X46734359Y-22462560D01*
X46675753Y-22188530D01*
X46602608Y-21846268D01*
X46516496Y-21443141D01*
X46418992Y-20986516D01*
X46311667Y-20483761D01*
X46196096Y-19942241D01*
X46073850Y-19369326D01*
X45946505Y-18772381D01*
X45826207Y-18208363D01*
X45672752Y-17489110D01*
X45537155Y-16855051D01*
X45418041Y-16301040D01*
X45314035Y-15821933D01*
X45223762Y-15412583D01*
X45145847Y-15067846D01*
X45078916Y-14782576D01*
X45021593Y-14551628D01*
X44972504Y-14369856D01*
X44930273Y-14232116D01*
X44893526Y-14133262D01*
X44860887Y-14068148D01*
X44830982Y-14031630D01*
X44802436Y-14018562D01*
X44773874Y-14023799D01*
G37*
X44773874Y-14023799D02*
X44743921Y-14042195D01*
X44718381Y-14062640D01*
X44661377Y-14149456D01*
X44652727Y-14195296D01*
X44662772Y-14250451D01*
X44691982Y-14389463D01*
X44738976Y-14606140D01*
X44802370Y-14894289D01*
X44880780Y-15247719D01*
X44972823Y-15660238D01*
X45077116Y-16125653D01*
X45192275Y-16637774D01*
X45316916Y-17190406D01*
X45449658Y-17777360D01*
X45589115Y-18392443D01*
X45668727Y-18742900D01*
X45811112Y-19369443D01*
X45947565Y-19970245D01*
X46076710Y-20539223D01*
X46197168Y-21070290D01*
X46307562Y-21557362D01*
X46406514Y-21994353D01*
X46492648Y-22375178D01*
X46564585Y-22693751D01*
X46620947Y-22943987D01*
X46660358Y-23119801D01*
X46681440Y-23215108D01*
X46684727Y-23231077D01*
X46724192Y-23245453D01*
X46794286Y-23249818D01*
X46903845Y-23249818D01*
X46801660Y-22776454D01*
X46776852Y-22660990D01*
X46734359Y-22462560D01*
X46675753Y-22188530D01*
X46602608Y-21846268D01*
X46516496Y-21443141D01*
X46418992Y-20986516D01*
X46311667Y-20483761D01*
X46196096Y-19942241D01*
X46073850Y-19369326D01*
X45946505Y-18772381D01*
X45826207Y-18208363D01*
X45672752Y-17489110D01*
X45537155Y-16855051D01*
X45418041Y-16301040D01*
X45314035Y-15821933D01*
X45223762Y-15412583D01*
X45145847Y-15067846D01*
X45078916Y-14782576D01*
X45021593Y-14551628D01*
X44972504Y-14369856D01*
X44930273Y-14232116D01*
X44893526Y-14133262D01*
X44860887Y-14068148D01*
X44830982Y-14031630D01*
X44802436Y-14018562D01*
X44773874Y-14023799D01*
G36*
X44041598Y-18309778D02*
G01*
X43770360Y-18313746D01*
X43545242Y-18319858D01*
X43379032Y-18327703D01*
X43284517Y-18336871D01*
X43267530Y-18343000D01*
X43278266Y-18407244D01*
X43304275Y-18519708D01*
X43309230Y-18539273D01*
X43346701Y-18690094D01*
X43378933Y-18827051D01*
X43379125Y-18827909D01*
X43397223Y-18891551D01*
X43429955Y-18929329D01*
X43497952Y-18947986D01*
X43621848Y-18954266D01*
X43767712Y-18954909D01*
X44127846Y-18954909D01*
X44328337Y-19890091D01*
X44389644Y-20174245D01*
X44445406Y-20429289D01*
X44492412Y-20640814D01*
X44527452Y-20794412D01*
X44547317Y-20875673D01*
X44549537Y-20883000D01*
X44601919Y-20913815D01*
X44715081Y-20933828D01*
X44862009Y-20942998D01*
X45015688Y-20941286D01*
X45149106Y-20928653D01*
X45235246Y-20905060D01*
X45253091Y-20884025D01*
X45243650Y-20825039D01*
X45217775Y-20692953D01*
X45179134Y-20504815D01*
X45131396Y-20277672D01*
X45078231Y-20028575D01*
X45023308Y-19774571D01*
X44970296Y-19532708D01*
X44922863Y-19320035D01*
X44884680Y-19153601D01*
X44859415Y-19050454D01*
X44855303Y-19035727D01*
X44852547Y-18994568D01*
X44886201Y-18970257D01*
X44973562Y-18958499D01*
X45131925Y-18954998D01*
X45180706Y-18954909D01*
X45362471Y-18953918D01*
X45470283Y-18938892D01*
X45518093Y-18891749D01*
X45519851Y-18794411D01*
X45489505Y-18628796D01*
X45477624Y-18570066D01*
X45425067Y-18308364D01*
X44346170Y-18308364D01*
X44041598Y-18309778D01*
G37*
X44041598Y-18309778D02*
X43770360Y-18313746D01*
X43545242Y-18319858D01*
X43379032Y-18327703D01*
X43284517Y-18336871D01*
X43267530Y-18343000D01*
X43278266Y-18407244D01*
X43304275Y-18519708D01*
X43309230Y-18539273D01*
X43346701Y-18690094D01*
X43378933Y-18827051D01*
X43379125Y-18827909D01*
X43397223Y-18891551D01*
X43429955Y-18929329D01*
X43497952Y-18947986D01*
X43621848Y-18954266D01*
X43767712Y-18954909D01*
X44127846Y-18954909D01*
X44328337Y-19890091D01*
X44389644Y-20174245D01*
X44445406Y-20429289D01*
X44492412Y-20640814D01*
X44527452Y-20794412D01*
X44547317Y-20875673D01*
X44549537Y-20883000D01*
X44601919Y-20913815D01*
X44715081Y-20933828D01*
X44862009Y-20942998D01*
X45015688Y-20941286D01*
X45149106Y-20928653D01*
X45235246Y-20905060D01*
X45253091Y-20884025D01*
X45243650Y-20825039D01*
X45217775Y-20692953D01*
X45179134Y-20504815D01*
X45131396Y-20277672D01*
X45078231Y-20028575D01*
X45023308Y-19774571D01*
X44970296Y-19532708D01*
X44922863Y-19320035D01*
X44884680Y-19153601D01*
X44859415Y-19050454D01*
X44855303Y-19035727D01*
X44852547Y-18994568D01*
X44886201Y-18970257D01*
X44973562Y-18958499D01*
X45131925Y-18954998D01*
X45180706Y-18954909D01*
X45362471Y-18953918D01*
X45470283Y-18938892D01*
X45518093Y-18891749D01*
X45519851Y-18794411D01*
X45489505Y-18628796D01*
X45477624Y-18570066D01*
X45425067Y-18308364D01*
X44346170Y-18308364D01*
X44041598Y-18309778D01*
G36*
X39227788Y-18458454D02*
G01*
X39213316Y-18546934D01*
X39187154Y-18711302D01*
X39151722Y-18936168D01*
X39109443Y-19206142D01*
X39062738Y-19505833D01*
X39040712Y-19647636D01*
X38992883Y-19954010D01*
X38948307Y-20236021D01*
X38909397Y-20478687D01*
X38878563Y-20667028D01*
X38858218Y-20786065D01*
X38852983Y-20813727D01*
X38826479Y-20940727D01*
X39571636Y-20940727D01*
X39630714Y-20571273D01*
X40144357Y-20571397D01*
X40658000Y-20571522D01*
X40750424Y-20744579D01*
X40842847Y-20917636D01*
X42216696Y-20929951D01*
X42614417Y-20932991D01*
X42929049Y-20933934D01*
X43169854Y-20932408D01*
X43346090Y-20928043D01*
X43467018Y-20920468D01*
X43541896Y-20909312D01*
X43579985Y-20894203D01*
X43590545Y-20874912D01*
X43581062Y-20815665D01*
X43554713Y-20680866D01*
X43514645Y-20485131D01*
X43464008Y-20243076D01*
X43405951Y-19969316D01*
X43343620Y-19678470D01*
X43280166Y-19385152D01*
X43218737Y-19103979D01*
X43162482Y-18849567D01*
X43114548Y-18636534D01*
X43078085Y-18479494D01*
X43056241Y-18393064D01*
X43055079Y-18389182D01*
X43039810Y-18362168D01*
X43005102Y-18341902D01*
X42939180Y-18327430D01*
X42830268Y-18317797D01*
X42666591Y-18312048D01*
X42436371Y-18309227D01*
X42127833Y-18308380D01*
X42058492Y-18308364D01*
X41724327Y-18309456D01*
X41473080Y-18313125D01*
X41295328Y-18319954D01*
X41181648Y-18330528D01*
X41122615Y-18345433D01*
X41108807Y-18365254D01*
X41109452Y-18367276D01*
X41130748Y-18442576D01*
X41162080Y-18575343D01*
X41186940Y-18690549D01*
X41241821Y-18954909D01*
X42470636Y-18954909D01*
X42499500Y-19099227D01*
X42519797Y-19212458D01*
X42528362Y-19283575D01*
X42528363Y-19283954D01*
X42485101Y-19299262D01*
X42366971Y-19311909D01*
X42191458Y-19320672D01*
X41976046Y-19324326D01*
X41951091Y-19324364D01*
X41732410Y-19327247D01*
X41551737Y-19335122D01*
X41426557Y-19346821D01*
X41374354Y-19361180D01*
X41373818Y-19362843D01*
X41382320Y-19426099D01*
X41404287Y-19549451D01*
X41426375Y-19663025D01*
X41478933Y-19924727D01*
X42070195Y-19924727D01*
X42293929Y-19927282D01*
X42482040Y-19934264D01*
X42616470Y-19944650D01*
X42679167Y-19957415D01*
X42681209Y-19959364D01*
X42701684Y-20024060D01*
X42727085Y-20139702D01*
X42732209Y-20167182D01*
X42763458Y-20340364D01*
X41551207Y-20340364D01*
X41582093Y-20490454D01*
X41612068Y-20635827D01*
X41636928Y-20756000D01*
X41650511Y-20835166D01*
X41632371Y-20830385D01*
X41593589Y-20779091D01*
X41553568Y-20716919D01*
X41473087Y-20585977D01*
X41358633Y-20397037D01*
X41216697Y-20160869D01*
X41093757Y-19955158D01*
X40311636Y-19955158D01*
X40269333Y-19962889D01*
X40157927Y-19968508D01*
X40000673Y-19970891D01*
X39985251Y-19970909D01*
X39815236Y-19968449D01*
X39719796Y-19957911D01*
X39681204Y-19934559D01*
X39681732Y-19893656D01*
X39682753Y-19890091D01*
X39698461Y-19806086D01*
X39717593Y-19660024D01*
X39736267Y-19481925D01*
X39738015Y-19462909D01*
X39755961Y-19290843D01*
X39774488Y-19155149D01*
X39789971Y-19081775D01*
X39791772Y-19077809D01*
X39818785Y-19103690D01*
X39879158Y-19191445D01*
X39961632Y-19322074D01*
X40054952Y-19476578D01*
X40147858Y-19635958D01*
X40229093Y-19781216D01*
X40287399Y-19893352D01*
X40311519Y-19953368D01*
X40311636Y-19955158D01*
X41093757Y-19955158D01*
X41053767Y-19888245D01*
X40876332Y-19589936D01*
X40821539Y-19497545D01*
X40116778Y-18308364D01*
X39253640Y-18308364D01*
X39227788Y-18458454D01*
G37*
X39227788Y-18458454D02*
X39213316Y-18546934D01*
X39187154Y-18711302D01*
X39151722Y-18936168D01*
X39109443Y-19206142D01*
X39062738Y-19505833D01*
X39040712Y-19647636D01*
X38992883Y-19954010D01*
X38948307Y-20236021D01*
X38909397Y-20478687D01*
X38878563Y-20667028D01*
X38858218Y-20786065D01*
X38852983Y-20813727D01*
X38826479Y-20940727D01*
X39571636Y-20940727D01*
X39630714Y-20571273D01*
X40144357Y-20571397D01*
X40658000Y-20571522D01*
X40750424Y-20744579D01*
X40842847Y-20917636D01*
X42216696Y-20929951D01*
X42614417Y-20932991D01*
X42929049Y-20933934D01*
X43169854Y-20932408D01*
X43346090Y-20928043D01*
X43467018Y-20920468D01*
X43541896Y-20909312D01*
X43579985Y-20894203D01*
X43590545Y-20874912D01*
X43581062Y-20815665D01*
X43554713Y-20680866D01*
X43514645Y-20485131D01*
X43464008Y-20243076D01*
X43405951Y-19969316D01*
X43343620Y-19678470D01*
X43280166Y-19385152D01*
X43218737Y-19103979D01*
X43162482Y-18849567D01*
X43114548Y-18636534D01*
X43078085Y-18479494D01*
X43056241Y-18393064D01*
X43055079Y-18389182D01*
X43039810Y-18362168D01*
X43005102Y-18341902D01*
X42939180Y-18327430D01*
X42830268Y-18317797D01*
X42666591Y-18312048D01*
X42436371Y-18309227D01*
X42127833Y-18308380D01*
X42058492Y-18308364D01*
X41724327Y-18309456D01*
X41473080Y-18313125D01*
X41295328Y-18319954D01*
X41181648Y-18330528D01*
X41122615Y-18345433D01*
X41108807Y-18365254D01*
X41109452Y-18367276D01*
X41130748Y-18442576D01*
X41162080Y-18575343D01*
X41186940Y-18690549D01*
X41241821Y-18954909D01*
X42470636Y-18954909D01*
X42499500Y-19099227D01*
X42519797Y-19212458D01*
X42528362Y-19283575D01*
X42528363Y-19283954D01*
X42485101Y-19299262D01*
X42366971Y-19311909D01*
X42191458Y-19320672D01*
X41976046Y-19324326D01*
X41951091Y-19324364D01*
X41732410Y-19327247D01*
X41551737Y-19335122D01*
X41426557Y-19346821D01*
X41374354Y-19361180D01*
X41373818Y-19362843D01*
X41382320Y-19426099D01*
X41404287Y-19549451D01*
X41426375Y-19663025D01*
X41478933Y-19924727D01*
X42070195Y-19924727D01*
X42293929Y-19927282D01*
X42482040Y-19934264D01*
X42616470Y-19944650D01*
X42679167Y-19957415D01*
X42681209Y-19959364D01*
X42701684Y-20024060D01*
X42727085Y-20139702D01*
X42732209Y-20167182D01*
X42763458Y-20340364D01*
X41551207Y-20340364D01*
X41582093Y-20490454D01*
X41612068Y-20635827D01*
X41636928Y-20756000D01*
X41650511Y-20835166D01*
X41632371Y-20830385D01*
X41593589Y-20779091D01*
X41553568Y-20716919D01*
X41473087Y-20585977D01*
X41358633Y-20397037D01*
X41216697Y-20160869D01*
X41093757Y-19955158D01*
X40311636Y-19955158D01*
X40269333Y-19962889D01*
X40157927Y-19968508D01*
X40000673Y-19970891D01*
X39985251Y-19970909D01*
X39815236Y-19968449D01*
X39719796Y-19957911D01*
X39681204Y-19934559D01*
X39681732Y-19893656D01*
X39682753Y-19890091D01*
X39698461Y-19806086D01*
X39717593Y-19660024D01*
X39736267Y-19481925D01*
X39738015Y-19462909D01*
X39755961Y-19290843D01*
X39774488Y-19155149D01*
X39789971Y-19081775D01*
X39791772Y-19077809D01*
X39818785Y-19103690D01*
X39879158Y-19191445D01*
X39961632Y-19322074D01*
X40054952Y-19476578D01*
X40147858Y-19635958D01*
X40229093Y-19781216D01*
X40287399Y-19893352D01*
X40311519Y-19953368D01*
X40311636Y-19955158D01*
X41093757Y-19955158D01*
X41053767Y-19888245D01*
X40876332Y-19589936D01*
X40821539Y-19497545D01*
X40116778Y-18308364D01*
X39253640Y-18308364D01*
X39227788Y-18458454D01*
G36*
X37127597Y-19004602D02*
G01*
X37021408Y-19700841D01*
X36605640Y-19004602D01*
X36189872Y-18308364D01*
X35710754Y-18308364D01*
X35491070Y-18310496D01*
X35348626Y-18318354D01*
X35268367Y-18334130D01*
X35235237Y-18360015D01*
X35231636Y-18378106D01*
X35241139Y-18437828D01*
X35267543Y-18573066D01*
X35307689Y-18769175D01*
X35358417Y-19011513D01*
X35416570Y-19285436D01*
X35478988Y-19576300D01*
X35542513Y-19869462D01*
X35603985Y-20150277D01*
X35660246Y-20404103D01*
X35708137Y-20616296D01*
X35744500Y-20772213D01*
X35766175Y-20857209D01*
X35766994Y-20859909D01*
X35794810Y-20902391D01*
X35858725Y-20927112D01*
X35978543Y-20938418D01*
X36135294Y-20940727D01*
X36328430Y-20935228D01*
X36439274Y-20917666D01*
X36477303Y-20886442D01*
X36477480Y-20883000D01*
X36467357Y-20819748D01*
X36440157Y-20683589D01*
X36399470Y-20491635D01*
X36348884Y-20261002D01*
X36320103Y-20132545D01*
X36266842Y-19893404D01*
X36222589Y-19688724D01*
X36190621Y-19534151D01*
X36174216Y-19445336D01*
X36173016Y-19430182D01*
X36198338Y-19464785D01*
X36263403Y-19566876D01*
X36360831Y-19724503D01*
X36483240Y-19925714D01*
X36623251Y-20158559D01*
X36636450Y-20180636D01*
X37090659Y-20940727D01*
X37434581Y-20940727D01*
X37537359Y-20259545D01*
X37575344Y-20014753D01*
X37610744Y-19799300D01*
X37640441Y-19631255D01*
X37661316Y-19528688D01*
X37666851Y-19509091D01*
X37677154Y-19480267D01*
X37685820Y-19464341D01*
X37696022Y-19472395D01*
X37710934Y-19515510D01*
X37733728Y-19604770D01*
X37767577Y-19751256D01*
X37815654Y-19966051D01*
X37878406Y-20248000D01*
X38027621Y-20917636D01*
X38390057Y-20931224D01*
X38570755Y-20936885D01*
X38676833Y-20933859D01*
X38725951Y-20917309D01*
X38735772Y-20882399D01*
X38727407Y-20838860D01*
X38711029Y-20766622D01*
X38677701Y-20617221D01*
X38630313Y-20403699D01*
X38571756Y-20139101D01*
X38504920Y-19836471D01*
X38435292Y-19520636D01*
X38168262Y-18308364D01*
X37233786Y-18308364D01*
X37127597Y-19004602D01*
G37*
X37127597Y-19004602D02*
X37021408Y-19700841D01*
X36605640Y-19004602D01*
X36189872Y-18308364D01*
X35710754Y-18308364D01*
X35491070Y-18310496D01*
X35348626Y-18318354D01*
X35268367Y-18334130D01*
X35235237Y-18360015D01*
X35231636Y-18378106D01*
X35241139Y-18437828D01*
X35267543Y-18573066D01*
X35307689Y-18769175D01*
X35358417Y-19011513D01*
X35416570Y-19285436D01*
X35478988Y-19576300D01*
X35542513Y-19869462D01*
X35603985Y-20150277D01*
X35660246Y-20404103D01*
X35708137Y-20616296D01*
X35744500Y-20772213D01*
X35766175Y-20857209D01*
X35766994Y-20859909D01*
X35794810Y-20902391D01*
X35858725Y-20927112D01*
X35978543Y-20938418D01*
X36135294Y-20940727D01*
X36328430Y-20935228D01*
X36439274Y-20917666D01*
X36477303Y-20886442D01*
X36477480Y-20883000D01*
X36467357Y-20819748D01*
X36440157Y-20683589D01*
X36399470Y-20491635D01*
X36348884Y-20261002D01*
X36320103Y-20132545D01*
X36266842Y-19893404D01*
X36222589Y-19688724D01*
X36190621Y-19534151D01*
X36174216Y-19445336D01*
X36173016Y-19430182D01*
X36198338Y-19464785D01*
X36263403Y-19566876D01*
X36360831Y-19724503D01*
X36483240Y-19925714D01*
X36623251Y-20158559D01*
X36636450Y-20180636D01*
X37090659Y-20940727D01*
X37434581Y-20940727D01*
X37537359Y-20259545D01*
X37575344Y-20014753D01*
X37610744Y-19799300D01*
X37640441Y-19631255D01*
X37661316Y-19528688D01*
X37666851Y-19509091D01*
X37677154Y-19480267D01*
X37685820Y-19464341D01*
X37696022Y-19472395D01*
X37710934Y-19515510D01*
X37733728Y-19604770D01*
X37767577Y-19751256D01*
X37815654Y-19966051D01*
X37878406Y-20248000D01*
X38027621Y-20917636D01*
X38390057Y-20931224D01*
X38570755Y-20936885D01*
X38676833Y-20933859D01*
X38725951Y-20917309D01*
X38735772Y-20882399D01*
X38727407Y-20838860D01*
X38711029Y-20766622D01*
X38677701Y-20617221D01*
X38630313Y-20403699D01*
X38571756Y-20139101D01*
X38504920Y-19836471D01*
X38435292Y-19520636D01*
X38168262Y-18308364D01*
X37233786Y-18308364D01*
X37127597Y-19004602D01*
G36*
X56026562Y-16840201D02*
G01*
X55732334Y-16934467D01*
X55491176Y-17065213D01*
X55373295Y-17148423D01*
X55295358Y-17213283D01*
X55276320Y-17238988D01*
X55305632Y-17286484D01*
X55380662Y-17381514D01*
X55482269Y-17500182D01*
X55595124Y-17622512D01*
X55669164Y-17683732D01*
X55723053Y-17695033D01*
X55769131Y-17672213D01*
X55977281Y-17549381D01*
X56190543Y-17466841D01*
X56388634Y-17428800D01*
X56551266Y-17439460D01*
X56646813Y-17490294D01*
X56687931Y-17550528D01*
X56677976Y-17608637D01*
X56608222Y-17671965D01*
X56469941Y-17747856D01*
X56254407Y-17843652D01*
X56199793Y-17866456D01*
X55891550Y-18015844D01*
X55671215Y-18174821D01*
X55534404Y-18349373D01*
X55476734Y-18545485D01*
X55493818Y-18769144D01*
X55505070Y-18814935D01*
X55614758Y-19054624D01*
X55795286Y-19247672D01*
X56034871Y-19388719D01*
X56321728Y-19472408D01*
X56644073Y-19493381D01*
X56924636Y-19460413D01*
X57130029Y-19404865D01*
X57334530Y-19324088D01*
X57519052Y-19228771D01*
X57664508Y-19129604D01*
X57751811Y-19037275D01*
X57768363Y-18987904D01*
X57740695Y-18932211D01*
X57668672Y-18830526D01*
X57582558Y-18722712D01*
X57396753Y-18500788D01*
X57168264Y-18654549D01*
X56937239Y-18780807D01*
X56704416Y-18856720D01*
X56494417Y-18876023D01*
X56380923Y-18854933D01*
X56257035Y-18789487D01*
X56223212Y-18712722D01*
X56278162Y-18626889D01*
X56420588Y-18534239D01*
X56613818Y-18450154D01*
X56921286Y-18319633D01*
X57146251Y-18188222D01*
X57298179Y-18046476D01*
X57386534Y-17884948D01*
X57420781Y-17694192D01*
X57422000Y-17643502D01*
X57381058Y-17398109D01*
X57266541Y-17190039D01*
X57090912Y-17023026D01*
X56866636Y-16900802D01*
X56606177Y-16827102D01*
X56321997Y-16805657D01*
X56026562Y-16840201D01*
G37*
X56026562Y-16840201D02*
X55732334Y-16934467D01*
X55491176Y-17065213D01*
X55373295Y-17148423D01*
X55295358Y-17213283D01*
X55276320Y-17238988D01*
X55305632Y-17286484D01*
X55380662Y-17381514D01*
X55482269Y-17500182D01*
X55595124Y-17622512D01*
X55669164Y-17683732D01*
X55723053Y-17695033D01*
X55769131Y-17672213D01*
X55977281Y-17549381D01*
X56190543Y-17466841D01*
X56388634Y-17428800D01*
X56551266Y-17439460D01*
X56646813Y-17490294D01*
X56687931Y-17550528D01*
X56677976Y-17608637D01*
X56608222Y-17671965D01*
X56469941Y-17747856D01*
X56254407Y-17843652D01*
X56199793Y-17866456D01*
X55891550Y-18015844D01*
X55671215Y-18174821D01*
X55534404Y-18349373D01*
X55476734Y-18545485D01*
X55493818Y-18769144D01*
X55505070Y-18814935D01*
X55614758Y-19054624D01*
X55795286Y-19247672D01*
X56034871Y-19388719D01*
X56321728Y-19472408D01*
X56644073Y-19493381D01*
X56924636Y-19460413D01*
X57130029Y-19404865D01*
X57334530Y-19324088D01*
X57519052Y-19228771D01*
X57664508Y-19129604D01*
X57751811Y-19037275D01*
X57768363Y-18987904D01*
X57740695Y-18932211D01*
X57668672Y-18830526D01*
X57582558Y-18722712D01*
X57396753Y-18500788D01*
X57168264Y-18654549D01*
X56937239Y-18780807D01*
X56704416Y-18856720D01*
X56494417Y-18876023D01*
X56380923Y-18854933D01*
X56257035Y-18789487D01*
X56223212Y-18712722D01*
X56278162Y-18626889D01*
X56420588Y-18534239D01*
X56613818Y-18450154D01*
X56921286Y-18319633D01*
X57146251Y-18188222D01*
X57298179Y-18046476D01*
X57386534Y-17884948D01*
X57420781Y-17694192D01*
X57422000Y-17643502D01*
X57381058Y-17398109D01*
X57266541Y-17190039D01*
X57090912Y-17023026D01*
X56866636Y-16900802D01*
X56606177Y-16827102D01*
X56321997Y-16805657D01*
X56026562Y-16840201D01*
G36*
X48946232Y-16817388D02*
G01*
X48793103Y-16837998D01*
X48660209Y-16881585D01*
X48555091Y-16932161D01*
X48395002Y-17032838D01*
X48240852Y-17158843D01*
X48106190Y-17294713D01*
X48004566Y-17424985D01*
X47949530Y-17534197D01*
X47954630Y-17606886D01*
X47959408Y-17611954D01*
X48022015Y-17644868D01*
X48145649Y-17694404D01*
X48298391Y-17748087D01*
X48459717Y-17799417D01*
X48559316Y-17816306D01*
X48623437Y-17792451D01*
X48678326Y-17721549D01*
X48721991Y-17646363D01*
X48807042Y-17564364D01*
X48945513Y-17489897D01*
X49099034Y-17440795D01*
X49185572Y-17430909D01*
X49388821Y-17473637D01*
X49585104Y-17589500D01*
X49755744Y-17760013D01*
X49882065Y-17966691D01*
X49944280Y-18181798D01*
X49933217Y-18404345D01*
X49850041Y-18590693D01*
X49710660Y-18732628D01*
X49530984Y-18821934D01*
X49326921Y-18850398D01*
X49114381Y-18809803D01*
X48927921Y-18706615D01*
X48824971Y-18632390D01*
X48754699Y-18589593D01*
X48742363Y-18585454D01*
X48680440Y-18610658D01*
X48576795Y-18673970D01*
X48457167Y-18756937D01*
X48347294Y-18841111D01*
X48272912Y-18908039D01*
X48255739Y-18934304D01*
X48291774Y-19009415D01*
X48387404Y-19110416D01*
X48521043Y-19219144D01*
X48671106Y-19317434D01*
X48773241Y-19369804D01*
X49026537Y-19448458D01*
X49316388Y-19486981D01*
X49600786Y-19482070D01*
X49781192Y-19449053D01*
X49956869Y-19385554D01*
X50130434Y-19302312D01*
X50166608Y-19281177D01*
X50398953Y-19088555D01*
X50562027Y-18850232D01*
X50657796Y-18579299D01*
X50688225Y-18288846D01*
X50655279Y-17991965D01*
X50560925Y-17701746D01*
X50407126Y-17431281D01*
X50195849Y-17193659D01*
X49929058Y-17001973D01*
X49815877Y-16944954D01*
X49634656Y-16871951D01*
X49470841Y-16831430D01*
X49281299Y-16814747D01*
X49155454Y-16812615D01*
X48946232Y-16817388D01*
G37*
X48946232Y-16817388D02*
X48793103Y-16837998D01*
X48660209Y-16881585D01*
X48555091Y-16932161D01*
X48395002Y-17032838D01*
X48240852Y-17158843D01*
X48106190Y-17294713D01*
X48004566Y-17424985D01*
X47949530Y-17534197D01*
X47954630Y-17606886D01*
X47959408Y-17611954D01*
X48022015Y-17644868D01*
X48145649Y-17694404D01*
X48298391Y-17748087D01*
X48459717Y-17799417D01*
X48559316Y-17816306D01*
X48623437Y-17792451D01*
X48678326Y-17721549D01*
X48721991Y-17646363D01*
X48807042Y-17564364D01*
X48945513Y-17489897D01*
X49099034Y-17440795D01*
X49185572Y-17430909D01*
X49388821Y-17473637D01*
X49585104Y-17589500D01*
X49755744Y-17760013D01*
X49882065Y-17966691D01*
X49944280Y-18181798D01*
X49933217Y-18404345D01*
X49850041Y-18590693D01*
X49710660Y-18732628D01*
X49530984Y-18821934D01*
X49326921Y-18850398D01*
X49114381Y-18809803D01*
X48927921Y-18706615D01*
X48824971Y-18632390D01*
X48754699Y-18589593D01*
X48742363Y-18585454D01*
X48680440Y-18610658D01*
X48576795Y-18673970D01*
X48457167Y-18756937D01*
X48347294Y-18841111D01*
X48272912Y-18908039D01*
X48255739Y-18934304D01*
X48291774Y-19009415D01*
X48387404Y-19110416D01*
X48521043Y-19219144D01*
X48671106Y-19317434D01*
X48773241Y-19369804D01*
X49026537Y-19448458D01*
X49316388Y-19486981D01*
X49600786Y-19482070D01*
X49781192Y-19449053D01*
X49956869Y-19385554D01*
X50130434Y-19302312D01*
X50166608Y-19281177D01*
X50398953Y-19088555D01*
X50562027Y-18850232D01*
X50657796Y-18579299D01*
X50688225Y-18288846D01*
X50655279Y-17991965D01*
X50560925Y-17701746D01*
X50407126Y-17431281D01*
X50195849Y-17193659D01*
X49929058Y-17001973D01*
X49815877Y-16944954D01*
X49634656Y-16871951D01*
X49470841Y-16831430D01*
X49281299Y-16814747D01*
X49155454Y-16812615D01*
X48946232Y-16817388D01*
G36*
X53831705Y-16854428D02*
G01*
X53623650Y-16858050D01*
X53475164Y-16866367D01*
X53369853Y-16881249D01*
X53291323Y-16904561D01*
X53223179Y-16938171D01*
X53188095Y-16959287D01*
X53001515Y-17124918D01*
X52883885Y-17335851D01*
X52836066Y-17574978D01*
X52858920Y-17825188D01*
X52953309Y-18069374D01*
X53120093Y-18290427D01*
X53121014Y-18291349D01*
X53264744Y-18415188D01*
X53419235Y-18500254D01*
X53605346Y-18552772D01*
X53843936Y-18578970D01*
X54105342Y-18585197D01*
X54309140Y-18587608D01*
X54438496Y-18596699D01*
X54511269Y-18615709D01*
X54545317Y-18647876D01*
X54552418Y-18666273D01*
X54572814Y-18748549D01*
X54605852Y-18892727D01*
X54645039Y-19070348D01*
X54652529Y-19105000D01*
X54729635Y-19462909D01*
X55071363Y-19462909D01*
X55248609Y-19460107D01*
X55352197Y-19448764D01*
X55400740Y-19424475D01*
X55412850Y-19382836D01*
X55412849Y-19382091D01*
X55403144Y-19316936D01*
X55375902Y-19174264D01*
X55333733Y-18966693D01*
X55279247Y-18706846D01*
X55215054Y-18407343D01*
X55143766Y-18080805D01*
X55143028Y-18077454D01*
X55113513Y-17943462D01*
X54393534Y-17943462D01*
X54376921Y-17974785D01*
X54315345Y-17986302D01*
X54190435Y-17983589D01*
X54083616Y-17977801D01*
X53871933Y-17956403D01*
X53732443Y-17917732D01*
X53661574Y-17872706D01*
X53571236Y-17750768D01*
X53565034Y-17636049D01*
X53634774Y-17538300D01*
X53772263Y-17467273D01*
X53969308Y-17432720D01*
X54032772Y-17430909D01*
X54294448Y-17430909D01*
X54325831Y-17604091D01*
X54354221Y-17751133D01*
X54381388Y-17877604D01*
X54383558Y-17886755D01*
X54393534Y-17943462D01*
X55113513Y-17943462D01*
X54873448Y-16853636D01*
X54115724Y-16853636D01*
X53831705Y-16854428D01*
G37*
X53831705Y-16854428D02*
X53623650Y-16858050D01*
X53475164Y-16866367D01*
X53369853Y-16881249D01*
X53291323Y-16904561D01*
X53223179Y-16938171D01*
X53188095Y-16959287D01*
X53001515Y-17124918D01*
X52883885Y-17335851D01*
X52836066Y-17574978D01*
X52858920Y-17825188D01*
X52953309Y-18069374D01*
X53120093Y-18290427D01*
X53121014Y-18291349D01*
X53264744Y-18415188D01*
X53419235Y-18500254D01*
X53605346Y-18552772D01*
X53843936Y-18578970D01*
X54105342Y-18585197D01*
X54309140Y-18587608D01*
X54438496Y-18596699D01*
X54511269Y-18615709D01*
X54545317Y-18647876D01*
X54552418Y-18666273D01*
X54572814Y-18748549D01*
X54605852Y-18892727D01*
X54645039Y-19070348D01*
X54652529Y-19105000D01*
X54729635Y-19462909D01*
X55071363Y-19462909D01*
X55248609Y-19460107D01*
X55352197Y-19448764D01*
X55400740Y-19424475D01*
X55412850Y-19382836D01*
X55412849Y-19382091D01*
X55403144Y-19316936D01*
X55375902Y-19174264D01*
X55333733Y-18966693D01*
X55279247Y-18706846D01*
X55215054Y-18407343D01*
X55143766Y-18080805D01*
X55143028Y-18077454D01*
X55113513Y-17943462D01*
X54393534Y-17943462D01*
X54376921Y-17974785D01*
X54315345Y-17986302D01*
X54190435Y-17983589D01*
X54083616Y-17977801D01*
X53871933Y-17956403D01*
X53732443Y-17917732D01*
X53661574Y-17872706D01*
X53571236Y-17750768D01*
X53565034Y-17636049D01*
X53634774Y-17538300D01*
X53772263Y-17467273D01*
X53969308Y-17432720D01*
X54032772Y-17430909D01*
X54294448Y-17430909D01*
X54325831Y-17604091D01*
X54354221Y-17751133D01*
X54381388Y-17877604D01*
X54383558Y-17886755D01*
X54393534Y-17943462D01*
X55113513Y-17943462D01*
X54873448Y-16853636D01*
X54115724Y-16853636D01*
X53831705Y-16854428D01*
G36*
X50943004Y-18112091D02*
G01*
X50891684Y-18445584D01*
X50845440Y-18749210D01*
X50806053Y-19011021D01*
X50775304Y-19219071D01*
X50754973Y-19361413D01*
X50746842Y-19426102D01*
X50746779Y-19428273D01*
X50790261Y-19444366D01*
X50904081Y-19456481D01*
X51066232Y-19462565D01*
X51118182Y-19462909D01*
X51487636Y-19462909D01*
X51487636Y-19328141D01*
X51491303Y-19209279D01*
X51512609Y-19129792D01*
X51567012Y-19081764D01*
X51669971Y-19057280D01*
X51836945Y-19048424D01*
X52036178Y-19047273D01*
X52528656Y-19047273D01*
X52642182Y-19255091D01*
X52755707Y-19462909D01*
X53574941Y-19462909D01*
X53474949Y-19289727D01*
X53425598Y-19205382D01*
X53336156Y-19053661D01*
X53213734Y-18846578D01*
X53065442Y-18596149D01*
X52963266Y-18423812D01*
X52180363Y-18423812D01*
X52138190Y-18435475D01*
X52027677Y-18443778D01*
X51874279Y-18446909D01*
X51568195Y-18446909D01*
X51594731Y-18273727D01*
X51614482Y-18131075D01*
X51637616Y-17944611D01*
X51653145Y-17808691D01*
X51685022Y-17516837D01*
X51932693Y-17958776D01*
X52032753Y-18139302D01*
X52113441Y-18288647D01*
X52165509Y-18389446D01*
X52180363Y-18423812D01*
X52963266Y-18423812D01*
X52898390Y-18314389D01*
X52719689Y-18013314D01*
X52696842Y-17974845D01*
X52018727Y-16833145D01*
X51579953Y-16831845D01*
X51141178Y-16830545D01*
X50943004Y-18112091D01*
G37*
X50943004Y-18112091D02*
X50891684Y-18445584D01*
X50845440Y-18749210D01*
X50806053Y-19011021D01*
X50775304Y-19219071D01*
X50754973Y-19361413D01*
X50746842Y-19426102D01*
X50746779Y-19428273D01*
X50790261Y-19444366D01*
X50904081Y-19456481D01*
X51066232Y-19462565D01*
X51118182Y-19462909D01*
X51487636Y-19462909D01*
X51487636Y-19328141D01*
X51491303Y-19209279D01*
X51512609Y-19129792D01*
X51567012Y-19081764D01*
X51669971Y-19057280D01*
X51836945Y-19048424D01*
X52036178Y-19047273D01*
X52528656Y-19047273D01*
X52642182Y-19255091D01*
X52755707Y-19462909D01*
X53574941Y-19462909D01*
X53474949Y-19289727D01*
X53425598Y-19205382D01*
X53336156Y-19053661D01*
X53213734Y-18846578D01*
X53065442Y-18596149D01*
X52963266Y-18423812D01*
X52180363Y-18423812D01*
X52138190Y-18435475D01*
X52027677Y-18443778D01*
X51874279Y-18446909D01*
X51568195Y-18446909D01*
X51594731Y-18273727D01*
X51614482Y-18131075D01*
X51637616Y-17944611D01*
X51653145Y-17808691D01*
X51685022Y-17516837D01*
X51932693Y-17958776D01*
X52032753Y-18139302D01*
X52113441Y-18288647D01*
X52165509Y-18389446D01*
X52180363Y-18423812D01*
X52963266Y-18423812D01*
X52898390Y-18314389D01*
X52719689Y-18013314D01*
X52696842Y-17974845D01*
X52018727Y-16833145D01*
X51579953Y-16831845D01*
X51141178Y-16830545D01*
X50943004Y-18112091D01*
G36*
X46309410Y-16831017D02*
G01*
X46067653Y-16833071D01*
X45895843Y-16837665D01*
X45782772Y-16845757D01*
X45717232Y-16858303D01*
X45688017Y-16876263D01*
X45683919Y-16900593D01*
X45686513Y-16911364D01*
X45713756Y-17015704D01*
X45740099Y-17130727D01*
X45764943Y-17250662D01*
X45789834Y-17333649D01*
X45830390Y-17386447D01*
X45902233Y-17415814D01*
X46020983Y-17428510D01*
X46202261Y-17431293D01*
X46433839Y-17430909D01*
X46692599Y-17432712D01*
X46871525Y-17438971D01*
X46983093Y-17450965D01*
X47039778Y-17469969D01*
X47054182Y-17494409D01*
X47062864Y-17583111D01*
X47083045Y-17702227D01*
X47111909Y-17846545D01*
X46528863Y-17846545D01*
X46309012Y-17849402D01*
X46127081Y-17857205D01*
X46000470Y-17868806D01*
X45946576Y-17883058D01*
X45945818Y-17885025D01*
X45954320Y-17948281D01*
X45976287Y-18071633D01*
X45998375Y-18185207D01*
X46050933Y-18446909D01*
X46642195Y-18446909D01*
X46865929Y-18449464D01*
X47054040Y-18456446D01*
X47188470Y-18466831D01*
X47251167Y-18479597D01*
X47253209Y-18481545D01*
X47273684Y-18546242D01*
X47299085Y-18661884D01*
X47304209Y-18689364D01*
X47335458Y-18862545D01*
X46126360Y-18862545D01*
X46158739Y-19035727D01*
X46189124Y-19185024D01*
X46219554Y-19315604D01*
X46221850Y-19324364D01*
X46252583Y-19439818D01*
X47207564Y-19452300D01*
X47532606Y-19455727D01*
X47776340Y-19455927D01*
X47949787Y-19452266D01*
X48063968Y-19444108D01*
X48129901Y-19430818D01*
X48158606Y-19411761D01*
X48162545Y-19397261D01*
X48153063Y-19337985D01*
X48126713Y-19203157D01*
X48086646Y-19007393D01*
X48036009Y-18765311D01*
X47977952Y-18491527D01*
X47915621Y-18200659D01*
X47852167Y-17907323D01*
X47790737Y-17626136D01*
X47734480Y-17371714D01*
X47686545Y-17158676D01*
X47650079Y-17001636D01*
X47628232Y-16915214D01*
X47627079Y-16911364D01*
X47611796Y-16884327D01*
X47577056Y-16864051D01*
X47511073Y-16849578D01*
X47402060Y-16839950D01*
X47238229Y-16834209D01*
X47007793Y-16831399D01*
X46698964Y-16830561D01*
X46632321Y-16830545D01*
X46309410Y-16831017D01*
G37*
X46309410Y-16831017D02*
X46067653Y-16833071D01*
X45895843Y-16837665D01*
X45782772Y-16845757D01*
X45717232Y-16858303D01*
X45688017Y-16876263D01*
X45683919Y-16900593D01*
X45686513Y-16911364D01*
X45713756Y-17015704D01*
X45740099Y-17130727D01*
X45764943Y-17250662D01*
X45789834Y-17333649D01*
X45830390Y-17386447D01*
X45902233Y-17415814D01*
X46020983Y-17428510D01*
X46202261Y-17431293D01*
X46433839Y-17430909D01*
X46692599Y-17432712D01*
X46871525Y-17438971D01*
X46983093Y-17450965D01*
X47039778Y-17469969D01*
X47054182Y-17494409D01*
X47062864Y-17583111D01*
X47083045Y-17702227D01*
X47111909Y-17846545D01*
X46528863Y-17846545D01*
X46309012Y-17849402D01*
X46127081Y-17857205D01*
X46000470Y-17868806D01*
X45946576Y-17883058D01*
X45945818Y-17885025D01*
X45954320Y-17948281D01*
X45976287Y-18071633D01*
X45998375Y-18185207D01*
X46050933Y-18446909D01*
X46642195Y-18446909D01*
X46865929Y-18449464D01*
X47054040Y-18456446D01*
X47188470Y-18466831D01*
X47251167Y-18479597D01*
X47253209Y-18481545D01*
X47273684Y-18546242D01*
X47299085Y-18661884D01*
X47304209Y-18689364D01*
X47335458Y-18862545D01*
X46126360Y-18862545D01*
X46158739Y-19035727D01*
X46189124Y-19185024D01*
X46219554Y-19315604D01*
X46221850Y-19324364D01*
X46252583Y-19439818D01*
X47207564Y-19452300D01*
X47532606Y-19455727D01*
X47776340Y-19455927D01*
X47949787Y-19452266D01*
X48063968Y-19444108D01*
X48129901Y-19430818D01*
X48158606Y-19411761D01*
X48162545Y-19397261D01*
X48153063Y-19337985D01*
X48126713Y-19203157D01*
X48086646Y-19007393D01*
X48036009Y-18765311D01*
X47977952Y-18491527D01*
X47915621Y-18200659D01*
X47852167Y-17907323D01*
X47790737Y-17626136D01*
X47734480Y-17371714D01*
X47686545Y-17158676D01*
X47650079Y-17001636D01*
X47628232Y-16915214D01*
X47627079Y-16911364D01*
X47611796Y-16884327D01*
X47577056Y-16864051D01*
X47511073Y-16849578D01*
X47402060Y-16839950D01*
X47238229Y-16834209D01*
X47007793Y-16831399D01*
X46698964Y-16830561D01*
X46632321Y-16830545D01*
X46309410Y-16831017D01*
G36*
X49971983Y-14878001D02*
G01*
X49987972Y-14953532D01*
X50029972Y-14993851D01*
X50122699Y-15012691D01*
X50228041Y-15020283D01*
X50318257Y-15024480D01*
X50385722Y-15033220D01*
X50436605Y-15058661D01*
X50477079Y-15112963D01*
X50513314Y-15208285D01*
X50551480Y-15356785D01*
X50597750Y-15570622D01*
X50658294Y-15861956D01*
X50660448Y-15872273D01*
X50706623Y-16089254D01*
X50741670Y-16231523D01*
X50773034Y-16314844D01*
X50808164Y-16354981D01*
X50854507Y-16367698D01*
X50894982Y-16368727D01*
X50994981Y-16350473D01*
X51024370Y-16289232D01*
X51024352Y-16287909D01*
X51014201Y-16213946D01*
X50987514Y-16069773D01*
X50948186Y-15875259D01*
X50900111Y-15650271D01*
X50893081Y-15618273D01*
X50763275Y-15029454D01*
X50989978Y-15029454D01*
X51124653Y-15026415D01*
X51189391Y-15008349D01*
X51206604Y-14961837D01*
X51202067Y-14902454D01*
X51187454Y-14775454D01*
X49957238Y-14749638D01*
X49971983Y-14878001D01*
G37*
X49971983Y-14878001D02*
X49987972Y-14953532D01*
X50029972Y-14993851D01*
X50122699Y-15012691D01*
X50228041Y-15020283D01*
X50318257Y-15024480D01*
X50385722Y-15033220D01*
X50436605Y-15058661D01*
X50477079Y-15112963D01*
X50513314Y-15208285D01*
X50551480Y-15356785D01*
X50597750Y-15570622D01*
X50658294Y-15861956D01*
X50660448Y-15872273D01*
X50706623Y-16089254D01*
X50741670Y-16231523D01*
X50773034Y-16314844D01*
X50808164Y-16354981D01*
X50854507Y-16367698D01*
X50894982Y-16368727D01*
X50994981Y-16350473D01*
X51024370Y-16289232D01*
X51024352Y-16287909D01*
X51014201Y-16213946D01*
X50987514Y-16069773D01*
X50948186Y-15875259D01*
X50900111Y-15650271D01*
X50893081Y-15618273D01*
X50763275Y-15029454D01*
X50989978Y-15029454D01*
X51124653Y-15026415D01*
X51189391Y-15008349D01*
X51206604Y-14961837D01*
X51202067Y-14902454D01*
X51187454Y-14775454D01*
X49957238Y-14749638D01*
X49971983Y-14878001D01*
G36*
X49404516Y-14764011D02*
G01*
X49363282Y-14792072D01*
X49363273Y-14792550D01*
X49372930Y-14851508D01*
X49399098Y-14980376D01*
X49437573Y-15159054D01*
X49475956Y-15331293D01*
X49524894Y-15555552D01*
X49552616Y-15710187D01*
X49560650Y-15815094D01*
X49550524Y-15890167D01*
X49523846Y-15955146D01*
X49412435Y-16085039D01*
X49263989Y-16138933D01*
X49098421Y-16113545D01*
X48980298Y-16044732D01*
X48921092Y-15990670D01*
X48872452Y-15922682D01*
X48828735Y-15825445D01*
X48784297Y-15683636D01*
X48733495Y-15481933D01*
X48670687Y-15205013D01*
X48670161Y-15202636D01*
X48623913Y-14998081D01*
X48588651Y-14867297D01*
X48555790Y-14793791D01*
X48516748Y-14761067D01*
X48462941Y-14752632D01*
X48435845Y-14752364D01*
X48340193Y-14764250D01*
X48301091Y-14792339D01*
X48312194Y-14871713D01*
X48341874Y-15017811D01*
X48384686Y-15208168D01*
X48435185Y-15420323D01*
X48487926Y-15631814D01*
X48537464Y-15820177D01*
X48578354Y-15962951D01*
X48600572Y-16027810D01*
X48685493Y-16157760D01*
X48805994Y-16267613D01*
X48817857Y-16275180D01*
X49007736Y-16347098D01*
X49234835Y-16370070D01*
X49459396Y-16343935D01*
X49626303Y-16278399D01*
X49740093Y-16189244D01*
X49811654Y-16077618D01*
X49842940Y-15929323D01*
X49835906Y-15730156D01*
X49792507Y-15465918D01*
X49759351Y-15311884D01*
X49712677Y-15104294D01*
X49674601Y-14932350D01*
X49649158Y-14814460D01*
X49640363Y-14769248D01*
X49600145Y-14757382D01*
X49503273Y-14752364D01*
X49501818Y-14752364D01*
X49404516Y-14764011D01*
G37*
X49404516Y-14764011D02*
X49363282Y-14792072D01*
X49363273Y-14792550D01*
X49372930Y-14851508D01*
X49399098Y-14980376D01*
X49437573Y-15159054D01*
X49475956Y-15331293D01*
X49524894Y-15555552D01*
X49552616Y-15710187D01*
X49560650Y-15815094D01*
X49550524Y-15890167D01*
X49523846Y-15955146D01*
X49412435Y-16085039D01*
X49263989Y-16138933D01*
X49098421Y-16113545D01*
X48980298Y-16044732D01*
X48921092Y-15990670D01*
X48872452Y-15922682D01*
X48828735Y-15825445D01*
X48784297Y-15683636D01*
X48733495Y-15481933D01*
X48670687Y-15205013D01*
X48670161Y-15202636D01*
X48623913Y-14998081D01*
X48588651Y-14867297D01*
X48555790Y-14793791D01*
X48516748Y-14761067D01*
X48462941Y-14752632D01*
X48435845Y-14752364D01*
X48340193Y-14764250D01*
X48301091Y-14792339D01*
X48312194Y-14871713D01*
X48341874Y-15017811D01*
X48384686Y-15208168D01*
X48435185Y-15420323D01*
X48487926Y-15631814D01*
X48537464Y-15820177D01*
X48578354Y-15962951D01*
X48600572Y-16027810D01*
X48685493Y-16157760D01*
X48805994Y-16267613D01*
X48817857Y-16275180D01*
X49007736Y-16347098D01*
X49234835Y-16370070D01*
X49459396Y-16343935D01*
X49626303Y-16278399D01*
X49740093Y-16189244D01*
X49811654Y-16077618D01*
X49842940Y-15929323D01*
X49835906Y-15730156D01*
X49792507Y-15465918D01*
X49759351Y-15311884D01*
X49712677Y-15104294D01*
X49674601Y-14932350D01*
X49649158Y-14814460D01*
X49640363Y-14769248D01*
X49600145Y-14757382D01*
X49503273Y-14752364D01*
X49501818Y-14752364D01*
X49404516Y-14764011D01*
G36*
X46997876Y-15318091D02*
G01*
X46984909Y-15883818D01*
X46695917Y-15318091D01*
X46576093Y-15087564D01*
X46486911Y-14928224D01*
X46419655Y-14827699D01*
X46365610Y-14773618D01*
X46316061Y-14753609D01*
X46297380Y-14752364D01*
X46251765Y-14755708D01*
X46219876Y-14775788D01*
X46197975Y-14827669D01*
X46182324Y-14926420D01*
X46169184Y-15087108D01*
X46154820Y-15324800D01*
X46154652Y-15327716D01*
X46121466Y-15903068D01*
X45839843Y-15327716D01*
X45727182Y-15099203D01*
X45645011Y-14940942D01*
X45583599Y-14840038D01*
X45533214Y-14783594D01*
X45484125Y-14758718D01*
X45426602Y-14752512D01*
X45405655Y-14752364D01*
X45302411Y-14758628D01*
X45253666Y-14773916D01*
X45253091Y-14775967D01*
X45272811Y-14822713D01*
X45327712Y-14938793D01*
X45411405Y-15111061D01*
X45517498Y-15326372D01*
X45639602Y-15571580D01*
X45647296Y-15586951D01*
X46041501Y-16374332D01*
X46338363Y-16345636D01*
X46351471Y-15849182D01*
X46359807Y-15647566D01*
X46372248Y-15485330D01*
X46386976Y-15381330D01*
X46399329Y-15352727D01*
X46431888Y-15391728D01*
X46495321Y-15498081D01*
X46580651Y-15655812D01*
X46678906Y-15848948D01*
X46684727Y-15860727D01*
X46790949Y-16073537D01*
X46867911Y-16216793D01*
X46926314Y-16304213D01*
X46976854Y-16349518D01*
X47030231Y-16366426D01*
X47080865Y-16368727D01*
X47226353Y-16368727D01*
X47257263Y-15826091D01*
X47272404Y-15579608D01*
X47289178Y-15337342D01*
X47305284Y-15131157D01*
X47315688Y-15017909D01*
X47343203Y-14752364D01*
X47177023Y-14752364D01*
X47010843Y-14752363D01*
X46997876Y-15318091D01*
G37*
X46997876Y-15318091D02*
X46984909Y-15883818D01*
X46695917Y-15318091D01*
X46576093Y-15087564D01*
X46486911Y-14928224D01*
X46419655Y-14827699D01*
X46365610Y-14773618D01*
X46316061Y-14753609D01*
X46297380Y-14752364D01*
X46251765Y-14755708D01*
X46219876Y-14775788D01*
X46197975Y-14827669D01*
X46182324Y-14926420D01*
X46169184Y-15087108D01*
X46154820Y-15324800D01*
X46154652Y-15327716D01*
X46121466Y-15903068D01*
X45839843Y-15327716D01*
X45727182Y-15099203D01*
X45645011Y-14940942D01*
X45583599Y-14840038D01*
X45533214Y-14783594D01*
X45484125Y-14758718D01*
X45426602Y-14752512D01*
X45405655Y-14752364D01*
X45302411Y-14758628D01*
X45253666Y-14773916D01*
X45253091Y-14775967D01*
X45272811Y-14822713D01*
X45327712Y-14938793D01*
X45411405Y-15111061D01*
X45517498Y-15326372D01*
X45639602Y-15571580D01*
X45647296Y-15586951D01*
X46041501Y-16374332D01*
X46338363Y-16345636D01*
X46351471Y-15849182D01*
X46359807Y-15647566D01*
X46372248Y-15485330D01*
X46386976Y-15381330D01*
X46399329Y-15352727D01*
X46431888Y-15391728D01*
X46495321Y-15498081D01*
X46580651Y-15655812D01*
X46678906Y-15848948D01*
X46684727Y-15860727D01*
X46790949Y-16073537D01*
X46867911Y-16216793D01*
X46926314Y-16304213D01*
X46976854Y-16349518D01*
X47030231Y-16366426D01*
X47080865Y-16368727D01*
X47226353Y-16368727D01*
X47257263Y-15826091D01*
X47272404Y-15579608D01*
X47289178Y-15337342D01*
X47305284Y-15131157D01*
X47315688Y-15017909D01*
X47343203Y-14752364D01*
X47177023Y-14752364D01*
X47010843Y-14752363D01*
X46997876Y-15318091D01*
G36*
X43757463Y-14752946D02*
G01*
X43603351Y-14756448D01*
X43512226Y-14765901D01*
X43469398Y-14784237D01*
X43460179Y-14814386D01*
X43469074Y-14856273D01*
X43491377Y-14952131D01*
X43497551Y-14994818D01*
X43540583Y-15010073D01*
X43655316Y-15021900D01*
X43821105Y-15028580D01*
X43913818Y-15029454D01*
X44120676Y-15032708D01*
X44249441Y-15043902D01*
X44314204Y-15065191D01*
X44329454Y-15092954D01*
X44338137Y-15181657D01*
X44358318Y-15300773D01*
X44387182Y-15445091D01*
X44011954Y-15445091D01*
X43826988Y-15446275D01*
X43715683Y-15453665D01*
X43659340Y-15473014D01*
X43639257Y-15510076D01*
X43636727Y-15560545D01*
X43640107Y-15615505D01*
X43662179Y-15649488D01*
X43720841Y-15667536D01*
X43833992Y-15674692D01*
X44019528Y-15675997D01*
X44046591Y-15676000D01*
X44456454Y-15676000D01*
X44485318Y-15820318D01*
X44508969Y-15951467D01*
X44505080Y-16031618D01*
X44457893Y-16073327D01*
X44351644Y-16089148D01*
X44170575Y-16091637D01*
X44144727Y-16091636D01*
X43775273Y-16091636D01*
X43775273Y-16368727D01*
X44334841Y-16368727D01*
X44569498Y-16368223D01*
X44726356Y-16364816D01*
X44819977Y-16355662D01*
X44864926Y-16337916D01*
X44875766Y-16308735D01*
X44867060Y-16265274D01*
X44866939Y-16264818D01*
X44847958Y-16184727D01*
X44813827Y-16032775D01*
X44768631Y-15827438D01*
X44716452Y-15587195D01*
X44688371Y-15456737D01*
X44537273Y-14752565D01*
X43989250Y-14752464D01*
X43757463Y-14752946D01*
G37*
X43757463Y-14752946D02*
X43603351Y-14756448D01*
X43512226Y-14765901D01*
X43469398Y-14784237D01*
X43460179Y-14814386D01*
X43469074Y-14856273D01*
X43491377Y-14952131D01*
X43497551Y-14994818D01*
X43540583Y-15010073D01*
X43655316Y-15021900D01*
X43821105Y-15028580D01*
X43913818Y-15029454D01*
X44120676Y-15032708D01*
X44249441Y-15043902D01*
X44314204Y-15065191D01*
X44329454Y-15092954D01*
X44338137Y-15181657D01*
X44358318Y-15300773D01*
X44387182Y-15445091D01*
X44011954Y-15445091D01*
X43826988Y-15446275D01*
X43715683Y-15453665D01*
X43659340Y-15473014D01*
X43639257Y-15510076D01*
X43636727Y-15560545D01*
X43640107Y-15615505D01*
X43662179Y-15649488D01*
X43720841Y-15667536D01*
X43833992Y-15674692D01*
X44019528Y-15675997D01*
X44046591Y-15676000D01*
X44456454Y-15676000D01*
X44485318Y-15820318D01*
X44508969Y-15951467D01*
X44505080Y-16031618D01*
X44457893Y-16073327D01*
X44351644Y-16089148D01*
X44170575Y-16091637D01*
X44144727Y-16091636D01*
X43775273Y-16091636D01*
X43775273Y-16368727D01*
X44334841Y-16368727D01*
X44569498Y-16368223D01*
X44726356Y-16364816D01*
X44819977Y-16355662D01*
X44864926Y-16337916D01*
X44875766Y-16308735D01*
X44867060Y-16265274D01*
X44866939Y-16264818D01*
X44847958Y-16184727D01*
X44813827Y-16032775D01*
X44768631Y-15827438D01*
X44716452Y-15587195D01*
X44688371Y-15456737D01*
X44537273Y-14752565D01*
X43989250Y-14752464D01*
X43757463Y-14752946D01*
G36*
X41782352Y-14762471D02*
G01*
X41743273Y-14786338D01*
X41752769Y-14840543D01*
X41779085Y-14969477D01*
X41818961Y-15157712D01*
X41869139Y-15389824D01*
X41914020Y-15594520D01*
X42084767Y-16368727D01*
X42217381Y-16368727D01*
X42273747Y-16363482D01*
X42322189Y-16338875D01*
X42372106Y-16281600D01*
X42432901Y-16178352D01*
X42513975Y-16015824D01*
X42608930Y-15814545D01*
X42706580Y-15609765D01*
X42791690Y-15439149D01*
X42856251Y-15318185D01*
X42892251Y-15262364D01*
X42895540Y-15260364D01*
X42915297Y-15302707D01*
X42948773Y-15418071D01*
X42991328Y-15588956D01*
X43038321Y-15797861D01*
X43039423Y-15803000D01*
X43155630Y-16345636D01*
X43305460Y-16360230D01*
X43406163Y-16363280D01*
X43438805Y-16333348D01*
X43429821Y-16267867D01*
X43411202Y-16186448D01*
X43376913Y-16033567D01*
X43331135Y-15827967D01*
X43278047Y-15588391D01*
X43251494Y-15468182D01*
X43098637Y-14775454D01*
X42960820Y-14761637D01*
X42904791Y-14759412D01*
X42858414Y-14773970D01*
X42812625Y-14817952D01*
X42758359Y-14903998D01*
X42686549Y-15044749D01*
X42588131Y-15252845D01*
X42550344Y-15333989D01*
X42442467Y-15563667D01*
X42365935Y-15718623D01*
X42314310Y-15808416D01*
X42281150Y-15842604D01*
X42260016Y-15830747D01*
X42245451Y-15786533D01*
X42221524Y-15683882D01*
X42183868Y-15518491D01*
X42138709Y-15317802D01*
X42112999Y-15202636D01*
X42066454Y-14998102D01*
X42030990Y-14867323D01*
X41998004Y-14793809D01*
X41958892Y-14761075D01*
X41905050Y-14752632D01*
X41878027Y-14752364D01*
X41782352Y-14762471D01*
G37*
X41782352Y-14762471D02*
X41743273Y-14786338D01*
X41752769Y-14840543D01*
X41779085Y-14969477D01*
X41818961Y-15157712D01*
X41869139Y-15389824D01*
X41914020Y-15594520D01*
X42084767Y-16368727D01*
X42217381Y-16368727D01*
X42273747Y-16363482D01*
X42322189Y-16338875D01*
X42372106Y-16281600D01*
X42432901Y-16178352D01*
X42513975Y-16015824D01*
X42608930Y-15814545D01*
X42706580Y-15609765D01*
X42791690Y-15439149D01*
X42856251Y-15318185D01*
X42892251Y-15262364D01*
X42895540Y-15260364D01*
X42915297Y-15302707D01*
X42948773Y-15418071D01*
X42991328Y-15588956D01*
X43038321Y-15797861D01*
X43039423Y-15803000D01*
X43155630Y-16345636D01*
X43305460Y-16360230D01*
X43406163Y-16363280D01*
X43438805Y-16333348D01*
X43429821Y-16267867D01*
X43411202Y-16186448D01*
X43376913Y-16033567D01*
X43331135Y-15827967D01*
X43278047Y-15588391D01*
X43251494Y-15468182D01*
X43098637Y-14775454D01*
X42960820Y-14761637D01*
X42904791Y-14759412D01*
X42858414Y-14773970D01*
X42812625Y-14817952D01*
X42758359Y-14903998D01*
X42686549Y-15044749D01*
X42588131Y-15252845D01*
X42550344Y-15333989D01*
X42442467Y-15563667D01*
X42365935Y-15718623D01*
X42314310Y-15808416D01*
X42281150Y-15842604D01*
X42260016Y-15830747D01*
X42245451Y-15786533D01*
X42221524Y-15683882D01*
X42183868Y-15518491D01*
X42138709Y-15317802D01*
X42112999Y-15202636D01*
X42066454Y-14998102D01*
X42030990Y-14867323D01*
X41998004Y-14793809D01*
X41958892Y-14761075D01*
X41905050Y-14752632D01*
X41878027Y-14752364D01*
X41782352Y-14762471D01*
G36*
X44113407Y-11234617D02*
G01*
X44081898Y-11340189D01*
X44065893Y-11509696D01*
X44066297Y-11729433D01*
X44084016Y-11985698D01*
X44099235Y-12120000D01*
X44124599Y-12379734D01*
X44142654Y-12685511D01*
X44151119Y-12991147D01*
X44150573Y-13159091D01*
X44153632Y-13490278D01*
X44175430Y-13763230D01*
X44214448Y-13969058D01*
X44269165Y-14098873D01*
X44318522Y-14140659D01*
X44370767Y-14114632D01*
X44449261Y-14028014D01*
X44520683Y-13924805D01*
X44601513Y-13800356D01*
X44663402Y-13715284D01*
X44689159Y-13690182D01*
X44737646Y-13712468D01*
X44839486Y-13770074D01*
X44936950Y-13828727D01*
X45067355Y-13904392D01*
X45168324Y-13954715D01*
X45207603Y-13967273D01*
X45247363Y-13928310D01*
X45252814Y-13822944D01*
X45228731Y-13668462D01*
X45179888Y-13482147D01*
X45111059Y-13281285D01*
X45027017Y-13083161D01*
X44932537Y-12905061D01*
X44900122Y-12853987D01*
X44820937Y-12708175D01*
X44737959Y-12511927D01*
X44667750Y-12304900D01*
X44661087Y-12281636D01*
X44597481Y-12082646D01*
X44516007Y-11868005D01*
X44425343Y-11656314D01*
X44334167Y-11466171D01*
X44251157Y-11316176D01*
X44184992Y-11224927D01*
X44159517Y-11206683D01*
X44113407Y-11234617D01*
G37*
X44113407Y-11234617D02*
X44081898Y-11340189D01*
X44065893Y-11509696D01*
X44066297Y-11729433D01*
X44084016Y-11985698D01*
X44099235Y-12120000D01*
X44124599Y-12379734D01*
X44142654Y-12685511D01*
X44151119Y-12991147D01*
X44150573Y-13159091D01*
X44153632Y-13490278D01*
X44175430Y-13763230D01*
X44214448Y-13969058D01*
X44269165Y-14098873D01*
X44318522Y-14140659D01*
X44370767Y-14114632D01*
X44449261Y-14028014D01*
X44520683Y-13924805D01*
X44601513Y-13800356D01*
X44663402Y-13715284D01*
X44689159Y-13690182D01*
X44737646Y-13712468D01*
X44839486Y-13770074D01*
X44936950Y-13828727D01*
X45067355Y-13904392D01*
X45168324Y-13954715D01*
X45207603Y-13967273D01*
X45247363Y-13928310D01*
X45252814Y-13822944D01*
X45228731Y-13668462D01*
X45179888Y-13482147D01*
X45111059Y-13281285D01*
X45027017Y-13083161D01*
X44932537Y-12905061D01*
X44900122Y-12853987D01*
X44820937Y-12708175D01*
X44737959Y-12511927D01*
X44667750Y-12304900D01*
X44661087Y-12281636D01*
X44597481Y-12082646D01*
X44516007Y-11868005D01*
X44425343Y-11656314D01*
X44334167Y-11466171D01*
X44251157Y-11316176D01*
X44184992Y-11224927D01*
X44159517Y-11206683D01*
X44113407Y-11234617D01*
D12*
%TO.C,JP2*%
X41250000Y-10950000D02*
X35050000Y-10950000D01*
X41250000Y-17750000D02*
X41250000Y-10950000D01*
X35050000Y-17750000D02*
X41250000Y-17750000D01*
X35050000Y-10950000D02*
X35050000Y-17750000D01*
%TO.C,J1*%
X10800000Y-24000000D02*
X7000000Y-24000000D01*
X7000000Y-16000000D02*
X10800000Y-16000000D01*
D15*
X0Y-11000000D02*
X0Y-29000000D01*
X0Y-29000000D02*
X7000000Y-29000000D01*
X7000000Y-29000000D02*
X7000000Y-11000000D01*
X7000000Y-11000000D02*
X0Y-11000000D01*
D12*
X10800000Y-16000000D02*
X10800000Y-24000000D01*
%TO.C,J19*%
X48480000Y-4000000D02*
X46350000Y-4000000D01*
X48480000Y-1850000D02*
X48480000Y-4000000D01*
X39890000Y-6560000D02*
X42600000Y-6560000D01*
X39890000Y-3700000D02*
X39890000Y-6560000D01*
X37020000Y-3700000D02*
X39890000Y-3700000D01*
X37020000Y0D02*
X37020000Y-3700000D01*
X42600000Y0D02*
X37020000Y0D01*
X45310000Y-6560000D02*
X42600000Y-6560000D01*
X45310000Y-3700000D02*
X45310000Y-6560000D01*
X48180000Y-3700000D02*
X45310000Y-3700000D01*
X48180000Y0D02*
X48180000Y-3700000D01*
X42600000Y0D02*
X48180000Y0D01*
%TO.C,J18*%
X36530000Y-4000000D02*
X34400000Y-4000000D01*
X36530000Y-1850000D02*
X36530000Y-4000000D01*
X27940000Y-6560000D02*
X30650000Y-6560000D01*
X27940000Y-3700000D02*
X27940000Y-6560000D01*
X25070000Y-3700000D02*
X27940000Y-3700000D01*
X25070000Y0D02*
X25070000Y-3700000D01*
X30650000Y0D02*
X25070000Y0D01*
X33360000Y-6560000D02*
X30650000Y-6560000D01*
X33360000Y-3700000D02*
X33360000Y-6560000D01*
X36230000Y-3700000D02*
X33360000Y-3700000D01*
X36230000Y0D02*
X36230000Y-3700000D01*
X30650000Y0D02*
X36230000Y0D01*
%TO.C,J9*%
X60430000Y-4000000D02*
X58300000Y-4000000D01*
X60430000Y-1850000D02*
X60430000Y-4000000D01*
X51840000Y-6560000D02*
X54550000Y-6560000D01*
X51840000Y-3700000D02*
X51840000Y-6560000D01*
X48970000Y-3700000D02*
X51840000Y-3700000D01*
X48970000Y0D02*
X48970000Y-3700000D01*
X54550000Y0D02*
X48970000Y0D01*
X57260000Y-6560000D02*
X54550000Y-6560000D01*
X57260000Y-3700000D02*
X57260000Y-6560000D01*
X60130000Y-3700000D02*
X57260000Y-3700000D01*
X60130000Y0D02*
X60130000Y-3700000D01*
X54550000Y0D02*
X60130000Y0D01*
%TO.C,J20*%
X16450000Y-6560000D02*
X19160000Y-6560000D01*
X16450000Y-3700000D02*
X16450000Y-6560000D01*
X16080000Y-3700000D02*
X16450000Y-3700000D01*
X16080000Y0D02*
X16080000Y-3700000D01*
X19160000Y0D02*
X16080000Y0D01*
X21870000Y-6560000D02*
X19160000Y-6560000D01*
X21870000Y-3700000D02*
X21870000Y-6560000D01*
X22240000Y-3700000D02*
X21870000Y-3700000D01*
X22240000Y0D02*
X22240000Y-3700000D01*
X19160000Y0D02*
X22240000Y0D01*
%TO.C,J10*%
X9500000Y-6560000D02*
X12210000Y-6560000D01*
X9500000Y-3700000D02*
X9500000Y-6560000D01*
X9130000Y-3700000D02*
X9500000Y-3700000D01*
X9130000Y0D02*
X9130000Y-3700000D01*
X12210000Y0D02*
X9130000Y0D01*
X14920000Y-6560000D02*
X12210000Y-6560000D01*
X14920000Y-3700000D02*
X14920000Y-6560000D01*
X15290000Y-3700000D02*
X14920000Y-3700000D01*
X15290000Y0D02*
X15290000Y-3700000D01*
X12210000Y0D02*
X15290000Y0D01*
%TO.C,J22*%
X7700000Y-40000000D02*
X15300000Y-40000000D01*
X7700000Y-33300000D02*
X7700000Y-40000000D01*
X15300000Y-33300000D02*
X7700000Y-33300000D01*
X15300000Y-40000000D02*
X15300000Y-33300000D01*
%TO.C,J21*%
X16550000Y-40000000D02*
X24150000Y-40000000D01*
X16550000Y-33300000D02*
X16550000Y-40000000D01*
X24150000Y-33300000D02*
X16550000Y-33300000D01*
X24150000Y-40000000D02*
X24150000Y-33300000D01*
%TO.C,J11*%
X25400000Y-40000000D02*
X33000000Y-40000000D01*
X25400000Y-33300000D02*
X25400000Y-40000000D01*
X33000000Y-33300000D02*
X25400000Y-33300000D01*
X33000000Y-40000000D02*
X33000000Y-33300000D01*
%TO.C,D17*%
X10000000Y-12385000D02*
X7715000Y-12385000D01*
X7715000Y-12385000D02*
X7715000Y-10915000D01*
X7715000Y-10915000D02*
X10000000Y-10915000D01*
%TO.C,D3*%
X10000000Y-15485000D02*
X7715000Y-15485000D01*
X7715000Y-15485000D02*
X7715000Y-14015000D01*
X7715000Y-14015000D02*
X10000000Y-14015000D01*
%TO.C,D16*%
X41115000Y-6765000D02*
X43400000Y-6765000D01*
X41115000Y-8235000D02*
X41115000Y-6765000D01*
X43400000Y-8235000D02*
X41115000Y-8235000D01*
%TO.C,D15*%
X29165000Y-6765000D02*
X31450000Y-6765000D01*
X29165000Y-8235000D02*
X29165000Y-6765000D01*
X31450000Y-8235000D02*
X29165000Y-8235000D01*
%TO.C,D14*%
X53065000Y-6765000D02*
X55350000Y-6765000D01*
X53065000Y-8235000D02*
X53065000Y-6765000D01*
X55350000Y-8235000D02*
X53065000Y-8235000D01*
%TO.C,J23*%
X41815000Y-27490000D02*
X35885000Y-27490000D01*
X34615000Y-31960000D02*
X36415000Y-31960000D01*
X34615000Y-30360000D02*
X34615000Y-31960000D01*
X41285000Y-31960000D02*
X41285000Y-32900000D01*
X43085000Y-31960000D02*
X41285000Y-31960000D01*
X43085000Y-30360000D02*
X43085000Y-31960000D01*
%TO.C,J38*%
X13285000Y-25910000D02*
X19215000Y-25910000D01*
X20485000Y-21440000D02*
X18685000Y-21440000D01*
X20485000Y-23040000D02*
X20485000Y-21440000D01*
X13815000Y-21440000D02*
X13815000Y-20500000D01*
X12015000Y-21440000D02*
X13815000Y-21440000D01*
X12015000Y-23040000D02*
X12015000Y-21440000D01*
%TO.C,J37*%
X22735000Y-25910000D02*
X28665000Y-25910000D01*
X29935000Y-21440000D02*
X28135000Y-21440000D01*
X29935000Y-23040000D02*
X29935000Y-21440000D01*
X23265000Y-21440000D02*
X23265000Y-20500000D01*
X21465000Y-21440000D02*
X23265000Y-21440000D01*
X21465000Y-23040000D02*
X21465000Y-21440000D01*
%TO.C,J36*%
X19215000Y-14090000D02*
X13285000Y-14090000D01*
X12015000Y-18560000D02*
X13815000Y-18560000D01*
X12015000Y-16960000D02*
X12015000Y-18560000D01*
X18685000Y-18560000D02*
X18685000Y-19500000D01*
X20485000Y-18560000D02*
X18685000Y-18560000D01*
X20485000Y-16960000D02*
X20485000Y-18560000D01*
%TO.C,J35*%
X28665000Y-14090000D02*
X22735000Y-14090000D01*
X21465000Y-18560000D02*
X23265000Y-18560000D01*
X21465000Y-16960000D02*
X21465000Y-18560000D01*
X28135000Y-18560000D02*
X28135000Y-19500000D01*
X29935000Y-18560000D02*
X28135000Y-18560000D01*
X29935000Y-16960000D02*
X29935000Y-18560000D01*
%TO.C,J17*%
X66440000Y-13935000D02*
X64840000Y-13935000D01*
X64840000Y-13935000D02*
X64840000Y-12135000D01*
X64840000Y-12135000D02*
X63900000Y-12135000D01*
X66440000Y-7965000D02*
X64840000Y-7965000D01*
X64840000Y-7965000D02*
X64840000Y-9765000D01*
X69310000Y-12665000D02*
X69310000Y-9235000D01*
%TO.C,J16*%
X66440000Y-27935000D02*
X64840000Y-27935000D01*
X64840000Y-27935000D02*
X64840000Y-26135000D01*
X64840000Y-26135000D02*
X63900000Y-26135000D01*
X66440000Y-21965000D02*
X64840000Y-21965000D01*
X64840000Y-21965000D02*
X64840000Y-23765000D01*
X69310000Y-26665000D02*
X69310000Y-23235000D01*
%TO.C,J15*%
X52525000Y-30350000D02*
X52525000Y-31950000D01*
X52525000Y-31950000D02*
X50725000Y-31950000D01*
X50725000Y-31950000D02*
X50725000Y-32890000D01*
X44055000Y-30350000D02*
X44055000Y-31950000D01*
X44055000Y-31950000D02*
X45855000Y-31950000D01*
X51255000Y-27480000D02*
X45325000Y-27480000D01*
%TO.C,J14*%
X53515000Y-36450000D02*
X53515000Y-34850000D01*
X53515000Y-34850000D02*
X55315000Y-34850000D01*
X55315000Y-34850000D02*
X55315000Y-33910000D01*
X61985000Y-36450000D02*
X61985000Y-34850000D01*
X61985000Y-34850000D02*
X60185000Y-34850000D01*
X54785000Y-39320000D02*
X60715000Y-39320000D01*
%TO.C,J13*%
X44075000Y-36450000D02*
X44075000Y-34850000D01*
X44075000Y-34850000D02*
X45875000Y-34850000D01*
X45875000Y-34850000D02*
X45875000Y-33910000D01*
X52545000Y-36450000D02*
X52545000Y-34850000D01*
X52545000Y-34850000D02*
X50745000Y-34850000D01*
X45345000Y-39320000D02*
X51275000Y-39320000D01*
%TO.C,J12*%
X34625000Y-36470000D02*
X34625000Y-34870000D01*
X34625000Y-34870000D02*
X36425000Y-34870000D01*
X36425000Y-34870000D02*
X36425000Y-33930000D01*
X43095000Y-36470000D02*
X43095000Y-34870000D01*
X43095000Y-34870000D02*
X41295000Y-34870000D01*
X35895000Y-39340000D02*
X41825000Y-39340000D01*
%TO.C,J8*%
X66440000Y-20935000D02*
X64840000Y-20935000D01*
X64840000Y-20935000D02*
X64840000Y-19135000D01*
X64840000Y-19135000D02*
X63900000Y-19135000D01*
X66440000Y-14965000D02*
X64840000Y-14965000D01*
X64840000Y-14965000D02*
X64840000Y-16765000D01*
X69310000Y-19665000D02*
X69310000Y-16235000D01*
%TO.C,J7*%
X61975000Y-30350000D02*
X61975000Y-31950000D01*
X61975000Y-31950000D02*
X60175000Y-31950000D01*
X60175000Y-31950000D02*
X60175000Y-32890000D01*
X53505000Y-30350000D02*
X53505000Y-31950000D01*
X53505000Y-31950000D02*
X55305000Y-31950000D01*
X60705000Y-27480000D02*
X54775000Y-27480000D01*
%TO.C,D12*%
X12300000Y-33085000D02*
X10015000Y-33085000D01*
X10015000Y-33085000D02*
X10015000Y-31615000D01*
X10015000Y-31615000D02*
X12300000Y-31615000D01*
%TO.C,D11*%
X21150000Y-33085000D02*
X18865000Y-33085000D01*
X18865000Y-33085000D02*
X18865000Y-31615000D01*
X18865000Y-31615000D02*
X21150000Y-31615000D01*
%TO.C,D9*%
X19950000Y-8235000D02*
X17665000Y-8235000D01*
X17665000Y-8235000D02*
X17665000Y-6765000D01*
X17665000Y-6765000D02*
X19950000Y-6765000D01*
%TO.C,D8*%
X30000000Y-33085000D02*
X27715000Y-33085000D01*
X27715000Y-33085000D02*
X27715000Y-31615000D01*
X27715000Y-31615000D02*
X30000000Y-31615000D01*
%TO.C,D6*%
X13000000Y-8235000D02*
X10715000Y-8235000D01*
X10715000Y-8235000D02*
X10715000Y-6765000D01*
X10715000Y-6765000D02*
X13000000Y-6765000D01*
%TO.C,J2*%
X54635000Y-16035000D02*
X54635000Y-16100000D01*
X58165000Y-16035000D02*
X58165000Y-16100000D01*
X54635000Y-10900000D02*
X54635000Y-10965000D01*
X58165000Y-10900000D02*
X58165000Y-10965000D01*
X59490000Y-10965000D02*
X58165000Y-10965000D01*
X58165000Y-16100000D02*
X54635000Y-16100000D01*
X58165000Y-10900000D02*
X54635000Y-10900000D01*
%TO.C,D5*%
X56565000Y-24415000D02*
X58850000Y-24415000D01*
X56565000Y-25885000D02*
X56565000Y-24415000D01*
X58850000Y-25885000D02*
X56565000Y-25885000D01*
%TO.C,D4*%
X56565000Y-22315000D02*
X58850000Y-22315000D01*
X56565000Y-23785000D02*
X56565000Y-22315000D01*
X58850000Y-23785000D02*
X56565000Y-23785000D01*
%TO.C,D2*%
X3415000Y-29215000D02*
X5700000Y-29215000D01*
X3415000Y-30685000D02*
X3415000Y-29215000D01*
X5700000Y-30685000D02*
X3415000Y-30685000D01*
%TO.C,D1*%
X3415000Y-9315000D02*
X5700000Y-9315000D01*
X3415000Y-10785000D02*
X3415000Y-9315000D01*
X5700000Y-10785000D02*
X3415000Y-10785000D01*
%TO.C,D17*%
D15*
X10438095Y-9672380D02*
X9819047Y-9672380D01*
X10152380Y-10053333D01*
X10009523Y-10053333D01*
X9914285Y-10100952D01*
X9866666Y-10148571D01*
X9819047Y-10243809D01*
X9819047Y-10481904D01*
X9866666Y-10577142D01*
X9914285Y-10624761D01*
X10009523Y-10672380D01*
X10295238Y-10672380D01*
X10390476Y-10624761D01*
X10438095Y-10577142D01*
X9533333Y-9672380D02*
X9200000Y-10672380D01*
X8866666Y-9672380D01*
X8628571Y-9672380D02*
X8009523Y-9672380D01*
X8342857Y-10053333D01*
X8200000Y-10053333D01*
X8104761Y-10100952D01*
X8057142Y-10148571D01*
X8009523Y-10243809D01*
X8009523Y-10481904D01*
X8057142Y-10577142D01*
X8104761Y-10624761D01*
X8200000Y-10672380D01*
X8485714Y-10672380D01*
X8580952Y-10624761D01*
X8628571Y-10577142D01*
%TO.C,D3*%
X9390476Y-12772380D02*
X9866666Y-12772380D01*
X9914285Y-13248571D01*
X9866666Y-13200952D01*
X9771428Y-13153333D01*
X9533333Y-13153333D01*
X9438095Y-13200952D01*
X9390476Y-13248571D01*
X9342857Y-13343809D01*
X9342857Y-13581904D01*
X9390476Y-13677142D01*
X9438095Y-13724761D01*
X9533333Y-13772380D01*
X9771428Y-13772380D01*
X9866666Y-13724761D01*
X9914285Y-13677142D01*
X9057142Y-12772380D02*
X8723809Y-13772380D01*
X8390476Y-12772380D01*
%TO.C,D2*%
X6304761Y-32002380D02*
X6304761Y-31002380D01*
X5923809Y-31002380D01*
X5828571Y-31050000D01*
X5780952Y-31097619D01*
X5733333Y-31192857D01*
X5733333Y-31335714D01*
X5780952Y-31430952D01*
X5828571Y-31478571D01*
X5923809Y-31526190D01*
X6304761Y-31526190D01*
X5400000Y-31335714D02*
X5161904Y-32002380D01*
X4923809Y-31335714D02*
X5161904Y-32002380D01*
X5257142Y-32240476D01*
X5304761Y-32288095D01*
X5400000Y-32335714D01*
X4542857Y-32002380D02*
X4542857Y-31335714D01*
X4542857Y-31526190D02*
X4495238Y-31430952D01*
X4447619Y-31383333D01*
X4352380Y-31335714D01*
X4257142Y-31335714D01*
X3780952Y-32002380D02*
X3876190Y-31954761D01*
X3923809Y-31907142D01*
X3971428Y-31811904D01*
X3971428Y-31526190D01*
X3923809Y-31430952D01*
X3876190Y-31383333D01*
X3780952Y-31335714D01*
X3638095Y-31335714D01*
X3542857Y-31383333D01*
X3495238Y-31430952D01*
X3447619Y-31526190D01*
X3447619Y-31811904D01*
X3495238Y-31907142D01*
X3542857Y-31954761D01*
X3638095Y-32002380D01*
X3780952Y-32002380D01*
%TO.C,D1*%
X5519047Y-9002380D02*
X6090476Y-9002380D01*
X5804761Y-9002380D02*
X5804761Y-8002380D01*
X5900000Y-8145238D01*
X5995238Y-8240476D01*
X6090476Y-8288095D01*
X5138095Y-8097619D02*
X5090476Y-8050000D01*
X4995238Y-8002380D01*
X4757142Y-8002380D01*
X4661904Y-8050000D01*
X4614285Y-8097619D01*
X4566666Y-8192857D01*
X4566666Y-8288095D01*
X4614285Y-8430952D01*
X5185714Y-9002380D01*
X4566666Y-9002380D01*
X4280952Y-8002380D02*
X3947619Y-9002380D01*
X3614285Y-8002380D01*
%TD*%
M02*
