%TF.GenerationSoftware,KiCad,Pcbnew,5.1.12-84ad8e8a86~92~ubuntu20.04.1*%
%TF.CreationDate,2021-12-19T14:53:55+01:00*%
%TF.ProjectId,uHoubolt_PCB_ECU,75486f75-626f-46c7-945f-5043425f4543,rev?*%
%TF.SameCoordinates,PX7270e00PY4c4b400*%
%TF.FileFunction,Soldermask,Top*%
%TF.FilePolarity,Negative*%
%FSLAX46Y46*%
G04 Gerber Fmt 4.6, Leading zero omitted, Abs format (unit mm)*
G04 Created by KiCad (PCBNEW 5.1.12-84ad8e8a86~92~ubuntu20.04.1) date 2021-12-19 14:53:55*
%MOMM*%
%LPD*%
G01*
G04 APERTURE LIST*
%ADD10C,0.500000*%
%ADD11C,3.000000*%
%ADD12C,2.800000*%
%ADD13R,1.000000X0.500000*%
%ADD14R,3.500000X4.500000*%
%ADD15C,1.300000*%
%ADD16O,1.700000X2.200000*%
%ADD17C,0.100000*%
%ADD18C,2.000000*%
%ADD19R,0.990000X0.405000*%
%ADD20R,1.725000X2.245000*%
%ADD21R,0.760000X0.405000*%
%ADD22R,0.650000X1.060000*%
%ADD23R,1.500000X1.000000*%
%ADD24R,3.000000X3.100000*%
%ADD25R,1.060000X0.650000*%
%ADD26R,0.405000X0.990000*%
%ADD27R,2.245000X1.725000*%
%ADD28R,0.405000X0.760000*%
%ADD29R,1.100000X1.100000*%
%ADD30R,4.200000X2.000000*%
%ADD31C,0.800000*%
%ADD32C,6.400000*%
%ADD33R,1.400000X1.200000*%
%ADD34R,1.550000X2.400000*%
%ADD35R,0.650000X0.350000*%
%ADD36R,0.900000X0.800000*%
%ADD37R,1.750000X1.750000*%
%ADD38R,1.400000X4.200000*%
G04 APERTURE END LIST*
D10*
%TO.C,JP2*%
X37100000Y-16650000D03*
X40600000Y-16650000D03*
X39200000Y-16650000D03*
X37100000Y-15950000D03*
X40600000Y-17350000D03*
X39900000Y-16650000D03*
X39200000Y-15950000D03*
X35700000Y-16650000D03*
X35700000Y-17350000D03*
X38500000Y-17350000D03*
X37800000Y-17350000D03*
X37100000Y-17350000D03*
X36400000Y-17350000D03*
X38500000Y-16650000D03*
X37800000Y-16650000D03*
X36400000Y-15950000D03*
X36400000Y-16650000D03*
X39900000Y-17350000D03*
X39200000Y-17350000D03*
X35700000Y-15950000D03*
X39900000Y-15950000D03*
X38500000Y-15950000D03*
X40600000Y-15950000D03*
X37800000Y-15950000D03*
X37800000Y-14350000D03*
X40600000Y-15050000D03*
X37100000Y-13650000D03*
X39200000Y-14350000D03*
X40600000Y-14350000D03*
X37100000Y-14350000D03*
X36400000Y-13650000D03*
X36400000Y-14350000D03*
X39900000Y-14350000D03*
X36400000Y-15050000D03*
X37100000Y-15050000D03*
X37800000Y-15050000D03*
X38500000Y-15050000D03*
X35700000Y-15050000D03*
X35700000Y-14350000D03*
X39200000Y-13650000D03*
X38500000Y-14350000D03*
X37800000Y-13650000D03*
X40600000Y-13650000D03*
X38500000Y-13650000D03*
X39900000Y-13650000D03*
X35700000Y-13650000D03*
X39200000Y-15050000D03*
X39900000Y-15050000D03*
%TD*%
D11*
%TO.C,J1*%
X2160000Y-17150000D03*
X2160000Y-22850000D03*
X4840000Y-17150000D03*
X4840000Y-22850000D03*
D12*
X3500000Y-14300000D03*
X3500000Y-25700000D03*
X3500000Y-20000000D03*
%TD*%
%TO.C,U24*%
G36*
G01*
X34350000Y-28427500D02*
X34350000Y-28672500D01*
G75*
G02*
X34297500Y-28725000I-52500J0D01*
G01*
X33902500Y-28725000D01*
G75*
G02*
X33850000Y-28672500I0J52500D01*
G01*
X33850000Y-28427500D01*
G75*
G02*
X33902500Y-28375000I52500J0D01*
G01*
X34297500Y-28375000D01*
G75*
G02*
X34350000Y-28427500I0J-52500D01*
G01*
G37*
G36*
G01*
X34350000Y-27927500D02*
X34350000Y-28172500D01*
G75*
G02*
X34297500Y-28225000I-52500J0D01*
G01*
X33902500Y-28225000D01*
G75*
G02*
X33850000Y-28172500I0J52500D01*
G01*
X33850000Y-27927500D01*
G75*
G02*
X33902500Y-27875000I52500J0D01*
G01*
X34297500Y-27875000D01*
G75*
G02*
X34350000Y-27927500I0J-52500D01*
G01*
G37*
G36*
G01*
X36050000Y-28427500D02*
X36050000Y-28672500D01*
G75*
G02*
X35997500Y-28725000I-52500J0D01*
G01*
X35602500Y-28725000D01*
G75*
G02*
X35550000Y-28672500I0J52500D01*
G01*
X35550000Y-28427500D01*
G75*
G02*
X35602500Y-28375000I52500J0D01*
G01*
X35997500Y-28375000D01*
G75*
G02*
X36050000Y-28427500I0J-52500D01*
G01*
G37*
G36*
G01*
X34350000Y-28927500D02*
X34350000Y-29172500D01*
G75*
G02*
X34297500Y-29225000I-52500J0D01*
G01*
X33902500Y-29225000D01*
G75*
G02*
X33850000Y-29172500I0J52500D01*
G01*
X33850000Y-28927500D01*
G75*
G02*
X33902500Y-28875000I52500J0D01*
G01*
X34297500Y-28875000D01*
G75*
G02*
X34350000Y-28927500I0J-52500D01*
G01*
G37*
G36*
G01*
X36050000Y-27927500D02*
X36050000Y-28172500D01*
G75*
G02*
X35997500Y-28225000I-52500J0D01*
G01*
X35602500Y-28225000D01*
G75*
G02*
X35550000Y-28172500I0J52500D01*
G01*
X35550000Y-27927500D01*
G75*
G02*
X35602500Y-27875000I52500J0D01*
G01*
X35997500Y-27875000D01*
G75*
G02*
X36050000Y-27927500I0J-52500D01*
G01*
G37*
G36*
G01*
X36050000Y-28927500D02*
X36050000Y-29172500D01*
G75*
G02*
X35997500Y-29225000I-52500J0D01*
G01*
X35602500Y-29225000D01*
G75*
G02*
X35550000Y-29172500I0J52500D01*
G01*
X35550000Y-28927500D01*
G75*
G02*
X35602500Y-28875000I52500J0D01*
G01*
X35997500Y-28875000D01*
G75*
G02*
X36050000Y-28927500I0J-52500D01*
G01*
G37*
%TD*%
%TO.C,U23*%
G36*
G01*
X41450000Y-28427500D02*
X41450000Y-28672500D01*
G75*
G02*
X41397500Y-28725000I-52500J0D01*
G01*
X41002500Y-28725000D01*
G75*
G02*
X40950000Y-28672500I0J52500D01*
G01*
X40950000Y-28427500D01*
G75*
G02*
X41002500Y-28375000I52500J0D01*
G01*
X41397500Y-28375000D01*
G75*
G02*
X41450000Y-28427500I0J-52500D01*
G01*
G37*
G36*
G01*
X41450000Y-27927500D02*
X41450000Y-28172500D01*
G75*
G02*
X41397500Y-28225000I-52500J0D01*
G01*
X41002500Y-28225000D01*
G75*
G02*
X40950000Y-28172500I0J52500D01*
G01*
X40950000Y-27927500D01*
G75*
G02*
X41002500Y-27875000I52500J0D01*
G01*
X41397500Y-27875000D01*
G75*
G02*
X41450000Y-27927500I0J-52500D01*
G01*
G37*
G36*
G01*
X43150000Y-28427500D02*
X43150000Y-28672500D01*
G75*
G02*
X43097500Y-28725000I-52500J0D01*
G01*
X42702500Y-28725000D01*
G75*
G02*
X42650000Y-28672500I0J52500D01*
G01*
X42650000Y-28427500D01*
G75*
G02*
X42702500Y-28375000I52500J0D01*
G01*
X43097500Y-28375000D01*
G75*
G02*
X43150000Y-28427500I0J-52500D01*
G01*
G37*
G36*
G01*
X41450000Y-28927500D02*
X41450000Y-29172500D01*
G75*
G02*
X41397500Y-29225000I-52500J0D01*
G01*
X41002500Y-29225000D01*
G75*
G02*
X40950000Y-29172500I0J52500D01*
G01*
X40950000Y-28927500D01*
G75*
G02*
X41002500Y-28875000I52500J0D01*
G01*
X41397500Y-28875000D01*
G75*
G02*
X41450000Y-28927500I0J-52500D01*
G01*
G37*
G36*
G01*
X43150000Y-27927500D02*
X43150000Y-28172500D01*
G75*
G02*
X43097500Y-28225000I-52500J0D01*
G01*
X42702500Y-28225000D01*
G75*
G02*
X42650000Y-28172500I0J52500D01*
G01*
X42650000Y-27927500D01*
G75*
G02*
X42702500Y-27875000I52500J0D01*
G01*
X43097500Y-27875000D01*
G75*
G02*
X43150000Y-27927500I0J-52500D01*
G01*
G37*
G36*
G01*
X43150000Y-28927500D02*
X43150000Y-29172500D01*
G75*
G02*
X43097500Y-29225000I-52500J0D01*
G01*
X42702500Y-29225000D01*
G75*
G02*
X42650000Y-29172500I0J52500D01*
G01*
X42650000Y-28927500D01*
G75*
G02*
X42702500Y-28875000I52500J0D01*
G01*
X43097500Y-28875000D01*
G75*
G02*
X43150000Y-28927500I0J-52500D01*
G01*
G37*
%TD*%
%TO.C,U22*%
G36*
G01*
X50227500Y-14925000D02*
X50472500Y-14925000D01*
G75*
G02*
X50525000Y-14977500I0J-52500D01*
G01*
X50525000Y-15372500D01*
G75*
G02*
X50472500Y-15425000I-52500J0D01*
G01*
X50227500Y-15425000D01*
G75*
G02*
X50175000Y-15372500I0J52500D01*
G01*
X50175000Y-14977500D01*
G75*
G02*
X50227500Y-14925000I52500J0D01*
G01*
G37*
G36*
G01*
X49727500Y-14925000D02*
X49972500Y-14925000D01*
G75*
G02*
X50025000Y-14977500I0J-52500D01*
G01*
X50025000Y-15372500D01*
G75*
G02*
X49972500Y-15425000I-52500J0D01*
G01*
X49727500Y-15425000D01*
G75*
G02*
X49675000Y-15372500I0J52500D01*
G01*
X49675000Y-14977500D01*
G75*
G02*
X49727500Y-14925000I52500J0D01*
G01*
G37*
G36*
G01*
X50227500Y-13225000D02*
X50472500Y-13225000D01*
G75*
G02*
X50525000Y-13277500I0J-52500D01*
G01*
X50525000Y-13672500D01*
G75*
G02*
X50472500Y-13725000I-52500J0D01*
G01*
X50227500Y-13725000D01*
G75*
G02*
X50175000Y-13672500I0J52500D01*
G01*
X50175000Y-13277500D01*
G75*
G02*
X50227500Y-13225000I52500J0D01*
G01*
G37*
G36*
G01*
X50727500Y-14925000D02*
X50972500Y-14925000D01*
G75*
G02*
X51025000Y-14977500I0J-52500D01*
G01*
X51025000Y-15372500D01*
G75*
G02*
X50972500Y-15425000I-52500J0D01*
G01*
X50727500Y-15425000D01*
G75*
G02*
X50675000Y-15372500I0J52500D01*
G01*
X50675000Y-14977500D01*
G75*
G02*
X50727500Y-14925000I52500J0D01*
G01*
G37*
G36*
G01*
X49727500Y-13225000D02*
X49972500Y-13225000D01*
G75*
G02*
X50025000Y-13277500I0J-52500D01*
G01*
X50025000Y-13672500D01*
G75*
G02*
X49972500Y-13725000I-52500J0D01*
G01*
X49727500Y-13725000D01*
G75*
G02*
X49675000Y-13672500I0J52500D01*
G01*
X49675000Y-13277500D01*
G75*
G02*
X49727500Y-13225000I52500J0D01*
G01*
G37*
G36*
G01*
X50727500Y-13225000D02*
X50972500Y-13225000D01*
G75*
G02*
X51025000Y-13277500I0J-52500D01*
G01*
X51025000Y-13672500D01*
G75*
G02*
X50972500Y-13725000I-52500J0D01*
G01*
X50727500Y-13725000D01*
G75*
G02*
X50675000Y-13672500I0J52500D01*
G01*
X50675000Y-13277500D01*
G75*
G02*
X50727500Y-13225000I52500J0D01*
G01*
G37*
%TD*%
%TO.C,U21*%
G36*
G01*
X45500000Y-8377500D02*
X45500000Y-8622500D01*
G75*
G02*
X45447500Y-8675000I-52500J0D01*
G01*
X45052500Y-8675000D01*
G75*
G02*
X45000000Y-8622500I0J52500D01*
G01*
X45000000Y-8377500D01*
G75*
G02*
X45052500Y-8325000I52500J0D01*
G01*
X45447500Y-8325000D01*
G75*
G02*
X45500000Y-8377500I0J-52500D01*
G01*
G37*
G36*
G01*
X45500000Y-7877500D02*
X45500000Y-8122500D01*
G75*
G02*
X45447500Y-8175000I-52500J0D01*
G01*
X45052500Y-8175000D01*
G75*
G02*
X45000000Y-8122500I0J52500D01*
G01*
X45000000Y-7877500D01*
G75*
G02*
X45052500Y-7825000I52500J0D01*
G01*
X45447500Y-7825000D01*
G75*
G02*
X45500000Y-7877500I0J-52500D01*
G01*
G37*
G36*
G01*
X47200000Y-8377500D02*
X47200000Y-8622500D01*
G75*
G02*
X47147500Y-8675000I-52500J0D01*
G01*
X46752500Y-8675000D01*
G75*
G02*
X46700000Y-8622500I0J52500D01*
G01*
X46700000Y-8377500D01*
G75*
G02*
X46752500Y-8325000I52500J0D01*
G01*
X47147500Y-8325000D01*
G75*
G02*
X47200000Y-8377500I0J-52500D01*
G01*
G37*
G36*
G01*
X45500000Y-8877500D02*
X45500000Y-9122500D01*
G75*
G02*
X45447500Y-9175000I-52500J0D01*
G01*
X45052500Y-9175000D01*
G75*
G02*
X45000000Y-9122500I0J52500D01*
G01*
X45000000Y-8877500D01*
G75*
G02*
X45052500Y-8825000I52500J0D01*
G01*
X45447500Y-8825000D01*
G75*
G02*
X45500000Y-8877500I0J-52500D01*
G01*
G37*
G36*
G01*
X47200000Y-7877500D02*
X47200000Y-8122500D01*
G75*
G02*
X47147500Y-8175000I-52500J0D01*
G01*
X46752500Y-8175000D01*
G75*
G02*
X46700000Y-8122500I0J52500D01*
G01*
X46700000Y-7877500D01*
G75*
G02*
X46752500Y-7825000I52500J0D01*
G01*
X47147500Y-7825000D01*
G75*
G02*
X47200000Y-7877500I0J-52500D01*
G01*
G37*
G36*
G01*
X47200000Y-8877500D02*
X47200000Y-9122500D01*
G75*
G02*
X47147500Y-9175000I-52500J0D01*
G01*
X46752500Y-9175000D01*
G75*
G02*
X46700000Y-9122500I0J52500D01*
G01*
X46700000Y-8877500D01*
G75*
G02*
X46752500Y-8825000I52500J0D01*
G01*
X47147500Y-8825000D01*
G75*
G02*
X47200000Y-8877500I0J-52500D01*
G01*
G37*
%TD*%
%TO.C,U20*%
G36*
G01*
X30722500Y-9500000D02*
X30477500Y-9500000D01*
G75*
G02*
X30425000Y-9447500I0J52500D01*
G01*
X30425000Y-9052500D01*
G75*
G02*
X30477500Y-9000000I52500J0D01*
G01*
X30722500Y-9000000D01*
G75*
G02*
X30775000Y-9052500I0J-52500D01*
G01*
X30775000Y-9447500D01*
G75*
G02*
X30722500Y-9500000I-52500J0D01*
G01*
G37*
G36*
G01*
X31222500Y-9500000D02*
X30977500Y-9500000D01*
G75*
G02*
X30925000Y-9447500I0J52500D01*
G01*
X30925000Y-9052500D01*
G75*
G02*
X30977500Y-9000000I52500J0D01*
G01*
X31222500Y-9000000D01*
G75*
G02*
X31275000Y-9052500I0J-52500D01*
G01*
X31275000Y-9447500D01*
G75*
G02*
X31222500Y-9500000I-52500J0D01*
G01*
G37*
G36*
G01*
X30722500Y-11200000D02*
X30477500Y-11200000D01*
G75*
G02*
X30425000Y-11147500I0J52500D01*
G01*
X30425000Y-10752500D01*
G75*
G02*
X30477500Y-10700000I52500J0D01*
G01*
X30722500Y-10700000D01*
G75*
G02*
X30775000Y-10752500I0J-52500D01*
G01*
X30775000Y-11147500D01*
G75*
G02*
X30722500Y-11200000I-52500J0D01*
G01*
G37*
G36*
G01*
X30222500Y-9500000D02*
X29977500Y-9500000D01*
G75*
G02*
X29925000Y-9447500I0J52500D01*
G01*
X29925000Y-9052500D01*
G75*
G02*
X29977500Y-9000000I52500J0D01*
G01*
X30222500Y-9000000D01*
G75*
G02*
X30275000Y-9052500I0J-52500D01*
G01*
X30275000Y-9447500D01*
G75*
G02*
X30222500Y-9500000I-52500J0D01*
G01*
G37*
G36*
G01*
X31222500Y-11200000D02*
X30977500Y-11200000D01*
G75*
G02*
X30925000Y-11147500I0J52500D01*
G01*
X30925000Y-10752500D01*
G75*
G02*
X30977500Y-10700000I52500J0D01*
G01*
X31222500Y-10700000D01*
G75*
G02*
X31275000Y-10752500I0J-52500D01*
G01*
X31275000Y-11147500D01*
G75*
G02*
X31222500Y-11200000I-52500J0D01*
G01*
G37*
G36*
G01*
X30222500Y-11200000D02*
X29977500Y-11200000D01*
G75*
G02*
X29925000Y-11147500I0J52500D01*
G01*
X29925000Y-10752500D01*
G75*
G02*
X29977500Y-10700000I52500J0D01*
G01*
X30222500Y-10700000D01*
G75*
G02*
X30275000Y-10752500I0J-52500D01*
G01*
X30275000Y-11147500D01*
G75*
G02*
X30222500Y-11200000I-52500J0D01*
G01*
G37*
%TD*%
D13*
%TO.C,U8*%
X17500000Y-23995000D03*
X17500000Y-25265000D03*
X17500000Y-26535000D03*
X17500000Y-27805000D03*
X25500000Y-27805000D03*
X25500000Y-26535000D03*
X25500000Y-25265000D03*
X25500000Y-23995000D03*
D14*
X21500000Y-25900000D03*
%TD*%
D15*
%TO.C,J19*%
X42600000Y-3190000D03*
D16*
X38850000Y-1850000D03*
X41350000Y-1850000D03*
X43850000Y-1850000D03*
G36*
G01*
X46950000Y-2950000D02*
X45750000Y-2950000D01*
G75*
G02*
X45500000Y-2700000I0J250000D01*
G01*
X45500000Y-1000000D01*
G75*
G02*
X45750000Y-750000I250000J0D01*
G01*
X46950000Y-750000D01*
G75*
G02*
X47200000Y-1000000I0J-250000D01*
G01*
X47200000Y-2700000D01*
G75*
G02*
X46950000Y-2950000I-250000J0D01*
G01*
G37*
%TD*%
D15*
%TO.C,J18*%
X30650000Y-3190000D03*
D16*
X26900000Y-1850000D03*
X29400000Y-1850000D03*
X31900000Y-1850000D03*
G36*
G01*
X35000000Y-2950000D02*
X33800000Y-2950000D01*
G75*
G02*
X33550000Y-2700000I0J250000D01*
G01*
X33550000Y-1000000D01*
G75*
G02*
X33800000Y-750000I250000J0D01*
G01*
X35000000Y-750000D01*
G75*
G02*
X35250000Y-1000000I0J-250000D01*
G01*
X35250000Y-2700000D01*
G75*
G02*
X35000000Y-2950000I-250000J0D01*
G01*
G37*
%TD*%
D15*
%TO.C,J9*%
X54550000Y-3190000D03*
D16*
X50800000Y-1850000D03*
X53300000Y-1850000D03*
X55800000Y-1850000D03*
G36*
G01*
X58900000Y-2950000D02*
X57700000Y-2950000D01*
G75*
G02*
X57450000Y-2700000I0J250000D01*
G01*
X57450000Y-1000000D01*
G75*
G02*
X57700000Y-750000I250000J0D01*
G01*
X58900000Y-750000D01*
G75*
G02*
X59150000Y-1000000I0J-250000D01*
G01*
X59150000Y-2700000D01*
G75*
G02*
X58900000Y-2950000I-250000J0D01*
G01*
G37*
%TD*%
D15*
%TO.C,J20*%
X19160000Y-3190000D03*
D16*
X17910000Y-1850000D03*
D17*
G36*
X19564804Y-951227D02*
G01*
X19579030Y-904329D01*
X19602133Y-861107D01*
X19633223Y-823223D01*
X19671107Y-792133D01*
X19714329Y-769030D01*
X19761227Y-754804D01*
X19810000Y-750000D01*
X21010000Y-750000D01*
X21058773Y-754804D01*
X21105671Y-769030D01*
X21148893Y-792133D01*
X21186777Y-823223D01*
X21217867Y-861107D01*
X21240970Y-904329D01*
X21255196Y-951227D01*
X21260000Y-1000000D01*
X21260000Y-2700000D01*
X21255196Y-2748773D01*
X21240970Y-2795671D01*
X21217867Y-2838893D01*
X21186777Y-2876777D01*
X21148893Y-2907867D01*
X21105671Y-2930970D01*
X21058773Y-2945196D01*
X21010000Y-2950000D01*
X20210000Y-2950000D01*
X20161227Y-2945196D01*
X20114329Y-2930970D01*
X20071107Y-2907867D01*
X20033223Y-2876777D01*
X19633223Y-2476777D01*
X19602133Y-2438893D01*
X19579030Y-2395671D01*
X19564804Y-2348773D01*
X19560000Y-2300000D01*
X19560000Y-1000000D01*
X19564804Y-951227D01*
G37*
%TD*%
D15*
%TO.C,J10*%
X12210000Y-3190000D03*
D16*
X10960000Y-1850000D03*
D17*
G36*
X12614804Y-951227D02*
G01*
X12629030Y-904329D01*
X12652133Y-861107D01*
X12683223Y-823223D01*
X12721107Y-792133D01*
X12764329Y-769030D01*
X12811227Y-754804D01*
X12860000Y-750000D01*
X14060000Y-750000D01*
X14108773Y-754804D01*
X14155671Y-769030D01*
X14198893Y-792133D01*
X14236777Y-823223D01*
X14267867Y-861107D01*
X14290970Y-904329D01*
X14305196Y-951227D01*
X14310000Y-1000000D01*
X14310000Y-2700000D01*
X14305196Y-2748773D01*
X14290970Y-2795671D01*
X14267867Y-2838893D01*
X14236777Y-2876777D01*
X14198893Y-2907867D01*
X14155671Y-2930970D01*
X14108773Y-2945196D01*
X14060000Y-2950000D01*
X13260000Y-2950000D01*
X13211227Y-2945196D01*
X13164329Y-2930970D01*
X13121107Y-2907867D01*
X13083223Y-2876777D01*
X12683223Y-2476777D01*
X12652133Y-2438893D01*
X12629030Y-2395671D01*
X12614804Y-2348773D01*
X12610000Y-2300000D01*
X12610000Y-1000000D01*
X12614804Y-951227D01*
G37*
%TD*%
D18*
%TO.C,J22*%
X12770000Y-37400000D03*
X10230000Y-37400000D03*
%TD*%
%TO.C,J21*%
X21620000Y-37400000D03*
X19080000Y-37400000D03*
%TD*%
%TO.C,J11*%
X30470000Y-37400000D03*
X27930000Y-37400000D03*
%TD*%
%TO.C,R78*%
G36*
G01*
X27725000Y-21825000D02*
X28275000Y-21825000D01*
G75*
G02*
X28475000Y-22025000I0J-200000D01*
G01*
X28475000Y-22425000D01*
G75*
G02*
X28275000Y-22625000I-200000J0D01*
G01*
X27725000Y-22625000D01*
G75*
G02*
X27525000Y-22425000I0J200000D01*
G01*
X27525000Y-22025000D01*
G75*
G02*
X27725000Y-21825000I200000J0D01*
G01*
G37*
G36*
G01*
X27725000Y-20175000D02*
X28275000Y-20175000D01*
G75*
G02*
X28475000Y-20375000I0J-200000D01*
G01*
X28475000Y-20775000D01*
G75*
G02*
X28275000Y-20975000I-200000J0D01*
G01*
X27725000Y-20975000D01*
G75*
G02*
X27525000Y-20775000I0J200000D01*
G01*
X27525000Y-20375000D01*
G75*
G02*
X27725000Y-20175000I200000J0D01*
G01*
G37*
%TD*%
%TO.C,R77*%
G36*
G01*
X29225000Y-24325000D02*
X29775000Y-24325000D01*
G75*
G02*
X29975000Y-24525000I0J-200000D01*
G01*
X29975000Y-24925000D01*
G75*
G02*
X29775000Y-25125000I-200000J0D01*
G01*
X29225000Y-25125000D01*
G75*
G02*
X29025000Y-24925000I0J200000D01*
G01*
X29025000Y-24525000D01*
G75*
G02*
X29225000Y-24325000I200000J0D01*
G01*
G37*
G36*
G01*
X29225000Y-22675000D02*
X29775000Y-22675000D01*
G75*
G02*
X29975000Y-22875000I0J-200000D01*
G01*
X29975000Y-23275000D01*
G75*
G02*
X29775000Y-23475000I-200000J0D01*
G01*
X29225000Y-23475000D01*
G75*
G02*
X29025000Y-23275000I0J200000D01*
G01*
X29025000Y-22875000D01*
G75*
G02*
X29225000Y-22675000I200000J0D01*
G01*
G37*
%TD*%
D19*
%TO.C,Q3*%
X30042500Y-27580000D03*
X30042500Y-26920000D03*
X30042500Y-26260000D03*
X30042500Y-28240000D03*
D20*
X28050000Y-27250000D03*
D21*
X27057500Y-26920000D03*
X27057500Y-26260000D03*
X27057500Y-27580000D03*
X27057500Y-28240000D03*
%TD*%
%TO.C,R76*%
G36*
G01*
X8675000Y-13025000D02*
X8125000Y-13025000D01*
G75*
G02*
X7925000Y-12825000I0J200000D01*
G01*
X7925000Y-12425000D01*
G75*
G02*
X8125000Y-12225000I200000J0D01*
G01*
X8675000Y-12225000D01*
G75*
G02*
X8875000Y-12425000I0J-200000D01*
G01*
X8875000Y-12825000D01*
G75*
G02*
X8675000Y-13025000I-200000J0D01*
G01*
G37*
G36*
G01*
X8675000Y-14675000D02*
X8125000Y-14675000D01*
G75*
G02*
X7925000Y-14475000I0J200000D01*
G01*
X7925000Y-14075000D01*
G75*
G02*
X8125000Y-13875000I200000J0D01*
G01*
X8675000Y-13875000D01*
G75*
G02*
X8875000Y-14075000I0J-200000D01*
G01*
X8875000Y-14475000D01*
G75*
G02*
X8675000Y-14675000I-200000J0D01*
G01*
G37*
%TD*%
%TO.C,R75*%
G36*
G01*
X8125000Y-16025000D02*
X7575000Y-16025000D01*
G75*
G02*
X7375000Y-15825000I0J200000D01*
G01*
X7375000Y-15425000D01*
G75*
G02*
X7575000Y-15225000I200000J0D01*
G01*
X8125000Y-15225000D01*
G75*
G02*
X8325000Y-15425000I0J-200000D01*
G01*
X8325000Y-15825000D01*
G75*
G02*
X8125000Y-16025000I-200000J0D01*
G01*
G37*
G36*
G01*
X8125000Y-17675000D02*
X7575000Y-17675000D01*
G75*
G02*
X7375000Y-17475000I0J200000D01*
G01*
X7375000Y-17075000D01*
G75*
G02*
X7575000Y-16875000I200000J0D01*
G01*
X8125000Y-16875000D01*
G75*
G02*
X8325000Y-17075000I0J-200000D01*
G01*
X8325000Y-17475000D01*
G75*
G02*
X8125000Y-17675000I-200000J0D01*
G01*
G37*
%TD*%
%TO.C,R13*%
G36*
G01*
X14175000Y-26075000D02*
X14175000Y-26625000D01*
G75*
G02*
X13975000Y-26825000I-200000J0D01*
G01*
X13575000Y-26825000D01*
G75*
G02*
X13375000Y-26625000I0J200000D01*
G01*
X13375000Y-26075000D01*
G75*
G02*
X13575000Y-25875000I200000J0D01*
G01*
X13975000Y-25875000D01*
G75*
G02*
X14175000Y-26075000I0J-200000D01*
G01*
G37*
G36*
G01*
X15825000Y-26075000D02*
X15825000Y-26625000D01*
G75*
G02*
X15625000Y-26825000I-200000J0D01*
G01*
X15225000Y-26825000D01*
G75*
G02*
X15025000Y-26625000I0J200000D01*
G01*
X15025000Y-26075000D01*
G75*
G02*
X15225000Y-25875000I200000J0D01*
G01*
X15625000Y-25875000D01*
G75*
G02*
X15825000Y-26075000I0J-200000D01*
G01*
G37*
%TD*%
%TO.C,R12*%
G36*
G01*
X15025000Y-28125000D02*
X15025000Y-27575000D01*
G75*
G02*
X15225000Y-27375000I200000J0D01*
G01*
X15625000Y-27375000D01*
G75*
G02*
X15825000Y-27575000I0J-200000D01*
G01*
X15825000Y-28125000D01*
G75*
G02*
X15625000Y-28325000I-200000J0D01*
G01*
X15225000Y-28325000D01*
G75*
G02*
X15025000Y-28125000I0J200000D01*
G01*
G37*
G36*
G01*
X13375000Y-28125000D02*
X13375000Y-27575000D01*
G75*
G02*
X13575000Y-27375000I200000J0D01*
G01*
X13975000Y-27375000D01*
G75*
G02*
X14175000Y-27575000I0J-200000D01*
G01*
X14175000Y-28125000D01*
G75*
G02*
X13975000Y-28325000I-200000J0D01*
G01*
X13575000Y-28325000D01*
G75*
G02*
X13375000Y-28125000I0J200000D01*
G01*
G37*
%TD*%
%TO.C,F2*%
G36*
G01*
X10025000Y-26825000D02*
X10025000Y-28075000D01*
G75*
G02*
X9775000Y-28325000I-250000J0D01*
G01*
X9025000Y-28325000D01*
G75*
G02*
X8775000Y-28075000I0J250000D01*
G01*
X8775000Y-26825000D01*
G75*
G02*
X9025000Y-26575000I250000J0D01*
G01*
X9775000Y-26575000D01*
G75*
G02*
X10025000Y-26825000I0J-250000D01*
G01*
G37*
G36*
G01*
X12825000Y-26825000D02*
X12825000Y-28075000D01*
G75*
G02*
X12575000Y-28325000I-250000J0D01*
G01*
X11825000Y-28325000D01*
G75*
G02*
X11575000Y-28075000I0J250000D01*
G01*
X11575000Y-26825000D01*
G75*
G02*
X11825000Y-26575000I250000J0D01*
G01*
X12575000Y-26575000D01*
G75*
G02*
X12825000Y-26825000I0J-250000D01*
G01*
G37*
%TD*%
%TO.C,C10*%
G36*
G01*
X10700000Y-19475000D02*
X10700000Y-18525000D01*
G75*
G02*
X10950000Y-18275000I250000J0D01*
G01*
X11450000Y-18275000D01*
G75*
G02*
X11700000Y-18525000I0J-250000D01*
G01*
X11700000Y-19475000D01*
G75*
G02*
X11450000Y-19725000I-250000J0D01*
G01*
X10950000Y-19725000D01*
G75*
G02*
X10700000Y-19475000I0J250000D01*
G01*
G37*
G36*
G01*
X8800000Y-19475000D02*
X8800000Y-18525000D01*
G75*
G02*
X9050000Y-18275000I250000J0D01*
G01*
X9550000Y-18275000D01*
G75*
G02*
X9800000Y-18525000I0J-250000D01*
G01*
X9800000Y-19475000D01*
G75*
G02*
X9550000Y-19725000I-250000J0D01*
G01*
X9050000Y-19725000D01*
G75*
G02*
X8800000Y-19475000I0J250000D01*
G01*
G37*
%TD*%
%TO.C,R74*%
G36*
G01*
X42925000Y-5225000D02*
X42375000Y-5225000D01*
G75*
G02*
X42175000Y-5025000I0J200000D01*
G01*
X42175000Y-4625000D01*
G75*
G02*
X42375000Y-4425000I200000J0D01*
G01*
X42925000Y-4425000D01*
G75*
G02*
X43125000Y-4625000I0J-200000D01*
G01*
X43125000Y-5025000D01*
G75*
G02*
X42925000Y-5225000I-200000J0D01*
G01*
G37*
G36*
G01*
X42925000Y-6875000D02*
X42375000Y-6875000D01*
G75*
G02*
X42175000Y-6675000I0J200000D01*
G01*
X42175000Y-6275000D01*
G75*
G02*
X42375000Y-6075000I200000J0D01*
G01*
X42925000Y-6075000D01*
G75*
G02*
X43125000Y-6275000I0J-200000D01*
G01*
X43125000Y-6675000D01*
G75*
G02*
X42925000Y-6875000I-200000J0D01*
G01*
G37*
%TD*%
%TO.C,R11*%
G36*
G01*
X30975000Y-5325000D02*
X30425000Y-5325000D01*
G75*
G02*
X30225000Y-5125000I0J200000D01*
G01*
X30225000Y-4725000D01*
G75*
G02*
X30425000Y-4525000I200000J0D01*
G01*
X30975000Y-4525000D01*
G75*
G02*
X31175000Y-4725000I0J-200000D01*
G01*
X31175000Y-5125000D01*
G75*
G02*
X30975000Y-5325000I-200000J0D01*
G01*
G37*
G36*
G01*
X30975000Y-6975000D02*
X30425000Y-6975000D01*
G75*
G02*
X30225000Y-6775000I0J200000D01*
G01*
X30225000Y-6375000D01*
G75*
G02*
X30425000Y-6175000I200000J0D01*
G01*
X30975000Y-6175000D01*
G75*
G02*
X31175000Y-6375000I0J-200000D01*
G01*
X31175000Y-6775000D01*
G75*
G02*
X30975000Y-6975000I-200000J0D01*
G01*
G37*
%TD*%
%TO.C,R10*%
G36*
G01*
X54875000Y-5225000D02*
X54325000Y-5225000D01*
G75*
G02*
X54125000Y-5025000I0J200000D01*
G01*
X54125000Y-4625000D01*
G75*
G02*
X54325000Y-4425000I200000J0D01*
G01*
X54875000Y-4425000D01*
G75*
G02*
X55075000Y-4625000I0J-200000D01*
G01*
X55075000Y-5025000D01*
G75*
G02*
X54875000Y-5225000I-200000J0D01*
G01*
G37*
G36*
G01*
X54875000Y-6875000D02*
X54325000Y-6875000D01*
G75*
G02*
X54125000Y-6675000I0J200000D01*
G01*
X54125000Y-6275000D01*
G75*
G02*
X54325000Y-6075000I200000J0D01*
G01*
X54875000Y-6075000D01*
G75*
G02*
X55075000Y-6275000I0J-200000D01*
G01*
X55075000Y-6675000D01*
G75*
G02*
X54875000Y-6875000I-200000J0D01*
G01*
G37*
%TD*%
D22*
%TO.C,U1*%
X39950000Y-32850000D03*
X38050000Y-32850000D03*
X38050000Y-30650000D03*
X39000000Y-30650000D03*
X39950000Y-30650000D03*
%TD*%
%TO.C,R7*%
G36*
G01*
X36075000Y-33825000D02*
X36075000Y-33275000D01*
G75*
G02*
X36275000Y-33075000I200000J0D01*
G01*
X36675000Y-33075000D01*
G75*
G02*
X36875000Y-33275000I0J-200000D01*
G01*
X36875000Y-33825000D01*
G75*
G02*
X36675000Y-34025000I-200000J0D01*
G01*
X36275000Y-34025000D01*
G75*
G02*
X36075000Y-33825000I0J200000D01*
G01*
G37*
G36*
G01*
X34425000Y-33825000D02*
X34425000Y-33275000D01*
G75*
G02*
X34625000Y-33075000I200000J0D01*
G01*
X35025000Y-33075000D01*
G75*
G02*
X35225000Y-33275000I0J-200000D01*
G01*
X35225000Y-33825000D01*
G75*
G02*
X35025000Y-34025000I-200000J0D01*
G01*
X34625000Y-34025000D01*
G75*
G02*
X34425000Y-33825000I0J200000D01*
G01*
G37*
%TD*%
%TO.C,R2*%
G36*
G01*
X35175000Y-30875000D02*
X34625000Y-30875000D01*
G75*
G02*
X34425000Y-30675000I0J200000D01*
G01*
X34425000Y-30275000D01*
G75*
G02*
X34625000Y-30075000I200000J0D01*
G01*
X35175000Y-30075000D01*
G75*
G02*
X35375000Y-30275000I0J-200000D01*
G01*
X35375000Y-30675000D01*
G75*
G02*
X35175000Y-30875000I-200000J0D01*
G01*
G37*
G36*
G01*
X35175000Y-32525000D02*
X34625000Y-32525000D01*
G75*
G02*
X34425000Y-32325000I0J200000D01*
G01*
X34425000Y-31925000D01*
G75*
G02*
X34625000Y-31725000I200000J0D01*
G01*
X35175000Y-31725000D01*
G75*
G02*
X35375000Y-31925000I0J-200000D01*
G01*
X35375000Y-32325000D01*
G75*
G02*
X35175000Y-32525000I-200000J0D01*
G01*
G37*
%TD*%
%TO.C,R1*%
G36*
G01*
X36125000Y-31725000D02*
X36675000Y-31725000D01*
G75*
G02*
X36875000Y-31925000I0J-200000D01*
G01*
X36875000Y-32325000D01*
G75*
G02*
X36675000Y-32525000I-200000J0D01*
G01*
X36125000Y-32525000D01*
G75*
G02*
X35925000Y-32325000I0J200000D01*
G01*
X35925000Y-31925000D01*
G75*
G02*
X36125000Y-31725000I200000J0D01*
G01*
G37*
G36*
G01*
X36125000Y-30075000D02*
X36675000Y-30075000D01*
G75*
G02*
X36875000Y-30275000I0J-200000D01*
G01*
X36875000Y-30675000D01*
G75*
G02*
X36675000Y-30875000I-200000J0D01*
G01*
X36125000Y-30875000D01*
G75*
G02*
X35925000Y-30675000I0J200000D01*
G01*
X35925000Y-30275000D01*
G75*
G02*
X36125000Y-30075000I200000J0D01*
G01*
G37*
%TD*%
D23*
%TO.C,JP3*%
X42150000Y-32150000D03*
D17*
G36*
X41400602Y-30850000D02*
G01*
X41400602Y-30825466D01*
X41405412Y-30776635D01*
X41414984Y-30728510D01*
X41429228Y-30681555D01*
X41448005Y-30636222D01*
X41471136Y-30592949D01*
X41498396Y-30552150D01*
X41529524Y-30514221D01*
X41564221Y-30479524D01*
X41602150Y-30448396D01*
X41642949Y-30421136D01*
X41686222Y-30398005D01*
X41731555Y-30379228D01*
X41778510Y-30364984D01*
X41826635Y-30355412D01*
X41875466Y-30350602D01*
X41900000Y-30350602D01*
X41900000Y-30350000D01*
X42400000Y-30350000D01*
X42400000Y-30350602D01*
X42424534Y-30350602D01*
X42473365Y-30355412D01*
X42521490Y-30364984D01*
X42568445Y-30379228D01*
X42613778Y-30398005D01*
X42657051Y-30421136D01*
X42697850Y-30448396D01*
X42735779Y-30479524D01*
X42770476Y-30514221D01*
X42801604Y-30552150D01*
X42828864Y-30592949D01*
X42851995Y-30636222D01*
X42870772Y-30681555D01*
X42885016Y-30728510D01*
X42894588Y-30776635D01*
X42899398Y-30825466D01*
X42899398Y-30850000D01*
X42900000Y-30850000D01*
X42900000Y-31400000D01*
X41400000Y-31400000D01*
X41400000Y-30850000D01*
X41400602Y-30850000D01*
G37*
G36*
X42900000Y-32900000D02*
G01*
X42900000Y-33450000D01*
X42899398Y-33450000D01*
X42899398Y-33474534D01*
X42894588Y-33523365D01*
X42885016Y-33571490D01*
X42870772Y-33618445D01*
X42851995Y-33663778D01*
X42828864Y-33707051D01*
X42801604Y-33747850D01*
X42770476Y-33785779D01*
X42735779Y-33820476D01*
X42697850Y-33851604D01*
X42657051Y-33878864D01*
X42613778Y-33901995D01*
X42568445Y-33920772D01*
X42521490Y-33935016D01*
X42473365Y-33944588D01*
X42424534Y-33949398D01*
X42400000Y-33949398D01*
X42400000Y-33950000D01*
X41900000Y-33950000D01*
X41900000Y-33949398D01*
X41875466Y-33949398D01*
X41826635Y-33944588D01*
X41778510Y-33935016D01*
X41731555Y-33920772D01*
X41686222Y-33901995D01*
X41642949Y-33878864D01*
X41602150Y-33851604D01*
X41564221Y-33820476D01*
X41529524Y-33785779D01*
X41498396Y-33747850D01*
X41471136Y-33707051D01*
X41448005Y-33663778D01*
X41429228Y-33618445D01*
X41414984Y-33571490D01*
X41405412Y-33523365D01*
X41400602Y-33474534D01*
X41400602Y-33450000D01*
X41400000Y-33450000D01*
X41400000Y-32900000D01*
X42900000Y-32900000D01*
G37*
%TD*%
%TO.C,C2*%
G36*
G01*
X38250000Y-34320000D02*
X38250000Y-33980000D01*
G75*
G02*
X38390000Y-33840000I140000J0D01*
G01*
X38670000Y-33840000D01*
G75*
G02*
X38810000Y-33980000I0J-140000D01*
G01*
X38810000Y-34320000D01*
G75*
G02*
X38670000Y-34460000I-140000J0D01*
G01*
X38390000Y-34460000D01*
G75*
G02*
X38250000Y-34320000I0J140000D01*
G01*
G37*
G36*
G01*
X37290000Y-34320000D02*
X37290000Y-33980000D01*
G75*
G02*
X37430000Y-33840000I140000J0D01*
G01*
X37710000Y-33840000D01*
G75*
G02*
X37850000Y-33980000I0J-140000D01*
G01*
X37850000Y-34320000D01*
G75*
G02*
X37710000Y-34460000I-140000J0D01*
G01*
X37430000Y-34460000D01*
G75*
G02*
X37290000Y-34320000I0J140000D01*
G01*
G37*
%TD*%
%TO.C,C1*%
G36*
G01*
X39700000Y-33980000D02*
X39700000Y-34320000D01*
G75*
G02*
X39560000Y-34460000I-140000J0D01*
G01*
X39280000Y-34460000D01*
G75*
G02*
X39140000Y-34320000I0J140000D01*
G01*
X39140000Y-33980000D01*
G75*
G02*
X39280000Y-33840000I140000J0D01*
G01*
X39560000Y-33840000D01*
G75*
G02*
X39700000Y-33980000I0J-140000D01*
G01*
G37*
G36*
G01*
X40660000Y-33980000D02*
X40660000Y-34320000D01*
G75*
G02*
X40520000Y-34460000I-140000J0D01*
G01*
X40240000Y-34460000D01*
G75*
G02*
X40100000Y-34320000I0J140000D01*
G01*
X40100000Y-33980000D01*
G75*
G02*
X40240000Y-33840000I140000J0D01*
G01*
X40520000Y-33840000D01*
G75*
G02*
X40660000Y-33980000I0J-140000D01*
G01*
G37*
%TD*%
%TO.C,F1*%
G36*
G01*
X14675000Y-17275000D02*
X14675000Y-16025000D01*
G75*
G02*
X14925000Y-15775000I250000J0D01*
G01*
X15675000Y-15775000D01*
G75*
G02*
X15925000Y-16025000I0J-250000D01*
G01*
X15925000Y-17275000D01*
G75*
G02*
X15675000Y-17525000I-250000J0D01*
G01*
X14925000Y-17525000D01*
G75*
G02*
X14675000Y-17275000I0J250000D01*
G01*
G37*
G36*
G01*
X11875000Y-17275000D02*
X11875000Y-16025000D01*
G75*
G02*
X12125000Y-15775000I250000J0D01*
G01*
X12875000Y-15775000D01*
G75*
G02*
X13125000Y-16025000I0J-250000D01*
G01*
X13125000Y-17275000D01*
G75*
G02*
X12875000Y-17525000I-250000J0D01*
G01*
X12125000Y-17525000D01*
G75*
G02*
X11875000Y-17275000I0J250000D01*
G01*
G37*
%TD*%
%TO.C,R73*%
G36*
G01*
X55675000Y-15075000D02*
X55675000Y-14525000D01*
G75*
G02*
X55875000Y-14325000I200000J0D01*
G01*
X56275000Y-14325000D01*
G75*
G02*
X56475000Y-14525000I0J-200000D01*
G01*
X56475000Y-15075000D01*
G75*
G02*
X56275000Y-15275000I-200000J0D01*
G01*
X55875000Y-15275000D01*
G75*
G02*
X55675000Y-15075000I0J200000D01*
G01*
G37*
G36*
G01*
X54025000Y-15075000D02*
X54025000Y-14525000D01*
G75*
G02*
X54225000Y-14325000I200000J0D01*
G01*
X54625000Y-14325000D01*
G75*
G02*
X54825000Y-14525000I0J-200000D01*
G01*
X54825000Y-15075000D01*
G75*
G02*
X54625000Y-15275000I-200000J0D01*
G01*
X54225000Y-15275000D01*
G75*
G02*
X54025000Y-15075000I0J200000D01*
G01*
G37*
%TD*%
%TO.C,R72*%
G36*
G01*
X55675000Y-24075000D02*
X55675000Y-23525000D01*
G75*
G02*
X55875000Y-23325000I200000J0D01*
G01*
X56275000Y-23325000D01*
G75*
G02*
X56475000Y-23525000I0J-200000D01*
G01*
X56475000Y-24075000D01*
G75*
G02*
X56275000Y-24275000I-200000J0D01*
G01*
X55875000Y-24275000D01*
G75*
G02*
X55675000Y-24075000I0J200000D01*
G01*
G37*
G36*
G01*
X54025000Y-24075000D02*
X54025000Y-23525000D01*
G75*
G02*
X54225000Y-23325000I200000J0D01*
G01*
X54625000Y-23325000D01*
G75*
G02*
X54825000Y-23525000I0J-200000D01*
G01*
X54825000Y-24075000D01*
G75*
G02*
X54625000Y-24275000I-200000J0D01*
G01*
X54225000Y-24275000D01*
G75*
G02*
X54025000Y-24075000I0J200000D01*
G01*
G37*
%TD*%
%TO.C,R71*%
G36*
G01*
X55675000Y-19575000D02*
X55675000Y-19025000D01*
G75*
G02*
X55875000Y-18825000I200000J0D01*
G01*
X56275000Y-18825000D01*
G75*
G02*
X56475000Y-19025000I0J-200000D01*
G01*
X56475000Y-19575000D01*
G75*
G02*
X56275000Y-19775000I-200000J0D01*
G01*
X55875000Y-19775000D01*
G75*
G02*
X55675000Y-19575000I0J200000D01*
G01*
G37*
G36*
G01*
X54025000Y-19575000D02*
X54025000Y-19025000D01*
G75*
G02*
X54225000Y-18825000I200000J0D01*
G01*
X54625000Y-18825000D01*
G75*
G02*
X54825000Y-19025000I0J-200000D01*
G01*
X54825000Y-19575000D01*
G75*
G02*
X54625000Y-19775000I-200000J0D01*
G01*
X54225000Y-19775000D01*
G75*
G02*
X54025000Y-19575000I0J200000D01*
G01*
G37*
%TD*%
%TO.C,D13*%
G36*
G01*
X9850000Y-13650000D02*
X9350000Y-13650000D01*
G75*
G02*
X9250000Y-13550000I0J100000D01*
G01*
X9250000Y-13250000D01*
G75*
G02*
X9350000Y-13150000I100000J0D01*
G01*
X9850000Y-13150000D01*
G75*
G02*
X9950000Y-13250000I0J-100000D01*
G01*
X9950000Y-13550000D01*
G75*
G02*
X9850000Y-13650000I-100000J0D01*
G01*
G37*
G36*
G01*
X9850000Y-14450000D02*
X9350000Y-14450000D01*
G75*
G02*
X9250000Y-14350000I0J100000D01*
G01*
X9250000Y-14050000D01*
G75*
G02*
X9350000Y-13950000I100000J0D01*
G01*
X9850000Y-13950000D01*
G75*
G02*
X9950000Y-14050000I0J-100000D01*
G01*
X9950000Y-14350000D01*
G75*
G02*
X9850000Y-14450000I-100000J0D01*
G01*
G37*
%TD*%
%TO.C,J6*%
G36*
G01*
X66950000Y-15425000D02*
X69250000Y-15425000D01*
G75*
G02*
X69500000Y-15675000I0J-250000D01*
G01*
X69500000Y-16175000D01*
G75*
G02*
X69250000Y-16425000I-250000J0D01*
G01*
X66950000Y-16425000D01*
G75*
G02*
X66700000Y-16175000I0J250000D01*
G01*
X66700000Y-15675000D01*
G75*
G02*
X66950000Y-15425000I250000J0D01*
G01*
G37*
G36*
G01*
X66950000Y-7975000D02*
X69250000Y-7975000D01*
G75*
G02*
X69500000Y-8225000I0J-250000D01*
G01*
X69500000Y-8725000D01*
G75*
G02*
X69250000Y-8975000I-250000J0D01*
G01*
X66950000Y-8975000D01*
G75*
G02*
X66700000Y-8725000I0J250000D01*
G01*
X66700000Y-8225000D01*
G75*
G02*
X66950000Y-7975000I250000J0D01*
G01*
G37*
G36*
G01*
X64050000Y-13775000D02*
X65450000Y-13775000D01*
G75*
G02*
X65600000Y-13925000I0J-150000D01*
G01*
X65600000Y-14225000D01*
G75*
G02*
X65450000Y-14375000I-150000J0D01*
G01*
X64050000Y-14375000D01*
G75*
G02*
X63900000Y-14225000I0J150000D01*
G01*
X63900000Y-13925000D01*
G75*
G02*
X64050000Y-13775000I150000J0D01*
G01*
G37*
G36*
G01*
X64050000Y-12525000D02*
X65450000Y-12525000D01*
G75*
G02*
X65600000Y-12675000I0J-150000D01*
G01*
X65600000Y-12975000D01*
G75*
G02*
X65450000Y-13125000I-150000J0D01*
G01*
X64050000Y-13125000D01*
G75*
G02*
X63900000Y-12975000I0J150000D01*
G01*
X63900000Y-12675000D01*
G75*
G02*
X64050000Y-12525000I150000J0D01*
G01*
G37*
G36*
G01*
X64050000Y-11275000D02*
X65450000Y-11275000D01*
G75*
G02*
X65600000Y-11425000I0J-150000D01*
G01*
X65600000Y-11725000D01*
G75*
G02*
X65450000Y-11875000I-150000J0D01*
G01*
X64050000Y-11875000D01*
G75*
G02*
X63900000Y-11725000I0J150000D01*
G01*
X63900000Y-11425000D01*
G75*
G02*
X64050000Y-11275000I150000J0D01*
G01*
G37*
G36*
G01*
X64050000Y-10025000D02*
X65450000Y-10025000D01*
G75*
G02*
X65600000Y-10175000I0J-150000D01*
G01*
X65600000Y-10475000D01*
G75*
G02*
X65450000Y-10625000I-150000J0D01*
G01*
X64050000Y-10625000D01*
G75*
G02*
X63900000Y-10475000I0J150000D01*
G01*
X63900000Y-10175000D01*
G75*
G02*
X64050000Y-10025000I150000J0D01*
G01*
G37*
%TD*%
%TO.C,J5*%
G36*
G01*
X66950000Y-24875000D02*
X69250000Y-24875000D01*
G75*
G02*
X69500000Y-25125000I0J-250000D01*
G01*
X69500000Y-25625000D01*
G75*
G02*
X69250000Y-25875000I-250000J0D01*
G01*
X66950000Y-25875000D01*
G75*
G02*
X66700000Y-25625000I0J250000D01*
G01*
X66700000Y-25125000D01*
G75*
G02*
X66950000Y-24875000I250000J0D01*
G01*
G37*
G36*
G01*
X66950000Y-17425000D02*
X69250000Y-17425000D01*
G75*
G02*
X69500000Y-17675000I0J-250000D01*
G01*
X69500000Y-18175000D01*
G75*
G02*
X69250000Y-18425000I-250000J0D01*
G01*
X66950000Y-18425000D01*
G75*
G02*
X66700000Y-18175000I0J250000D01*
G01*
X66700000Y-17675000D01*
G75*
G02*
X66950000Y-17425000I250000J0D01*
G01*
G37*
G36*
G01*
X64050000Y-23225000D02*
X65450000Y-23225000D01*
G75*
G02*
X65600000Y-23375000I0J-150000D01*
G01*
X65600000Y-23675000D01*
G75*
G02*
X65450000Y-23825000I-150000J0D01*
G01*
X64050000Y-23825000D01*
G75*
G02*
X63900000Y-23675000I0J150000D01*
G01*
X63900000Y-23375000D01*
G75*
G02*
X64050000Y-23225000I150000J0D01*
G01*
G37*
G36*
G01*
X64050000Y-21975000D02*
X65450000Y-21975000D01*
G75*
G02*
X65600000Y-22125000I0J-150000D01*
G01*
X65600000Y-22425000D01*
G75*
G02*
X65450000Y-22575000I-150000J0D01*
G01*
X64050000Y-22575000D01*
G75*
G02*
X63900000Y-22425000I0J150000D01*
G01*
X63900000Y-22125000D01*
G75*
G02*
X64050000Y-21975000I150000J0D01*
G01*
G37*
G36*
G01*
X64050000Y-20725000D02*
X65450000Y-20725000D01*
G75*
G02*
X65600000Y-20875000I0J-150000D01*
G01*
X65600000Y-21175000D01*
G75*
G02*
X65450000Y-21325000I-150000J0D01*
G01*
X64050000Y-21325000D01*
G75*
G02*
X63900000Y-21175000I0J150000D01*
G01*
X63900000Y-20875000D01*
G75*
G02*
X64050000Y-20725000I150000J0D01*
G01*
G37*
G36*
G01*
X64050000Y-19475000D02*
X65450000Y-19475000D01*
G75*
G02*
X65600000Y-19625000I0J-150000D01*
G01*
X65600000Y-19925000D01*
G75*
G02*
X65450000Y-20075000I-150000J0D01*
G01*
X64050000Y-20075000D01*
G75*
G02*
X63900000Y-19925000I0J150000D01*
G01*
X63900000Y-19625000D01*
G75*
G02*
X64050000Y-19475000I150000J0D01*
G01*
G37*
%TD*%
%TO.C,J4*%
G36*
G01*
X59850000Y-8975000D02*
X57550000Y-8975000D01*
G75*
G02*
X57300000Y-8725000I0J250000D01*
G01*
X57300000Y-8225000D01*
G75*
G02*
X57550000Y-7975000I250000J0D01*
G01*
X59850000Y-7975000D01*
G75*
G02*
X60100000Y-8225000I0J-250000D01*
G01*
X60100000Y-8725000D01*
G75*
G02*
X59850000Y-8975000I-250000J0D01*
G01*
G37*
G36*
G01*
X59850000Y-16425000D02*
X57550000Y-16425000D01*
G75*
G02*
X57300000Y-16175000I0J250000D01*
G01*
X57300000Y-15675000D01*
G75*
G02*
X57550000Y-15425000I250000J0D01*
G01*
X59850000Y-15425000D01*
G75*
G02*
X60100000Y-15675000I0J-250000D01*
G01*
X60100000Y-16175000D01*
G75*
G02*
X59850000Y-16425000I-250000J0D01*
G01*
G37*
G36*
G01*
X62750000Y-10625000D02*
X61350000Y-10625000D01*
G75*
G02*
X61200000Y-10475000I0J150000D01*
G01*
X61200000Y-10175000D01*
G75*
G02*
X61350000Y-10025000I150000J0D01*
G01*
X62750000Y-10025000D01*
G75*
G02*
X62900000Y-10175000I0J-150000D01*
G01*
X62900000Y-10475000D01*
G75*
G02*
X62750000Y-10625000I-150000J0D01*
G01*
G37*
G36*
G01*
X62750000Y-11875000D02*
X61350000Y-11875000D01*
G75*
G02*
X61200000Y-11725000I0J150000D01*
G01*
X61200000Y-11425000D01*
G75*
G02*
X61350000Y-11275000I150000J0D01*
G01*
X62750000Y-11275000D01*
G75*
G02*
X62900000Y-11425000I0J-150000D01*
G01*
X62900000Y-11725000D01*
G75*
G02*
X62750000Y-11875000I-150000J0D01*
G01*
G37*
G36*
G01*
X62750000Y-13125000D02*
X61350000Y-13125000D01*
G75*
G02*
X61200000Y-12975000I0J150000D01*
G01*
X61200000Y-12675000D01*
G75*
G02*
X61350000Y-12525000I150000J0D01*
G01*
X62750000Y-12525000D01*
G75*
G02*
X62900000Y-12675000I0J-150000D01*
G01*
X62900000Y-12975000D01*
G75*
G02*
X62750000Y-13125000I-150000J0D01*
G01*
G37*
G36*
G01*
X62750000Y-14375000D02*
X61350000Y-14375000D01*
G75*
G02*
X61200000Y-14225000I0J150000D01*
G01*
X61200000Y-13925000D01*
G75*
G02*
X61350000Y-13775000I150000J0D01*
G01*
X62750000Y-13775000D01*
G75*
G02*
X62900000Y-13925000I0J-150000D01*
G01*
X62900000Y-14225000D01*
G75*
G02*
X62750000Y-14375000I-150000J0D01*
G01*
G37*
%TD*%
%TO.C,J3*%
G36*
G01*
X59850000Y-18425000D02*
X57550000Y-18425000D01*
G75*
G02*
X57300000Y-18175000I0J250000D01*
G01*
X57300000Y-17675000D01*
G75*
G02*
X57550000Y-17425000I250000J0D01*
G01*
X59850000Y-17425000D01*
G75*
G02*
X60100000Y-17675000I0J-250000D01*
G01*
X60100000Y-18175000D01*
G75*
G02*
X59850000Y-18425000I-250000J0D01*
G01*
G37*
G36*
G01*
X59850000Y-25875000D02*
X57550000Y-25875000D01*
G75*
G02*
X57300000Y-25625000I0J250000D01*
G01*
X57300000Y-25125000D01*
G75*
G02*
X57550000Y-24875000I250000J0D01*
G01*
X59850000Y-24875000D01*
G75*
G02*
X60100000Y-25125000I0J-250000D01*
G01*
X60100000Y-25625000D01*
G75*
G02*
X59850000Y-25875000I-250000J0D01*
G01*
G37*
G36*
G01*
X62750000Y-20075000D02*
X61350000Y-20075000D01*
G75*
G02*
X61200000Y-19925000I0J150000D01*
G01*
X61200000Y-19625000D01*
G75*
G02*
X61350000Y-19475000I150000J0D01*
G01*
X62750000Y-19475000D01*
G75*
G02*
X62900000Y-19625000I0J-150000D01*
G01*
X62900000Y-19925000D01*
G75*
G02*
X62750000Y-20075000I-150000J0D01*
G01*
G37*
G36*
G01*
X62750000Y-21325000D02*
X61350000Y-21325000D01*
G75*
G02*
X61200000Y-21175000I0J150000D01*
G01*
X61200000Y-20875000D01*
G75*
G02*
X61350000Y-20725000I150000J0D01*
G01*
X62750000Y-20725000D01*
G75*
G02*
X62900000Y-20875000I0J-150000D01*
G01*
X62900000Y-21175000D01*
G75*
G02*
X62750000Y-21325000I-150000J0D01*
G01*
G37*
G36*
G01*
X62750000Y-22575000D02*
X61350000Y-22575000D01*
G75*
G02*
X61200000Y-22425000I0J150000D01*
G01*
X61200000Y-22125000D01*
G75*
G02*
X61350000Y-21975000I150000J0D01*
G01*
X62750000Y-21975000D01*
G75*
G02*
X62900000Y-22125000I0J-150000D01*
G01*
X62900000Y-22425000D01*
G75*
G02*
X62750000Y-22575000I-150000J0D01*
G01*
G37*
G36*
G01*
X62750000Y-23825000D02*
X61350000Y-23825000D01*
G75*
G02*
X61200000Y-23675000I0J150000D01*
G01*
X61200000Y-23375000D01*
G75*
G02*
X61350000Y-23225000I150000J0D01*
G01*
X62750000Y-23225000D01*
G75*
G02*
X62900000Y-23375000I0J-150000D01*
G01*
X62900000Y-23675000D01*
G75*
G02*
X62750000Y-23825000I-150000J0D01*
G01*
G37*
%TD*%
D24*
%TO.C,U19*%
X11500000Y-33450000D03*
G36*
G01*
X13575000Y-31600000D02*
X13575000Y-31400000D01*
G75*
G02*
X13675000Y-31300000I100000J0D01*
G01*
X15050000Y-31300000D01*
G75*
G02*
X15150000Y-31400000I0J-100000D01*
G01*
X15150000Y-31600000D01*
G75*
G02*
X15050000Y-31700000I-100000J0D01*
G01*
X13675000Y-31700000D01*
G75*
G02*
X13575000Y-31600000I0J100000D01*
G01*
G37*
G36*
G01*
X13575000Y-32250000D02*
X13575000Y-32050000D01*
G75*
G02*
X13675000Y-31950000I100000J0D01*
G01*
X15050000Y-31950000D01*
G75*
G02*
X15150000Y-32050000I0J-100000D01*
G01*
X15150000Y-32250000D01*
G75*
G02*
X15050000Y-32350000I-100000J0D01*
G01*
X13675000Y-32350000D01*
G75*
G02*
X13575000Y-32250000I0J100000D01*
G01*
G37*
G36*
G01*
X13575000Y-32900000D02*
X13575000Y-32700000D01*
G75*
G02*
X13675000Y-32600000I100000J0D01*
G01*
X15050000Y-32600000D01*
G75*
G02*
X15150000Y-32700000I0J-100000D01*
G01*
X15150000Y-32900000D01*
G75*
G02*
X15050000Y-33000000I-100000J0D01*
G01*
X13675000Y-33000000D01*
G75*
G02*
X13575000Y-32900000I0J100000D01*
G01*
G37*
G36*
G01*
X13575000Y-33550000D02*
X13575000Y-33350000D01*
G75*
G02*
X13675000Y-33250000I100000J0D01*
G01*
X15050000Y-33250000D01*
G75*
G02*
X15150000Y-33350000I0J-100000D01*
G01*
X15150000Y-33550000D01*
G75*
G02*
X15050000Y-33650000I-100000J0D01*
G01*
X13675000Y-33650000D01*
G75*
G02*
X13575000Y-33550000I0J100000D01*
G01*
G37*
G36*
G01*
X13575000Y-34200000D02*
X13575000Y-34000000D01*
G75*
G02*
X13675000Y-33900000I100000J0D01*
G01*
X15050000Y-33900000D01*
G75*
G02*
X15150000Y-34000000I0J-100000D01*
G01*
X15150000Y-34200000D01*
G75*
G02*
X15050000Y-34300000I-100000J0D01*
G01*
X13675000Y-34300000D01*
G75*
G02*
X13575000Y-34200000I0J100000D01*
G01*
G37*
G36*
G01*
X13575000Y-34850000D02*
X13575000Y-34650000D01*
G75*
G02*
X13675000Y-34550000I100000J0D01*
G01*
X15050000Y-34550000D01*
G75*
G02*
X15150000Y-34650000I0J-100000D01*
G01*
X15150000Y-34850000D01*
G75*
G02*
X15050000Y-34950000I-100000J0D01*
G01*
X13675000Y-34950000D01*
G75*
G02*
X13575000Y-34850000I0J100000D01*
G01*
G37*
G36*
G01*
X13575000Y-35500000D02*
X13575000Y-35300000D01*
G75*
G02*
X13675000Y-35200000I100000J0D01*
G01*
X15050000Y-35200000D01*
G75*
G02*
X15150000Y-35300000I0J-100000D01*
G01*
X15150000Y-35500000D01*
G75*
G02*
X15050000Y-35600000I-100000J0D01*
G01*
X13675000Y-35600000D01*
G75*
G02*
X13575000Y-35500000I0J100000D01*
G01*
G37*
G36*
G01*
X7850000Y-35500000D02*
X7850000Y-35300000D01*
G75*
G02*
X7950000Y-35200000I100000J0D01*
G01*
X9325000Y-35200000D01*
G75*
G02*
X9425000Y-35300000I0J-100000D01*
G01*
X9425000Y-35500000D01*
G75*
G02*
X9325000Y-35600000I-100000J0D01*
G01*
X7950000Y-35600000D01*
G75*
G02*
X7850000Y-35500000I0J100000D01*
G01*
G37*
G36*
G01*
X7850000Y-34850000D02*
X7850000Y-34650000D01*
G75*
G02*
X7950000Y-34550000I100000J0D01*
G01*
X9325000Y-34550000D01*
G75*
G02*
X9425000Y-34650000I0J-100000D01*
G01*
X9425000Y-34850000D01*
G75*
G02*
X9325000Y-34950000I-100000J0D01*
G01*
X7950000Y-34950000D01*
G75*
G02*
X7850000Y-34850000I0J100000D01*
G01*
G37*
G36*
G01*
X7850000Y-34200000D02*
X7850000Y-34000000D01*
G75*
G02*
X7950000Y-33900000I100000J0D01*
G01*
X9325000Y-33900000D01*
G75*
G02*
X9425000Y-34000000I0J-100000D01*
G01*
X9425000Y-34200000D01*
G75*
G02*
X9325000Y-34300000I-100000J0D01*
G01*
X7950000Y-34300000D01*
G75*
G02*
X7850000Y-34200000I0J100000D01*
G01*
G37*
G36*
G01*
X7850000Y-33550000D02*
X7850000Y-33350000D01*
G75*
G02*
X7950000Y-33250000I100000J0D01*
G01*
X9325000Y-33250000D01*
G75*
G02*
X9425000Y-33350000I0J-100000D01*
G01*
X9425000Y-33550000D01*
G75*
G02*
X9325000Y-33650000I-100000J0D01*
G01*
X7950000Y-33650000D01*
G75*
G02*
X7850000Y-33550000I0J100000D01*
G01*
G37*
G36*
G01*
X7850000Y-32900000D02*
X7850000Y-32700000D01*
G75*
G02*
X7950000Y-32600000I100000J0D01*
G01*
X9325000Y-32600000D01*
G75*
G02*
X9425000Y-32700000I0J-100000D01*
G01*
X9425000Y-32900000D01*
G75*
G02*
X9325000Y-33000000I-100000J0D01*
G01*
X7950000Y-33000000D01*
G75*
G02*
X7850000Y-32900000I0J100000D01*
G01*
G37*
G36*
G01*
X7850000Y-32250000D02*
X7850000Y-32050000D01*
G75*
G02*
X7950000Y-31950000I100000J0D01*
G01*
X9325000Y-31950000D01*
G75*
G02*
X9425000Y-32050000I0J-100000D01*
G01*
X9425000Y-32250000D01*
G75*
G02*
X9325000Y-32350000I-100000J0D01*
G01*
X7950000Y-32350000D01*
G75*
G02*
X7850000Y-32250000I0J100000D01*
G01*
G37*
G36*
G01*
X7850000Y-31600000D02*
X7850000Y-31400000D01*
G75*
G02*
X7950000Y-31300000I100000J0D01*
G01*
X9325000Y-31300000D01*
G75*
G02*
X9425000Y-31400000I0J-100000D01*
G01*
X9425000Y-31600000D01*
G75*
G02*
X9325000Y-31700000I-100000J0D01*
G01*
X7950000Y-31700000D01*
G75*
G02*
X7850000Y-31600000I0J100000D01*
G01*
G37*
%TD*%
%TO.C,U18*%
X20350000Y-33450000D03*
G36*
G01*
X22425000Y-31600000D02*
X22425000Y-31400000D01*
G75*
G02*
X22525000Y-31300000I100000J0D01*
G01*
X23900000Y-31300000D01*
G75*
G02*
X24000000Y-31400000I0J-100000D01*
G01*
X24000000Y-31600000D01*
G75*
G02*
X23900000Y-31700000I-100000J0D01*
G01*
X22525000Y-31700000D01*
G75*
G02*
X22425000Y-31600000I0J100000D01*
G01*
G37*
G36*
G01*
X22425000Y-32250000D02*
X22425000Y-32050000D01*
G75*
G02*
X22525000Y-31950000I100000J0D01*
G01*
X23900000Y-31950000D01*
G75*
G02*
X24000000Y-32050000I0J-100000D01*
G01*
X24000000Y-32250000D01*
G75*
G02*
X23900000Y-32350000I-100000J0D01*
G01*
X22525000Y-32350000D01*
G75*
G02*
X22425000Y-32250000I0J100000D01*
G01*
G37*
G36*
G01*
X22425000Y-32900000D02*
X22425000Y-32700000D01*
G75*
G02*
X22525000Y-32600000I100000J0D01*
G01*
X23900000Y-32600000D01*
G75*
G02*
X24000000Y-32700000I0J-100000D01*
G01*
X24000000Y-32900000D01*
G75*
G02*
X23900000Y-33000000I-100000J0D01*
G01*
X22525000Y-33000000D01*
G75*
G02*
X22425000Y-32900000I0J100000D01*
G01*
G37*
G36*
G01*
X22425000Y-33550000D02*
X22425000Y-33350000D01*
G75*
G02*
X22525000Y-33250000I100000J0D01*
G01*
X23900000Y-33250000D01*
G75*
G02*
X24000000Y-33350000I0J-100000D01*
G01*
X24000000Y-33550000D01*
G75*
G02*
X23900000Y-33650000I-100000J0D01*
G01*
X22525000Y-33650000D01*
G75*
G02*
X22425000Y-33550000I0J100000D01*
G01*
G37*
G36*
G01*
X22425000Y-34200000D02*
X22425000Y-34000000D01*
G75*
G02*
X22525000Y-33900000I100000J0D01*
G01*
X23900000Y-33900000D01*
G75*
G02*
X24000000Y-34000000I0J-100000D01*
G01*
X24000000Y-34200000D01*
G75*
G02*
X23900000Y-34300000I-100000J0D01*
G01*
X22525000Y-34300000D01*
G75*
G02*
X22425000Y-34200000I0J100000D01*
G01*
G37*
G36*
G01*
X22425000Y-34850000D02*
X22425000Y-34650000D01*
G75*
G02*
X22525000Y-34550000I100000J0D01*
G01*
X23900000Y-34550000D01*
G75*
G02*
X24000000Y-34650000I0J-100000D01*
G01*
X24000000Y-34850000D01*
G75*
G02*
X23900000Y-34950000I-100000J0D01*
G01*
X22525000Y-34950000D01*
G75*
G02*
X22425000Y-34850000I0J100000D01*
G01*
G37*
G36*
G01*
X22425000Y-35500000D02*
X22425000Y-35300000D01*
G75*
G02*
X22525000Y-35200000I100000J0D01*
G01*
X23900000Y-35200000D01*
G75*
G02*
X24000000Y-35300000I0J-100000D01*
G01*
X24000000Y-35500000D01*
G75*
G02*
X23900000Y-35600000I-100000J0D01*
G01*
X22525000Y-35600000D01*
G75*
G02*
X22425000Y-35500000I0J100000D01*
G01*
G37*
G36*
G01*
X16700000Y-35500000D02*
X16700000Y-35300000D01*
G75*
G02*
X16800000Y-35200000I100000J0D01*
G01*
X18175000Y-35200000D01*
G75*
G02*
X18275000Y-35300000I0J-100000D01*
G01*
X18275000Y-35500000D01*
G75*
G02*
X18175000Y-35600000I-100000J0D01*
G01*
X16800000Y-35600000D01*
G75*
G02*
X16700000Y-35500000I0J100000D01*
G01*
G37*
G36*
G01*
X16700000Y-34850000D02*
X16700000Y-34650000D01*
G75*
G02*
X16800000Y-34550000I100000J0D01*
G01*
X18175000Y-34550000D01*
G75*
G02*
X18275000Y-34650000I0J-100000D01*
G01*
X18275000Y-34850000D01*
G75*
G02*
X18175000Y-34950000I-100000J0D01*
G01*
X16800000Y-34950000D01*
G75*
G02*
X16700000Y-34850000I0J100000D01*
G01*
G37*
G36*
G01*
X16700000Y-34200000D02*
X16700000Y-34000000D01*
G75*
G02*
X16800000Y-33900000I100000J0D01*
G01*
X18175000Y-33900000D01*
G75*
G02*
X18275000Y-34000000I0J-100000D01*
G01*
X18275000Y-34200000D01*
G75*
G02*
X18175000Y-34300000I-100000J0D01*
G01*
X16800000Y-34300000D01*
G75*
G02*
X16700000Y-34200000I0J100000D01*
G01*
G37*
G36*
G01*
X16700000Y-33550000D02*
X16700000Y-33350000D01*
G75*
G02*
X16800000Y-33250000I100000J0D01*
G01*
X18175000Y-33250000D01*
G75*
G02*
X18275000Y-33350000I0J-100000D01*
G01*
X18275000Y-33550000D01*
G75*
G02*
X18175000Y-33650000I-100000J0D01*
G01*
X16800000Y-33650000D01*
G75*
G02*
X16700000Y-33550000I0J100000D01*
G01*
G37*
G36*
G01*
X16700000Y-32900000D02*
X16700000Y-32700000D01*
G75*
G02*
X16800000Y-32600000I100000J0D01*
G01*
X18175000Y-32600000D01*
G75*
G02*
X18275000Y-32700000I0J-100000D01*
G01*
X18275000Y-32900000D01*
G75*
G02*
X18175000Y-33000000I-100000J0D01*
G01*
X16800000Y-33000000D01*
G75*
G02*
X16700000Y-32900000I0J100000D01*
G01*
G37*
G36*
G01*
X16700000Y-32250000D02*
X16700000Y-32050000D01*
G75*
G02*
X16800000Y-31950000I100000J0D01*
G01*
X18175000Y-31950000D01*
G75*
G02*
X18275000Y-32050000I0J-100000D01*
G01*
X18275000Y-32250000D01*
G75*
G02*
X18175000Y-32350000I-100000J0D01*
G01*
X16800000Y-32350000D01*
G75*
G02*
X16700000Y-32250000I0J100000D01*
G01*
G37*
G36*
G01*
X16700000Y-31600000D02*
X16700000Y-31400000D01*
G75*
G02*
X16800000Y-31300000I100000J0D01*
G01*
X18175000Y-31300000D01*
G75*
G02*
X18275000Y-31400000I0J-100000D01*
G01*
X18275000Y-31600000D01*
G75*
G02*
X18175000Y-31700000I-100000J0D01*
G01*
X16800000Y-31700000D01*
G75*
G02*
X16700000Y-31600000I0J100000D01*
G01*
G37*
%TD*%
D25*
%TO.C,U17*%
X36350000Y-6000000D03*
X36350000Y-4100000D03*
X38550000Y-4100000D03*
X38550000Y-5050000D03*
X38550000Y-6000000D03*
%TD*%
%TO.C,U16*%
X24400000Y-6000000D03*
X24400000Y-4100000D03*
X26600000Y-4100000D03*
X26600000Y-5050000D03*
X26600000Y-6000000D03*
%TD*%
D22*
%TO.C,U15*%
X49400000Y-32850000D03*
X47500000Y-32850000D03*
X47500000Y-30650000D03*
X48450000Y-30650000D03*
X49400000Y-30650000D03*
%TD*%
%TO.C,U14*%
X56500000Y-36500000D03*
X58400000Y-36500000D03*
X58400000Y-38700000D03*
X57450000Y-38700000D03*
X56500000Y-38700000D03*
%TD*%
%TO.C,U13*%
X47050000Y-36500000D03*
X48950000Y-36500000D03*
X48950000Y-38700000D03*
X48000000Y-38700000D03*
X47050000Y-38700000D03*
%TD*%
%TO.C,U12*%
X37600000Y-36500000D03*
X39500000Y-36500000D03*
X39500000Y-38700000D03*
X38550000Y-38700000D03*
X37600000Y-38700000D03*
%TD*%
D24*
%TO.C,U11*%
X29200000Y-33450000D03*
G36*
G01*
X31275000Y-31600000D02*
X31275000Y-31400000D01*
G75*
G02*
X31375000Y-31300000I100000J0D01*
G01*
X32750000Y-31300000D01*
G75*
G02*
X32850000Y-31400000I0J-100000D01*
G01*
X32850000Y-31600000D01*
G75*
G02*
X32750000Y-31700000I-100000J0D01*
G01*
X31375000Y-31700000D01*
G75*
G02*
X31275000Y-31600000I0J100000D01*
G01*
G37*
G36*
G01*
X31275000Y-32250000D02*
X31275000Y-32050000D01*
G75*
G02*
X31375000Y-31950000I100000J0D01*
G01*
X32750000Y-31950000D01*
G75*
G02*
X32850000Y-32050000I0J-100000D01*
G01*
X32850000Y-32250000D01*
G75*
G02*
X32750000Y-32350000I-100000J0D01*
G01*
X31375000Y-32350000D01*
G75*
G02*
X31275000Y-32250000I0J100000D01*
G01*
G37*
G36*
G01*
X31275000Y-32900000D02*
X31275000Y-32700000D01*
G75*
G02*
X31375000Y-32600000I100000J0D01*
G01*
X32750000Y-32600000D01*
G75*
G02*
X32850000Y-32700000I0J-100000D01*
G01*
X32850000Y-32900000D01*
G75*
G02*
X32750000Y-33000000I-100000J0D01*
G01*
X31375000Y-33000000D01*
G75*
G02*
X31275000Y-32900000I0J100000D01*
G01*
G37*
G36*
G01*
X31275000Y-33550000D02*
X31275000Y-33350000D01*
G75*
G02*
X31375000Y-33250000I100000J0D01*
G01*
X32750000Y-33250000D01*
G75*
G02*
X32850000Y-33350000I0J-100000D01*
G01*
X32850000Y-33550000D01*
G75*
G02*
X32750000Y-33650000I-100000J0D01*
G01*
X31375000Y-33650000D01*
G75*
G02*
X31275000Y-33550000I0J100000D01*
G01*
G37*
G36*
G01*
X31275000Y-34200000D02*
X31275000Y-34000000D01*
G75*
G02*
X31375000Y-33900000I100000J0D01*
G01*
X32750000Y-33900000D01*
G75*
G02*
X32850000Y-34000000I0J-100000D01*
G01*
X32850000Y-34200000D01*
G75*
G02*
X32750000Y-34300000I-100000J0D01*
G01*
X31375000Y-34300000D01*
G75*
G02*
X31275000Y-34200000I0J100000D01*
G01*
G37*
G36*
G01*
X31275000Y-34850000D02*
X31275000Y-34650000D01*
G75*
G02*
X31375000Y-34550000I100000J0D01*
G01*
X32750000Y-34550000D01*
G75*
G02*
X32850000Y-34650000I0J-100000D01*
G01*
X32850000Y-34850000D01*
G75*
G02*
X32750000Y-34950000I-100000J0D01*
G01*
X31375000Y-34950000D01*
G75*
G02*
X31275000Y-34850000I0J100000D01*
G01*
G37*
G36*
G01*
X31275000Y-35500000D02*
X31275000Y-35300000D01*
G75*
G02*
X31375000Y-35200000I100000J0D01*
G01*
X32750000Y-35200000D01*
G75*
G02*
X32850000Y-35300000I0J-100000D01*
G01*
X32850000Y-35500000D01*
G75*
G02*
X32750000Y-35600000I-100000J0D01*
G01*
X31375000Y-35600000D01*
G75*
G02*
X31275000Y-35500000I0J100000D01*
G01*
G37*
G36*
G01*
X25550000Y-35500000D02*
X25550000Y-35300000D01*
G75*
G02*
X25650000Y-35200000I100000J0D01*
G01*
X27025000Y-35200000D01*
G75*
G02*
X27125000Y-35300000I0J-100000D01*
G01*
X27125000Y-35500000D01*
G75*
G02*
X27025000Y-35600000I-100000J0D01*
G01*
X25650000Y-35600000D01*
G75*
G02*
X25550000Y-35500000I0J100000D01*
G01*
G37*
G36*
G01*
X25550000Y-34850000D02*
X25550000Y-34650000D01*
G75*
G02*
X25650000Y-34550000I100000J0D01*
G01*
X27025000Y-34550000D01*
G75*
G02*
X27125000Y-34650000I0J-100000D01*
G01*
X27125000Y-34850000D01*
G75*
G02*
X27025000Y-34950000I-100000J0D01*
G01*
X25650000Y-34950000D01*
G75*
G02*
X25550000Y-34850000I0J100000D01*
G01*
G37*
G36*
G01*
X25550000Y-34200000D02*
X25550000Y-34000000D01*
G75*
G02*
X25650000Y-33900000I100000J0D01*
G01*
X27025000Y-33900000D01*
G75*
G02*
X27125000Y-34000000I0J-100000D01*
G01*
X27125000Y-34200000D01*
G75*
G02*
X27025000Y-34300000I-100000J0D01*
G01*
X25650000Y-34300000D01*
G75*
G02*
X25550000Y-34200000I0J100000D01*
G01*
G37*
G36*
G01*
X25550000Y-33550000D02*
X25550000Y-33350000D01*
G75*
G02*
X25650000Y-33250000I100000J0D01*
G01*
X27025000Y-33250000D01*
G75*
G02*
X27125000Y-33350000I0J-100000D01*
G01*
X27125000Y-33550000D01*
G75*
G02*
X27025000Y-33650000I-100000J0D01*
G01*
X25650000Y-33650000D01*
G75*
G02*
X25550000Y-33550000I0J100000D01*
G01*
G37*
G36*
G01*
X25550000Y-32900000D02*
X25550000Y-32700000D01*
G75*
G02*
X25650000Y-32600000I100000J0D01*
G01*
X27025000Y-32600000D01*
G75*
G02*
X27125000Y-32700000I0J-100000D01*
G01*
X27125000Y-32900000D01*
G75*
G02*
X27025000Y-33000000I-100000J0D01*
G01*
X25650000Y-33000000D01*
G75*
G02*
X25550000Y-32900000I0J100000D01*
G01*
G37*
G36*
G01*
X25550000Y-32250000D02*
X25550000Y-32050000D01*
G75*
G02*
X25650000Y-31950000I100000J0D01*
G01*
X27025000Y-31950000D01*
G75*
G02*
X27125000Y-32050000I0J-100000D01*
G01*
X27125000Y-32250000D01*
G75*
G02*
X27025000Y-32350000I-100000J0D01*
G01*
X25650000Y-32350000D01*
G75*
G02*
X25550000Y-32250000I0J100000D01*
G01*
G37*
G36*
G01*
X25550000Y-31600000D02*
X25550000Y-31400000D01*
G75*
G02*
X25650000Y-31300000I100000J0D01*
G01*
X27025000Y-31300000D01*
G75*
G02*
X27125000Y-31400000I0J-100000D01*
G01*
X27125000Y-31600000D01*
G75*
G02*
X27025000Y-31700000I-100000J0D01*
G01*
X25650000Y-31700000D01*
G75*
G02*
X25550000Y-31600000I0J100000D01*
G01*
G37*
%TD*%
D25*
%TO.C,U10*%
X48300000Y-6000000D03*
X48300000Y-4100000D03*
X50500000Y-4100000D03*
X50500000Y-5050000D03*
X50500000Y-6000000D03*
%TD*%
D22*
%TO.C,U9*%
X58850000Y-32850000D03*
X56950000Y-32850000D03*
X56950000Y-30650000D03*
X57900000Y-30650000D03*
X58850000Y-30650000D03*
%TD*%
%TO.C,R70*%
G36*
G01*
X14325000Y-30175000D02*
X14325000Y-29625000D01*
G75*
G02*
X14525000Y-29425000I200000J0D01*
G01*
X14925000Y-29425000D01*
G75*
G02*
X15125000Y-29625000I0J-200000D01*
G01*
X15125000Y-30175000D01*
G75*
G02*
X14925000Y-30375000I-200000J0D01*
G01*
X14525000Y-30375000D01*
G75*
G02*
X14325000Y-30175000I0J200000D01*
G01*
G37*
G36*
G01*
X12675000Y-30175000D02*
X12675000Y-29625000D01*
G75*
G02*
X12875000Y-29425000I200000J0D01*
G01*
X13275000Y-29425000D01*
G75*
G02*
X13475000Y-29625000I0J-200000D01*
G01*
X13475000Y-30175000D01*
G75*
G02*
X13275000Y-30375000I-200000J0D01*
G01*
X12875000Y-30375000D01*
G75*
G02*
X12675000Y-30175000I0J200000D01*
G01*
G37*
%TD*%
%TO.C,R69*%
G36*
G01*
X7475000Y-29625000D02*
X7475000Y-30175000D01*
G75*
G02*
X7275000Y-30375000I-200000J0D01*
G01*
X6875000Y-30375000D01*
G75*
G02*
X6675000Y-30175000I0J200000D01*
G01*
X6675000Y-29625000D01*
G75*
G02*
X6875000Y-29425000I200000J0D01*
G01*
X7275000Y-29425000D01*
G75*
G02*
X7475000Y-29625000I0J-200000D01*
G01*
G37*
G36*
G01*
X9125000Y-29625000D02*
X9125000Y-30175000D01*
G75*
G02*
X8925000Y-30375000I-200000J0D01*
G01*
X8525000Y-30375000D01*
G75*
G02*
X8325000Y-30175000I0J200000D01*
G01*
X8325000Y-29625000D01*
G75*
G02*
X8525000Y-29425000I200000J0D01*
G01*
X8925000Y-29425000D01*
G75*
G02*
X9125000Y-29625000I0J-200000D01*
G01*
G37*
%TD*%
%TO.C,R68*%
G36*
G01*
X14425000Y-38125000D02*
X14975000Y-38125000D01*
G75*
G02*
X15175000Y-38325000I0J-200000D01*
G01*
X15175000Y-38725000D01*
G75*
G02*
X14975000Y-38925000I-200000J0D01*
G01*
X14425000Y-38925000D01*
G75*
G02*
X14225000Y-38725000I0J200000D01*
G01*
X14225000Y-38325000D01*
G75*
G02*
X14425000Y-38125000I200000J0D01*
G01*
G37*
G36*
G01*
X14425000Y-36475000D02*
X14975000Y-36475000D01*
G75*
G02*
X15175000Y-36675000I0J-200000D01*
G01*
X15175000Y-37075000D01*
G75*
G02*
X14975000Y-37275000I-200000J0D01*
G01*
X14425000Y-37275000D01*
G75*
G02*
X14225000Y-37075000I0J200000D01*
G01*
X14225000Y-36675000D01*
G75*
G02*
X14425000Y-36475000I200000J0D01*
G01*
G37*
%TD*%
%TO.C,R67*%
G36*
G01*
X8575000Y-37275000D02*
X8025000Y-37275000D01*
G75*
G02*
X7825000Y-37075000I0J200000D01*
G01*
X7825000Y-36675000D01*
G75*
G02*
X8025000Y-36475000I200000J0D01*
G01*
X8575000Y-36475000D01*
G75*
G02*
X8775000Y-36675000I0J-200000D01*
G01*
X8775000Y-37075000D01*
G75*
G02*
X8575000Y-37275000I-200000J0D01*
G01*
G37*
G36*
G01*
X8575000Y-38925000D02*
X8025000Y-38925000D01*
G75*
G02*
X7825000Y-38725000I0J200000D01*
G01*
X7825000Y-38325000D01*
G75*
G02*
X8025000Y-38125000I200000J0D01*
G01*
X8575000Y-38125000D01*
G75*
G02*
X8775000Y-38325000I0J-200000D01*
G01*
X8775000Y-38725000D01*
G75*
G02*
X8575000Y-38925000I-200000J0D01*
G01*
G37*
%TD*%
%TO.C,R66*%
G36*
G01*
X11325000Y-30175000D02*
X11325000Y-29625000D01*
G75*
G02*
X11525000Y-29425000I200000J0D01*
G01*
X11925000Y-29425000D01*
G75*
G02*
X12125000Y-29625000I0J-200000D01*
G01*
X12125000Y-30175000D01*
G75*
G02*
X11925000Y-30375000I-200000J0D01*
G01*
X11525000Y-30375000D01*
G75*
G02*
X11325000Y-30175000I0J200000D01*
G01*
G37*
G36*
G01*
X9675000Y-30175000D02*
X9675000Y-29625000D01*
G75*
G02*
X9875000Y-29425000I200000J0D01*
G01*
X10275000Y-29425000D01*
G75*
G02*
X10475000Y-29625000I0J-200000D01*
G01*
X10475000Y-30175000D01*
G75*
G02*
X10275000Y-30375000I-200000J0D01*
G01*
X9875000Y-30375000D01*
G75*
G02*
X9675000Y-30175000I0J200000D01*
G01*
G37*
%TD*%
%TO.C,R65*%
G36*
G01*
X23325000Y-30175000D02*
X23325000Y-29625000D01*
G75*
G02*
X23525000Y-29425000I200000J0D01*
G01*
X23925000Y-29425000D01*
G75*
G02*
X24125000Y-29625000I0J-200000D01*
G01*
X24125000Y-30175000D01*
G75*
G02*
X23925000Y-30375000I-200000J0D01*
G01*
X23525000Y-30375000D01*
G75*
G02*
X23325000Y-30175000I0J200000D01*
G01*
G37*
G36*
G01*
X21675000Y-30175000D02*
X21675000Y-29625000D01*
G75*
G02*
X21875000Y-29425000I200000J0D01*
G01*
X22275000Y-29425000D01*
G75*
G02*
X22475000Y-29625000I0J-200000D01*
G01*
X22475000Y-30175000D01*
G75*
G02*
X22275000Y-30375000I-200000J0D01*
G01*
X21875000Y-30375000D01*
G75*
G02*
X21675000Y-30175000I0J200000D01*
G01*
G37*
%TD*%
%TO.C,R64*%
G36*
G01*
X16475000Y-29625000D02*
X16475000Y-30175000D01*
G75*
G02*
X16275000Y-30375000I-200000J0D01*
G01*
X15875000Y-30375000D01*
G75*
G02*
X15675000Y-30175000I0J200000D01*
G01*
X15675000Y-29625000D01*
G75*
G02*
X15875000Y-29425000I200000J0D01*
G01*
X16275000Y-29425000D01*
G75*
G02*
X16475000Y-29625000I0J-200000D01*
G01*
G37*
G36*
G01*
X18125000Y-29625000D02*
X18125000Y-30175000D01*
G75*
G02*
X17925000Y-30375000I-200000J0D01*
G01*
X17525000Y-30375000D01*
G75*
G02*
X17325000Y-30175000I0J200000D01*
G01*
X17325000Y-29625000D01*
G75*
G02*
X17525000Y-29425000I200000J0D01*
G01*
X17925000Y-29425000D01*
G75*
G02*
X18125000Y-29625000I0J-200000D01*
G01*
G37*
%TD*%
%TO.C,R63*%
G36*
G01*
X23275000Y-38125000D02*
X23825000Y-38125000D01*
G75*
G02*
X24025000Y-38325000I0J-200000D01*
G01*
X24025000Y-38725000D01*
G75*
G02*
X23825000Y-38925000I-200000J0D01*
G01*
X23275000Y-38925000D01*
G75*
G02*
X23075000Y-38725000I0J200000D01*
G01*
X23075000Y-38325000D01*
G75*
G02*
X23275000Y-38125000I200000J0D01*
G01*
G37*
G36*
G01*
X23275000Y-36475000D02*
X23825000Y-36475000D01*
G75*
G02*
X24025000Y-36675000I0J-200000D01*
G01*
X24025000Y-37075000D01*
G75*
G02*
X23825000Y-37275000I-200000J0D01*
G01*
X23275000Y-37275000D01*
G75*
G02*
X23075000Y-37075000I0J200000D01*
G01*
X23075000Y-36675000D01*
G75*
G02*
X23275000Y-36475000I200000J0D01*
G01*
G37*
%TD*%
%TO.C,R62*%
G36*
G01*
X17425000Y-37275000D02*
X16875000Y-37275000D01*
G75*
G02*
X16675000Y-37075000I0J200000D01*
G01*
X16675000Y-36675000D01*
G75*
G02*
X16875000Y-36475000I200000J0D01*
G01*
X17425000Y-36475000D01*
G75*
G02*
X17625000Y-36675000I0J-200000D01*
G01*
X17625000Y-37075000D01*
G75*
G02*
X17425000Y-37275000I-200000J0D01*
G01*
G37*
G36*
G01*
X17425000Y-38925000D02*
X16875000Y-38925000D01*
G75*
G02*
X16675000Y-38725000I0J200000D01*
G01*
X16675000Y-38325000D01*
G75*
G02*
X16875000Y-38125000I200000J0D01*
G01*
X17425000Y-38125000D01*
G75*
G02*
X17625000Y-38325000I0J-200000D01*
G01*
X17625000Y-38725000D01*
G75*
G02*
X17425000Y-38925000I-200000J0D01*
G01*
G37*
%TD*%
%TO.C,R61*%
G36*
G01*
X20325000Y-30175000D02*
X20325000Y-29625000D01*
G75*
G02*
X20525000Y-29425000I200000J0D01*
G01*
X20925000Y-29425000D01*
G75*
G02*
X21125000Y-29625000I0J-200000D01*
G01*
X21125000Y-30175000D01*
G75*
G02*
X20925000Y-30375000I-200000J0D01*
G01*
X20525000Y-30375000D01*
G75*
G02*
X20325000Y-30175000I0J200000D01*
G01*
G37*
G36*
G01*
X18675000Y-30175000D02*
X18675000Y-29625000D01*
G75*
G02*
X18875000Y-29425000I200000J0D01*
G01*
X19275000Y-29425000D01*
G75*
G02*
X19475000Y-29625000I0J-200000D01*
G01*
X19475000Y-30175000D01*
G75*
G02*
X19275000Y-30375000I-200000J0D01*
G01*
X18875000Y-30375000D01*
G75*
G02*
X18675000Y-30175000I0J200000D01*
G01*
G37*
%TD*%
%TO.C,R60*%
G36*
G01*
X16675002Y-6850000D02*
X15424998Y-6850000D01*
G75*
G02*
X15175000Y-6600002I0J249998D01*
G01*
X15175000Y-5974998D01*
G75*
G02*
X15424998Y-5725000I249998J0D01*
G01*
X16675002Y-5725000D01*
G75*
G02*
X16925000Y-5974998I0J-249998D01*
G01*
X16925000Y-6600002D01*
G75*
G02*
X16675002Y-6850000I-249998J0D01*
G01*
G37*
G36*
G01*
X16675002Y-9775000D02*
X15424998Y-9775000D01*
G75*
G02*
X15175000Y-9525002I0J249998D01*
G01*
X15175000Y-8899998D01*
G75*
G02*
X15424998Y-8650000I249998J0D01*
G01*
X16675002Y-8650000D01*
G75*
G02*
X16925000Y-8899998I0J-249998D01*
G01*
X16925000Y-9525002D01*
G75*
G02*
X16675002Y-9775000I-249998J0D01*
G01*
G37*
%TD*%
%TO.C,R59*%
G36*
G01*
X19625000Y-10975000D02*
X19625000Y-10425000D01*
G75*
G02*
X19825000Y-10225000I200000J0D01*
G01*
X20225000Y-10225000D01*
G75*
G02*
X20425000Y-10425000I0J-200000D01*
G01*
X20425000Y-10975000D01*
G75*
G02*
X20225000Y-11175000I-200000J0D01*
G01*
X19825000Y-11175000D01*
G75*
G02*
X19625000Y-10975000I0J200000D01*
G01*
G37*
G36*
G01*
X17975000Y-10975000D02*
X17975000Y-10425000D01*
G75*
G02*
X18175000Y-10225000I200000J0D01*
G01*
X18575000Y-10225000D01*
G75*
G02*
X18775000Y-10425000I0J-200000D01*
G01*
X18775000Y-10975000D01*
G75*
G02*
X18575000Y-11175000I-200000J0D01*
G01*
X18175000Y-11175000D01*
G75*
G02*
X17975000Y-10975000I0J200000D01*
G01*
G37*
%TD*%
%TO.C,R58*%
G36*
G01*
X16625000Y-11075000D02*
X16625000Y-10525000D01*
G75*
G02*
X16825000Y-10325000I200000J0D01*
G01*
X17225000Y-10325000D01*
G75*
G02*
X17425000Y-10525000I0J-200000D01*
G01*
X17425000Y-11075000D01*
G75*
G02*
X17225000Y-11275000I-200000J0D01*
G01*
X16825000Y-11275000D01*
G75*
G02*
X16625000Y-11075000I0J200000D01*
G01*
G37*
G36*
G01*
X14975000Y-11075000D02*
X14975000Y-10525000D01*
G75*
G02*
X15175000Y-10325000I200000J0D01*
G01*
X15575000Y-10325000D01*
G75*
G02*
X15775000Y-10525000I0J-200000D01*
G01*
X15775000Y-11075000D01*
G75*
G02*
X15575000Y-11275000I-200000J0D01*
G01*
X15175000Y-11275000D01*
G75*
G02*
X14975000Y-11075000I0J200000D01*
G01*
G37*
%TD*%
%TO.C,R57*%
G36*
G01*
X16425000Y-3475000D02*
X15875000Y-3475000D01*
G75*
G02*
X15675000Y-3275000I0J200000D01*
G01*
X15675000Y-2875000D01*
G75*
G02*
X15875000Y-2675000I200000J0D01*
G01*
X16425000Y-2675000D01*
G75*
G02*
X16625000Y-2875000I0J-200000D01*
G01*
X16625000Y-3275000D01*
G75*
G02*
X16425000Y-3475000I-200000J0D01*
G01*
G37*
G36*
G01*
X16425000Y-5125000D02*
X15875000Y-5125000D01*
G75*
G02*
X15675000Y-4925000I0J200000D01*
G01*
X15675000Y-4525000D01*
G75*
G02*
X15875000Y-4325000I200000J0D01*
G01*
X16425000Y-4325000D01*
G75*
G02*
X16625000Y-4525000I0J-200000D01*
G01*
X16625000Y-4925000D01*
G75*
G02*
X16425000Y-5125000I-200000J0D01*
G01*
G37*
%TD*%
%TO.C,R56*%
G36*
G01*
X44475000Y-4225000D02*
X43925000Y-4225000D01*
G75*
G02*
X43725000Y-4025000I0J200000D01*
G01*
X43725000Y-3625000D01*
G75*
G02*
X43925000Y-3425000I200000J0D01*
G01*
X44475000Y-3425000D01*
G75*
G02*
X44675000Y-3625000I0J-200000D01*
G01*
X44675000Y-4025000D01*
G75*
G02*
X44475000Y-4225000I-200000J0D01*
G01*
G37*
G36*
G01*
X44475000Y-5875000D02*
X43925000Y-5875000D01*
G75*
G02*
X43725000Y-5675000I0J200000D01*
G01*
X43725000Y-5275000D01*
G75*
G02*
X43925000Y-5075000I200000J0D01*
G01*
X44475000Y-5075000D01*
G75*
G02*
X44675000Y-5275000I0J-200000D01*
G01*
X44675000Y-5675000D01*
G75*
G02*
X44475000Y-5875000I-200000J0D01*
G01*
G37*
%TD*%
%TO.C,R55*%
G36*
G01*
X39924998Y-6400000D02*
X41175002Y-6400000D01*
G75*
G02*
X41425000Y-6649998I0J-249998D01*
G01*
X41425000Y-7275002D01*
G75*
G02*
X41175002Y-7525000I-249998J0D01*
G01*
X39924998Y-7525000D01*
G75*
G02*
X39675000Y-7275002I0J249998D01*
G01*
X39675000Y-6649998D01*
G75*
G02*
X39924998Y-6400000I249998J0D01*
G01*
G37*
G36*
G01*
X39924998Y-3475000D02*
X41175002Y-3475000D01*
G75*
G02*
X41425000Y-3724998I0J-249998D01*
G01*
X41425000Y-4350002D01*
G75*
G02*
X41175002Y-4600000I-249998J0D01*
G01*
X39924998Y-4600000D01*
G75*
G02*
X39675000Y-4350002I0J249998D01*
G01*
X39675000Y-3724998D01*
G75*
G02*
X39924998Y-3475000I249998J0D01*
G01*
G37*
%TD*%
%TO.C,R54*%
G36*
G01*
X46025000Y-4225000D02*
X45475000Y-4225000D01*
G75*
G02*
X45275000Y-4025000I0J200000D01*
G01*
X45275000Y-3625000D01*
G75*
G02*
X45475000Y-3425000I200000J0D01*
G01*
X46025000Y-3425000D01*
G75*
G02*
X46225000Y-3625000I0J-200000D01*
G01*
X46225000Y-4025000D01*
G75*
G02*
X46025000Y-4225000I-200000J0D01*
G01*
G37*
G36*
G01*
X46025000Y-5875000D02*
X45475000Y-5875000D01*
G75*
G02*
X45275000Y-5675000I0J200000D01*
G01*
X45275000Y-5275000D01*
G75*
G02*
X45475000Y-5075000I200000J0D01*
G01*
X46025000Y-5075000D01*
G75*
G02*
X46225000Y-5275000I0J-200000D01*
G01*
X46225000Y-5675000D01*
G75*
G02*
X46025000Y-5875000I-200000J0D01*
G01*
G37*
%TD*%
%TO.C,R53*%
G36*
G01*
X32525000Y-4225000D02*
X31975000Y-4225000D01*
G75*
G02*
X31775000Y-4025000I0J200000D01*
G01*
X31775000Y-3625000D01*
G75*
G02*
X31975000Y-3425000I200000J0D01*
G01*
X32525000Y-3425000D01*
G75*
G02*
X32725000Y-3625000I0J-200000D01*
G01*
X32725000Y-4025000D01*
G75*
G02*
X32525000Y-4225000I-200000J0D01*
G01*
G37*
G36*
G01*
X32525000Y-5875000D02*
X31975000Y-5875000D01*
G75*
G02*
X31775000Y-5675000I0J200000D01*
G01*
X31775000Y-5275000D01*
G75*
G02*
X31975000Y-5075000I200000J0D01*
G01*
X32525000Y-5075000D01*
G75*
G02*
X32725000Y-5275000I0J-200000D01*
G01*
X32725000Y-5675000D01*
G75*
G02*
X32525000Y-5875000I-200000J0D01*
G01*
G37*
%TD*%
%TO.C,R52*%
G36*
G01*
X27974998Y-6400000D02*
X29225002Y-6400000D01*
G75*
G02*
X29475000Y-6649998I0J-249998D01*
G01*
X29475000Y-7275002D01*
G75*
G02*
X29225002Y-7525000I-249998J0D01*
G01*
X27974998Y-7525000D01*
G75*
G02*
X27725000Y-7275002I0J249998D01*
G01*
X27725000Y-6649998D01*
G75*
G02*
X27974998Y-6400000I249998J0D01*
G01*
G37*
G36*
G01*
X27974998Y-3475000D02*
X29225002Y-3475000D01*
G75*
G02*
X29475000Y-3724998I0J-249998D01*
G01*
X29475000Y-4350002D01*
G75*
G02*
X29225002Y-4600000I-249998J0D01*
G01*
X27974998Y-4600000D01*
G75*
G02*
X27725000Y-4350002I0J249998D01*
G01*
X27725000Y-3724998D01*
G75*
G02*
X27974998Y-3475000I249998J0D01*
G01*
G37*
%TD*%
%TO.C,R51*%
G36*
G01*
X34075000Y-4225000D02*
X33525000Y-4225000D01*
G75*
G02*
X33325000Y-4025000I0J200000D01*
G01*
X33325000Y-3625000D01*
G75*
G02*
X33525000Y-3425000I200000J0D01*
G01*
X34075000Y-3425000D01*
G75*
G02*
X34275000Y-3625000I0J-200000D01*
G01*
X34275000Y-4025000D01*
G75*
G02*
X34075000Y-4225000I-200000J0D01*
G01*
G37*
G36*
G01*
X34075000Y-5875000D02*
X33525000Y-5875000D01*
G75*
G02*
X33325000Y-5675000I0J200000D01*
G01*
X33325000Y-5275000D01*
G75*
G02*
X33525000Y-5075000I200000J0D01*
G01*
X34075000Y-5075000D01*
G75*
G02*
X34275000Y-5275000I0J-200000D01*
G01*
X34275000Y-5675000D01*
G75*
G02*
X34075000Y-5875000I-200000J0D01*
G01*
G37*
%TD*%
%TO.C,R50*%
G36*
G01*
X55675000Y-16575000D02*
X55675000Y-16025000D01*
G75*
G02*
X55875000Y-15825000I200000J0D01*
G01*
X56275000Y-15825000D01*
G75*
G02*
X56475000Y-16025000I0J-200000D01*
G01*
X56475000Y-16575000D01*
G75*
G02*
X56275000Y-16775000I-200000J0D01*
G01*
X55875000Y-16775000D01*
G75*
G02*
X55675000Y-16575000I0J200000D01*
G01*
G37*
G36*
G01*
X54025000Y-16575000D02*
X54025000Y-16025000D01*
G75*
G02*
X54225000Y-15825000I200000J0D01*
G01*
X54625000Y-15825000D01*
G75*
G02*
X54825000Y-16025000I0J-200000D01*
G01*
X54825000Y-16575000D01*
G75*
G02*
X54625000Y-16775000I-200000J0D01*
G01*
X54225000Y-16775000D01*
G75*
G02*
X54025000Y-16575000I0J200000D01*
G01*
G37*
%TD*%
%TO.C,R49*%
G36*
G01*
X55675000Y-25575000D02*
X55675000Y-25025000D01*
G75*
G02*
X55875000Y-24825000I200000J0D01*
G01*
X56275000Y-24825000D01*
G75*
G02*
X56475000Y-25025000I0J-200000D01*
G01*
X56475000Y-25575000D01*
G75*
G02*
X56275000Y-25775000I-200000J0D01*
G01*
X55875000Y-25775000D01*
G75*
G02*
X55675000Y-25575000I0J200000D01*
G01*
G37*
G36*
G01*
X54025000Y-25575000D02*
X54025000Y-25025000D01*
G75*
G02*
X54225000Y-24825000I200000J0D01*
G01*
X54625000Y-24825000D01*
G75*
G02*
X54825000Y-25025000I0J-200000D01*
G01*
X54825000Y-25575000D01*
G75*
G02*
X54625000Y-25775000I-200000J0D01*
G01*
X54225000Y-25775000D01*
G75*
G02*
X54025000Y-25575000I0J200000D01*
G01*
G37*
%TD*%
%TO.C,R48*%
G36*
G01*
X45525000Y-33825000D02*
X45525000Y-33275000D01*
G75*
G02*
X45725000Y-33075000I200000J0D01*
G01*
X46125000Y-33075000D01*
G75*
G02*
X46325000Y-33275000I0J-200000D01*
G01*
X46325000Y-33825000D01*
G75*
G02*
X46125000Y-34025000I-200000J0D01*
G01*
X45725000Y-34025000D01*
G75*
G02*
X45525000Y-33825000I0J200000D01*
G01*
G37*
G36*
G01*
X43875000Y-33825000D02*
X43875000Y-33275000D01*
G75*
G02*
X44075000Y-33075000I200000J0D01*
G01*
X44475000Y-33075000D01*
G75*
G02*
X44675000Y-33275000I0J-200000D01*
G01*
X44675000Y-33825000D01*
G75*
G02*
X44475000Y-34025000I-200000J0D01*
G01*
X44075000Y-34025000D01*
G75*
G02*
X43875000Y-33825000I0J200000D01*
G01*
G37*
%TD*%
%TO.C,R47*%
G36*
G01*
X44625000Y-30875000D02*
X44075000Y-30875000D01*
G75*
G02*
X43875000Y-30675000I0J200000D01*
G01*
X43875000Y-30275000D01*
G75*
G02*
X44075000Y-30075000I200000J0D01*
G01*
X44625000Y-30075000D01*
G75*
G02*
X44825000Y-30275000I0J-200000D01*
G01*
X44825000Y-30675000D01*
G75*
G02*
X44625000Y-30875000I-200000J0D01*
G01*
G37*
G36*
G01*
X44625000Y-32525000D02*
X44075000Y-32525000D01*
G75*
G02*
X43875000Y-32325000I0J200000D01*
G01*
X43875000Y-31925000D01*
G75*
G02*
X44075000Y-31725000I200000J0D01*
G01*
X44625000Y-31725000D01*
G75*
G02*
X44825000Y-31925000I0J-200000D01*
G01*
X44825000Y-32325000D01*
G75*
G02*
X44625000Y-32525000I-200000J0D01*
G01*
G37*
%TD*%
%TO.C,R46*%
G36*
G01*
X45575000Y-31725000D02*
X46125000Y-31725000D01*
G75*
G02*
X46325000Y-31925000I0J-200000D01*
G01*
X46325000Y-32325000D01*
G75*
G02*
X46125000Y-32525000I-200000J0D01*
G01*
X45575000Y-32525000D01*
G75*
G02*
X45375000Y-32325000I0J200000D01*
G01*
X45375000Y-31925000D01*
G75*
G02*
X45575000Y-31725000I200000J0D01*
G01*
G37*
G36*
G01*
X45575000Y-30075000D02*
X46125000Y-30075000D01*
G75*
G02*
X46325000Y-30275000I0J-200000D01*
G01*
X46325000Y-30675000D01*
G75*
G02*
X46125000Y-30875000I-200000J0D01*
G01*
X45575000Y-30875000D01*
G75*
G02*
X45375000Y-30675000I0J200000D01*
G01*
X45375000Y-30275000D01*
G75*
G02*
X45575000Y-30075000I200000J0D01*
G01*
G37*
%TD*%
%TO.C,R45*%
G36*
G01*
X60375000Y-35525000D02*
X60375000Y-36075000D01*
G75*
G02*
X60175000Y-36275000I-200000J0D01*
G01*
X59775000Y-36275000D01*
G75*
G02*
X59575000Y-36075000I0J200000D01*
G01*
X59575000Y-35525000D01*
G75*
G02*
X59775000Y-35325000I200000J0D01*
G01*
X60175000Y-35325000D01*
G75*
G02*
X60375000Y-35525000I0J-200000D01*
G01*
G37*
G36*
G01*
X62025000Y-35525000D02*
X62025000Y-36075000D01*
G75*
G02*
X61825000Y-36275000I-200000J0D01*
G01*
X61425000Y-36275000D01*
G75*
G02*
X61225000Y-36075000I0J200000D01*
G01*
X61225000Y-35525000D01*
G75*
G02*
X61425000Y-35325000I200000J0D01*
G01*
X61825000Y-35325000D01*
G75*
G02*
X62025000Y-35525000I0J-200000D01*
G01*
G37*
%TD*%
%TO.C,R44*%
G36*
G01*
X61275000Y-38475000D02*
X61825000Y-38475000D01*
G75*
G02*
X62025000Y-38675000I0J-200000D01*
G01*
X62025000Y-39075000D01*
G75*
G02*
X61825000Y-39275000I-200000J0D01*
G01*
X61275000Y-39275000D01*
G75*
G02*
X61075000Y-39075000I0J200000D01*
G01*
X61075000Y-38675000D01*
G75*
G02*
X61275000Y-38475000I200000J0D01*
G01*
G37*
G36*
G01*
X61275000Y-36825000D02*
X61825000Y-36825000D01*
G75*
G02*
X62025000Y-37025000I0J-200000D01*
G01*
X62025000Y-37425000D01*
G75*
G02*
X61825000Y-37625000I-200000J0D01*
G01*
X61275000Y-37625000D01*
G75*
G02*
X61075000Y-37425000I0J200000D01*
G01*
X61075000Y-37025000D01*
G75*
G02*
X61275000Y-36825000I200000J0D01*
G01*
G37*
%TD*%
%TO.C,R43*%
G36*
G01*
X60325000Y-37625000D02*
X59775000Y-37625000D01*
G75*
G02*
X59575000Y-37425000I0J200000D01*
G01*
X59575000Y-37025000D01*
G75*
G02*
X59775000Y-36825000I200000J0D01*
G01*
X60325000Y-36825000D01*
G75*
G02*
X60525000Y-37025000I0J-200000D01*
G01*
X60525000Y-37425000D01*
G75*
G02*
X60325000Y-37625000I-200000J0D01*
G01*
G37*
G36*
G01*
X60325000Y-39275000D02*
X59775000Y-39275000D01*
G75*
G02*
X59575000Y-39075000I0J200000D01*
G01*
X59575000Y-38675000D01*
G75*
G02*
X59775000Y-38475000I200000J0D01*
G01*
X60325000Y-38475000D01*
G75*
G02*
X60525000Y-38675000I0J-200000D01*
G01*
X60525000Y-39075000D01*
G75*
G02*
X60325000Y-39275000I-200000J0D01*
G01*
G37*
%TD*%
%TO.C,R42*%
G36*
G01*
X50925000Y-35525000D02*
X50925000Y-36075000D01*
G75*
G02*
X50725000Y-36275000I-200000J0D01*
G01*
X50325000Y-36275000D01*
G75*
G02*
X50125000Y-36075000I0J200000D01*
G01*
X50125000Y-35525000D01*
G75*
G02*
X50325000Y-35325000I200000J0D01*
G01*
X50725000Y-35325000D01*
G75*
G02*
X50925000Y-35525000I0J-200000D01*
G01*
G37*
G36*
G01*
X52575000Y-35525000D02*
X52575000Y-36075000D01*
G75*
G02*
X52375000Y-36275000I-200000J0D01*
G01*
X51975000Y-36275000D01*
G75*
G02*
X51775000Y-36075000I0J200000D01*
G01*
X51775000Y-35525000D01*
G75*
G02*
X51975000Y-35325000I200000J0D01*
G01*
X52375000Y-35325000D01*
G75*
G02*
X52575000Y-35525000I0J-200000D01*
G01*
G37*
%TD*%
%TO.C,R41*%
G36*
G01*
X51825000Y-38475000D02*
X52375000Y-38475000D01*
G75*
G02*
X52575000Y-38675000I0J-200000D01*
G01*
X52575000Y-39075000D01*
G75*
G02*
X52375000Y-39275000I-200000J0D01*
G01*
X51825000Y-39275000D01*
G75*
G02*
X51625000Y-39075000I0J200000D01*
G01*
X51625000Y-38675000D01*
G75*
G02*
X51825000Y-38475000I200000J0D01*
G01*
G37*
G36*
G01*
X51825000Y-36825000D02*
X52375000Y-36825000D01*
G75*
G02*
X52575000Y-37025000I0J-200000D01*
G01*
X52575000Y-37425000D01*
G75*
G02*
X52375000Y-37625000I-200000J0D01*
G01*
X51825000Y-37625000D01*
G75*
G02*
X51625000Y-37425000I0J200000D01*
G01*
X51625000Y-37025000D01*
G75*
G02*
X51825000Y-36825000I200000J0D01*
G01*
G37*
%TD*%
%TO.C,R40*%
G36*
G01*
X50875000Y-37625000D02*
X50325000Y-37625000D01*
G75*
G02*
X50125000Y-37425000I0J200000D01*
G01*
X50125000Y-37025000D01*
G75*
G02*
X50325000Y-36825000I200000J0D01*
G01*
X50875000Y-36825000D01*
G75*
G02*
X51075000Y-37025000I0J-200000D01*
G01*
X51075000Y-37425000D01*
G75*
G02*
X50875000Y-37625000I-200000J0D01*
G01*
G37*
G36*
G01*
X50875000Y-39275000D02*
X50325000Y-39275000D01*
G75*
G02*
X50125000Y-39075000I0J200000D01*
G01*
X50125000Y-38675000D01*
G75*
G02*
X50325000Y-38475000I200000J0D01*
G01*
X50875000Y-38475000D01*
G75*
G02*
X51075000Y-38675000I0J-200000D01*
G01*
X51075000Y-39075000D01*
G75*
G02*
X50875000Y-39275000I-200000J0D01*
G01*
G37*
%TD*%
%TO.C,R39*%
G36*
G01*
X41475000Y-35475000D02*
X41475000Y-36025000D01*
G75*
G02*
X41275000Y-36225000I-200000J0D01*
G01*
X40875000Y-36225000D01*
G75*
G02*
X40675000Y-36025000I0J200000D01*
G01*
X40675000Y-35475000D01*
G75*
G02*
X40875000Y-35275000I200000J0D01*
G01*
X41275000Y-35275000D01*
G75*
G02*
X41475000Y-35475000I0J-200000D01*
G01*
G37*
G36*
G01*
X43125000Y-35475000D02*
X43125000Y-36025000D01*
G75*
G02*
X42925000Y-36225000I-200000J0D01*
G01*
X42525000Y-36225000D01*
G75*
G02*
X42325000Y-36025000I0J200000D01*
G01*
X42325000Y-35475000D01*
G75*
G02*
X42525000Y-35275000I200000J0D01*
G01*
X42925000Y-35275000D01*
G75*
G02*
X43125000Y-35475000I0J-200000D01*
G01*
G37*
%TD*%
%TO.C,R38*%
G36*
G01*
X42375000Y-38425000D02*
X42925000Y-38425000D01*
G75*
G02*
X43125000Y-38625000I0J-200000D01*
G01*
X43125000Y-39025000D01*
G75*
G02*
X42925000Y-39225000I-200000J0D01*
G01*
X42375000Y-39225000D01*
G75*
G02*
X42175000Y-39025000I0J200000D01*
G01*
X42175000Y-38625000D01*
G75*
G02*
X42375000Y-38425000I200000J0D01*
G01*
G37*
G36*
G01*
X42375000Y-36775000D02*
X42925000Y-36775000D01*
G75*
G02*
X43125000Y-36975000I0J-200000D01*
G01*
X43125000Y-37375000D01*
G75*
G02*
X42925000Y-37575000I-200000J0D01*
G01*
X42375000Y-37575000D01*
G75*
G02*
X42175000Y-37375000I0J200000D01*
G01*
X42175000Y-36975000D01*
G75*
G02*
X42375000Y-36775000I200000J0D01*
G01*
G37*
%TD*%
%TO.C,R37*%
G36*
G01*
X41425000Y-37575000D02*
X40875000Y-37575000D01*
G75*
G02*
X40675000Y-37375000I0J200000D01*
G01*
X40675000Y-36975000D01*
G75*
G02*
X40875000Y-36775000I200000J0D01*
G01*
X41425000Y-36775000D01*
G75*
G02*
X41625000Y-36975000I0J-200000D01*
G01*
X41625000Y-37375000D01*
G75*
G02*
X41425000Y-37575000I-200000J0D01*
G01*
G37*
G36*
G01*
X41425000Y-39225000D02*
X40875000Y-39225000D01*
G75*
G02*
X40675000Y-39025000I0J200000D01*
G01*
X40675000Y-38625000D01*
G75*
G02*
X40875000Y-38425000I200000J0D01*
G01*
X41425000Y-38425000D01*
G75*
G02*
X41625000Y-38625000I0J-200000D01*
G01*
X41625000Y-39025000D01*
G75*
G02*
X41425000Y-39225000I-200000J0D01*
G01*
G37*
%TD*%
%TO.C,R36*%
G36*
G01*
X32325000Y-30175000D02*
X32325000Y-29625000D01*
G75*
G02*
X32525000Y-29425000I200000J0D01*
G01*
X32925000Y-29425000D01*
G75*
G02*
X33125000Y-29625000I0J-200000D01*
G01*
X33125000Y-30175000D01*
G75*
G02*
X32925000Y-30375000I-200000J0D01*
G01*
X32525000Y-30375000D01*
G75*
G02*
X32325000Y-30175000I0J200000D01*
G01*
G37*
G36*
G01*
X30675000Y-30175000D02*
X30675000Y-29625000D01*
G75*
G02*
X30875000Y-29425000I200000J0D01*
G01*
X31275000Y-29425000D01*
G75*
G02*
X31475000Y-29625000I0J-200000D01*
G01*
X31475000Y-30175000D01*
G75*
G02*
X31275000Y-30375000I-200000J0D01*
G01*
X30875000Y-30375000D01*
G75*
G02*
X30675000Y-30175000I0J200000D01*
G01*
G37*
%TD*%
%TO.C,R35*%
G36*
G01*
X25475000Y-29625000D02*
X25475000Y-30175000D01*
G75*
G02*
X25275000Y-30375000I-200000J0D01*
G01*
X24875000Y-30375000D01*
G75*
G02*
X24675000Y-30175000I0J200000D01*
G01*
X24675000Y-29625000D01*
G75*
G02*
X24875000Y-29425000I200000J0D01*
G01*
X25275000Y-29425000D01*
G75*
G02*
X25475000Y-29625000I0J-200000D01*
G01*
G37*
G36*
G01*
X27125000Y-29625000D02*
X27125000Y-30175000D01*
G75*
G02*
X26925000Y-30375000I-200000J0D01*
G01*
X26525000Y-30375000D01*
G75*
G02*
X26325000Y-30175000I0J200000D01*
G01*
X26325000Y-29625000D01*
G75*
G02*
X26525000Y-29425000I200000J0D01*
G01*
X26925000Y-29425000D01*
G75*
G02*
X27125000Y-29625000I0J-200000D01*
G01*
G37*
%TD*%
%TO.C,R34*%
G36*
G01*
X32125000Y-38125000D02*
X32675000Y-38125000D01*
G75*
G02*
X32875000Y-38325000I0J-200000D01*
G01*
X32875000Y-38725000D01*
G75*
G02*
X32675000Y-38925000I-200000J0D01*
G01*
X32125000Y-38925000D01*
G75*
G02*
X31925000Y-38725000I0J200000D01*
G01*
X31925000Y-38325000D01*
G75*
G02*
X32125000Y-38125000I200000J0D01*
G01*
G37*
G36*
G01*
X32125000Y-36475000D02*
X32675000Y-36475000D01*
G75*
G02*
X32875000Y-36675000I0J-200000D01*
G01*
X32875000Y-37075000D01*
G75*
G02*
X32675000Y-37275000I-200000J0D01*
G01*
X32125000Y-37275000D01*
G75*
G02*
X31925000Y-37075000I0J200000D01*
G01*
X31925000Y-36675000D01*
G75*
G02*
X32125000Y-36475000I200000J0D01*
G01*
G37*
%TD*%
%TO.C,R33*%
G36*
G01*
X26275000Y-37275000D02*
X25725000Y-37275000D01*
G75*
G02*
X25525000Y-37075000I0J200000D01*
G01*
X25525000Y-36675000D01*
G75*
G02*
X25725000Y-36475000I200000J0D01*
G01*
X26275000Y-36475000D01*
G75*
G02*
X26475000Y-36675000I0J-200000D01*
G01*
X26475000Y-37075000D01*
G75*
G02*
X26275000Y-37275000I-200000J0D01*
G01*
G37*
G36*
G01*
X26275000Y-38925000D02*
X25725000Y-38925000D01*
G75*
G02*
X25525000Y-38725000I0J200000D01*
G01*
X25525000Y-38325000D01*
G75*
G02*
X25725000Y-38125000I200000J0D01*
G01*
X26275000Y-38125000D01*
G75*
G02*
X26475000Y-38325000I0J-200000D01*
G01*
X26475000Y-38725000D01*
G75*
G02*
X26275000Y-38925000I-200000J0D01*
G01*
G37*
%TD*%
%TO.C,R32*%
G36*
G01*
X29325000Y-30175000D02*
X29325000Y-29625000D01*
G75*
G02*
X29525000Y-29425000I200000J0D01*
G01*
X29925000Y-29425000D01*
G75*
G02*
X30125000Y-29625000I0J-200000D01*
G01*
X30125000Y-30175000D01*
G75*
G02*
X29925000Y-30375000I-200000J0D01*
G01*
X29525000Y-30375000D01*
G75*
G02*
X29325000Y-30175000I0J200000D01*
G01*
G37*
G36*
G01*
X27675000Y-30175000D02*
X27675000Y-29625000D01*
G75*
G02*
X27875000Y-29425000I200000J0D01*
G01*
X28275000Y-29425000D01*
G75*
G02*
X28475000Y-29625000I0J-200000D01*
G01*
X28475000Y-30175000D01*
G75*
G02*
X28275000Y-30375000I-200000J0D01*
G01*
X27875000Y-30375000D01*
G75*
G02*
X27675000Y-30175000I0J200000D01*
G01*
G37*
%TD*%
%TO.C,R31*%
G36*
G01*
X9725002Y-6850000D02*
X8474998Y-6850000D01*
G75*
G02*
X8225000Y-6600002I0J249998D01*
G01*
X8225000Y-5974998D01*
G75*
G02*
X8474998Y-5725000I249998J0D01*
G01*
X9725002Y-5725000D01*
G75*
G02*
X9975000Y-5974998I0J-249998D01*
G01*
X9975000Y-6600002D01*
G75*
G02*
X9725002Y-6850000I-249998J0D01*
G01*
G37*
G36*
G01*
X9725002Y-9775000D02*
X8474998Y-9775000D01*
G75*
G02*
X8225000Y-9525002I0J249998D01*
G01*
X8225000Y-8899998D01*
G75*
G02*
X8474998Y-8650000I249998J0D01*
G01*
X9725002Y-8650000D01*
G75*
G02*
X9975000Y-8899998I0J-249998D01*
G01*
X9975000Y-9525002D01*
G75*
G02*
X9725002Y-9775000I-249998J0D01*
G01*
G37*
%TD*%
%TO.C,R30*%
G36*
G01*
X12675000Y-10975000D02*
X12675000Y-10425000D01*
G75*
G02*
X12875000Y-10225000I200000J0D01*
G01*
X13275000Y-10225000D01*
G75*
G02*
X13475000Y-10425000I0J-200000D01*
G01*
X13475000Y-10975000D01*
G75*
G02*
X13275000Y-11175000I-200000J0D01*
G01*
X12875000Y-11175000D01*
G75*
G02*
X12675000Y-10975000I0J200000D01*
G01*
G37*
G36*
G01*
X11025000Y-10975000D02*
X11025000Y-10425000D01*
G75*
G02*
X11225000Y-10225000I200000J0D01*
G01*
X11625000Y-10225000D01*
G75*
G02*
X11825000Y-10425000I0J-200000D01*
G01*
X11825000Y-10975000D01*
G75*
G02*
X11625000Y-11175000I-200000J0D01*
G01*
X11225000Y-11175000D01*
G75*
G02*
X11025000Y-10975000I0J200000D01*
G01*
G37*
%TD*%
%TO.C,R29*%
G36*
G01*
X9675000Y-11075000D02*
X9675000Y-10525000D01*
G75*
G02*
X9875000Y-10325000I200000J0D01*
G01*
X10275000Y-10325000D01*
G75*
G02*
X10475000Y-10525000I0J-200000D01*
G01*
X10475000Y-11075000D01*
G75*
G02*
X10275000Y-11275000I-200000J0D01*
G01*
X9875000Y-11275000D01*
G75*
G02*
X9675000Y-11075000I0J200000D01*
G01*
G37*
G36*
G01*
X8025000Y-11075000D02*
X8025000Y-10525000D01*
G75*
G02*
X8225000Y-10325000I200000J0D01*
G01*
X8625000Y-10325000D01*
G75*
G02*
X8825000Y-10525000I0J-200000D01*
G01*
X8825000Y-11075000D01*
G75*
G02*
X8625000Y-11275000I-200000J0D01*
G01*
X8225000Y-11275000D01*
G75*
G02*
X8025000Y-11075000I0J200000D01*
G01*
G37*
%TD*%
%TO.C,R28*%
G36*
G01*
X9475000Y-3475000D02*
X8925000Y-3475000D01*
G75*
G02*
X8725000Y-3275000I0J200000D01*
G01*
X8725000Y-2875000D01*
G75*
G02*
X8925000Y-2675000I200000J0D01*
G01*
X9475000Y-2675000D01*
G75*
G02*
X9675000Y-2875000I0J-200000D01*
G01*
X9675000Y-3275000D01*
G75*
G02*
X9475000Y-3475000I-200000J0D01*
G01*
G37*
G36*
G01*
X9475000Y-5125000D02*
X8925000Y-5125000D01*
G75*
G02*
X8725000Y-4925000I0J200000D01*
G01*
X8725000Y-4525000D01*
G75*
G02*
X8925000Y-4325000I200000J0D01*
G01*
X9475000Y-4325000D01*
G75*
G02*
X9675000Y-4525000I0J-200000D01*
G01*
X9675000Y-4925000D01*
G75*
G02*
X9475000Y-5125000I-200000J0D01*
G01*
G37*
%TD*%
%TO.C,R27*%
G36*
G01*
X56425000Y-4225000D02*
X55875000Y-4225000D01*
G75*
G02*
X55675000Y-4025000I0J200000D01*
G01*
X55675000Y-3625000D01*
G75*
G02*
X55875000Y-3425000I200000J0D01*
G01*
X56425000Y-3425000D01*
G75*
G02*
X56625000Y-3625000I0J-200000D01*
G01*
X56625000Y-4025000D01*
G75*
G02*
X56425000Y-4225000I-200000J0D01*
G01*
G37*
G36*
G01*
X56425000Y-5875000D02*
X55875000Y-5875000D01*
G75*
G02*
X55675000Y-5675000I0J200000D01*
G01*
X55675000Y-5275000D01*
G75*
G02*
X55875000Y-5075000I200000J0D01*
G01*
X56425000Y-5075000D01*
G75*
G02*
X56625000Y-5275000I0J-200000D01*
G01*
X56625000Y-5675000D01*
G75*
G02*
X56425000Y-5875000I-200000J0D01*
G01*
G37*
%TD*%
%TO.C,R26*%
G36*
G01*
X51874998Y-6350000D02*
X53125002Y-6350000D01*
G75*
G02*
X53375000Y-6599998I0J-249998D01*
G01*
X53375000Y-7225002D01*
G75*
G02*
X53125002Y-7475000I-249998J0D01*
G01*
X51874998Y-7475000D01*
G75*
G02*
X51625000Y-7225002I0J249998D01*
G01*
X51625000Y-6599998D01*
G75*
G02*
X51874998Y-6350000I249998J0D01*
G01*
G37*
G36*
G01*
X51874998Y-3425000D02*
X53125002Y-3425000D01*
G75*
G02*
X53375000Y-3674998I0J-249998D01*
G01*
X53375000Y-4300002D01*
G75*
G02*
X53125002Y-4550000I-249998J0D01*
G01*
X51874998Y-4550000D01*
G75*
G02*
X51625000Y-4300002I0J249998D01*
G01*
X51625000Y-3674998D01*
G75*
G02*
X51874998Y-3425000I249998J0D01*
G01*
G37*
%TD*%
%TO.C,R25*%
G36*
G01*
X57975000Y-4225000D02*
X57425000Y-4225000D01*
G75*
G02*
X57225000Y-4025000I0J200000D01*
G01*
X57225000Y-3625000D01*
G75*
G02*
X57425000Y-3425000I200000J0D01*
G01*
X57975000Y-3425000D01*
G75*
G02*
X58175000Y-3625000I0J-200000D01*
G01*
X58175000Y-4025000D01*
G75*
G02*
X57975000Y-4225000I-200000J0D01*
G01*
G37*
G36*
G01*
X57975000Y-5875000D02*
X57425000Y-5875000D01*
G75*
G02*
X57225000Y-5675000I0J200000D01*
G01*
X57225000Y-5275000D01*
G75*
G02*
X57425000Y-5075000I200000J0D01*
G01*
X57975000Y-5075000D01*
G75*
G02*
X58175000Y-5275000I0J-200000D01*
G01*
X58175000Y-5675000D01*
G75*
G02*
X57975000Y-5875000I-200000J0D01*
G01*
G37*
%TD*%
%TO.C,R24*%
G36*
G01*
X55675000Y-21075000D02*
X55675000Y-20525000D01*
G75*
G02*
X55875000Y-20325000I200000J0D01*
G01*
X56275000Y-20325000D01*
G75*
G02*
X56475000Y-20525000I0J-200000D01*
G01*
X56475000Y-21075000D01*
G75*
G02*
X56275000Y-21275000I-200000J0D01*
G01*
X55875000Y-21275000D01*
G75*
G02*
X55675000Y-21075000I0J200000D01*
G01*
G37*
G36*
G01*
X54025000Y-21075000D02*
X54025000Y-20525000D01*
G75*
G02*
X54225000Y-20325000I200000J0D01*
G01*
X54625000Y-20325000D01*
G75*
G02*
X54825000Y-20525000I0J-200000D01*
G01*
X54825000Y-21075000D01*
G75*
G02*
X54625000Y-21275000I-200000J0D01*
G01*
X54225000Y-21275000D01*
G75*
G02*
X54025000Y-21075000I0J200000D01*
G01*
G37*
%TD*%
%TO.C,R23*%
G36*
G01*
X54975000Y-33825000D02*
X54975000Y-33275000D01*
G75*
G02*
X55175000Y-33075000I200000J0D01*
G01*
X55575000Y-33075000D01*
G75*
G02*
X55775000Y-33275000I0J-200000D01*
G01*
X55775000Y-33825000D01*
G75*
G02*
X55575000Y-34025000I-200000J0D01*
G01*
X55175000Y-34025000D01*
G75*
G02*
X54975000Y-33825000I0J200000D01*
G01*
G37*
G36*
G01*
X53325000Y-33825000D02*
X53325000Y-33275000D01*
G75*
G02*
X53525000Y-33075000I200000J0D01*
G01*
X53925000Y-33075000D01*
G75*
G02*
X54125000Y-33275000I0J-200000D01*
G01*
X54125000Y-33825000D01*
G75*
G02*
X53925000Y-34025000I-200000J0D01*
G01*
X53525000Y-34025000D01*
G75*
G02*
X53325000Y-33825000I0J200000D01*
G01*
G37*
%TD*%
%TO.C,R22*%
G36*
G01*
X54075000Y-30875000D02*
X53525000Y-30875000D01*
G75*
G02*
X53325000Y-30675000I0J200000D01*
G01*
X53325000Y-30275000D01*
G75*
G02*
X53525000Y-30075000I200000J0D01*
G01*
X54075000Y-30075000D01*
G75*
G02*
X54275000Y-30275000I0J-200000D01*
G01*
X54275000Y-30675000D01*
G75*
G02*
X54075000Y-30875000I-200000J0D01*
G01*
G37*
G36*
G01*
X54075000Y-32525000D02*
X53525000Y-32525000D01*
G75*
G02*
X53325000Y-32325000I0J200000D01*
G01*
X53325000Y-31925000D01*
G75*
G02*
X53525000Y-31725000I200000J0D01*
G01*
X54075000Y-31725000D01*
G75*
G02*
X54275000Y-31925000I0J-200000D01*
G01*
X54275000Y-32325000D01*
G75*
G02*
X54075000Y-32525000I-200000J0D01*
G01*
G37*
%TD*%
%TO.C,R21*%
G36*
G01*
X55025000Y-31725000D02*
X55575000Y-31725000D01*
G75*
G02*
X55775000Y-31925000I0J-200000D01*
G01*
X55775000Y-32325000D01*
G75*
G02*
X55575000Y-32525000I-200000J0D01*
G01*
X55025000Y-32525000D01*
G75*
G02*
X54825000Y-32325000I0J200000D01*
G01*
X54825000Y-31925000D01*
G75*
G02*
X55025000Y-31725000I200000J0D01*
G01*
G37*
G36*
G01*
X55025000Y-30075000D02*
X55575000Y-30075000D01*
G75*
G02*
X55775000Y-30275000I0J-200000D01*
G01*
X55775000Y-30675000D01*
G75*
G02*
X55575000Y-30875000I-200000J0D01*
G01*
X55025000Y-30875000D01*
G75*
G02*
X54825000Y-30675000I0J200000D01*
G01*
X54825000Y-30275000D01*
G75*
G02*
X55025000Y-30075000I200000J0D01*
G01*
G37*
%TD*%
D26*
%TO.C,Q2*%
X18670000Y-9180000D03*
X19330000Y-9180000D03*
X19990000Y-9180000D03*
X18010000Y-9180000D03*
D27*
X19000000Y-7187500D03*
D28*
X19330000Y-6195000D03*
X19990000Y-6195000D03*
X18670000Y-6195000D03*
X18010000Y-6195000D03*
%TD*%
D26*
%TO.C,Q1*%
X11720000Y-9192500D03*
X12380000Y-9192500D03*
X13040000Y-9192500D03*
X11060000Y-9192500D03*
D27*
X12050000Y-7200000D03*
D28*
X12380000Y-6207500D03*
X13040000Y-6207500D03*
X11720000Y-6207500D03*
X11060000Y-6207500D03*
%TD*%
D23*
%TO.C,JP7*%
X51600000Y-32150000D03*
D17*
G36*
X50850602Y-30850000D02*
G01*
X50850602Y-30825466D01*
X50855412Y-30776635D01*
X50864984Y-30728510D01*
X50879228Y-30681555D01*
X50898005Y-30636222D01*
X50921136Y-30592949D01*
X50948396Y-30552150D01*
X50979524Y-30514221D01*
X51014221Y-30479524D01*
X51052150Y-30448396D01*
X51092949Y-30421136D01*
X51136222Y-30398005D01*
X51181555Y-30379228D01*
X51228510Y-30364984D01*
X51276635Y-30355412D01*
X51325466Y-30350602D01*
X51350000Y-30350602D01*
X51350000Y-30350000D01*
X51850000Y-30350000D01*
X51850000Y-30350602D01*
X51874534Y-30350602D01*
X51923365Y-30355412D01*
X51971490Y-30364984D01*
X52018445Y-30379228D01*
X52063778Y-30398005D01*
X52107051Y-30421136D01*
X52147850Y-30448396D01*
X52185779Y-30479524D01*
X52220476Y-30514221D01*
X52251604Y-30552150D01*
X52278864Y-30592949D01*
X52301995Y-30636222D01*
X52320772Y-30681555D01*
X52335016Y-30728510D01*
X52344588Y-30776635D01*
X52349398Y-30825466D01*
X52349398Y-30850000D01*
X52350000Y-30850000D01*
X52350000Y-31400000D01*
X50850000Y-31400000D01*
X50850000Y-30850000D01*
X50850602Y-30850000D01*
G37*
G36*
X52350000Y-32900000D02*
G01*
X52350000Y-33450000D01*
X52349398Y-33450000D01*
X52349398Y-33474534D01*
X52344588Y-33523365D01*
X52335016Y-33571490D01*
X52320772Y-33618445D01*
X52301995Y-33663778D01*
X52278864Y-33707051D01*
X52251604Y-33747850D01*
X52220476Y-33785779D01*
X52185779Y-33820476D01*
X52147850Y-33851604D01*
X52107051Y-33878864D01*
X52063778Y-33901995D01*
X52018445Y-33920772D01*
X51971490Y-33935016D01*
X51923365Y-33944588D01*
X51874534Y-33949398D01*
X51850000Y-33949398D01*
X51850000Y-33950000D01*
X51350000Y-33950000D01*
X51350000Y-33949398D01*
X51325466Y-33949398D01*
X51276635Y-33944588D01*
X51228510Y-33935016D01*
X51181555Y-33920772D01*
X51136222Y-33901995D01*
X51092949Y-33878864D01*
X51052150Y-33851604D01*
X51014221Y-33820476D01*
X50979524Y-33785779D01*
X50948396Y-33747850D01*
X50921136Y-33707051D01*
X50898005Y-33663778D01*
X50879228Y-33618445D01*
X50864984Y-33571490D01*
X50855412Y-33523365D01*
X50850602Y-33474534D01*
X50850602Y-33450000D01*
X50850000Y-33450000D01*
X50850000Y-32900000D01*
X52350000Y-32900000D01*
G37*
%TD*%
D23*
%TO.C,JP6*%
X54300000Y-37200000D03*
D17*
G36*
X55049398Y-38500000D02*
G01*
X55049398Y-38524534D01*
X55044588Y-38573365D01*
X55035016Y-38621490D01*
X55020772Y-38668445D01*
X55001995Y-38713778D01*
X54978864Y-38757051D01*
X54951604Y-38797850D01*
X54920476Y-38835779D01*
X54885779Y-38870476D01*
X54847850Y-38901604D01*
X54807051Y-38928864D01*
X54763778Y-38951995D01*
X54718445Y-38970772D01*
X54671490Y-38985016D01*
X54623365Y-38994588D01*
X54574534Y-38999398D01*
X54550000Y-38999398D01*
X54550000Y-39000000D01*
X54050000Y-39000000D01*
X54050000Y-38999398D01*
X54025466Y-38999398D01*
X53976635Y-38994588D01*
X53928510Y-38985016D01*
X53881555Y-38970772D01*
X53836222Y-38951995D01*
X53792949Y-38928864D01*
X53752150Y-38901604D01*
X53714221Y-38870476D01*
X53679524Y-38835779D01*
X53648396Y-38797850D01*
X53621136Y-38757051D01*
X53598005Y-38713778D01*
X53579228Y-38668445D01*
X53564984Y-38621490D01*
X53555412Y-38573365D01*
X53550602Y-38524534D01*
X53550602Y-38500000D01*
X53550000Y-38500000D01*
X53550000Y-37950000D01*
X55050000Y-37950000D01*
X55050000Y-38500000D01*
X55049398Y-38500000D01*
G37*
G36*
X53550000Y-36450000D02*
G01*
X53550000Y-35900000D01*
X53550602Y-35900000D01*
X53550602Y-35875466D01*
X53555412Y-35826635D01*
X53564984Y-35778510D01*
X53579228Y-35731555D01*
X53598005Y-35686222D01*
X53621136Y-35642949D01*
X53648396Y-35602150D01*
X53679524Y-35564221D01*
X53714221Y-35529524D01*
X53752150Y-35498396D01*
X53792949Y-35471136D01*
X53836222Y-35448005D01*
X53881555Y-35429228D01*
X53928510Y-35414984D01*
X53976635Y-35405412D01*
X54025466Y-35400602D01*
X54050000Y-35400602D01*
X54050000Y-35400000D01*
X54550000Y-35400000D01*
X54550000Y-35400602D01*
X54574534Y-35400602D01*
X54623365Y-35405412D01*
X54671490Y-35414984D01*
X54718445Y-35429228D01*
X54763778Y-35448005D01*
X54807051Y-35471136D01*
X54847850Y-35498396D01*
X54885779Y-35529524D01*
X54920476Y-35564221D01*
X54951604Y-35602150D01*
X54978864Y-35642949D01*
X55001995Y-35686222D01*
X55020772Y-35731555D01*
X55035016Y-35778510D01*
X55044588Y-35826635D01*
X55049398Y-35875466D01*
X55049398Y-35900000D01*
X55050000Y-35900000D01*
X55050000Y-36450000D01*
X53550000Y-36450000D01*
G37*
%TD*%
D23*
%TO.C,JP5*%
X44850000Y-37200000D03*
D17*
G36*
X45599398Y-38500000D02*
G01*
X45599398Y-38524534D01*
X45594588Y-38573365D01*
X45585016Y-38621490D01*
X45570772Y-38668445D01*
X45551995Y-38713778D01*
X45528864Y-38757051D01*
X45501604Y-38797850D01*
X45470476Y-38835779D01*
X45435779Y-38870476D01*
X45397850Y-38901604D01*
X45357051Y-38928864D01*
X45313778Y-38951995D01*
X45268445Y-38970772D01*
X45221490Y-38985016D01*
X45173365Y-38994588D01*
X45124534Y-38999398D01*
X45100000Y-38999398D01*
X45100000Y-39000000D01*
X44600000Y-39000000D01*
X44600000Y-38999398D01*
X44575466Y-38999398D01*
X44526635Y-38994588D01*
X44478510Y-38985016D01*
X44431555Y-38970772D01*
X44386222Y-38951995D01*
X44342949Y-38928864D01*
X44302150Y-38901604D01*
X44264221Y-38870476D01*
X44229524Y-38835779D01*
X44198396Y-38797850D01*
X44171136Y-38757051D01*
X44148005Y-38713778D01*
X44129228Y-38668445D01*
X44114984Y-38621490D01*
X44105412Y-38573365D01*
X44100602Y-38524534D01*
X44100602Y-38500000D01*
X44100000Y-38500000D01*
X44100000Y-37950000D01*
X45600000Y-37950000D01*
X45600000Y-38500000D01*
X45599398Y-38500000D01*
G37*
G36*
X44100000Y-36450000D02*
G01*
X44100000Y-35900000D01*
X44100602Y-35900000D01*
X44100602Y-35875466D01*
X44105412Y-35826635D01*
X44114984Y-35778510D01*
X44129228Y-35731555D01*
X44148005Y-35686222D01*
X44171136Y-35642949D01*
X44198396Y-35602150D01*
X44229524Y-35564221D01*
X44264221Y-35529524D01*
X44302150Y-35498396D01*
X44342949Y-35471136D01*
X44386222Y-35448005D01*
X44431555Y-35429228D01*
X44478510Y-35414984D01*
X44526635Y-35405412D01*
X44575466Y-35400602D01*
X44600000Y-35400602D01*
X44600000Y-35400000D01*
X45100000Y-35400000D01*
X45100000Y-35400602D01*
X45124534Y-35400602D01*
X45173365Y-35405412D01*
X45221490Y-35414984D01*
X45268445Y-35429228D01*
X45313778Y-35448005D01*
X45357051Y-35471136D01*
X45397850Y-35498396D01*
X45435779Y-35529524D01*
X45470476Y-35564221D01*
X45501604Y-35602150D01*
X45528864Y-35642949D01*
X45551995Y-35686222D01*
X45570772Y-35731555D01*
X45585016Y-35778510D01*
X45594588Y-35826635D01*
X45599398Y-35875466D01*
X45599398Y-35900000D01*
X45600000Y-35900000D01*
X45600000Y-36450000D01*
X44100000Y-36450000D01*
G37*
%TD*%
D23*
%TO.C,JP4*%
X35400000Y-37200000D03*
D17*
G36*
X36149398Y-38500000D02*
G01*
X36149398Y-38524534D01*
X36144588Y-38573365D01*
X36135016Y-38621490D01*
X36120772Y-38668445D01*
X36101995Y-38713778D01*
X36078864Y-38757051D01*
X36051604Y-38797850D01*
X36020476Y-38835779D01*
X35985779Y-38870476D01*
X35947850Y-38901604D01*
X35907051Y-38928864D01*
X35863778Y-38951995D01*
X35818445Y-38970772D01*
X35771490Y-38985016D01*
X35723365Y-38994588D01*
X35674534Y-38999398D01*
X35650000Y-38999398D01*
X35650000Y-39000000D01*
X35150000Y-39000000D01*
X35150000Y-38999398D01*
X35125466Y-38999398D01*
X35076635Y-38994588D01*
X35028510Y-38985016D01*
X34981555Y-38970772D01*
X34936222Y-38951995D01*
X34892949Y-38928864D01*
X34852150Y-38901604D01*
X34814221Y-38870476D01*
X34779524Y-38835779D01*
X34748396Y-38797850D01*
X34721136Y-38757051D01*
X34698005Y-38713778D01*
X34679228Y-38668445D01*
X34664984Y-38621490D01*
X34655412Y-38573365D01*
X34650602Y-38524534D01*
X34650602Y-38500000D01*
X34650000Y-38500000D01*
X34650000Y-37950000D01*
X36150000Y-37950000D01*
X36150000Y-38500000D01*
X36149398Y-38500000D01*
G37*
G36*
X34650000Y-36450000D02*
G01*
X34650000Y-35900000D01*
X34650602Y-35900000D01*
X34650602Y-35875466D01*
X34655412Y-35826635D01*
X34664984Y-35778510D01*
X34679228Y-35731555D01*
X34698005Y-35686222D01*
X34721136Y-35642949D01*
X34748396Y-35602150D01*
X34779524Y-35564221D01*
X34814221Y-35529524D01*
X34852150Y-35498396D01*
X34892949Y-35471136D01*
X34936222Y-35448005D01*
X34981555Y-35429228D01*
X35028510Y-35414984D01*
X35076635Y-35405412D01*
X35125466Y-35400602D01*
X35150000Y-35400602D01*
X35150000Y-35400000D01*
X35650000Y-35400000D01*
X35650000Y-35400602D01*
X35674534Y-35400602D01*
X35723365Y-35405412D01*
X35771490Y-35414984D01*
X35818445Y-35429228D01*
X35863778Y-35448005D01*
X35907051Y-35471136D01*
X35947850Y-35498396D01*
X35985779Y-35529524D01*
X36020476Y-35564221D01*
X36051604Y-35602150D01*
X36078864Y-35642949D01*
X36101995Y-35686222D01*
X36120772Y-35731555D01*
X36135016Y-35778510D01*
X36144588Y-35826635D01*
X36149398Y-35875466D01*
X36149398Y-35900000D01*
X36150000Y-35900000D01*
X36150000Y-36450000D01*
X34650000Y-36450000D01*
G37*
%TD*%
D23*
%TO.C,JP1*%
X61050000Y-32150000D03*
D17*
G36*
X60300602Y-30850000D02*
G01*
X60300602Y-30825466D01*
X60305412Y-30776635D01*
X60314984Y-30728510D01*
X60329228Y-30681555D01*
X60348005Y-30636222D01*
X60371136Y-30592949D01*
X60398396Y-30552150D01*
X60429524Y-30514221D01*
X60464221Y-30479524D01*
X60502150Y-30448396D01*
X60542949Y-30421136D01*
X60586222Y-30398005D01*
X60631555Y-30379228D01*
X60678510Y-30364984D01*
X60726635Y-30355412D01*
X60775466Y-30350602D01*
X60800000Y-30350602D01*
X60800000Y-30350000D01*
X61300000Y-30350000D01*
X61300000Y-30350602D01*
X61324534Y-30350602D01*
X61373365Y-30355412D01*
X61421490Y-30364984D01*
X61468445Y-30379228D01*
X61513778Y-30398005D01*
X61557051Y-30421136D01*
X61597850Y-30448396D01*
X61635779Y-30479524D01*
X61670476Y-30514221D01*
X61701604Y-30552150D01*
X61728864Y-30592949D01*
X61751995Y-30636222D01*
X61770772Y-30681555D01*
X61785016Y-30728510D01*
X61794588Y-30776635D01*
X61799398Y-30825466D01*
X61799398Y-30850000D01*
X61800000Y-30850000D01*
X61800000Y-31400000D01*
X60300000Y-31400000D01*
X60300000Y-30850000D01*
X60300602Y-30850000D01*
G37*
G36*
X61800000Y-32900000D02*
G01*
X61800000Y-33450000D01*
X61799398Y-33450000D01*
X61799398Y-33474534D01*
X61794588Y-33523365D01*
X61785016Y-33571490D01*
X61770772Y-33618445D01*
X61751995Y-33663778D01*
X61728864Y-33707051D01*
X61701604Y-33747850D01*
X61670476Y-33785779D01*
X61635779Y-33820476D01*
X61597850Y-33851604D01*
X61557051Y-33878864D01*
X61513778Y-33901995D01*
X61468445Y-33920772D01*
X61421490Y-33935016D01*
X61373365Y-33944588D01*
X61324534Y-33949398D01*
X61300000Y-33949398D01*
X61300000Y-33950000D01*
X60800000Y-33950000D01*
X60800000Y-33949398D01*
X60775466Y-33949398D01*
X60726635Y-33944588D01*
X60678510Y-33935016D01*
X60631555Y-33920772D01*
X60586222Y-33901995D01*
X60542949Y-33878864D01*
X60502150Y-33851604D01*
X60464221Y-33820476D01*
X60429524Y-33785779D01*
X60398396Y-33747850D01*
X60371136Y-33707051D01*
X60348005Y-33663778D01*
X60329228Y-33618445D01*
X60314984Y-33571490D01*
X60305412Y-33523365D01*
X60300602Y-33474534D01*
X60300602Y-33450000D01*
X60300000Y-33450000D01*
X60300000Y-32900000D01*
X61800000Y-32900000D01*
G37*
%TD*%
D29*
%TO.C,D10*%
X17750000Y-4300000D03*
X20550000Y-4300000D03*
%TD*%
%TO.C,D7*%
X10800000Y-4300000D03*
X13600000Y-4300000D03*
%TD*%
%TO.C,C61*%
G36*
G01*
X15730000Y-33150000D02*
X16070000Y-33150000D01*
G75*
G02*
X16210000Y-33290000I0J-140000D01*
G01*
X16210000Y-33570000D01*
G75*
G02*
X16070000Y-33710000I-140000J0D01*
G01*
X15730000Y-33710000D01*
G75*
G02*
X15590000Y-33570000I0J140000D01*
G01*
X15590000Y-33290000D01*
G75*
G02*
X15730000Y-33150000I140000J0D01*
G01*
G37*
G36*
G01*
X15730000Y-32190000D02*
X16070000Y-32190000D01*
G75*
G02*
X16210000Y-32330000I0J-140000D01*
G01*
X16210000Y-32610000D01*
G75*
G02*
X16070000Y-32750000I-140000J0D01*
G01*
X15730000Y-32750000D01*
G75*
G02*
X15590000Y-32610000I0J140000D01*
G01*
X15590000Y-32330000D01*
G75*
G02*
X15730000Y-32190000I140000J0D01*
G01*
G37*
%TD*%
%TO.C,C60*%
G36*
G01*
X24580000Y-33150000D02*
X24920000Y-33150000D01*
G75*
G02*
X25060000Y-33290000I0J-140000D01*
G01*
X25060000Y-33570000D01*
G75*
G02*
X24920000Y-33710000I-140000J0D01*
G01*
X24580000Y-33710000D01*
G75*
G02*
X24440000Y-33570000I0J140000D01*
G01*
X24440000Y-33290000D01*
G75*
G02*
X24580000Y-33150000I140000J0D01*
G01*
G37*
G36*
G01*
X24580000Y-32190000D02*
X24920000Y-32190000D01*
G75*
G02*
X25060000Y-32330000I0J-140000D01*
G01*
X25060000Y-32610000D01*
G75*
G02*
X24920000Y-32750000I-140000J0D01*
G01*
X24580000Y-32750000D01*
G75*
G02*
X24440000Y-32610000I0J140000D01*
G01*
X24440000Y-32330000D01*
G75*
G02*
X24580000Y-32190000I140000J0D01*
G01*
G37*
%TD*%
%TO.C,C59*%
G36*
G01*
X37050000Y-7520000D02*
X37050000Y-7180000D01*
G75*
G02*
X37190000Y-7040000I140000J0D01*
G01*
X37470000Y-7040000D01*
G75*
G02*
X37610000Y-7180000I0J-140000D01*
G01*
X37610000Y-7520000D01*
G75*
G02*
X37470000Y-7660000I-140000J0D01*
G01*
X37190000Y-7660000D01*
G75*
G02*
X37050000Y-7520000I0J140000D01*
G01*
G37*
G36*
G01*
X36090000Y-7520000D02*
X36090000Y-7180000D01*
G75*
G02*
X36230000Y-7040000I140000J0D01*
G01*
X36510000Y-7040000D01*
G75*
G02*
X36650000Y-7180000I0J-140000D01*
G01*
X36650000Y-7520000D01*
G75*
G02*
X36510000Y-7660000I-140000J0D01*
G01*
X36230000Y-7660000D01*
G75*
G02*
X36090000Y-7520000I0J140000D01*
G01*
G37*
%TD*%
%TO.C,C58*%
G36*
G01*
X45100000Y-6480000D02*
X45100000Y-6820000D01*
G75*
G02*
X44960000Y-6960000I-140000J0D01*
G01*
X44680000Y-6960000D01*
G75*
G02*
X44540000Y-6820000I0J140000D01*
G01*
X44540000Y-6480000D01*
G75*
G02*
X44680000Y-6340000I140000J0D01*
G01*
X44960000Y-6340000D01*
G75*
G02*
X45100000Y-6480000I0J-140000D01*
G01*
G37*
G36*
G01*
X46060000Y-6480000D02*
X46060000Y-6820000D01*
G75*
G02*
X45920000Y-6960000I-140000J0D01*
G01*
X45640000Y-6960000D01*
G75*
G02*
X45500000Y-6820000I0J140000D01*
G01*
X45500000Y-6480000D01*
G75*
G02*
X45640000Y-6340000I140000J0D01*
G01*
X45920000Y-6340000D01*
G75*
G02*
X46060000Y-6480000I0J-140000D01*
G01*
G37*
%TD*%
%TO.C,C57*%
G36*
G01*
X25120000Y-7520000D02*
X25120000Y-7180000D01*
G75*
G02*
X25260000Y-7040000I140000J0D01*
G01*
X25540000Y-7040000D01*
G75*
G02*
X25680000Y-7180000I0J-140000D01*
G01*
X25680000Y-7520000D01*
G75*
G02*
X25540000Y-7660000I-140000J0D01*
G01*
X25260000Y-7660000D01*
G75*
G02*
X25120000Y-7520000I0J140000D01*
G01*
G37*
G36*
G01*
X24160000Y-7520000D02*
X24160000Y-7180000D01*
G75*
G02*
X24300000Y-7040000I140000J0D01*
G01*
X24580000Y-7040000D01*
G75*
G02*
X24720000Y-7180000I0J-140000D01*
G01*
X24720000Y-7520000D01*
G75*
G02*
X24580000Y-7660000I-140000J0D01*
G01*
X24300000Y-7660000D01*
G75*
G02*
X24160000Y-7520000I0J140000D01*
G01*
G37*
%TD*%
%TO.C,C56*%
G36*
G01*
X33150000Y-6480000D02*
X33150000Y-6820000D01*
G75*
G02*
X33010000Y-6960000I-140000J0D01*
G01*
X32730000Y-6960000D01*
G75*
G02*
X32590000Y-6820000I0J140000D01*
G01*
X32590000Y-6480000D01*
G75*
G02*
X32730000Y-6340000I140000J0D01*
G01*
X33010000Y-6340000D01*
G75*
G02*
X33150000Y-6480000I0J-140000D01*
G01*
G37*
G36*
G01*
X34110000Y-6480000D02*
X34110000Y-6820000D01*
G75*
G02*
X33970000Y-6960000I-140000J0D01*
G01*
X33690000Y-6960000D01*
G75*
G02*
X33550000Y-6820000I0J140000D01*
G01*
X33550000Y-6480000D01*
G75*
G02*
X33690000Y-6340000I140000J0D01*
G01*
X33970000Y-6340000D01*
G75*
G02*
X34110000Y-6480000I0J-140000D01*
G01*
G37*
%TD*%
%TO.C,C55*%
G36*
G01*
X55575000Y-18050000D02*
X55575000Y-17550000D01*
G75*
G02*
X55800000Y-17325000I225000J0D01*
G01*
X56250000Y-17325000D01*
G75*
G02*
X56475000Y-17550000I0J-225000D01*
G01*
X56475000Y-18050000D01*
G75*
G02*
X56250000Y-18275000I-225000J0D01*
G01*
X55800000Y-18275000D01*
G75*
G02*
X55575000Y-18050000I0J225000D01*
G01*
G37*
G36*
G01*
X54025000Y-18050000D02*
X54025000Y-17550000D01*
G75*
G02*
X54250000Y-17325000I225000J0D01*
G01*
X54700000Y-17325000D01*
G75*
G02*
X54925000Y-17550000I0J-225000D01*
G01*
X54925000Y-18050000D01*
G75*
G02*
X54700000Y-18275000I-225000J0D01*
G01*
X54250000Y-18275000D01*
G75*
G02*
X54025000Y-18050000I0J225000D01*
G01*
G37*
%TD*%
%TO.C,C54*%
G36*
G01*
X55575000Y-27050000D02*
X55575000Y-26550000D01*
G75*
G02*
X55800000Y-26325000I225000J0D01*
G01*
X56250000Y-26325000D01*
G75*
G02*
X56475000Y-26550000I0J-225000D01*
G01*
X56475000Y-27050000D01*
G75*
G02*
X56250000Y-27275000I-225000J0D01*
G01*
X55800000Y-27275000D01*
G75*
G02*
X55575000Y-27050000I0J225000D01*
G01*
G37*
G36*
G01*
X54025000Y-27050000D02*
X54025000Y-26550000D01*
G75*
G02*
X54250000Y-26325000I225000J0D01*
G01*
X54700000Y-26325000D01*
G75*
G02*
X54925000Y-26550000I0J-225000D01*
G01*
X54925000Y-27050000D01*
G75*
G02*
X54700000Y-27275000I-225000J0D01*
G01*
X54250000Y-27275000D01*
G75*
G02*
X54025000Y-27050000I0J225000D01*
G01*
G37*
%TD*%
%TO.C,C53*%
G36*
G01*
X47700000Y-34320000D02*
X47700000Y-33980000D01*
G75*
G02*
X47840000Y-33840000I140000J0D01*
G01*
X48120000Y-33840000D01*
G75*
G02*
X48260000Y-33980000I0J-140000D01*
G01*
X48260000Y-34320000D01*
G75*
G02*
X48120000Y-34460000I-140000J0D01*
G01*
X47840000Y-34460000D01*
G75*
G02*
X47700000Y-34320000I0J140000D01*
G01*
G37*
G36*
G01*
X46740000Y-34320000D02*
X46740000Y-33980000D01*
G75*
G02*
X46880000Y-33840000I140000J0D01*
G01*
X47160000Y-33840000D01*
G75*
G02*
X47300000Y-33980000I0J-140000D01*
G01*
X47300000Y-34320000D01*
G75*
G02*
X47160000Y-34460000I-140000J0D01*
G01*
X46880000Y-34460000D01*
G75*
G02*
X46740000Y-34320000I0J140000D01*
G01*
G37*
%TD*%
%TO.C,C52*%
G36*
G01*
X49150000Y-33980000D02*
X49150000Y-34320000D01*
G75*
G02*
X49010000Y-34460000I-140000J0D01*
G01*
X48730000Y-34460000D01*
G75*
G02*
X48590000Y-34320000I0J140000D01*
G01*
X48590000Y-33980000D01*
G75*
G02*
X48730000Y-33840000I140000J0D01*
G01*
X49010000Y-33840000D01*
G75*
G02*
X49150000Y-33980000I0J-140000D01*
G01*
G37*
G36*
G01*
X50110000Y-33980000D02*
X50110000Y-34320000D01*
G75*
G02*
X49970000Y-34460000I-140000J0D01*
G01*
X49690000Y-34460000D01*
G75*
G02*
X49550000Y-34320000I0J140000D01*
G01*
X49550000Y-33980000D01*
G75*
G02*
X49690000Y-33840000I140000J0D01*
G01*
X49970000Y-33840000D01*
G75*
G02*
X50110000Y-33980000I0J-140000D01*
G01*
G37*
%TD*%
%TO.C,C51*%
G36*
G01*
X58200000Y-35030000D02*
X58200000Y-35370000D01*
G75*
G02*
X58060000Y-35510000I-140000J0D01*
G01*
X57780000Y-35510000D01*
G75*
G02*
X57640000Y-35370000I0J140000D01*
G01*
X57640000Y-35030000D01*
G75*
G02*
X57780000Y-34890000I140000J0D01*
G01*
X58060000Y-34890000D01*
G75*
G02*
X58200000Y-35030000I0J-140000D01*
G01*
G37*
G36*
G01*
X59160000Y-35030000D02*
X59160000Y-35370000D01*
G75*
G02*
X59020000Y-35510000I-140000J0D01*
G01*
X58740000Y-35510000D01*
G75*
G02*
X58600000Y-35370000I0J140000D01*
G01*
X58600000Y-35030000D01*
G75*
G02*
X58740000Y-34890000I140000J0D01*
G01*
X59020000Y-34890000D01*
G75*
G02*
X59160000Y-35030000I0J-140000D01*
G01*
G37*
%TD*%
%TO.C,C50*%
G36*
G01*
X56750000Y-35370000D02*
X56750000Y-35030000D01*
G75*
G02*
X56890000Y-34890000I140000J0D01*
G01*
X57170000Y-34890000D01*
G75*
G02*
X57310000Y-35030000I0J-140000D01*
G01*
X57310000Y-35370000D01*
G75*
G02*
X57170000Y-35510000I-140000J0D01*
G01*
X56890000Y-35510000D01*
G75*
G02*
X56750000Y-35370000I0J140000D01*
G01*
G37*
G36*
G01*
X55790000Y-35370000D02*
X55790000Y-35030000D01*
G75*
G02*
X55930000Y-34890000I140000J0D01*
G01*
X56210000Y-34890000D01*
G75*
G02*
X56350000Y-35030000I0J-140000D01*
G01*
X56350000Y-35370000D01*
G75*
G02*
X56210000Y-35510000I-140000J0D01*
G01*
X55930000Y-35510000D01*
G75*
G02*
X55790000Y-35370000I0J140000D01*
G01*
G37*
%TD*%
%TO.C,C49*%
G36*
G01*
X48750000Y-35030000D02*
X48750000Y-35370000D01*
G75*
G02*
X48610000Y-35510000I-140000J0D01*
G01*
X48330000Y-35510000D01*
G75*
G02*
X48190000Y-35370000I0J140000D01*
G01*
X48190000Y-35030000D01*
G75*
G02*
X48330000Y-34890000I140000J0D01*
G01*
X48610000Y-34890000D01*
G75*
G02*
X48750000Y-35030000I0J-140000D01*
G01*
G37*
G36*
G01*
X49710000Y-35030000D02*
X49710000Y-35370000D01*
G75*
G02*
X49570000Y-35510000I-140000J0D01*
G01*
X49290000Y-35510000D01*
G75*
G02*
X49150000Y-35370000I0J140000D01*
G01*
X49150000Y-35030000D01*
G75*
G02*
X49290000Y-34890000I140000J0D01*
G01*
X49570000Y-34890000D01*
G75*
G02*
X49710000Y-35030000I0J-140000D01*
G01*
G37*
%TD*%
%TO.C,C48*%
G36*
G01*
X47300000Y-35370000D02*
X47300000Y-35030000D01*
G75*
G02*
X47440000Y-34890000I140000J0D01*
G01*
X47720000Y-34890000D01*
G75*
G02*
X47860000Y-35030000I0J-140000D01*
G01*
X47860000Y-35370000D01*
G75*
G02*
X47720000Y-35510000I-140000J0D01*
G01*
X47440000Y-35510000D01*
G75*
G02*
X47300000Y-35370000I0J140000D01*
G01*
G37*
G36*
G01*
X46340000Y-35370000D02*
X46340000Y-35030000D01*
G75*
G02*
X46480000Y-34890000I140000J0D01*
G01*
X46760000Y-34890000D01*
G75*
G02*
X46900000Y-35030000I0J-140000D01*
G01*
X46900000Y-35370000D01*
G75*
G02*
X46760000Y-35510000I-140000J0D01*
G01*
X46480000Y-35510000D01*
G75*
G02*
X46340000Y-35370000I0J140000D01*
G01*
G37*
%TD*%
%TO.C,C47*%
G36*
G01*
X39300000Y-35030000D02*
X39300000Y-35370000D01*
G75*
G02*
X39160000Y-35510000I-140000J0D01*
G01*
X38880000Y-35510000D01*
G75*
G02*
X38740000Y-35370000I0J140000D01*
G01*
X38740000Y-35030000D01*
G75*
G02*
X38880000Y-34890000I140000J0D01*
G01*
X39160000Y-34890000D01*
G75*
G02*
X39300000Y-35030000I0J-140000D01*
G01*
G37*
G36*
G01*
X40260000Y-35030000D02*
X40260000Y-35370000D01*
G75*
G02*
X40120000Y-35510000I-140000J0D01*
G01*
X39840000Y-35510000D01*
G75*
G02*
X39700000Y-35370000I0J140000D01*
G01*
X39700000Y-35030000D01*
G75*
G02*
X39840000Y-34890000I140000J0D01*
G01*
X40120000Y-34890000D01*
G75*
G02*
X40260000Y-35030000I0J-140000D01*
G01*
G37*
%TD*%
%TO.C,C46*%
G36*
G01*
X37850000Y-35370000D02*
X37850000Y-35030000D01*
G75*
G02*
X37990000Y-34890000I140000J0D01*
G01*
X38270000Y-34890000D01*
G75*
G02*
X38410000Y-35030000I0J-140000D01*
G01*
X38410000Y-35370000D01*
G75*
G02*
X38270000Y-35510000I-140000J0D01*
G01*
X37990000Y-35510000D01*
G75*
G02*
X37850000Y-35370000I0J140000D01*
G01*
G37*
G36*
G01*
X36890000Y-35370000D02*
X36890000Y-35030000D01*
G75*
G02*
X37030000Y-34890000I140000J0D01*
G01*
X37310000Y-34890000D01*
G75*
G02*
X37450000Y-35030000I0J-140000D01*
G01*
X37450000Y-35370000D01*
G75*
G02*
X37310000Y-35510000I-140000J0D01*
G01*
X37030000Y-35510000D01*
G75*
G02*
X36890000Y-35370000I0J140000D01*
G01*
G37*
%TD*%
%TO.C,C45*%
G36*
G01*
X33430000Y-33150000D02*
X33770000Y-33150000D01*
G75*
G02*
X33910000Y-33290000I0J-140000D01*
G01*
X33910000Y-33570000D01*
G75*
G02*
X33770000Y-33710000I-140000J0D01*
G01*
X33430000Y-33710000D01*
G75*
G02*
X33290000Y-33570000I0J140000D01*
G01*
X33290000Y-33290000D01*
G75*
G02*
X33430000Y-33150000I140000J0D01*
G01*
G37*
G36*
G01*
X33430000Y-32190000D02*
X33770000Y-32190000D01*
G75*
G02*
X33910000Y-32330000I0J-140000D01*
G01*
X33910000Y-32610000D01*
G75*
G02*
X33770000Y-32750000I-140000J0D01*
G01*
X33430000Y-32750000D01*
G75*
G02*
X33290000Y-32610000I0J140000D01*
G01*
X33290000Y-32330000D01*
G75*
G02*
X33430000Y-32190000I140000J0D01*
G01*
G37*
%TD*%
%TO.C,C44*%
G36*
G01*
X49000000Y-7520000D02*
X49000000Y-7180000D01*
G75*
G02*
X49140000Y-7040000I140000J0D01*
G01*
X49420000Y-7040000D01*
G75*
G02*
X49560000Y-7180000I0J-140000D01*
G01*
X49560000Y-7520000D01*
G75*
G02*
X49420000Y-7660000I-140000J0D01*
G01*
X49140000Y-7660000D01*
G75*
G02*
X49000000Y-7520000I0J140000D01*
G01*
G37*
G36*
G01*
X48040000Y-7520000D02*
X48040000Y-7180000D01*
G75*
G02*
X48180000Y-7040000I140000J0D01*
G01*
X48460000Y-7040000D01*
G75*
G02*
X48600000Y-7180000I0J-140000D01*
G01*
X48600000Y-7520000D01*
G75*
G02*
X48460000Y-7660000I-140000J0D01*
G01*
X48180000Y-7660000D01*
G75*
G02*
X48040000Y-7520000I0J140000D01*
G01*
G37*
%TD*%
%TO.C,C43*%
G36*
G01*
X57050000Y-6480000D02*
X57050000Y-6820000D01*
G75*
G02*
X56910000Y-6960000I-140000J0D01*
G01*
X56630000Y-6960000D01*
G75*
G02*
X56490000Y-6820000I0J140000D01*
G01*
X56490000Y-6480000D01*
G75*
G02*
X56630000Y-6340000I140000J0D01*
G01*
X56910000Y-6340000D01*
G75*
G02*
X57050000Y-6480000I0J-140000D01*
G01*
G37*
G36*
G01*
X58010000Y-6480000D02*
X58010000Y-6820000D01*
G75*
G02*
X57870000Y-6960000I-140000J0D01*
G01*
X57590000Y-6960000D01*
G75*
G02*
X57450000Y-6820000I0J140000D01*
G01*
X57450000Y-6480000D01*
G75*
G02*
X57590000Y-6340000I140000J0D01*
G01*
X57870000Y-6340000D01*
G75*
G02*
X58010000Y-6480000I0J-140000D01*
G01*
G37*
%TD*%
%TO.C,C42*%
G36*
G01*
X55575000Y-22550000D02*
X55575000Y-22050000D01*
G75*
G02*
X55800000Y-21825000I225000J0D01*
G01*
X56250000Y-21825000D01*
G75*
G02*
X56475000Y-22050000I0J-225000D01*
G01*
X56475000Y-22550000D01*
G75*
G02*
X56250000Y-22775000I-225000J0D01*
G01*
X55800000Y-22775000D01*
G75*
G02*
X55575000Y-22550000I0J225000D01*
G01*
G37*
G36*
G01*
X54025000Y-22550000D02*
X54025000Y-22050000D01*
G75*
G02*
X54250000Y-21825000I225000J0D01*
G01*
X54700000Y-21825000D01*
G75*
G02*
X54925000Y-22050000I0J-225000D01*
G01*
X54925000Y-22550000D01*
G75*
G02*
X54700000Y-22775000I-225000J0D01*
G01*
X54250000Y-22775000D01*
G75*
G02*
X54025000Y-22550000I0J225000D01*
G01*
G37*
%TD*%
%TO.C,C41*%
G36*
G01*
X57150000Y-34320000D02*
X57150000Y-33980000D01*
G75*
G02*
X57290000Y-33840000I140000J0D01*
G01*
X57570000Y-33840000D01*
G75*
G02*
X57710000Y-33980000I0J-140000D01*
G01*
X57710000Y-34320000D01*
G75*
G02*
X57570000Y-34460000I-140000J0D01*
G01*
X57290000Y-34460000D01*
G75*
G02*
X57150000Y-34320000I0J140000D01*
G01*
G37*
G36*
G01*
X56190000Y-34320000D02*
X56190000Y-33980000D01*
G75*
G02*
X56330000Y-33840000I140000J0D01*
G01*
X56610000Y-33840000D01*
G75*
G02*
X56750000Y-33980000I0J-140000D01*
G01*
X56750000Y-34320000D01*
G75*
G02*
X56610000Y-34460000I-140000J0D01*
G01*
X56330000Y-34460000D01*
G75*
G02*
X56190000Y-34320000I0J140000D01*
G01*
G37*
%TD*%
%TO.C,C24*%
G36*
G01*
X58600000Y-33980000D02*
X58600000Y-34320000D01*
G75*
G02*
X58460000Y-34460000I-140000J0D01*
G01*
X58180000Y-34460000D01*
G75*
G02*
X58040000Y-34320000I0J140000D01*
G01*
X58040000Y-33980000D01*
G75*
G02*
X58180000Y-33840000I140000J0D01*
G01*
X58460000Y-33840000D01*
G75*
G02*
X58600000Y-33980000I0J-140000D01*
G01*
G37*
G36*
G01*
X59560000Y-33980000D02*
X59560000Y-34320000D01*
G75*
G02*
X59420000Y-34460000I-140000J0D01*
G01*
X59140000Y-34460000D01*
G75*
G02*
X59000000Y-34320000I0J140000D01*
G01*
X59000000Y-33980000D01*
G75*
G02*
X59140000Y-33840000I140000J0D01*
G01*
X59420000Y-33840000D01*
G75*
G02*
X59560000Y-33980000I0J-140000D01*
G01*
G37*
%TD*%
D30*
%TO.C,LS1*%
X21900000Y-21300000D03*
X21900000Y-13300000D03*
%TD*%
D31*
%TO.C,H4*%
X67697056Y-34302944D03*
X66000000Y-33600000D03*
X64302944Y-34302944D03*
X63600000Y-36000000D03*
X64302944Y-37697056D03*
X66000000Y-38400000D03*
X67697056Y-37697056D03*
X68400000Y-36000000D03*
D32*
X66000000Y-36000000D03*
%TD*%
D31*
%TO.C,H3*%
X67697056Y-2302944D03*
X66000000Y-1600000D03*
X64302944Y-2302944D03*
X63600000Y-4000000D03*
X64302944Y-5697056D03*
X66000000Y-6400000D03*
X67697056Y-5697056D03*
X68400000Y-4000000D03*
D32*
X66000000Y-4000000D03*
%TD*%
D31*
%TO.C,H2*%
X5697056Y-34302944D03*
X4000000Y-33600000D03*
X2302944Y-34302944D03*
X1600000Y-36000000D03*
X2302944Y-37697056D03*
X4000000Y-38400000D03*
X5697056Y-37697056D03*
X6400000Y-36000000D03*
D32*
X4000000Y-36000000D03*
%TD*%
D31*
%TO.C,H1*%
X5697056Y-2302944D03*
X4000000Y-1600000D03*
X2302944Y-2302944D03*
X1600000Y-4000000D03*
X2302944Y-5697056D03*
X4000000Y-6400000D03*
X5697056Y-5697056D03*
X6400000Y-4000000D03*
D32*
X4000000Y-4000000D03*
%TD*%
%TO.C,C30*%
G36*
G01*
X30050000Y-17020000D02*
X30050000Y-16680000D01*
G75*
G02*
X30190000Y-16540000I140000J0D01*
G01*
X30470000Y-16540000D01*
G75*
G02*
X30610000Y-16680000I0J-140000D01*
G01*
X30610000Y-17020000D01*
G75*
G02*
X30470000Y-17160000I-140000J0D01*
G01*
X30190000Y-17160000D01*
G75*
G02*
X30050000Y-17020000I0J140000D01*
G01*
G37*
G36*
G01*
X29090000Y-17020000D02*
X29090000Y-16680000D01*
G75*
G02*
X29230000Y-16540000I140000J0D01*
G01*
X29510000Y-16540000D01*
G75*
G02*
X29650000Y-16680000I0J-140000D01*
G01*
X29650000Y-17020000D01*
G75*
G02*
X29510000Y-17160000I-140000J0D01*
G01*
X29230000Y-17160000D01*
G75*
G02*
X29090000Y-17020000I0J140000D01*
G01*
G37*
%TD*%
D33*
%TO.C,X1*%
X23480000Y-8800000D03*
X26020000Y-8800000D03*
X26020000Y-11000000D03*
X23480000Y-11000000D03*
%TD*%
%TO.C,U7*%
G36*
G01*
X51025000Y-20212500D02*
X51025000Y-19837500D01*
G75*
G02*
X51112500Y-19750000I87500J0D01*
G01*
X51287500Y-19750000D01*
G75*
G02*
X51375000Y-19837500I0J-87500D01*
G01*
X51375000Y-20212500D01*
G75*
G02*
X51287500Y-20300000I-87500J0D01*
G01*
X51112500Y-20300000D01*
G75*
G02*
X51025000Y-20212500I0J87500D01*
G01*
G37*
G36*
G01*
X51525000Y-20212500D02*
X51525000Y-19837500D01*
G75*
G02*
X51612500Y-19750000I87500J0D01*
G01*
X51787500Y-19750000D01*
G75*
G02*
X51875000Y-19837500I0J-87500D01*
G01*
X51875000Y-20212500D01*
G75*
G02*
X51787500Y-20300000I-87500J0D01*
G01*
X51612500Y-20300000D01*
G75*
G02*
X51525000Y-20212500I0J87500D01*
G01*
G37*
G36*
G01*
X52025000Y-20212500D02*
X52025000Y-19837500D01*
G75*
G02*
X52112500Y-19750000I87500J0D01*
G01*
X52287500Y-19750000D01*
G75*
G02*
X52375000Y-19837500I0J-87500D01*
G01*
X52375000Y-20212500D01*
G75*
G02*
X52287500Y-20300000I-87500J0D01*
G01*
X52112500Y-20300000D01*
G75*
G02*
X52025000Y-20212500I0J87500D01*
G01*
G37*
G36*
G01*
X52650000Y-20337500D02*
X52650000Y-20162500D01*
G75*
G02*
X52737500Y-20075000I87500J0D01*
G01*
X53112500Y-20075000D01*
G75*
G02*
X53200000Y-20162500I0J-87500D01*
G01*
X53200000Y-20337500D01*
G75*
G02*
X53112500Y-20425000I-87500J0D01*
G01*
X52737500Y-20425000D01*
G75*
G02*
X52650000Y-20337500I0J87500D01*
G01*
G37*
G36*
G01*
X52650000Y-20837500D02*
X52650000Y-20662500D01*
G75*
G02*
X52737500Y-20575000I87500J0D01*
G01*
X53112500Y-20575000D01*
G75*
G02*
X53200000Y-20662500I0J-87500D01*
G01*
X53200000Y-20837500D01*
G75*
G02*
X53112500Y-20925000I-87500J0D01*
G01*
X52737500Y-20925000D01*
G75*
G02*
X52650000Y-20837500I0J87500D01*
G01*
G37*
G36*
G01*
X52650000Y-21337500D02*
X52650000Y-21162500D01*
G75*
G02*
X52737500Y-21075000I87500J0D01*
G01*
X53112500Y-21075000D01*
G75*
G02*
X53200000Y-21162500I0J-87500D01*
G01*
X53200000Y-21337500D01*
G75*
G02*
X53112500Y-21425000I-87500J0D01*
G01*
X52737500Y-21425000D01*
G75*
G02*
X52650000Y-21337500I0J87500D01*
G01*
G37*
G36*
G01*
X52650000Y-21837500D02*
X52650000Y-21662500D01*
G75*
G02*
X52737500Y-21575000I87500J0D01*
G01*
X53112500Y-21575000D01*
G75*
G02*
X53200000Y-21662500I0J-87500D01*
G01*
X53200000Y-21837500D01*
G75*
G02*
X53112500Y-21925000I-87500J0D01*
G01*
X52737500Y-21925000D01*
G75*
G02*
X52650000Y-21837500I0J87500D01*
G01*
G37*
G36*
G01*
X52650000Y-22337500D02*
X52650000Y-22162500D01*
G75*
G02*
X52737500Y-22075000I87500J0D01*
G01*
X53112500Y-22075000D01*
G75*
G02*
X53200000Y-22162500I0J-87500D01*
G01*
X53200000Y-22337500D01*
G75*
G02*
X53112500Y-22425000I-87500J0D01*
G01*
X52737500Y-22425000D01*
G75*
G02*
X52650000Y-22337500I0J87500D01*
G01*
G37*
G36*
G01*
X52025000Y-22662500D02*
X52025000Y-22287500D01*
G75*
G02*
X52112500Y-22200000I87500J0D01*
G01*
X52287500Y-22200000D01*
G75*
G02*
X52375000Y-22287500I0J-87500D01*
G01*
X52375000Y-22662500D01*
G75*
G02*
X52287500Y-22750000I-87500J0D01*
G01*
X52112500Y-22750000D01*
G75*
G02*
X52025000Y-22662500I0J87500D01*
G01*
G37*
G36*
G01*
X51525000Y-22662500D02*
X51525000Y-22287500D01*
G75*
G02*
X51612500Y-22200000I87500J0D01*
G01*
X51787500Y-22200000D01*
G75*
G02*
X51875000Y-22287500I0J-87500D01*
G01*
X51875000Y-22662500D01*
G75*
G02*
X51787500Y-22750000I-87500J0D01*
G01*
X51612500Y-22750000D01*
G75*
G02*
X51525000Y-22662500I0J87500D01*
G01*
G37*
G36*
G01*
X51025000Y-22662500D02*
X51025000Y-22287500D01*
G75*
G02*
X51112500Y-22200000I87500J0D01*
G01*
X51287500Y-22200000D01*
G75*
G02*
X51375000Y-22287500I0J-87500D01*
G01*
X51375000Y-22662500D01*
G75*
G02*
X51287500Y-22750000I-87500J0D01*
G01*
X51112500Y-22750000D01*
G75*
G02*
X51025000Y-22662500I0J87500D01*
G01*
G37*
G36*
G01*
X50200000Y-22337500D02*
X50200000Y-22162500D01*
G75*
G02*
X50287500Y-22075000I87500J0D01*
G01*
X50662500Y-22075000D01*
G75*
G02*
X50750000Y-22162500I0J-87500D01*
G01*
X50750000Y-22337500D01*
G75*
G02*
X50662500Y-22425000I-87500J0D01*
G01*
X50287500Y-22425000D01*
G75*
G02*
X50200000Y-22337500I0J87500D01*
G01*
G37*
G36*
G01*
X50200000Y-21837500D02*
X50200000Y-21662500D01*
G75*
G02*
X50287500Y-21575000I87500J0D01*
G01*
X50662500Y-21575000D01*
G75*
G02*
X50750000Y-21662500I0J-87500D01*
G01*
X50750000Y-21837500D01*
G75*
G02*
X50662500Y-21925000I-87500J0D01*
G01*
X50287500Y-21925000D01*
G75*
G02*
X50200000Y-21837500I0J87500D01*
G01*
G37*
G36*
G01*
X50200000Y-21337500D02*
X50200000Y-21162500D01*
G75*
G02*
X50287500Y-21075000I87500J0D01*
G01*
X50662500Y-21075000D01*
G75*
G02*
X50750000Y-21162500I0J-87500D01*
G01*
X50750000Y-21337500D01*
G75*
G02*
X50662500Y-21425000I-87500J0D01*
G01*
X50287500Y-21425000D01*
G75*
G02*
X50200000Y-21337500I0J87500D01*
G01*
G37*
G36*
G01*
X50200000Y-20837500D02*
X50200000Y-20662500D01*
G75*
G02*
X50287500Y-20575000I87500J0D01*
G01*
X50662500Y-20575000D01*
G75*
G02*
X50750000Y-20662500I0J-87500D01*
G01*
X50750000Y-20837500D01*
G75*
G02*
X50662500Y-20925000I-87500J0D01*
G01*
X50287500Y-20925000D01*
G75*
G02*
X50200000Y-20837500I0J87500D01*
G01*
G37*
G36*
G01*
X50200000Y-20337500D02*
X50200000Y-20162500D01*
G75*
G02*
X50287500Y-20075000I87500J0D01*
G01*
X50662500Y-20075000D01*
G75*
G02*
X50750000Y-20162500I0J-87500D01*
G01*
X50750000Y-20337500D01*
G75*
G02*
X50662500Y-20425000I-87500J0D01*
G01*
X50287500Y-20425000D01*
G75*
G02*
X50200000Y-20337500I0J87500D01*
G01*
G37*
%TD*%
%TO.C,U6*%
G36*
G01*
X46500000Y-12225000D02*
X47850000Y-12225000D01*
G75*
G02*
X47950000Y-12325000I0J-100000D01*
G01*
X47950000Y-12525000D01*
G75*
G02*
X47850000Y-12625000I-100000J0D01*
G01*
X46500000Y-12625000D01*
G75*
G02*
X46400000Y-12525000I0J100000D01*
G01*
X46400000Y-12325000D01*
G75*
G02*
X46500000Y-12225000I100000J0D01*
G01*
G37*
G36*
G01*
X46500000Y-12875000D02*
X47850000Y-12875000D01*
G75*
G02*
X47950000Y-12975000I0J-100000D01*
G01*
X47950000Y-13175000D01*
G75*
G02*
X47850000Y-13275000I-100000J0D01*
G01*
X46500000Y-13275000D01*
G75*
G02*
X46400000Y-13175000I0J100000D01*
G01*
X46400000Y-12975000D01*
G75*
G02*
X46500000Y-12875000I100000J0D01*
G01*
G37*
G36*
G01*
X46500000Y-13525000D02*
X47850000Y-13525000D01*
G75*
G02*
X47950000Y-13625000I0J-100000D01*
G01*
X47950000Y-13825000D01*
G75*
G02*
X47850000Y-13925000I-100000J0D01*
G01*
X46500000Y-13925000D01*
G75*
G02*
X46400000Y-13825000I0J100000D01*
G01*
X46400000Y-13625000D01*
G75*
G02*
X46500000Y-13525000I100000J0D01*
G01*
G37*
G36*
G01*
X46500000Y-14175000D02*
X47850000Y-14175000D01*
G75*
G02*
X47950000Y-14275000I0J-100000D01*
G01*
X47950000Y-14475000D01*
G75*
G02*
X47850000Y-14575000I-100000J0D01*
G01*
X46500000Y-14575000D01*
G75*
G02*
X46400000Y-14475000I0J100000D01*
G01*
X46400000Y-14275000D01*
G75*
G02*
X46500000Y-14175000I100000J0D01*
G01*
G37*
G36*
G01*
X46500000Y-14825000D02*
X47850000Y-14825000D01*
G75*
G02*
X47950000Y-14925000I0J-100000D01*
G01*
X47950000Y-15125000D01*
G75*
G02*
X47850000Y-15225000I-100000J0D01*
G01*
X46500000Y-15225000D01*
G75*
G02*
X46400000Y-15125000I0J100000D01*
G01*
X46400000Y-14925000D01*
G75*
G02*
X46500000Y-14825000I100000J0D01*
G01*
G37*
G36*
G01*
X46500000Y-15475000D02*
X47850000Y-15475000D01*
G75*
G02*
X47950000Y-15575000I0J-100000D01*
G01*
X47950000Y-15775000D01*
G75*
G02*
X47850000Y-15875000I-100000J0D01*
G01*
X46500000Y-15875000D01*
G75*
G02*
X46400000Y-15775000I0J100000D01*
G01*
X46400000Y-15575000D01*
G75*
G02*
X46500000Y-15475000I100000J0D01*
G01*
G37*
G36*
G01*
X46500000Y-16125000D02*
X47850000Y-16125000D01*
G75*
G02*
X47950000Y-16225000I0J-100000D01*
G01*
X47950000Y-16425000D01*
G75*
G02*
X47850000Y-16525000I-100000J0D01*
G01*
X46500000Y-16525000D01*
G75*
G02*
X46400000Y-16425000I0J100000D01*
G01*
X46400000Y-16225000D01*
G75*
G02*
X46500000Y-16125000I100000J0D01*
G01*
G37*
G36*
G01*
X46500000Y-16775000D02*
X47850000Y-16775000D01*
G75*
G02*
X47950000Y-16875000I0J-100000D01*
G01*
X47950000Y-17075000D01*
G75*
G02*
X47850000Y-17175000I-100000J0D01*
G01*
X46500000Y-17175000D01*
G75*
G02*
X46400000Y-17075000I0J100000D01*
G01*
X46400000Y-16875000D01*
G75*
G02*
X46500000Y-16775000I100000J0D01*
G01*
G37*
G36*
G01*
X46500000Y-17425000D02*
X47850000Y-17425000D01*
G75*
G02*
X47950000Y-17525000I0J-100000D01*
G01*
X47950000Y-17725000D01*
G75*
G02*
X47850000Y-17825000I-100000J0D01*
G01*
X46500000Y-17825000D01*
G75*
G02*
X46400000Y-17725000I0J100000D01*
G01*
X46400000Y-17525000D01*
G75*
G02*
X46500000Y-17425000I100000J0D01*
G01*
G37*
G36*
G01*
X46500000Y-18075000D02*
X47850000Y-18075000D01*
G75*
G02*
X47950000Y-18175000I0J-100000D01*
G01*
X47950000Y-18375000D01*
G75*
G02*
X47850000Y-18475000I-100000J0D01*
G01*
X46500000Y-18475000D01*
G75*
G02*
X46400000Y-18375000I0J100000D01*
G01*
X46400000Y-18175000D01*
G75*
G02*
X46500000Y-18075000I100000J0D01*
G01*
G37*
G36*
G01*
X46500000Y-18725000D02*
X47850000Y-18725000D01*
G75*
G02*
X47950000Y-18825000I0J-100000D01*
G01*
X47950000Y-19025000D01*
G75*
G02*
X47850000Y-19125000I-100000J0D01*
G01*
X46500000Y-19125000D01*
G75*
G02*
X46400000Y-19025000I0J100000D01*
G01*
X46400000Y-18825000D01*
G75*
G02*
X46500000Y-18725000I100000J0D01*
G01*
G37*
G36*
G01*
X46500000Y-19375000D02*
X47850000Y-19375000D01*
G75*
G02*
X47950000Y-19475000I0J-100000D01*
G01*
X47950000Y-19675000D01*
G75*
G02*
X47850000Y-19775000I-100000J0D01*
G01*
X46500000Y-19775000D01*
G75*
G02*
X46400000Y-19675000I0J100000D01*
G01*
X46400000Y-19475000D01*
G75*
G02*
X46500000Y-19375000I100000J0D01*
G01*
G37*
G36*
G01*
X46500000Y-20025000D02*
X47850000Y-20025000D01*
G75*
G02*
X47950000Y-20125000I0J-100000D01*
G01*
X47950000Y-20325000D01*
G75*
G02*
X47850000Y-20425000I-100000J0D01*
G01*
X46500000Y-20425000D01*
G75*
G02*
X46400000Y-20325000I0J100000D01*
G01*
X46400000Y-20125000D01*
G75*
G02*
X46500000Y-20025000I100000J0D01*
G01*
G37*
G36*
G01*
X46500000Y-20675000D02*
X47850000Y-20675000D01*
G75*
G02*
X47950000Y-20775000I0J-100000D01*
G01*
X47950000Y-20975000D01*
G75*
G02*
X47850000Y-21075000I-100000J0D01*
G01*
X46500000Y-21075000D01*
G75*
G02*
X46400000Y-20975000I0J100000D01*
G01*
X46400000Y-20775000D01*
G75*
G02*
X46500000Y-20675000I100000J0D01*
G01*
G37*
G36*
G01*
X46500000Y-21325000D02*
X47850000Y-21325000D01*
G75*
G02*
X47950000Y-21425000I0J-100000D01*
G01*
X47950000Y-21625000D01*
G75*
G02*
X47850000Y-21725000I-100000J0D01*
G01*
X46500000Y-21725000D01*
G75*
G02*
X46400000Y-21625000I0J100000D01*
G01*
X46400000Y-21425000D01*
G75*
G02*
X46500000Y-21325000I100000J0D01*
G01*
G37*
G36*
G01*
X46500000Y-21975000D02*
X47850000Y-21975000D01*
G75*
G02*
X47950000Y-22075000I0J-100000D01*
G01*
X47950000Y-22275000D01*
G75*
G02*
X47850000Y-22375000I-100000J0D01*
G01*
X46500000Y-22375000D01*
G75*
G02*
X46400000Y-22275000I0J100000D01*
G01*
X46400000Y-22075000D01*
G75*
G02*
X46500000Y-21975000I100000J0D01*
G01*
G37*
G36*
G01*
X46500000Y-22625000D02*
X47850000Y-22625000D01*
G75*
G02*
X47950000Y-22725000I0J-100000D01*
G01*
X47950000Y-22925000D01*
G75*
G02*
X47850000Y-23025000I-100000J0D01*
G01*
X46500000Y-23025000D01*
G75*
G02*
X46400000Y-22925000I0J100000D01*
G01*
X46400000Y-22725000D01*
G75*
G02*
X46500000Y-22625000I100000J0D01*
G01*
G37*
G36*
G01*
X46500000Y-23275000D02*
X47850000Y-23275000D01*
G75*
G02*
X47950000Y-23375000I0J-100000D01*
G01*
X47950000Y-23575000D01*
G75*
G02*
X47850000Y-23675000I-100000J0D01*
G01*
X46500000Y-23675000D01*
G75*
G02*
X46400000Y-23575000I0J100000D01*
G01*
X46400000Y-23375000D01*
G75*
G02*
X46500000Y-23275000I100000J0D01*
G01*
G37*
G36*
G01*
X46500000Y-23925000D02*
X47850000Y-23925000D01*
G75*
G02*
X47950000Y-24025000I0J-100000D01*
G01*
X47950000Y-24225000D01*
G75*
G02*
X47850000Y-24325000I-100000J0D01*
G01*
X46500000Y-24325000D01*
G75*
G02*
X46400000Y-24225000I0J100000D01*
G01*
X46400000Y-24025000D01*
G75*
G02*
X46500000Y-23925000I100000J0D01*
G01*
G37*
G36*
G01*
X46500000Y-24575000D02*
X47850000Y-24575000D01*
G75*
G02*
X47950000Y-24675000I0J-100000D01*
G01*
X47950000Y-24875000D01*
G75*
G02*
X47850000Y-24975000I-100000J0D01*
G01*
X46500000Y-24975000D01*
G75*
G02*
X46400000Y-24875000I0J100000D01*
G01*
X46400000Y-24675000D01*
G75*
G02*
X46500000Y-24575000I100000J0D01*
G01*
G37*
G36*
G01*
X45575000Y-25500000D02*
X45775000Y-25500000D01*
G75*
G02*
X45875000Y-25600000I0J-100000D01*
G01*
X45875000Y-26950000D01*
G75*
G02*
X45775000Y-27050000I-100000J0D01*
G01*
X45575000Y-27050000D01*
G75*
G02*
X45475000Y-26950000I0J100000D01*
G01*
X45475000Y-25600000D01*
G75*
G02*
X45575000Y-25500000I100000J0D01*
G01*
G37*
G36*
G01*
X44925000Y-25500000D02*
X45125000Y-25500000D01*
G75*
G02*
X45225000Y-25600000I0J-100000D01*
G01*
X45225000Y-26950000D01*
G75*
G02*
X45125000Y-27050000I-100000J0D01*
G01*
X44925000Y-27050000D01*
G75*
G02*
X44825000Y-26950000I0J100000D01*
G01*
X44825000Y-25600000D01*
G75*
G02*
X44925000Y-25500000I100000J0D01*
G01*
G37*
G36*
G01*
X44275000Y-25500000D02*
X44475000Y-25500000D01*
G75*
G02*
X44575000Y-25600000I0J-100000D01*
G01*
X44575000Y-26950000D01*
G75*
G02*
X44475000Y-27050000I-100000J0D01*
G01*
X44275000Y-27050000D01*
G75*
G02*
X44175000Y-26950000I0J100000D01*
G01*
X44175000Y-25600000D01*
G75*
G02*
X44275000Y-25500000I100000J0D01*
G01*
G37*
G36*
G01*
X43625000Y-25500000D02*
X43825000Y-25500000D01*
G75*
G02*
X43925000Y-25600000I0J-100000D01*
G01*
X43925000Y-26950000D01*
G75*
G02*
X43825000Y-27050000I-100000J0D01*
G01*
X43625000Y-27050000D01*
G75*
G02*
X43525000Y-26950000I0J100000D01*
G01*
X43525000Y-25600000D01*
G75*
G02*
X43625000Y-25500000I100000J0D01*
G01*
G37*
G36*
G01*
X42975000Y-25500000D02*
X43175000Y-25500000D01*
G75*
G02*
X43275000Y-25600000I0J-100000D01*
G01*
X43275000Y-26950000D01*
G75*
G02*
X43175000Y-27050000I-100000J0D01*
G01*
X42975000Y-27050000D01*
G75*
G02*
X42875000Y-26950000I0J100000D01*
G01*
X42875000Y-25600000D01*
G75*
G02*
X42975000Y-25500000I100000J0D01*
G01*
G37*
G36*
G01*
X42325000Y-25500000D02*
X42525000Y-25500000D01*
G75*
G02*
X42625000Y-25600000I0J-100000D01*
G01*
X42625000Y-26950000D01*
G75*
G02*
X42525000Y-27050000I-100000J0D01*
G01*
X42325000Y-27050000D01*
G75*
G02*
X42225000Y-26950000I0J100000D01*
G01*
X42225000Y-25600000D01*
G75*
G02*
X42325000Y-25500000I100000J0D01*
G01*
G37*
G36*
G01*
X41675000Y-25500000D02*
X41875000Y-25500000D01*
G75*
G02*
X41975000Y-25600000I0J-100000D01*
G01*
X41975000Y-26950000D01*
G75*
G02*
X41875000Y-27050000I-100000J0D01*
G01*
X41675000Y-27050000D01*
G75*
G02*
X41575000Y-26950000I0J100000D01*
G01*
X41575000Y-25600000D01*
G75*
G02*
X41675000Y-25500000I100000J0D01*
G01*
G37*
G36*
G01*
X41025000Y-25500000D02*
X41225000Y-25500000D01*
G75*
G02*
X41325000Y-25600000I0J-100000D01*
G01*
X41325000Y-26950000D01*
G75*
G02*
X41225000Y-27050000I-100000J0D01*
G01*
X41025000Y-27050000D01*
G75*
G02*
X40925000Y-26950000I0J100000D01*
G01*
X40925000Y-25600000D01*
G75*
G02*
X41025000Y-25500000I100000J0D01*
G01*
G37*
G36*
G01*
X40375000Y-25500000D02*
X40575000Y-25500000D01*
G75*
G02*
X40675000Y-25600000I0J-100000D01*
G01*
X40675000Y-26950000D01*
G75*
G02*
X40575000Y-27050000I-100000J0D01*
G01*
X40375000Y-27050000D01*
G75*
G02*
X40275000Y-26950000I0J100000D01*
G01*
X40275000Y-25600000D01*
G75*
G02*
X40375000Y-25500000I100000J0D01*
G01*
G37*
G36*
G01*
X39725000Y-25500000D02*
X39925000Y-25500000D01*
G75*
G02*
X40025000Y-25600000I0J-100000D01*
G01*
X40025000Y-26950000D01*
G75*
G02*
X39925000Y-27050000I-100000J0D01*
G01*
X39725000Y-27050000D01*
G75*
G02*
X39625000Y-26950000I0J100000D01*
G01*
X39625000Y-25600000D01*
G75*
G02*
X39725000Y-25500000I100000J0D01*
G01*
G37*
G36*
G01*
X39075000Y-25500000D02*
X39275000Y-25500000D01*
G75*
G02*
X39375000Y-25600000I0J-100000D01*
G01*
X39375000Y-26950000D01*
G75*
G02*
X39275000Y-27050000I-100000J0D01*
G01*
X39075000Y-27050000D01*
G75*
G02*
X38975000Y-26950000I0J100000D01*
G01*
X38975000Y-25600000D01*
G75*
G02*
X39075000Y-25500000I100000J0D01*
G01*
G37*
G36*
G01*
X38425000Y-25500000D02*
X38625000Y-25500000D01*
G75*
G02*
X38725000Y-25600000I0J-100000D01*
G01*
X38725000Y-26950000D01*
G75*
G02*
X38625000Y-27050000I-100000J0D01*
G01*
X38425000Y-27050000D01*
G75*
G02*
X38325000Y-26950000I0J100000D01*
G01*
X38325000Y-25600000D01*
G75*
G02*
X38425000Y-25500000I100000J0D01*
G01*
G37*
G36*
G01*
X37775000Y-25500000D02*
X37975000Y-25500000D01*
G75*
G02*
X38075000Y-25600000I0J-100000D01*
G01*
X38075000Y-26950000D01*
G75*
G02*
X37975000Y-27050000I-100000J0D01*
G01*
X37775000Y-27050000D01*
G75*
G02*
X37675000Y-26950000I0J100000D01*
G01*
X37675000Y-25600000D01*
G75*
G02*
X37775000Y-25500000I100000J0D01*
G01*
G37*
G36*
G01*
X37125000Y-25500000D02*
X37325000Y-25500000D01*
G75*
G02*
X37425000Y-25600000I0J-100000D01*
G01*
X37425000Y-26950000D01*
G75*
G02*
X37325000Y-27050000I-100000J0D01*
G01*
X37125000Y-27050000D01*
G75*
G02*
X37025000Y-26950000I0J100000D01*
G01*
X37025000Y-25600000D01*
G75*
G02*
X37125000Y-25500000I100000J0D01*
G01*
G37*
G36*
G01*
X36475000Y-25500000D02*
X36675000Y-25500000D01*
G75*
G02*
X36775000Y-25600000I0J-100000D01*
G01*
X36775000Y-26950000D01*
G75*
G02*
X36675000Y-27050000I-100000J0D01*
G01*
X36475000Y-27050000D01*
G75*
G02*
X36375000Y-26950000I0J100000D01*
G01*
X36375000Y-25600000D01*
G75*
G02*
X36475000Y-25500000I100000J0D01*
G01*
G37*
G36*
G01*
X35825000Y-25500000D02*
X36025000Y-25500000D01*
G75*
G02*
X36125000Y-25600000I0J-100000D01*
G01*
X36125000Y-26950000D01*
G75*
G02*
X36025000Y-27050000I-100000J0D01*
G01*
X35825000Y-27050000D01*
G75*
G02*
X35725000Y-26950000I0J100000D01*
G01*
X35725000Y-25600000D01*
G75*
G02*
X35825000Y-25500000I100000J0D01*
G01*
G37*
G36*
G01*
X35175000Y-25500000D02*
X35375000Y-25500000D01*
G75*
G02*
X35475000Y-25600000I0J-100000D01*
G01*
X35475000Y-26950000D01*
G75*
G02*
X35375000Y-27050000I-100000J0D01*
G01*
X35175000Y-27050000D01*
G75*
G02*
X35075000Y-26950000I0J100000D01*
G01*
X35075000Y-25600000D01*
G75*
G02*
X35175000Y-25500000I100000J0D01*
G01*
G37*
G36*
G01*
X34525000Y-25500000D02*
X34725000Y-25500000D01*
G75*
G02*
X34825000Y-25600000I0J-100000D01*
G01*
X34825000Y-26950000D01*
G75*
G02*
X34725000Y-27050000I-100000J0D01*
G01*
X34525000Y-27050000D01*
G75*
G02*
X34425000Y-26950000I0J100000D01*
G01*
X34425000Y-25600000D01*
G75*
G02*
X34525000Y-25500000I100000J0D01*
G01*
G37*
G36*
G01*
X33875000Y-25500000D02*
X34075000Y-25500000D01*
G75*
G02*
X34175000Y-25600000I0J-100000D01*
G01*
X34175000Y-26950000D01*
G75*
G02*
X34075000Y-27050000I-100000J0D01*
G01*
X33875000Y-27050000D01*
G75*
G02*
X33775000Y-26950000I0J100000D01*
G01*
X33775000Y-25600000D01*
G75*
G02*
X33875000Y-25500000I100000J0D01*
G01*
G37*
G36*
G01*
X33225000Y-25500000D02*
X33425000Y-25500000D01*
G75*
G02*
X33525000Y-25600000I0J-100000D01*
G01*
X33525000Y-26950000D01*
G75*
G02*
X33425000Y-27050000I-100000J0D01*
G01*
X33225000Y-27050000D01*
G75*
G02*
X33125000Y-26950000I0J100000D01*
G01*
X33125000Y-25600000D01*
G75*
G02*
X33225000Y-25500000I100000J0D01*
G01*
G37*
G36*
G01*
X31150000Y-24575000D02*
X32500000Y-24575000D01*
G75*
G02*
X32600000Y-24675000I0J-100000D01*
G01*
X32600000Y-24875000D01*
G75*
G02*
X32500000Y-24975000I-100000J0D01*
G01*
X31150000Y-24975000D01*
G75*
G02*
X31050000Y-24875000I0J100000D01*
G01*
X31050000Y-24675000D01*
G75*
G02*
X31150000Y-24575000I100000J0D01*
G01*
G37*
G36*
G01*
X31150000Y-23925000D02*
X32500000Y-23925000D01*
G75*
G02*
X32600000Y-24025000I0J-100000D01*
G01*
X32600000Y-24225000D01*
G75*
G02*
X32500000Y-24325000I-100000J0D01*
G01*
X31150000Y-24325000D01*
G75*
G02*
X31050000Y-24225000I0J100000D01*
G01*
X31050000Y-24025000D01*
G75*
G02*
X31150000Y-23925000I100000J0D01*
G01*
G37*
G36*
G01*
X31150000Y-23275000D02*
X32500000Y-23275000D01*
G75*
G02*
X32600000Y-23375000I0J-100000D01*
G01*
X32600000Y-23575000D01*
G75*
G02*
X32500000Y-23675000I-100000J0D01*
G01*
X31150000Y-23675000D01*
G75*
G02*
X31050000Y-23575000I0J100000D01*
G01*
X31050000Y-23375000D01*
G75*
G02*
X31150000Y-23275000I100000J0D01*
G01*
G37*
G36*
G01*
X31150000Y-22625000D02*
X32500000Y-22625000D01*
G75*
G02*
X32600000Y-22725000I0J-100000D01*
G01*
X32600000Y-22925000D01*
G75*
G02*
X32500000Y-23025000I-100000J0D01*
G01*
X31150000Y-23025000D01*
G75*
G02*
X31050000Y-22925000I0J100000D01*
G01*
X31050000Y-22725000D01*
G75*
G02*
X31150000Y-22625000I100000J0D01*
G01*
G37*
G36*
G01*
X31150000Y-21975000D02*
X32500000Y-21975000D01*
G75*
G02*
X32600000Y-22075000I0J-100000D01*
G01*
X32600000Y-22275000D01*
G75*
G02*
X32500000Y-22375000I-100000J0D01*
G01*
X31150000Y-22375000D01*
G75*
G02*
X31050000Y-22275000I0J100000D01*
G01*
X31050000Y-22075000D01*
G75*
G02*
X31150000Y-21975000I100000J0D01*
G01*
G37*
G36*
G01*
X31150000Y-21325000D02*
X32500000Y-21325000D01*
G75*
G02*
X32600000Y-21425000I0J-100000D01*
G01*
X32600000Y-21625000D01*
G75*
G02*
X32500000Y-21725000I-100000J0D01*
G01*
X31150000Y-21725000D01*
G75*
G02*
X31050000Y-21625000I0J100000D01*
G01*
X31050000Y-21425000D01*
G75*
G02*
X31150000Y-21325000I100000J0D01*
G01*
G37*
G36*
G01*
X31150000Y-20675000D02*
X32500000Y-20675000D01*
G75*
G02*
X32600000Y-20775000I0J-100000D01*
G01*
X32600000Y-20975000D01*
G75*
G02*
X32500000Y-21075000I-100000J0D01*
G01*
X31150000Y-21075000D01*
G75*
G02*
X31050000Y-20975000I0J100000D01*
G01*
X31050000Y-20775000D01*
G75*
G02*
X31150000Y-20675000I100000J0D01*
G01*
G37*
G36*
G01*
X31150000Y-20025000D02*
X32500000Y-20025000D01*
G75*
G02*
X32600000Y-20125000I0J-100000D01*
G01*
X32600000Y-20325000D01*
G75*
G02*
X32500000Y-20425000I-100000J0D01*
G01*
X31150000Y-20425000D01*
G75*
G02*
X31050000Y-20325000I0J100000D01*
G01*
X31050000Y-20125000D01*
G75*
G02*
X31150000Y-20025000I100000J0D01*
G01*
G37*
G36*
G01*
X31150000Y-19375000D02*
X32500000Y-19375000D01*
G75*
G02*
X32600000Y-19475000I0J-100000D01*
G01*
X32600000Y-19675000D01*
G75*
G02*
X32500000Y-19775000I-100000J0D01*
G01*
X31150000Y-19775000D01*
G75*
G02*
X31050000Y-19675000I0J100000D01*
G01*
X31050000Y-19475000D01*
G75*
G02*
X31150000Y-19375000I100000J0D01*
G01*
G37*
G36*
G01*
X31150000Y-18725000D02*
X32500000Y-18725000D01*
G75*
G02*
X32600000Y-18825000I0J-100000D01*
G01*
X32600000Y-19025000D01*
G75*
G02*
X32500000Y-19125000I-100000J0D01*
G01*
X31150000Y-19125000D01*
G75*
G02*
X31050000Y-19025000I0J100000D01*
G01*
X31050000Y-18825000D01*
G75*
G02*
X31150000Y-18725000I100000J0D01*
G01*
G37*
G36*
G01*
X31150000Y-18075000D02*
X32500000Y-18075000D01*
G75*
G02*
X32600000Y-18175000I0J-100000D01*
G01*
X32600000Y-18375000D01*
G75*
G02*
X32500000Y-18475000I-100000J0D01*
G01*
X31150000Y-18475000D01*
G75*
G02*
X31050000Y-18375000I0J100000D01*
G01*
X31050000Y-18175000D01*
G75*
G02*
X31150000Y-18075000I100000J0D01*
G01*
G37*
G36*
G01*
X31150000Y-17425000D02*
X32500000Y-17425000D01*
G75*
G02*
X32600000Y-17525000I0J-100000D01*
G01*
X32600000Y-17725000D01*
G75*
G02*
X32500000Y-17825000I-100000J0D01*
G01*
X31150000Y-17825000D01*
G75*
G02*
X31050000Y-17725000I0J100000D01*
G01*
X31050000Y-17525000D01*
G75*
G02*
X31150000Y-17425000I100000J0D01*
G01*
G37*
G36*
G01*
X31150000Y-16775000D02*
X32500000Y-16775000D01*
G75*
G02*
X32600000Y-16875000I0J-100000D01*
G01*
X32600000Y-17075000D01*
G75*
G02*
X32500000Y-17175000I-100000J0D01*
G01*
X31150000Y-17175000D01*
G75*
G02*
X31050000Y-17075000I0J100000D01*
G01*
X31050000Y-16875000D01*
G75*
G02*
X31150000Y-16775000I100000J0D01*
G01*
G37*
G36*
G01*
X31150000Y-16125000D02*
X32500000Y-16125000D01*
G75*
G02*
X32600000Y-16225000I0J-100000D01*
G01*
X32600000Y-16425000D01*
G75*
G02*
X32500000Y-16525000I-100000J0D01*
G01*
X31150000Y-16525000D01*
G75*
G02*
X31050000Y-16425000I0J100000D01*
G01*
X31050000Y-16225000D01*
G75*
G02*
X31150000Y-16125000I100000J0D01*
G01*
G37*
G36*
G01*
X31150000Y-15475000D02*
X32500000Y-15475000D01*
G75*
G02*
X32600000Y-15575000I0J-100000D01*
G01*
X32600000Y-15775000D01*
G75*
G02*
X32500000Y-15875000I-100000J0D01*
G01*
X31150000Y-15875000D01*
G75*
G02*
X31050000Y-15775000I0J100000D01*
G01*
X31050000Y-15575000D01*
G75*
G02*
X31150000Y-15475000I100000J0D01*
G01*
G37*
G36*
G01*
X31150000Y-14825000D02*
X32500000Y-14825000D01*
G75*
G02*
X32600000Y-14925000I0J-100000D01*
G01*
X32600000Y-15125000D01*
G75*
G02*
X32500000Y-15225000I-100000J0D01*
G01*
X31150000Y-15225000D01*
G75*
G02*
X31050000Y-15125000I0J100000D01*
G01*
X31050000Y-14925000D01*
G75*
G02*
X31150000Y-14825000I100000J0D01*
G01*
G37*
G36*
G01*
X31150000Y-14175000D02*
X32500000Y-14175000D01*
G75*
G02*
X32600000Y-14275000I0J-100000D01*
G01*
X32600000Y-14475000D01*
G75*
G02*
X32500000Y-14575000I-100000J0D01*
G01*
X31150000Y-14575000D01*
G75*
G02*
X31050000Y-14475000I0J100000D01*
G01*
X31050000Y-14275000D01*
G75*
G02*
X31150000Y-14175000I100000J0D01*
G01*
G37*
G36*
G01*
X31150000Y-13525000D02*
X32500000Y-13525000D01*
G75*
G02*
X32600000Y-13625000I0J-100000D01*
G01*
X32600000Y-13825000D01*
G75*
G02*
X32500000Y-13925000I-100000J0D01*
G01*
X31150000Y-13925000D01*
G75*
G02*
X31050000Y-13825000I0J100000D01*
G01*
X31050000Y-13625000D01*
G75*
G02*
X31150000Y-13525000I100000J0D01*
G01*
G37*
G36*
G01*
X31150000Y-12875000D02*
X32500000Y-12875000D01*
G75*
G02*
X32600000Y-12975000I0J-100000D01*
G01*
X32600000Y-13175000D01*
G75*
G02*
X32500000Y-13275000I-100000J0D01*
G01*
X31150000Y-13275000D01*
G75*
G02*
X31050000Y-13175000I0J100000D01*
G01*
X31050000Y-12975000D01*
G75*
G02*
X31150000Y-12875000I100000J0D01*
G01*
G37*
G36*
G01*
X31150000Y-12225000D02*
X32500000Y-12225000D01*
G75*
G02*
X32600000Y-12325000I0J-100000D01*
G01*
X32600000Y-12525000D01*
G75*
G02*
X32500000Y-12625000I-100000J0D01*
G01*
X31150000Y-12625000D01*
G75*
G02*
X31050000Y-12525000I0J100000D01*
G01*
X31050000Y-12325000D01*
G75*
G02*
X31150000Y-12225000I100000J0D01*
G01*
G37*
G36*
G01*
X33225000Y-10150000D02*
X33425000Y-10150000D01*
G75*
G02*
X33525000Y-10250000I0J-100000D01*
G01*
X33525000Y-11600000D01*
G75*
G02*
X33425000Y-11700000I-100000J0D01*
G01*
X33225000Y-11700000D01*
G75*
G02*
X33125000Y-11600000I0J100000D01*
G01*
X33125000Y-10250000D01*
G75*
G02*
X33225000Y-10150000I100000J0D01*
G01*
G37*
G36*
G01*
X33875000Y-10150000D02*
X34075000Y-10150000D01*
G75*
G02*
X34175000Y-10250000I0J-100000D01*
G01*
X34175000Y-11600000D01*
G75*
G02*
X34075000Y-11700000I-100000J0D01*
G01*
X33875000Y-11700000D01*
G75*
G02*
X33775000Y-11600000I0J100000D01*
G01*
X33775000Y-10250000D01*
G75*
G02*
X33875000Y-10150000I100000J0D01*
G01*
G37*
G36*
G01*
X34525000Y-10150000D02*
X34725000Y-10150000D01*
G75*
G02*
X34825000Y-10250000I0J-100000D01*
G01*
X34825000Y-11600000D01*
G75*
G02*
X34725000Y-11700000I-100000J0D01*
G01*
X34525000Y-11700000D01*
G75*
G02*
X34425000Y-11600000I0J100000D01*
G01*
X34425000Y-10250000D01*
G75*
G02*
X34525000Y-10150000I100000J0D01*
G01*
G37*
G36*
G01*
X35175000Y-10150000D02*
X35375000Y-10150000D01*
G75*
G02*
X35475000Y-10250000I0J-100000D01*
G01*
X35475000Y-11600000D01*
G75*
G02*
X35375000Y-11700000I-100000J0D01*
G01*
X35175000Y-11700000D01*
G75*
G02*
X35075000Y-11600000I0J100000D01*
G01*
X35075000Y-10250000D01*
G75*
G02*
X35175000Y-10150000I100000J0D01*
G01*
G37*
G36*
G01*
X35825000Y-10150000D02*
X36025000Y-10150000D01*
G75*
G02*
X36125000Y-10250000I0J-100000D01*
G01*
X36125000Y-11600000D01*
G75*
G02*
X36025000Y-11700000I-100000J0D01*
G01*
X35825000Y-11700000D01*
G75*
G02*
X35725000Y-11600000I0J100000D01*
G01*
X35725000Y-10250000D01*
G75*
G02*
X35825000Y-10150000I100000J0D01*
G01*
G37*
G36*
G01*
X36475000Y-10150000D02*
X36675000Y-10150000D01*
G75*
G02*
X36775000Y-10250000I0J-100000D01*
G01*
X36775000Y-11600000D01*
G75*
G02*
X36675000Y-11700000I-100000J0D01*
G01*
X36475000Y-11700000D01*
G75*
G02*
X36375000Y-11600000I0J100000D01*
G01*
X36375000Y-10250000D01*
G75*
G02*
X36475000Y-10150000I100000J0D01*
G01*
G37*
G36*
G01*
X37125000Y-10150000D02*
X37325000Y-10150000D01*
G75*
G02*
X37425000Y-10250000I0J-100000D01*
G01*
X37425000Y-11600000D01*
G75*
G02*
X37325000Y-11700000I-100000J0D01*
G01*
X37125000Y-11700000D01*
G75*
G02*
X37025000Y-11600000I0J100000D01*
G01*
X37025000Y-10250000D01*
G75*
G02*
X37125000Y-10150000I100000J0D01*
G01*
G37*
G36*
G01*
X37775000Y-10150000D02*
X37975000Y-10150000D01*
G75*
G02*
X38075000Y-10250000I0J-100000D01*
G01*
X38075000Y-11600000D01*
G75*
G02*
X37975000Y-11700000I-100000J0D01*
G01*
X37775000Y-11700000D01*
G75*
G02*
X37675000Y-11600000I0J100000D01*
G01*
X37675000Y-10250000D01*
G75*
G02*
X37775000Y-10150000I100000J0D01*
G01*
G37*
G36*
G01*
X38425000Y-10150000D02*
X38625000Y-10150000D01*
G75*
G02*
X38725000Y-10250000I0J-100000D01*
G01*
X38725000Y-11600000D01*
G75*
G02*
X38625000Y-11700000I-100000J0D01*
G01*
X38425000Y-11700000D01*
G75*
G02*
X38325000Y-11600000I0J100000D01*
G01*
X38325000Y-10250000D01*
G75*
G02*
X38425000Y-10150000I100000J0D01*
G01*
G37*
G36*
G01*
X39075000Y-10150000D02*
X39275000Y-10150000D01*
G75*
G02*
X39375000Y-10250000I0J-100000D01*
G01*
X39375000Y-11600000D01*
G75*
G02*
X39275000Y-11700000I-100000J0D01*
G01*
X39075000Y-11700000D01*
G75*
G02*
X38975000Y-11600000I0J100000D01*
G01*
X38975000Y-10250000D01*
G75*
G02*
X39075000Y-10150000I100000J0D01*
G01*
G37*
G36*
G01*
X39725000Y-10150000D02*
X39925000Y-10150000D01*
G75*
G02*
X40025000Y-10250000I0J-100000D01*
G01*
X40025000Y-11600000D01*
G75*
G02*
X39925000Y-11700000I-100000J0D01*
G01*
X39725000Y-11700000D01*
G75*
G02*
X39625000Y-11600000I0J100000D01*
G01*
X39625000Y-10250000D01*
G75*
G02*
X39725000Y-10150000I100000J0D01*
G01*
G37*
G36*
G01*
X40375000Y-10150000D02*
X40575000Y-10150000D01*
G75*
G02*
X40675000Y-10250000I0J-100000D01*
G01*
X40675000Y-11600000D01*
G75*
G02*
X40575000Y-11700000I-100000J0D01*
G01*
X40375000Y-11700000D01*
G75*
G02*
X40275000Y-11600000I0J100000D01*
G01*
X40275000Y-10250000D01*
G75*
G02*
X40375000Y-10150000I100000J0D01*
G01*
G37*
G36*
G01*
X41025000Y-10150000D02*
X41225000Y-10150000D01*
G75*
G02*
X41325000Y-10250000I0J-100000D01*
G01*
X41325000Y-11600000D01*
G75*
G02*
X41225000Y-11700000I-100000J0D01*
G01*
X41025000Y-11700000D01*
G75*
G02*
X40925000Y-11600000I0J100000D01*
G01*
X40925000Y-10250000D01*
G75*
G02*
X41025000Y-10150000I100000J0D01*
G01*
G37*
G36*
G01*
X41675000Y-10150000D02*
X41875000Y-10150000D01*
G75*
G02*
X41975000Y-10250000I0J-100000D01*
G01*
X41975000Y-11600000D01*
G75*
G02*
X41875000Y-11700000I-100000J0D01*
G01*
X41675000Y-11700000D01*
G75*
G02*
X41575000Y-11600000I0J100000D01*
G01*
X41575000Y-10250000D01*
G75*
G02*
X41675000Y-10150000I100000J0D01*
G01*
G37*
G36*
G01*
X42325000Y-10150000D02*
X42525000Y-10150000D01*
G75*
G02*
X42625000Y-10250000I0J-100000D01*
G01*
X42625000Y-11600000D01*
G75*
G02*
X42525000Y-11700000I-100000J0D01*
G01*
X42325000Y-11700000D01*
G75*
G02*
X42225000Y-11600000I0J100000D01*
G01*
X42225000Y-10250000D01*
G75*
G02*
X42325000Y-10150000I100000J0D01*
G01*
G37*
G36*
G01*
X42975000Y-10150000D02*
X43175000Y-10150000D01*
G75*
G02*
X43275000Y-10250000I0J-100000D01*
G01*
X43275000Y-11600000D01*
G75*
G02*
X43175000Y-11700000I-100000J0D01*
G01*
X42975000Y-11700000D01*
G75*
G02*
X42875000Y-11600000I0J100000D01*
G01*
X42875000Y-10250000D01*
G75*
G02*
X42975000Y-10150000I100000J0D01*
G01*
G37*
G36*
G01*
X43625000Y-10150000D02*
X43825000Y-10150000D01*
G75*
G02*
X43925000Y-10250000I0J-100000D01*
G01*
X43925000Y-11600000D01*
G75*
G02*
X43825000Y-11700000I-100000J0D01*
G01*
X43625000Y-11700000D01*
G75*
G02*
X43525000Y-11600000I0J100000D01*
G01*
X43525000Y-10250000D01*
G75*
G02*
X43625000Y-10150000I100000J0D01*
G01*
G37*
G36*
G01*
X44275000Y-10150000D02*
X44475000Y-10150000D01*
G75*
G02*
X44575000Y-10250000I0J-100000D01*
G01*
X44575000Y-11600000D01*
G75*
G02*
X44475000Y-11700000I-100000J0D01*
G01*
X44275000Y-11700000D01*
G75*
G02*
X44175000Y-11600000I0J100000D01*
G01*
X44175000Y-10250000D01*
G75*
G02*
X44275000Y-10150000I100000J0D01*
G01*
G37*
G36*
G01*
X44925000Y-10150000D02*
X45125000Y-10150000D01*
G75*
G02*
X45225000Y-10250000I0J-100000D01*
G01*
X45225000Y-11600000D01*
G75*
G02*
X45125000Y-11700000I-100000J0D01*
G01*
X44925000Y-11700000D01*
G75*
G02*
X44825000Y-11600000I0J100000D01*
G01*
X44825000Y-10250000D01*
G75*
G02*
X44925000Y-10150000I100000J0D01*
G01*
G37*
G36*
G01*
X45575000Y-10150000D02*
X45775000Y-10150000D01*
G75*
G02*
X45875000Y-10250000I0J-100000D01*
G01*
X45875000Y-11600000D01*
G75*
G02*
X45775000Y-11700000I-100000J0D01*
G01*
X45575000Y-11700000D01*
G75*
G02*
X45475000Y-11600000I0J100000D01*
G01*
X45475000Y-10250000D01*
G75*
G02*
X45575000Y-10150000I100000J0D01*
G01*
G37*
%TD*%
D34*
%TO.C,U5*%
X53000000Y-9700000D03*
D35*
X54550000Y-8725000D03*
X54550000Y-9375000D03*
X54550000Y-10025000D03*
X54550000Y-10675000D03*
X51450000Y-10675000D03*
X51450000Y-10025000D03*
X51450000Y-9375000D03*
X51450000Y-8725000D03*
%TD*%
D34*
%TO.C,U4*%
X65900000Y-29600000D03*
D35*
X67450000Y-28625000D03*
X67450000Y-29275000D03*
X67450000Y-29925000D03*
X67450000Y-30575000D03*
X64350000Y-30575000D03*
X64350000Y-29925000D03*
X64350000Y-29275000D03*
X64350000Y-28625000D03*
%TD*%
D36*
%TO.C,U3*%
X14300000Y-13700000D03*
X12300000Y-14650000D03*
X12300000Y-12750000D03*
%TD*%
D37*
%TO.C,U2*%
X9690000Y-23090000D03*
G36*
G01*
X10827500Y-22215000D02*
X11477500Y-22215000D01*
G75*
G02*
X11540000Y-22277500I0J-62500D01*
G01*
X11540000Y-22402500D01*
G75*
G02*
X11477500Y-22465000I-62500J0D01*
G01*
X10827500Y-22465000D01*
G75*
G02*
X10765000Y-22402500I0J62500D01*
G01*
X10765000Y-22277500D01*
G75*
G02*
X10827500Y-22215000I62500J0D01*
G01*
G37*
G36*
G01*
X10827500Y-22715000D02*
X11477500Y-22715000D01*
G75*
G02*
X11540000Y-22777500I0J-62500D01*
G01*
X11540000Y-22902500D01*
G75*
G02*
X11477500Y-22965000I-62500J0D01*
G01*
X10827500Y-22965000D01*
G75*
G02*
X10765000Y-22902500I0J62500D01*
G01*
X10765000Y-22777500D01*
G75*
G02*
X10827500Y-22715000I62500J0D01*
G01*
G37*
G36*
G01*
X10827500Y-23215000D02*
X11477500Y-23215000D01*
G75*
G02*
X11540000Y-23277500I0J-62500D01*
G01*
X11540000Y-23402500D01*
G75*
G02*
X11477500Y-23465000I-62500J0D01*
G01*
X10827500Y-23465000D01*
G75*
G02*
X10765000Y-23402500I0J62500D01*
G01*
X10765000Y-23277500D01*
G75*
G02*
X10827500Y-23215000I62500J0D01*
G01*
G37*
G36*
G01*
X10827500Y-23715000D02*
X11477500Y-23715000D01*
G75*
G02*
X11540000Y-23777500I0J-62500D01*
G01*
X11540000Y-23902500D01*
G75*
G02*
X11477500Y-23965000I-62500J0D01*
G01*
X10827500Y-23965000D01*
G75*
G02*
X10765000Y-23902500I0J62500D01*
G01*
X10765000Y-23777500D01*
G75*
G02*
X10827500Y-23715000I62500J0D01*
G01*
G37*
G36*
G01*
X10377500Y-24165000D02*
X10502500Y-24165000D01*
G75*
G02*
X10565000Y-24227500I0J-62500D01*
G01*
X10565000Y-24877500D01*
G75*
G02*
X10502500Y-24940000I-62500J0D01*
G01*
X10377500Y-24940000D01*
G75*
G02*
X10315000Y-24877500I0J62500D01*
G01*
X10315000Y-24227500D01*
G75*
G02*
X10377500Y-24165000I62500J0D01*
G01*
G37*
G36*
G01*
X9877500Y-24165000D02*
X10002500Y-24165000D01*
G75*
G02*
X10065000Y-24227500I0J-62500D01*
G01*
X10065000Y-24877500D01*
G75*
G02*
X10002500Y-24940000I-62500J0D01*
G01*
X9877500Y-24940000D01*
G75*
G02*
X9815000Y-24877500I0J62500D01*
G01*
X9815000Y-24227500D01*
G75*
G02*
X9877500Y-24165000I62500J0D01*
G01*
G37*
G36*
G01*
X9377500Y-24165000D02*
X9502500Y-24165000D01*
G75*
G02*
X9565000Y-24227500I0J-62500D01*
G01*
X9565000Y-24877500D01*
G75*
G02*
X9502500Y-24940000I-62500J0D01*
G01*
X9377500Y-24940000D01*
G75*
G02*
X9315000Y-24877500I0J62500D01*
G01*
X9315000Y-24227500D01*
G75*
G02*
X9377500Y-24165000I62500J0D01*
G01*
G37*
G36*
G01*
X8877500Y-24165000D02*
X9002500Y-24165000D01*
G75*
G02*
X9065000Y-24227500I0J-62500D01*
G01*
X9065000Y-24877500D01*
G75*
G02*
X9002500Y-24940000I-62500J0D01*
G01*
X8877500Y-24940000D01*
G75*
G02*
X8815000Y-24877500I0J62500D01*
G01*
X8815000Y-24227500D01*
G75*
G02*
X8877500Y-24165000I62500J0D01*
G01*
G37*
G36*
G01*
X7902500Y-23715000D02*
X8552500Y-23715000D01*
G75*
G02*
X8615000Y-23777500I0J-62500D01*
G01*
X8615000Y-23902500D01*
G75*
G02*
X8552500Y-23965000I-62500J0D01*
G01*
X7902500Y-23965000D01*
G75*
G02*
X7840000Y-23902500I0J62500D01*
G01*
X7840000Y-23777500D01*
G75*
G02*
X7902500Y-23715000I62500J0D01*
G01*
G37*
G36*
G01*
X7902500Y-23215000D02*
X8552500Y-23215000D01*
G75*
G02*
X8615000Y-23277500I0J-62500D01*
G01*
X8615000Y-23402500D01*
G75*
G02*
X8552500Y-23465000I-62500J0D01*
G01*
X7902500Y-23465000D01*
G75*
G02*
X7840000Y-23402500I0J62500D01*
G01*
X7840000Y-23277500D01*
G75*
G02*
X7902500Y-23215000I62500J0D01*
G01*
G37*
G36*
G01*
X7902500Y-22715000D02*
X8552500Y-22715000D01*
G75*
G02*
X8615000Y-22777500I0J-62500D01*
G01*
X8615000Y-22902500D01*
G75*
G02*
X8552500Y-22965000I-62500J0D01*
G01*
X7902500Y-22965000D01*
G75*
G02*
X7840000Y-22902500I0J62500D01*
G01*
X7840000Y-22777500D01*
G75*
G02*
X7902500Y-22715000I62500J0D01*
G01*
G37*
G36*
G01*
X7902500Y-22215000D02*
X8552500Y-22215000D01*
G75*
G02*
X8615000Y-22277500I0J-62500D01*
G01*
X8615000Y-22402500D01*
G75*
G02*
X8552500Y-22465000I-62500J0D01*
G01*
X7902500Y-22465000D01*
G75*
G02*
X7840000Y-22402500I0J62500D01*
G01*
X7840000Y-22277500D01*
G75*
G02*
X7902500Y-22215000I62500J0D01*
G01*
G37*
G36*
G01*
X8877500Y-21240000D02*
X9002500Y-21240000D01*
G75*
G02*
X9065000Y-21302500I0J-62500D01*
G01*
X9065000Y-21952500D01*
G75*
G02*
X9002500Y-22015000I-62500J0D01*
G01*
X8877500Y-22015000D01*
G75*
G02*
X8815000Y-21952500I0J62500D01*
G01*
X8815000Y-21302500D01*
G75*
G02*
X8877500Y-21240000I62500J0D01*
G01*
G37*
G36*
G01*
X9377500Y-21240000D02*
X9502500Y-21240000D01*
G75*
G02*
X9565000Y-21302500I0J-62500D01*
G01*
X9565000Y-21952500D01*
G75*
G02*
X9502500Y-22015000I-62500J0D01*
G01*
X9377500Y-22015000D01*
G75*
G02*
X9315000Y-21952500I0J62500D01*
G01*
X9315000Y-21302500D01*
G75*
G02*
X9377500Y-21240000I62500J0D01*
G01*
G37*
G36*
G01*
X9877500Y-21240000D02*
X10002500Y-21240000D01*
G75*
G02*
X10065000Y-21302500I0J-62500D01*
G01*
X10065000Y-21952500D01*
G75*
G02*
X10002500Y-22015000I-62500J0D01*
G01*
X9877500Y-22015000D01*
G75*
G02*
X9815000Y-21952500I0J62500D01*
G01*
X9815000Y-21302500D01*
G75*
G02*
X9877500Y-21240000I62500J0D01*
G01*
G37*
G36*
G01*
X10377500Y-21240000D02*
X10502500Y-21240000D01*
G75*
G02*
X10565000Y-21302500I0J-62500D01*
G01*
X10565000Y-21952500D01*
G75*
G02*
X10502500Y-22015000I-62500J0D01*
G01*
X10377500Y-22015000D01*
G75*
G02*
X10315000Y-21952500I0J62500D01*
G01*
X10315000Y-21302500D01*
G75*
G02*
X10377500Y-21240000I62500J0D01*
G01*
G37*
%TD*%
%TO.C,R20*%
G36*
G01*
X51675000Y-24525000D02*
X51125000Y-24525000D01*
G75*
G02*
X50925000Y-24325000I0J200000D01*
G01*
X50925000Y-23925000D01*
G75*
G02*
X51125000Y-23725000I200000J0D01*
G01*
X51675000Y-23725000D01*
G75*
G02*
X51875000Y-23925000I0J-200000D01*
G01*
X51875000Y-24325000D01*
G75*
G02*
X51675000Y-24525000I-200000J0D01*
G01*
G37*
G36*
G01*
X51675000Y-26175000D02*
X51125000Y-26175000D01*
G75*
G02*
X50925000Y-25975000I0J200000D01*
G01*
X50925000Y-25575000D01*
G75*
G02*
X51125000Y-25375000I200000J0D01*
G01*
X51675000Y-25375000D01*
G75*
G02*
X51875000Y-25575000I0J-200000D01*
G01*
X51875000Y-25975000D01*
G75*
G02*
X51675000Y-26175000I-200000J0D01*
G01*
G37*
%TD*%
%TO.C,R19*%
G36*
G01*
X53175000Y-24525000D02*
X52625000Y-24525000D01*
G75*
G02*
X52425000Y-24325000I0J200000D01*
G01*
X52425000Y-23925000D01*
G75*
G02*
X52625000Y-23725000I200000J0D01*
G01*
X53175000Y-23725000D01*
G75*
G02*
X53375000Y-23925000I0J-200000D01*
G01*
X53375000Y-24325000D01*
G75*
G02*
X53175000Y-24525000I-200000J0D01*
G01*
G37*
G36*
G01*
X53175000Y-26175000D02*
X52625000Y-26175000D01*
G75*
G02*
X52425000Y-25975000I0J200000D01*
G01*
X52425000Y-25575000D01*
G75*
G02*
X52625000Y-25375000I200000J0D01*
G01*
X53175000Y-25375000D01*
G75*
G02*
X53375000Y-25575000I0J-200000D01*
G01*
X53375000Y-25975000D01*
G75*
G02*
X53175000Y-26175000I-200000J0D01*
G01*
G37*
%TD*%
%TO.C,R18*%
G36*
G01*
X55625000Y-10125000D02*
X56175000Y-10125000D01*
G75*
G02*
X56375000Y-10325000I0J-200000D01*
G01*
X56375000Y-10725000D01*
G75*
G02*
X56175000Y-10925000I-200000J0D01*
G01*
X55625000Y-10925000D01*
G75*
G02*
X55425000Y-10725000I0J200000D01*
G01*
X55425000Y-10325000D01*
G75*
G02*
X55625000Y-10125000I200000J0D01*
G01*
G37*
G36*
G01*
X55625000Y-8475000D02*
X56175000Y-8475000D01*
G75*
G02*
X56375000Y-8675000I0J-200000D01*
G01*
X56375000Y-9075000D01*
G75*
G02*
X56175000Y-9275000I-200000J0D01*
G01*
X55625000Y-9275000D01*
G75*
G02*
X55425000Y-9075000I0J200000D01*
G01*
X55425000Y-8675000D01*
G75*
G02*
X55625000Y-8475000I200000J0D01*
G01*
G37*
%TD*%
%TO.C,R17*%
G36*
G01*
X68525000Y-30025000D02*
X69075000Y-30025000D01*
G75*
G02*
X69275000Y-30225000I0J-200000D01*
G01*
X69275000Y-30625000D01*
G75*
G02*
X69075000Y-30825000I-200000J0D01*
G01*
X68525000Y-30825000D01*
G75*
G02*
X68325000Y-30625000I0J200000D01*
G01*
X68325000Y-30225000D01*
G75*
G02*
X68525000Y-30025000I200000J0D01*
G01*
G37*
G36*
G01*
X68525000Y-28375000D02*
X69075000Y-28375000D01*
G75*
G02*
X69275000Y-28575000I0J-200000D01*
G01*
X69275000Y-28975000D01*
G75*
G02*
X69075000Y-29175000I-200000J0D01*
G01*
X68525000Y-29175000D01*
G75*
G02*
X68325000Y-28975000I0J200000D01*
G01*
X68325000Y-28575000D01*
G75*
G02*
X68525000Y-28375000I200000J0D01*
G01*
G37*
%TD*%
%TO.C,R16*%
G36*
G01*
X54825000Y-12925000D02*
X54825000Y-13475000D01*
G75*
G02*
X54625000Y-13675000I-200000J0D01*
G01*
X54225000Y-13675000D01*
G75*
G02*
X54025000Y-13475000I0J200000D01*
G01*
X54025000Y-12925000D01*
G75*
G02*
X54225000Y-12725000I200000J0D01*
G01*
X54625000Y-12725000D01*
G75*
G02*
X54825000Y-12925000I0J-200000D01*
G01*
G37*
G36*
G01*
X56475000Y-12925000D02*
X56475000Y-13475000D01*
G75*
G02*
X56275000Y-13675000I-200000J0D01*
G01*
X55875000Y-13675000D01*
G75*
G02*
X55675000Y-13475000I0J200000D01*
G01*
X55675000Y-12925000D01*
G75*
G02*
X55875000Y-12725000I200000J0D01*
G01*
X56275000Y-12725000D01*
G75*
G02*
X56475000Y-12925000I0J-200000D01*
G01*
G37*
%TD*%
%TO.C,R15*%
G36*
G01*
X10525000Y-17475000D02*
X10525000Y-16925000D01*
G75*
G02*
X10725000Y-16725000I200000J0D01*
G01*
X11125000Y-16725000D01*
G75*
G02*
X11325000Y-16925000I0J-200000D01*
G01*
X11325000Y-17475000D01*
G75*
G02*
X11125000Y-17675000I-200000J0D01*
G01*
X10725000Y-17675000D01*
G75*
G02*
X10525000Y-17475000I0J200000D01*
G01*
G37*
G36*
G01*
X8875000Y-17475000D02*
X8875000Y-16925000D01*
G75*
G02*
X9075000Y-16725000I200000J0D01*
G01*
X9475000Y-16725000D01*
G75*
G02*
X9675000Y-16925000I0J-200000D01*
G01*
X9675000Y-17475000D01*
G75*
G02*
X9475000Y-17675000I-200000J0D01*
G01*
X9075000Y-17675000D01*
G75*
G02*
X8875000Y-17475000I0J200000D01*
G01*
G37*
%TD*%
%TO.C,R14*%
G36*
G01*
X9675000Y-15425000D02*
X9675000Y-15975000D01*
G75*
G02*
X9475000Y-16175000I-200000J0D01*
G01*
X9075000Y-16175000D01*
G75*
G02*
X8875000Y-15975000I0J200000D01*
G01*
X8875000Y-15425000D01*
G75*
G02*
X9075000Y-15225000I200000J0D01*
G01*
X9475000Y-15225000D01*
G75*
G02*
X9675000Y-15425000I0J-200000D01*
G01*
G37*
G36*
G01*
X11325000Y-15425000D02*
X11325000Y-15975000D01*
G75*
G02*
X11125000Y-16175000I-200000J0D01*
G01*
X10725000Y-16175000D01*
G75*
G02*
X10525000Y-15975000I0J200000D01*
G01*
X10525000Y-15425000D01*
G75*
G02*
X10725000Y-15225000I200000J0D01*
G01*
X11125000Y-15225000D01*
G75*
G02*
X11325000Y-15425000I0J-200000D01*
G01*
G37*
%TD*%
%TO.C,R9*%
G36*
G01*
X5325000Y-31675000D02*
X5325000Y-31125000D01*
G75*
G02*
X5525000Y-30925000I200000J0D01*
G01*
X5925000Y-30925000D01*
G75*
G02*
X6125000Y-31125000I0J-200000D01*
G01*
X6125000Y-31675000D01*
G75*
G02*
X5925000Y-31875000I-200000J0D01*
G01*
X5525000Y-31875000D01*
G75*
G02*
X5325000Y-31675000I0J200000D01*
G01*
G37*
G36*
G01*
X3675000Y-31675000D02*
X3675000Y-31125000D01*
G75*
G02*
X3875000Y-30925000I200000J0D01*
G01*
X4275000Y-30925000D01*
G75*
G02*
X4475000Y-31125000I0J-200000D01*
G01*
X4475000Y-31675000D01*
G75*
G02*
X4275000Y-31875000I-200000J0D01*
G01*
X3875000Y-31875000D01*
G75*
G02*
X3675000Y-31675000I0J200000D01*
G01*
G37*
%TD*%
%TO.C,R8*%
G36*
G01*
X2325000Y-31675000D02*
X2325000Y-31125000D01*
G75*
G02*
X2525000Y-30925000I200000J0D01*
G01*
X2925000Y-30925000D01*
G75*
G02*
X3125000Y-31125000I0J-200000D01*
G01*
X3125000Y-31675000D01*
G75*
G02*
X2925000Y-31875000I-200000J0D01*
G01*
X2525000Y-31875000D01*
G75*
G02*
X2325000Y-31675000I0J200000D01*
G01*
G37*
G36*
G01*
X675000Y-31675000D02*
X675000Y-31125000D01*
G75*
G02*
X875000Y-30925000I200000J0D01*
G01*
X1275000Y-30925000D01*
G75*
G02*
X1475000Y-31125000I0J-200000D01*
G01*
X1475000Y-31675000D01*
G75*
G02*
X1275000Y-31875000I-200000J0D01*
G01*
X875000Y-31875000D01*
G75*
G02*
X675000Y-31675000I0J200000D01*
G01*
G37*
%TD*%
%TO.C,R6*%
G36*
G01*
X2325000Y-30175000D02*
X2325000Y-29625000D01*
G75*
G02*
X2525000Y-29425000I200000J0D01*
G01*
X2925000Y-29425000D01*
G75*
G02*
X3125000Y-29625000I0J-200000D01*
G01*
X3125000Y-30175000D01*
G75*
G02*
X2925000Y-30375000I-200000J0D01*
G01*
X2525000Y-30375000D01*
G75*
G02*
X2325000Y-30175000I0J200000D01*
G01*
G37*
G36*
G01*
X675000Y-30175000D02*
X675000Y-29625000D01*
G75*
G02*
X875000Y-29425000I200000J0D01*
G01*
X1275000Y-29425000D01*
G75*
G02*
X1475000Y-29625000I0J-200000D01*
G01*
X1475000Y-30175000D01*
G75*
G02*
X1275000Y-30375000I-200000J0D01*
G01*
X875000Y-30375000D01*
G75*
G02*
X675000Y-30175000I0J200000D01*
G01*
G37*
%TD*%
%TO.C,R5*%
G36*
G01*
X5325000Y-8875000D02*
X5325000Y-8325000D01*
G75*
G02*
X5525000Y-8125000I200000J0D01*
G01*
X5925000Y-8125000D01*
G75*
G02*
X6125000Y-8325000I0J-200000D01*
G01*
X6125000Y-8875000D01*
G75*
G02*
X5925000Y-9075000I-200000J0D01*
G01*
X5525000Y-9075000D01*
G75*
G02*
X5325000Y-8875000I0J200000D01*
G01*
G37*
G36*
G01*
X3675000Y-8875000D02*
X3675000Y-8325000D01*
G75*
G02*
X3875000Y-8125000I200000J0D01*
G01*
X4275000Y-8125000D01*
G75*
G02*
X4475000Y-8325000I0J-200000D01*
G01*
X4475000Y-8875000D01*
G75*
G02*
X4275000Y-9075000I-200000J0D01*
G01*
X3875000Y-9075000D01*
G75*
G02*
X3675000Y-8875000I0J200000D01*
G01*
G37*
%TD*%
%TO.C,R4*%
G36*
G01*
X2325000Y-8875000D02*
X2325000Y-8325000D01*
G75*
G02*
X2525000Y-8125000I200000J0D01*
G01*
X2925000Y-8125000D01*
G75*
G02*
X3125000Y-8325000I0J-200000D01*
G01*
X3125000Y-8875000D01*
G75*
G02*
X2925000Y-9075000I-200000J0D01*
G01*
X2525000Y-9075000D01*
G75*
G02*
X2325000Y-8875000I0J200000D01*
G01*
G37*
G36*
G01*
X675000Y-8875000D02*
X675000Y-8325000D01*
G75*
G02*
X875000Y-8125000I200000J0D01*
G01*
X1275000Y-8125000D01*
G75*
G02*
X1475000Y-8325000I0J-200000D01*
G01*
X1475000Y-8875000D01*
G75*
G02*
X1275000Y-9075000I-200000J0D01*
G01*
X875000Y-9075000D01*
G75*
G02*
X675000Y-8875000I0J200000D01*
G01*
G37*
%TD*%
%TO.C,R3*%
G36*
G01*
X2325000Y-10375000D02*
X2325000Y-9825000D01*
G75*
G02*
X2525000Y-9625000I200000J0D01*
G01*
X2925000Y-9625000D01*
G75*
G02*
X3125000Y-9825000I0J-200000D01*
G01*
X3125000Y-10375000D01*
G75*
G02*
X2925000Y-10575000I-200000J0D01*
G01*
X2525000Y-10575000D01*
G75*
G02*
X2325000Y-10375000I0J200000D01*
G01*
G37*
G36*
G01*
X675000Y-10375000D02*
X675000Y-9825000D01*
G75*
G02*
X875000Y-9625000I200000J0D01*
G01*
X1275000Y-9625000D01*
G75*
G02*
X1475000Y-9825000I0J-200000D01*
G01*
X1475000Y-10375000D01*
G75*
G02*
X1275000Y-10575000I-200000J0D01*
G01*
X875000Y-10575000D01*
G75*
G02*
X675000Y-10375000I0J200000D01*
G01*
G37*
%TD*%
D38*
%TO.C,L2*%
X15400000Y-23050000D03*
X12600000Y-23050000D03*
%TD*%
%TO.C,C40*%
G36*
G01*
X52630000Y-18750000D02*
X52970000Y-18750000D01*
G75*
G02*
X53110000Y-18890000I0J-140000D01*
G01*
X53110000Y-19170000D01*
G75*
G02*
X52970000Y-19310000I-140000J0D01*
G01*
X52630000Y-19310000D01*
G75*
G02*
X52490000Y-19170000I0J140000D01*
G01*
X52490000Y-18890000D01*
G75*
G02*
X52630000Y-18750000I140000J0D01*
G01*
G37*
G36*
G01*
X52630000Y-17790000D02*
X52970000Y-17790000D01*
G75*
G02*
X53110000Y-17930000I0J-140000D01*
G01*
X53110000Y-18210000D01*
G75*
G02*
X52970000Y-18350000I-140000J0D01*
G01*
X52630000Y-18350000D01*
G75*
G02*
X52490000Y-18210000I0J140000D01*
G01*
X52490000Y-17930000D01*
G75*
G02*
X52630000Y-17790000I140000J0D01*
G01*
G37*
%TD*%
%TO.C,C39*%
G36*
G01*
X49280000Y-19750000D02*
X49620000Y-19750000D01*
G75*
G02*
X49760000Y-19890000I0J-140000D01*
G01*
X49760000Y-20170000D01*
G75*
G02*
X49620000Y-20310000I-140000J0D01*
G01*
X49280000Y-20310000D01*
G75*
G02*
X49140000Y-20170000I0J140000D01*
G01*
X49140000Y-19890000D01*
G75*
G02*
X49280000Y-19750000I140000J0D01*
G01*
G37*
G36*
G01*
X49280000Y-18790000D02*
X49620000Y-18790000D01*
G75*
G02*
X49760000Y-18930000I0J-140000D01*
G01*
X49760000Y-19210000D01*
G75*
G02*
X49620000Y-19350000I-140000J0D01*
G01*
X49280000Y-19350000D01*
G75*
G02*
X49140000Y-19210000I0J140000D01*
G01*
X49140000Y-18930000D01*
G75*
G02*
X49280000Y-18790000I140000J0D01*
G01*
G37*
%TD*%
%TO.C,C38*%
G36*
G01*
X26530000Y-24650000D02*
X26870000Y-24650000D01*
G75*
G02*
X27010000Y-24790000I0J-140000D01*
G01*
X27010000Y-25070000D01*
G75*
G02*
X26870000Y-25210000I-140000J0D01*
G01*
X26530000Y-25210000D01*
G75*
G02*
X26390000Y-25070000I0J140000D01*
G01*
X26390000Y-24790000D01*
G75*
G02*
X26530000Y-24650000I140000J0D01*
G01*
G37*
G36*
G01*
X26530000Y-23690000D02*
X26870000Y-23690000D01*
G75*
G02*
X27010000Y-23830000I0J-140000D01*
G01*
X27010000Y-24110000D01*
G75*
G02*
X26870000Y-24250000I-140000J0D01*
G01*
X26530000Y-24250000D01*
G75*
G02*
X26390000Y-24110000I0J140000D01*
G01*
X26390000Y-23830000D01*
G75*
G02*
X26530000Y-23690000I140000J0D01*
G01*
G37*
%TD*%
%TO.C,C37*%
G36*
G01*
X51100000Y-19170000D02*
X51100000Y-18830000D01*
G75*
G02*
X51240000Y-18690000I140000J0D01*
G01*
X51520000Y-18690000D01*
G75*
G02*
X51660000Y-18830000I0J-140000D01*
G01*
X51660000Y-19170000D01*
G75*
G02*
X51520000Y-19310000I-140000J0D01*
G01*
X51240000Y-19310000D01*
G75*
G02*
X51100000Y-19170000I0J140000D01*
G01*
G37*
G36*
G01*
X50140000Y-19170000D02*
X50140000Y-18830000D01*
G75*
G02*
X50280000Y-18690000I140000J0D01*
G01*
X50560000Y-18690000D01*
G75*
G02*
X50700000Y-18830000I0J-140000D01*
G01*
X50700000Y-19170000D01*
G75*
G02*
X50560000Y-19310000I-140000J0D01*
G01*
X50280000Y-19310000D01*
G75*
G02*
X50140000Y-19170000I0J140000D01*
G01*
G37*
%TD*%
%TO.C,C36*%
G36*
G01*
X51125000Y-18000000D02*
X51125000Y-17500000D01*
G75*
G02*
X51350000Y-17275000I225000J0D01*
G01*
X51800000Y-17275000D01*
G75*
G02*
X52025000Y-17500000I0J-225000D01*
G01*
X52025000Y-18000000D01*
G75*
G02*
X51800000Y-18225000I-225000J0D01*
G01*
X51350000Y-18225000D01*
G75*
G02*
X51125000Y-18000000I0J225000D01*
G01*
G37*
G36*
G01*
X49575000Y-18000000D02*
X49575000Y-17500000D01*
G75*
G02*
X49800000Y-17275000I225000J0D01*
G01*
X50250000Y-17275000D01*
G75*
G02*
X50475000Y-17500000I0J-225000D01*
G01*
X50475000Y-18000000D01*
G75*
G02*
X50250000Y-18225000I-225000J0D01*
G01*
X49800000Y-18225000D01*
G75*
G02*
X49575000Y-18000000I0J225000D01*
G01*
G37*
%TD*%
%TO.C,C35*%
G36*
G01*
X36100000Y-9230000D02*
X36100000Y-9570000D01*
G75*
G02*
X35960000Y-9710000I-140000J0D01*
G01*
X35680000Y-9710000D01*
G75*
G02*
X35540000Y-9570000I0J140000D01*
G01*
X35540000Y-9230000D01*
G75*
G02*
X35680000Y-9090000I140000J0D01*
G01*
X35960000Y-9090000D01*
G75*
G02*
X36100000Y-9230000I0J-140000D01*
G01*
G37*
G36*
G01*
X37060000Y-9230000D02*
X37060000Y-9570000D01*
G75*
G02*
X36920000Y-9710000I-140000J0D01*
G01*
X36640000Y-9710000D01*
G75*
G02*
X36500000Y-9570000I0J140000D01*
G01*
X36500000Y-9230000D01*
G75*
G02*
X36640000Y-9090000I140000J0D01*
G01*
X36920000Y-9090000D01*
G75*
G02*
X37060000Y-9230000I0J-140000D01*
G01*
G37*
%TD*%
%TO.C,C34*%
G36*
G01*
X48870000Y-12600000D02*
X48530000Y-12600000D01*
G75*
G02*
X48390000Y-12460000I0J140000D01*
G01*
X48390000Y-12180000D01*
G75*
G02*
X48530000Y-12040000I140000J0D01*
G01*
X48870000Y-12040000D01*
G75*
G02*
X49010000Y-12180000I0J-140000D01*
G01*
X49010000Y-12460000D01*
G75*
G02*
X48870000Y-12600000I-140000J0D01*
G01*
G37*
G36*
G01*
X48870000Y-13560000D02*
X48530000Y-13560000D01*
G75*
G02*
X48390000Y-13420000I0J140000D01*
G01*
X48390000Y-13140000D01*
G75*
G02*
X48530000Y-13000000I140000J0D01*
G01*
X48870000Y-13000000D01*
G75*
G02*
X49010000Y-13140000I0J-140000D01*
G01*
X49010000Y-13420000D01*
G75*
G02*
X48870000Y-13560000I-140000J0D01*
G01*
G37*
%TD*%
%TO.C,C33*%
G36*
G01*
X48870000Y-24300000D02*
X48530000Y-24300000D01*
G75*
G02*
X48390000Y-24160000I0J140000D01*
G01*
X48390000Y-23880000D01*
G75*
G02*
X48530000Y-23740000I140000J0D01*
G01*
X48870000Y-23740000D01*
G75*
G02*
X49010000Y-23880000I0J-140000D01*
G01*
X49010000Y-24160000D01*
G75*
G02*
X48870000Y-24300000I-140000J0D01*
G01*
G37*
G36*
G01*
X48870000Y-25260000D02*
X48530000Y-25260000D01*
G75*
G02*
X48390000Y-25120000I0J140000D01*
G01*
X48390000Y-24840000D01*
G75*
G02*
X48530000Y-24700000I140000J0D01*
G01*
X48870000Y-24700000D01*
G75*
G02*
X49010000Y-24840000I0J-140000D01*
G01*
X49010000Y-25120000D01*
G75*
G02*
X48870000Y-25260000I-140000J0D01*
G01*
G37*
%TD*%
%TO.C,C32*%
G36*
G01*
X39400000Y-27970000D02*
X39400000Y-27630000D01*
G75*
G02*
X39540000Y-27490000I140000J0D01*
G01*
X39820000Y-27490000D01*
G75*
G02*
X39960000Y-27630000I0J-140000D01*
G01*
X39960000Y-27970000D01*
G75*
G02*
X39820000Y-28110000I-140000J0D01*
G01*
X39540000Y-28110000D01*
G75*
G02*
X39400000Y-27970000I0J140000D01*
G01*
G37*
G36*
G01*
X38440000Y-27970000D02*
X38440000Y-27630000D01*
G75*
G02*
X38580000Y-27490000I140000J0D01*
G01*
X38860000Y-27490000D01*
G75*
G02*
X39000000Y-27630000I0J-140000D01*
G01*
X39000000Y-27970000D01*
G75*
G02*
X38860000Y-28110000I-140000J0D01*
G01*
X38580000Y-28110000D01*
G75*
G02*
X38440000Y-27970000I0J140000D01*
G01*
G37*
%TD*%
%TO.C,C31*%
G36*
G01*
X32100000Y-26570000D02*
X32100000Y-26230000D01*
G75*
G02*
X32240000Y-26090000I140000J0D01*
G01*
X32520000Y-26090000D01*
G75*
G02*
X32660000Y-26230000I0J-140000D01*
G01*
X32660000Y-26570000D01*
G75*
G02*
X32520000Y-26710000I-140000J0D01*
G01*
X32240000Y-26710000D01*
G75*
G02*
X32100000Y-26570000I0J140000D01*
G01*
G37*
G36*
G01*
X31140000Y-26570000D02*
X31140000Y-26230000D01*
G75*
G02*
X31280000Y-26090000I140000J0D01*
G01*
X31560000Y-26090000D01*
G75*
G02*
X31700000Y-26230000I0J-140000D01*
G01*
X31700000Y-26570000D01*
G75*
G02*
X31560000Y-26710000I-140000J0D01*
G01*
X31280000Y-26710000D01*
G75*
G02*
X31140000Y-26570000I0J140000D01*
G01*
G37*
%TD*%
%TO.C,C29*%
G36*
G01*
X29625000Y-15900000D02*
X29625000Y-15400000D01*
G75*
G02*
X29850000Y-15175000I225000J0D01*
G01*
X30300000Y-15175000D01*
G75*
G02*
X30525000Y-15400000I0J-225000D01*
G01*
X30525000Y-15900000D01*
G75*
G02*
X30300000Y-16125000I-225000J0D01*
G01*
X29850000Y-16125000D01*
G75*
G02*
X29625000Y-15900000I0J225000D01*
G01*
G37*
G36*
G01*
X28075000Y-15900000D02*
X28075000Y-15400000D01*
G75*
G02*
X28300000Y-15175000I225000J0D01*
G01*
X28750000Y-15175000D01*
G75*
G02*
X28975000Y-15400000I0J-225000D01*
G01*
X28975000Y-15900000D01*
G75*
G02*
X28750000Y-16125000I-225000J0D01*
G01*
X28300000Y-16125000D01*
G75*
G02*
X28075000Y-15900000I0J225000D01*
G01*
G37*
%TD*%
%TO.C,C28*%
G36*
G01*
X29625000Y-19250000D02*
X29625000Y-18750000D01*
G75*
G02*
X29850000Y-18525000I225000J0D01*
G01*
X30300000Y-18525000D01*
G75*
G02*
X30525000Y-18750000I0J-225000D01*
G01*
X30525000Y-19250000D01*
G75*
G02*
X30300000Y-19475000I-225000J0D01*
G01*
X29850000Y-19475000D01*
G75*
G02*
X29625000Y-19250000I0J225000D01*
G01*
G37*
G36*
G01*
X28075000Y-19250000D02*
X28075000Y-18750000D01*
G75*
G02*
X28300000Y-18525000I225000J0D01*
G01*
X28750000Y-18525000D01*
G75*
G02*
X28975000Y-18750000I0J-225000D01*
G01*
X28975000Y-19250000D01*
G75*
G02*
X28750000Y-19475000I-225000J0D01*
G01*
X28300000Y-19475000D01*
G75*
G02*
X28075000Y-19250000I0J225000D01*
G01*
G37*
%TD*%
%TO.C,C27*%
G36*
G01*
X50570000Y-9450000D02*
X50230000Y-9450000D01*
G75*
G02*
X50090000Y-9310000I0J140000D01*
G01*
X50090000Y-9030000D01*
G75*
G02*
X50230000Y-8890000I140000J0D01*
G01*
X50570000Y-8890000D01*
G75*
G02*
X50710000Y-9030000I0J-140000D01*
G01*
X50710000Y-9310000D01*
G75*
G02*
X50570000Y-9450000I-140000J0D01*
G01*
G37*
G36*
G01*
X50570000Y-10410000D02*
X50230000Y-10410000D01*
G75*
G02*
X50090000Y-10270000I0J140000D01*
G01*
X50090000Y-9990000D01*
G75*
G02*
X50230000Y-9850000I140000J0D01*
G01*
X50570000Y-9850000D01*
G75*
G02*
X50710000Y-9990000I0J-140000D01*
G01*
X50710000Y-10270000D01*
G75*
G02*
X50570000Y-10410000I-140000J0D01*
G01*
G37*
%TD*%
%TO.C,C26*%
G36*
G01*
X63470000Y-29350000D02*
X63130000Y-29350000D01*
G75*
G02*
X62990000Y-29210000I0J140000D01*
G01*
X62990000Y-28930000D01*
G75*
G02*
X63130000Y-28790000I140000J0D01*
G01*
X63470000Y-28790000D01*
G75*
G02*
X63610000Y-28930000I0J-140000D01*
G01*
X63610000Y-29210000D01*
G75*
G02*
X63470000Y-29350000I-140000J0D01*
G01*
G37*
G36*
G01*
X63470000Y-30310000D02*
X63130000Y-30310000D01*
G75*
G02*
X62990000Y-30170000I0J140000D01*
G01*
X62990000Y-29890000D01*
G75*
G02*
X63130000Y-29750000I140000J0D01*
G01*
X63470000Y-29750000D01*
G75*
G02*
X63610000Y-29890000I0J-140000D01*
G01*
X63610000Y-30170000D01*
G75*
G02*
X63470000Y-30310000I-140000J0D01*
G01*
G37*
%TD*%
%TO.C,C25*%
G36*
G01*
X30050000Y-17970000D02*
X30050000Y-17630000D01*
G75*
G02*
X30190000Y-17490000I140000J0D01*
G01*
X30470000Y-17490000D01*
G75*
G02*
X30610000Y-17630000I0J-140000D01*
G01*
X30610000Y-17970000D01*
G75*
G02*
X30470000Y-18110000I-140000J0D01*
G01*
X30190000Y-18110000D01*
G75*
G02*
X30050000Y-17970000I0J140000D01*
G01*
G37*
G36*
G01*
X29090000Y-17970000D02*
X29090000Y-17630000D01*
G75*
G02*
X29230000Y-17490000I140000J0D01*
G01*
X29510000Y-17490000D01*
G75*
G02*
X29650000Y-17630000I0J-140000D01*
G01*
X29650000Y-17970000D01*
G75*
G02*
X29510000Y-18110000I-140000J0D01*
G01*
X29230000Y-18110000D01*
G75*
G02*
X29090000Y-17970000I0J140000D01*
G01*
G37*
%TD*%
%TO.C,C23*%
G36*
G01*
X21280000Y-9800000D02*
X21620000Y-9800000D01*
G75*
G02*
X21760000Y-9940000I0J-140000D01*
G01*
X21760000Y-10220000D01*
G75*
G02*
X21620000Y-10360000I-140000J0D01*
G01*
X21280000Y-10360000D01*
G75*
G02*
X21140000Y-10220000I0J140000D01*
G01*
X21140000Y-9940000D01*
G75*
G02*
X21280000Y-9800000I140000J0D01*
G01*
G37*
G36*
G01*
X21280000Y-8840000D02*
X21620000Y-8840000D01*
G75*
G02*
X21760000Y-8980000I0J-140000D01*
G01*
X21760000Y-9260000D01*
G75*
G02*
X21620000Y-9400000I-140000J0D01*
G01*
X21280000Y-9400000D01*
G75*
G02*
X21140000Y-9260000I0J140000D01*
G01*
X21140000Y-8980000D01*
G75*
G02*
X21280000Y-8840000I140000J0D01*
G01*
G37*
%TD*%
%TO.C,C22*%
G36*
G01*
X53900000Y-11780000D02*
X53900000Y-12120000D01*
G75*
G02*
X53760000Y-12260000I-140000J0D01*
G01*
X53480000Y-12260000D01*
G75*
G02*
X53340000Y-12120000I0J140000D01*
G01*
X53340000Y-11780000D01*
G75*
G02*
X53480000Y-11640000I140000J0D01*
G01*
X53760000Y-11640000D01*
G75*
G02*
X53900000Y-11780000I0J-140000D01*
G01*
G37*
G36*
G01*
X54860000Y-11780000D02*
X54860000Y-12120000D01*
G75*
G02*
X54720000Y-12260000I-140000J0D01*
G01*
X54440000Y-12260000D01*
G75*
G02*
X54300000Y-12120000I0J140000D01*
G01*
X54300000Y-11780000D01*
G75*
G02*
X54440000Y-11640000I140000J0D01*
G01*
X54720000Y-11640000D01*
G75*
G02*
X54860000Y-11780000I0J-140000D01*
G01*
G37*
%TD*%
%TO.C,C21*%
G36*
G01*
X66750000Y-31680000D02*
X66750000Y-32020000D01*
G75*
G02*
X66610000Y-32160000I-140000J0D01*
G01*
X66330000Y-32160000D01*
G75*
G02*
X66190000Y-32020000I0J140000D01*
G01*
X66190000Y-31680000D01*
G75*
G02*
X66330000Y-31540000I140000J0D01*
G01*
X66610000Y-31540000D01*
G75*
G02*
X66750000Y-31680000I0J-140000D01*
G01*
G37*
G36*
G01*
X67710000Y-31680000D02*
X67710000Y-32020000D01*
G75*
G02*
X67570000Y-32160000I-140000J0D01*
G01*
X67290000Y-32160000D01*
G75*
G02*
X67150000Y-32020000I0J140000D01*
G01*
X67150000Y-31680000D01*
G75*
G02*
X67290000Y-31540000I140000J0D01*
G01*
X67570000Y-31540000D01*
G75*
G02*
X67710000Y-31680000I0J-140000D01*
G01*
G37*
%TD*%
%TO.C,C20*%
G36*
G01*
X10550000Y-13775000D02*
X11050000Y-13775000D01*
G75*
G02*
X11275000Y-14000000I0J-225000D01*
G01*
X11275000Y-14450000D01*
G75*
G02*
X11050000Y-14675000I-225000J0D01*
G01*
X10550000Y-14675000D01*
G75*
G02*
X10325000Y-14450000I0J225000D01*
G01*
X10325000Y-14000000D01*
G75*
G02*
X10550000Y-13775000I225000J0D01*
G01*
G37*
G36*
G01*
X10550000Y-12225000D02*
X11050000Y-12225000D01*
G75*
G02*
X11275000Y-12450000I0J-225000D01*
G01*
X11275000Y-12900000D01*
G75*
G02*
X11050000Y-13125000I-225000J0D01*
G01*
X10550000Y-13125000D01*
G75*
G02*
X10325000Y-12900000I0J225000D01*
G01*
X10325000Y-12450000D01*
G75*
G02*
X10550000Y-12225000I225000J0D01*
G01*
G37*
%TD*%
%TO.C,C19*%
G36*
G01*
X14325000Y-18300000D02*
X14325000Y-18800000D01*
G75*
G02*
X14100000Y-19025000I-225000J0D01*
G01*
X13650000Y-19025000D01*
G75*
G02*
X13425000Y-18800000I0J225000D01*
G01*
X13425000Y-18300000D01*
G75*
G02*
X13650000Y-18075000I225000J0D01*
G01*
X14100000Y-18075000D01*
G75*
G02*
X14325000Y-18300000I0J-225000D01*
G01*
G37*
G36*
G01*
X15875000Y-18300000D02*
X15875000Y-18800000D01*
G75*
G02*
X15650000Y-19025000I-225000J0D01*
G01*
X15200000Y-19025000D01*
G75*
G02*
X14975000Y-18800000I0J225000D01*
G01*
X14975000Y-18300000D01*
G75*
G02*
X15200000Y-18075000I225000J0D01*
G01*
X15650000Y-18075000D01*
G75*
G02*
X15875000Y-18300000I0J-225000D01*
G01*
G37*
%TD*%
%TO.C,C18*%
G36*
G01*
X14325000Y-19800000D02*
X14325000Y-20300000D01*
G75*
G02*
X14100000Y-20525000I-225000J0D01*
G01*
X13650000Y-20525000D01*
G75*
G02*
X13425000Y-20300000I0J225000D01*
G01*
X13425000Y-19800000D01*
G75*
G02*
X13650000Y-19575000I225000J0D01*
G01*
X14100000Y-19575000D01*
G75*
G02*
X14325000Y-19800000I0J-225000D01*
G01*
G37*
G36*
G01*
X15875000Y-19800000D02*
X15875000Y-20300000D01*
G75*
G02*
X15650000Y-20525000I-225000J0D01*
G01*
X15200000Y-20525000D01*
G75*
G02*
X14975000Y-20300000I0J225000D01*
G01*
X14975000Y-19800000D01*
G75*
G02*
X15200000Y-19575000I225000J0D01*
G01*
X15650000Y-19575000D01*
G75*
G02*
X15875000Y-19800000I0J-225000D01*
G01*
G37*
%TD*%
%TO.C,C17*%
G36*
G01*
X10150000Y-25920000D02*
X10150000Y-25580000D01*
G75*
G02*
X10290000Y-25440000I140000J0D01*
G01*
X10570000Y-25440000D01*
G75*
G02*
X10710000Y-25580000I0J-140000D01*
G01*
X10710000Y-25920000D01*
G75*
G02*
X10570000Y-26060000I-140000J0D01*
G01*
X10290000Y-26060000D01*
G75*
G02*
X10150000Y-25920000I0J140000D01*
G01*
G37*
G36*
G01*
X9190000Y-25920000D02*
X9190000Y-25580000D01*
G75*
G02*
X9330000Y-25440000I140000J0D01*
G01*
X9610000Y-25440000D01*
G75*
G02*
X9750000Y-25580000I0J-140000D01*
G01*
X9750000Y-25920000D01*
G75*
G02*
X9610000Y-26060000I-140000J0D01*
G01*
X9330000Y-26060000D01*
G75*
G02*
X9190000Y-25920000I0J140000D01*
G01*
G37*
%TD*%
%TO.C,C16*%
G36*
G01*
X15500000Y-13775000D02*
X16000000Y-13775000D01*
G75*
G02*
X16225000Y-14000000I0J-225000D01*
G01*
X16225000Y-14450000D01*
G75*
G02*
X16000000Y-14675000I-225000J0D01*
G01*
X15500000Y-14675000D01*
G75*
G02*
X15275000Y-14450000I0J225000D01*
G01*
X15275000Y-14000000D01*
G75*
G02*
X15500000Y-13775000I225000J0D01*
G01*
G37*
G36*
G01*
X15500000Y-12225000D02*
X16000000Y-12225000D01*
G75*
G02*
X16225000Y-12450000I0J-225000D01*
G01*
X16225000Y-12900000D01*
G75*
G02*
X16000000Y-13125000I-225000J0D01*
G01*
X15500000Y-13125000D01*
G75*
G02*
X15275000Y-12900000I0J225000D01*
G01*
X15275000Y-12450000D01*
G75*
G02*
X15500000Y-12225000I225000J0D01*
G01*
G37*
%TD*%
%TO.C,C12*%
G36*
G01*
X10400000Y-20670000D02*
X10400000Y-20330000D01*
G75*
G02*
X10540000Y-20190000I140000J0D01*
G01*
X10820000Y-20190000D01*
G75*
G02*
X10960000Y-20330000I0J-140000D01*
G01*
X10960000Y-20670000D01*
G75*
G02*
X10820000Y-20810000I-140000J0D01*
G01*
X10540000Y-20810000D01*
G75*
G02*
X10400000Y-20670000I0J140000D01*
G01*
G37*
G36*
G01*
X9440000Y-20670000D02*
X9440000Y-20330000D01*
G75*
G02*
X9580000Y-20190000I140000J0D01*
G01*
X9860000Y-20190000D01*
G75*
G02*
X10000000Y-20330000I0J-140000D01*
G01*
X10000000Y-20670000D01*
G75*
G02*
X9860000Y-20810000I-140000J0D01*
G01*
X9580000Y-20810000D01*
G75*
G02*
X9440000Y-20670000I0J140000D01*
G01*
G37*
%TD*%
M02*
